<?xml version="1.0" standalone="no"?>
<!DOCTYPE svg PUBLIC "-//W3C//DTD SVG 1.1//EN" "http://www.w3.org/Graphics/SVG/1.1/DTD/svg11.dtd" >
<svg xmlns="http://www.w3.org/2000/svg">
<metadata>Generated by IcoMoon</metadata>
<defs>
<font id="iconfont" horiz-adv-x="1024">
<font-face units-per-em="1024" ascent="960" descent="-64" />
<missing-glyph horiz-adv-x="1024" />
<glyph unicode="&#x20;" horiz-adv-x="512" d="" />
<glyph unicode="&#xe900;" glyph-name="arrow-down" d="M812.202 647.73c14.707 24.044 7.814 56.27-35.857 56.27h-733.258c-47.78 0-49.151-30.043-35.857-56.27l370.78-442.077c17.514-18.203 45.897-18.203 63.41 0l370.78 442.077z" />
<glyph unicode="&#xe901;" glyph-name="help" d="M511.884 959.724c-282.508 0-511.523-229.015-511.523-511.522s229.016-511.524 511.523-511.524c282.509 0 511.523 229.017 511.523 511.524s-229.015 511.522-511.523 511.522zM543.39 202.601c-10.291-9.131-22.165-13.7-35.624-13.7-13.93 0-26.090 4.509-36.482 13.529-10.389 9.021-15.572 21.636-15.572 37.852 0 14.384 5.025 26.491 15.059 36.307 10.047 9.819 22.379 14.727 36.995 14.727 14.384 0 26.489-4.908 36.307-14.727 9.819-9.817 14.728-21.922 14.728-36.307 0-15.985-5.137-28.546-15.413-37.682l0.001 0.002zM671.326 519.791c-7.875-14.614-17.253-27.261-28.086-37.852-10.845-10.619-30.314-28.486-58.402-53.605-7.764-7.080-13.988-13.303-18.669-18.669s-8.164-10.275-10.447-14.728-4.053-8.905-5.31-13.358c-1.256-4.425-3.139-12.245-5.652-23.465-4.339-23.749-17.911-35.624-40.761-35.624-11.891 0-21.866 3.881-29.973 11.647-8.12 7.763-12.159 19.295-12.159 34.593 0 19.183 2.969 35.796 8.891 49.842 5.938 14.044 13.815 26.375 23.635 36.994s23.066 23.234 39.734 37.852c14.615 12.787 25.191 22.434 31.699 28.943 6.494 6.507 11.976 13.758 16.443 21.752 4.453 7.993 6.666 16.64 6.666 26.034 0 18.267-6.795 33.682-20.382 46.243-13.587 12.532-31.112 18.812-52.579 18.812-25.12 0-43.615-6.339-55.478-19.011-11.887-12.674-21.922-31.314-30.156-56.006-7.779-25.776-22.508-38.677-44.201-38.677-12.788 0-23.565 4.508-32.354 13.529s-13.173 18.785-13.159 29.287c0 21.695 6.951 43.675 20.897 65.939 13.915 22.264 34.239 40.707 60.957 55.321s57.874 21.92 93.513 21.92c33.11 0 62.328-6.107 87.688-18.325 25.349-12.215 44.929-28.828 58.745-49.84 13.819-21.007 20.726-43.843 20.726-68.506 0.002-19.413-3.939-36.426-11.819-51.041l-0.005-0.001z" />
<glyph unicode="&#xe903;" glyph-name="arrow-up" d="M12.414 230.444l450 543.333c9.63 10.37 21.481 15.556 35.556 15.556s25.926-5.185 35.556-15.556l447.778-543.333c13.333-14.815 15.926-31.667 7.778-50.556s-22.592-28.333-43.333-28.333h-897.778c-20.741 0-35.185 9.444-43.333 28.333s-5.556 35.741 7.778 50.556z" />
<glyph unicode="&#xe904;" glyph-name="error" d="M0 448c0 282.752 229.184 512 512 512 282.752 0 512-229.248 512-512s-229.248-512-512-512c-282.816 0-512 229.248-512 512zM596.16 274.048c24.768-24.768 65.024-24.768 89.792 0 24.832 24.768 24.832 65.024 0 89.792l-83.712 83.712 83.712 83.776c24.768 24.768 24.768 64.96 0 89.792-24.832 24.832-65.024 24.832-89.792 0l-83.712-83.712-84.032 83.968c-24.768 24.832-65.024 24.832-89.792 0-24.832-24.768-24.832-64.96 0-89.792l83.968-83.968-83.968-84.032c-24.832-24.832-24.832-65.024 0-89.792 24.768-24.832 65.024-24.832 89.792 0l84.032 83.968 83.712-83.712z" />
<glyph unicode="&#xe905;" glyph-name="logo" d="M80.337 379.831c9.182 0 20.726 0.525 32.012 1.575l-2.365-18.369c-16.79-2.621-36.994-4.197-51.163-4.197-46.706 0-65.599 8.397-56.677 81.078 9.708 78.453 18.369 99.443 81.078 99.443 5.511 0 28.862-1.575 48.016-3.936l-2.625-20.465c-0.521 0-1.046 0.261-1.575 0.261-32.008 2.361-40.666 2.886-44.077 2.886-42.245 0-45.92-14.693-53.792-79.503-7.086-56.677 7.086-58.774 51.166-58.774zM142.259 361.202l21.255 174.75h26.237l-18.89-154.285h76.878l-2.361-20.465zM377.885 448.576c7.611 60.349 5.772 71.632-30.176 71.632-36.469 0-39.619-12.597-46.963-71.632-7.086-58.513-6.825-71.107 29.387-71.107 35.684 0 40.405 10.497 47.752 71.107zM275.030 448.576c9.182 73.207 19.154 90.261 75.042 90.261 57.199 0 62.449-17.844 53.527-90.261-8.922-73.207-18.89-89.736-75.828-89.736-56.942 0-61.399 18.629-52.742 89.736zM465.003 361.202l18.89 154.546h-52.738l2.361 20.204h131.981l-2.361-20.204h-52.742l-18.89-154.546zM589.641 423.126h58.774l-18.629 89.997-40.145-89.997zM536.114 361.202l77.664 174.75h37.787l35.944-174.75h-25.712l-8.657 40.145h-72.946l-17.579-40.145h-26.501zM735.858 421.421h56.707v5.306h-56.707v-5.306zM775.216 392.459c7.075-7.887 14.101-16.25 21.080-25.090l-5.377-4.014c-1.72 2.365-3.441 4.673-5.161 6.915-17.162-0.596-31.64-1.273-43.447-2.041-2.055-0.238-3.988-0.622-5.809-1.147l-2.863 6.595c2.863 1.385 5.254 3.228 7.168 5.522 5.135 6.211 9.879 12.951 14.232 20.216h-25.849v5.302h70.116v-5.302h-36.488c-7.172-10.683-13.36-19.117-18.573-25.306 16.298 0.406 28.858 0.789 37.679 1.143-3.802 4.852-7.611 9.54-11.439 14.057l4.733 3.15zM882.681 400.202c5.258 5.544 9.991 11.662 14.198 18.354l5.373-3.441c-5.399-7.406-10.445-13.621-15.129-18.641l-4.442 3.727zM846.189 415.115l4.517 3.158c5.355-6.263 9.964-12.31 13.837-18.142l-5.090-3.798c-3.683 5.973-8.103 12.232-13.264 18.782zM839.308 393.034h31.759v29.968h-28.534v5.518h63.376v-5.518h-28.821v-29.968h31.975v-5.518h-31.975v-26.382h-6.021v26.382h-31.759v5.518zM964.481 371.383h39.433v17.348h-39.433v-17.348zM1009.791 394.038v-32.548h-5.876v4.729h-39.433v-4.729h-5.876v32.548h51.185zM999.253 422.501c7.503-6.978 14.604-14.124 21.295-21.437l-5.094-4.23c-1.91 2.245-3.847 4.453-5.805 6.628-21.459-0.905-37.854-1.683-49.182-2.327-2.629-0.19-5.161-0.573-7.596-1.147l-2.368 6.166c2.201 0.812 4.182 1.936 5.95 3.366 8.173 6.691 15.654 14.41 22.439 23.157l5.377-3.299c-7.168-8.408-14.649-15.889-22.439-22.435 14.649 0.451 29.059 0.979 43.228 1.575-3.273 3.56-6.595 7.027-9.961 10.396l4.156 3.586z" />
<glyph unicode="&#xe906;" glyph-name="modify" d="M924 72h-824c-19.9 0-36-16.1-36-36s16.1-36 36-36h824c19.9 0 36 16.1 36 36s-16.1 36-36 36zM296 190l235.5 99.7c3.8 1.6 7.2 3.9 10.2 6.8l397.2 397.2c28.1 28.1 28.3 73.9 0.2 102l-79.3 79.3c-28.1 28.1-73.9 27.9-102-0.2l-397.2-397.2c-2.9-2.9-5.2-6.4-6.8-10.2l-99.8-235.4c-5.6-13.2-1.7-26.5 6.8-35.1s21.9-12.5 35.2-6.9zM808.7 823.9l0.2 0.2 79.2-79.2-62.2-62.2-79.2 79.2 62 62zM417 432.2l278.8 278.8 79.2-79.2-278.8-278.8-137.4-58.2 58.2 137.4z" />
<glyph unicode="&#xe907;" d="M128 960h768c70.692 0 128-57.308 128-128v-768c0-70.692-57.308-128-128-128h-768c-70.692 0-128 57.308-128 128v768c0 70.692 57.308 128 128 128z" />
<glyph unicode="&#xe908;" d="M768 576c-35.357 0-64 28.644-64 64s28.643 64 64 64c35.331 0 64-28.669 64-64 0-35.356-28.669-64-64-64v0z" />
<glyph unicode="&#xe909;" d="M812.777 192h-665.675c-18.201 0-24.516 15.635-14.038 30.008l192.399 265.508c10.478 14.318 29.54 16.895 42.373 4.455l38.899-37.209c12.804-12.468 32.784-11.348 44.353 2.214l93.358 109.33c11.569 13.505 29.483 12.833 39.846-1.597l242.753-342.56c10.363-14.458 3.933-30.148-14.268-30.148v0z" />
<glyph unicode="&#xe90a;" glyph-name="fiance" d="M113.778 846.221v-853.341c-0.005-31.416-25.473-56.881-56.889-56.881s-56.884 25.465-56.889 56.881v910.23c0 31.419 25.47 56.889 56.889 56.889h910.222c31.419 0 56.889-25.47 56.889-56.889v-682.672c-0.005-31.416-25.473-56.881-56.889-56.881s-56.884 25.465-56.889 56.881v625.783h-796.444zM227.556 220.444c0.005 31.415 25.473 56.88 56.889 56.88s56.884-25.465 56.889-56.88v-227.556c-0.005-31.415-25.473-56.88-56.889-56.88s-56.884 25.465-56.889 56.88v227.556zM455.111 220.444c0 31.419 25.47 56.889 56.889 56.889s56.889-25.47 56.889-56.889v-227.556c0-31.419-25.47-56.889-56.889-56.889s-56.889 25.47-56.889 56.889v227.556zM682.667 220.444c0.005 31.415 25.473 56.88 56.889 56.88s56.884-25.465 56.889-56.88v-227.556c-0.005-31.415-25.473-56.88-56.889-56.88s-56.884 25.465-56.889 56.88v227.556zM284.444 618.667c-20.327-0.003-39.11 10.839-49.274 28.442s-10.164 39.291 0 56.894c10.164 17.603 28.948 28.445 49.274 28.442h455.111c31.415-0.005 56.88-25.473 56.88-56.889s-25.465-56.884-56.88-56.889h-455.111zM284.444 391.111c-31.419 0-56.889 25.47-56.889 56.889s25.47 56.889 56.889 56.889h227.556c31.419 0 56.889-25.47 56.889-56.889s-25.47-56.889-56.889-56.889h-227.556z" />
<glyph unicode="&#xe90b;" glyph-name="person" d="M819.4 166c-16.8 39.7-40.9 75.4-71.5 106s-66.3 54.7-106 71.5c-13.5 5.7-27.4 10.5-41.4 14.4 39.6 13.4 75.9 35.8 106.3 66.2 52 52 80.7 121.2 80.7 194.7s-28.6 142.7-80.7 194.7c-52 52-121.2 80.7-194.7 80.7s-142.7-28.6-194.7-80.7c-52-52-80.7-121.2-80.7-194.7s28.6-142.7 80.7-194.7c30.4-30.4 66.7-52.8 106.3-66.2-14-3.9-27.9-8.6-41.4-14.4-39.7-16.8-75.4-40.9-106-71.5s-54.7-66.3-71.5-106c-17.4-41.2-26.2-84.8-26.2-129.9 0-19.9 16.1-36 36-36s36 16.1 36 36c0 69.9 27.2 135.6 76.6 185s115.1 76.6 185 76.6c69.9 0 135.6-27.2 185-76.6s76.6-115.1 76.6-185c0-19.9 16.1-36 36-36s36 16.1 36 36c-0.2 45.1-9 88.7-26.4 129.9zM308.6 618.8c0 112.2 91.3 203.4 203.4 203.4s203.4-91.2 203.4-203.4c0-112.2-91.2-203.4-203.4-203.4s-203.4 91.3-203.4 203.4z" />
<glyph unicode="&#xe90c;" glyph-name="management" d="M737.678 703.899l-280.029 160.046c-16.315 8.817-26.572 25.781-26.801 44.324s9.606 35.755 25.698 44.972c16.092 9.217 35.914 8.993 51.793-0.587l357.701-204.401c15.909-9.101 25.726-26.026 25.726-44.355s-9.816-35.254-25.726-44.355l-357.701-204.401c-15.706-8.972-34.985-8.972-50.691 0l-357.701 204.401c-15.909 9.101-25.726 26.026-25.726 44.355s9.816 35.254 25.726 44.355l197.502 112.88c15.875 9.348 35.554 9.426 51.503 0.206s25.701-26.313 25.522-44.735c-0.179-18.422-10.26-35.322-26.385-44.232l-119.779-68.474 254.683-145.533 254.683 145.533zM815.35 492.753c15.879 9.579 35.702 9.804 51.794 0.587s25.927-26.429 25.698-44.972c-0.229-18.543-10.486-35.507-26.801-44.324l-357.701-204.401c-15.706-8.972-34.985-8.972-50.691 0l-357.701 204.401c-16.315 8.817-26.572 25.781-26.801 44.324s9.606 35.755 25.698 44.972c16.092 9.217 35.914 8.993 51.794-0.587l332.356-189.888 332.356 189.888zM815.35 237.252c15.879 9.579 35.702 9.804 51.794 0.587s25.927-26.429 25.698-44.972c-0.229-18.543-10.486-35.507-26.801-44.324l-357.701-204.401c-15.706-8.972-34.985-8.972-50.691 0l-357.701 204.401c-16.315 8.817-26.572 25.781-26.801 44.324s9.606 35.755 25.698 44.972c16.092 9.217 35.914 8.993 51.794-0.587l332.356-189.888 332.356 189.888z" />
<glyph unicode="&#xe90d;" glyph-name="warn" d="M512-64c-282.77 0-512 229.23-512 512s229.23 512 512 512c282.77 0 512-229.23 512-512s-229.23-512-512-512zM463.399 779.583c-0.267 0-0.534-0.007-0.801-0.022-8.067-0.442-14.248-7.341-13.805-15.408l23.064-420.48c0.425-7.756 6.839-13.827 14.607-13.827h51.094c7.759 0 14.168 6.058 14.605 13.805l23.717 420.48c0.015 0.274 0.023 0.549 0.023 0.824 0 8.079-6.549 14.629-14.629 14.629h-97.875zM487.244 131.886h49.512c8.079 0 14.629 6.549 14.629 14.629v72.461c0 8.079-6.549 14.629-14.629 14.629h-49.512c-8.079 0-14.629-6.549-14.629-14.629v-72.461c0-8.079 6.549-14.629 14.629-14.629z" />
<glyph unicode="&#xe90e;" glyph-name="notice" d="M512 960c-282.8 0-512-229.2-512-512s229.2-512 512-512c282.8 0 512 229.2 512 512s-229.2 512-512 512v0zM548.571 813.714c20.229 0 36.571-16.343 36.571-36.571s-16.343-36.571-36.571-36.571c-20.229 0-36.571 16.343-36.571 36.571s16.343 36.571 36.571 36.571v0zM620.718 155.429h-217.436c-20.15 0-36.429 13.93-36.429 31.173s16.279 31.173 36.429 31.173h70.581v314.165h-71.72c-20.15 0-36.429 13.93-36.429 31.173s16.279 31.173 36.429 31.173h108.149c20.15 0 36.429-13.93 36.429-31.173v-345.338h73.997c20.15 0 37.568-13.93 37.568-31.173s-17.418-31.173-37.568-31.173v0z" />
<glyph unicode="&#xe90f;" glyph-name="delete" d="M182.099 8.135c-2.424 2.032-4.891 4.673-7.314 7.314 2.683-2.641 4.891-5.283 7.314-7.314zM172.431 13.604c-2.503 2.353-4.974 4.706-7.314 7.314 2.308-2.609 4.811-4.961 7.314-7.314zM950.391 756.563c-6.797 6.797-16.68 10.586-26.27 10.586h-184.375v57.441c0 38.848-31.562 70.41-70.41 70.41h-314.727c-38.848 0-70.41-31.563-70.41-70.41v-57.441h-185.313c-19.668 0-35.762-15.977-35.762-35.762s15.977-35.762 35.762-35.762h31.563v-622.363c0-38.848 31.562-70.41 70.41-70.41h632.266c38.848 0 70.41 31.563 70.41 70.41v622.363h20.566c19.668 0 36.758 15.977 36.758 35.762 0.020 9.492-3.672 18.379-10.469 25.176zM354.492 824.375h314.531v-57.832h-314.531v57.832zM833.027 73.359h-632.168v622.266h632.148v-622.266h0.020zM511.504 575.781c-19.883 0-35.957-16.074-35.957-35.957v-333.613c0-19.883 16.074-35.957 35.957-35.957s35.957 16.074 35.957 35.957v333.613c0 19.863-16.074 35.957-35.957 35.957zM316.738 575.781c-19.883 0-35.957-16.074-35.957-35.957v-333.613c0-19.883 16.074-35.957 35.957-35.957s35.957 16.074 35.957 35.957v333.613c0 19.863-16.094 35.957-35.957 35.957zM704.277 575.781c-19.883 0-35.957-16.074-35.957-35.957v-333.613c0-19.883 16.074-35.957 35.957-35.957s35.957 16.074 35.957 35.957v333.613c0 19.863-16.074 35.957-35.957 35.957z" />
<glyph unicode="&#xe910;" glyph-name="avator" d="M0 448c0 282.77 229.168 512 512 512 282.77 0 512-229.168 512-512 0-282.77-229.168-512-512-512-282.77 0-512 229.168-512 512zM768 267.093c0 62.293-72.533 99.84-140.8 128.853-2.56 1.707-4.267 2.56-6.827 3.413-5.12 2.56-11.093 2.56-16.213-0.853-27.307-17.067-58.88-27.307-92.16-27.307s-64.853 10.24-92.16 28.16c-5.12 3.413-11.093 3.413-16.213 0.853-2.56-1.707-4.267-2.56-6.827-3.413-68.267-29.867-140.8-67.413-140.8-129.707v-23.893c0-28.16 23.040-51.2 51.2-51.2h409.6c28.16 0 51.2 23.040 51.2 51.2v23.893zM512 704c-70.221 0-127.147-63.036-127.147-140.8s56.926-140.8 127.147-140.8c70.221 0 127.147 63.036 127.147 140.8s-56.926 140.8-127.147 140.8z" />
<glyph unicode="&#xe911;" glyph-name="pull-down" d="M517.198 351.912l362.277 362.277c28.433 28.433 75.473 27.491 103.202-0.238 28.564-28.564 29.496-73.943 0.238-103.202l-414.235-414.235c-14.176-14.176-32.977-21.050-51.704-20.943-18.075-0.729-36.671 6.354-51.26 20.943l-414.235 414.235c-28.433 28.433-27.491 75.473 0.238 103.202 28.564 28.564 73.943 29.496 103.202 0.238l362.277-362.277z" />
<glyph unicode="&#xe912;" glyph-name="login-out" d="M960.325 419.314c0.251 0.29 0.507 0.577 0.75 0.874 0.28 0.34 0.545 0.688 0.814 1.035 0.175 0.227 0.354 0.449 0.525 0.678 0.285 0.384 0.557 0.774 0.828 1.165 0.142 0.205 0.288 0.406 0.426 0.612 0.271 0.404 0.529 0.814 0.784 1.223 0.129 0.207 0.262 0.412 0.388 0.621 0.243 0.403 0.473 0.811 0.703 1.221 0.129 0.232 0.262 0.462 0.388 0.696 0.206 0.385 0.402 0.774 0.596 1.165 0.136 0.271 0.273 0.541 0.403 0.815 0.169 0.357 0.328 0.717 0.486 1.076 0.141 0.319 0.283 0.637 0.417 0.96 0.132 0.32 0.256 0.642 0.38 0.964 0.143 0.37 0.287 0.74 0.42 1.113 0.101 0.284 0.195 0.569 0.289 0.855 0.139 0.416 0.276 0.831 0.404 1.252 0.076 0.252 0.145 0.507 0.216 0.76 0.128 0.453 0.255 0.907 0.369 1.367 0.058 0.233 0.107 0.468 0.163 0.703 0.11 0.475 0.219 0.951 0.314 1.431 0.047 0.241 0.086 0.481 0.129 0.723 0.084 0.472 0.17 0.943 0.239 1.42 0.041 0.28 0.070 0.561 0.107 0.842 0.056 0.438 0.115 0.874 0.157 1.317 0.037 0.372 0.058 0.747 0.086 1.121 0.026 0.353 0.059 0.705 0.076 1.061 0.073 1.475 0.073 2.952 0 4.427-0.018 0.356-0.050 0.708-0.076 1.061-0.027 0.374-0.049 0.749-0.086 1.121-0.044 0.442-0.102 0.878-0.157 1.316-0.036 0.28-0.065 0.562-0.107 0.842-0.073 0.474-0.152 0.947-0.239 1.419-0.044 0.242-0.082 0.484-0.129 0.724-0.097 0.479-0.201 0.956-0.314 1.431-0.054 0.234-0.104 0.47-0.163 0.703-0.115 0.458-0.238 0.913-0.369 1.367-0.072 0.253-0.139 0.508-0.216 0.76-0.128 0.419-0.263 0.835-0.403 1.25-0.096 0.285-0.188 0.572-0.289 0.856-0.133 0.374-0.276 0.744-0.42 1.113-0.124 0.322-0.248 0.645-0.38 0.965-0.135 0.322-0.274 0.642-0.417 0.96-0.159 0.36-0.317 0.72-0.486 1.076-0.131 0.274-0.267 0.544-0.403 0.814-0.195 0.39-0.39 0.781-0.598 1.167-0.125 0.233-0.257 0.463-0.386 0.694-0.229 0.41-0.459 0.819-0.703 1.222-0.125 0.209-0.259 0.413-0.386 0.619-0.257 0.411-0.514 0.822-0.786 1.226-0.137 0.205-0.283 0.404-0.424 0.607-0.271 0.394-0.548 0.784-0.832 1.17-0.169 0.228-0.347 0.448-0.521 0.672-0.27 0.349-0.536 0.699-0.819 1.042-0.241 0.293-0.494 0.577-0.742 0.864-0.228 0.264-0.449 0.531-0.685 0.791-0.488 0.539-0.989 1.066-1.502 1.58l-0.026 0.027-208.126 208.13c-17.491 17.491-45.851 17.491-63.343 0s-17.491-45.851 0-63.343l131.665-131.666h-390.959c-24.737 0-44.79-20.053-44.79-44.79s20.053-44.79 44.79-44.79h390.959l-131.666-131.666c-17.491-17.491-17.491-45.851 0-63.343s45.851-17.491 63.343 0l208.128 208.128c0.522 0.523 1.032 1.059 1.528 1.607 0.233 0.255 0.452 0.52 0.677 0.779zM431.984 35.953h-285.379v824.144h285.379c27.564 0 49.909 22.345 49.909 49.909s-22.345 49.909-49.909 49.909h-335.288c-27.564 0-49.909-22.345-49.909-49.909v-923.963c0-27.564 22.345-49.909 49.909-49.909h335.288c27.564 0 49.909 22.345 49.909 49.909s-22.345 49.909-49.909 49.909z" />
<glyph unicode="&#xe913;" glyph-name="issue" d="M511.884 959.724c-282.508 0-511.523-229.015-511.523-511.522s229.016-511.524 511.523-511.524c282.509 0 511.523 229.017 511.523 511.524s-229.015 511.522-511.523 511.522zM543.39 202.601c-10.291-9.131-22.165-13.7-35.624-13.7-13.93 0-26.090 4.509-36.482 13.529-10.389 9.021-15.572 21.636-15.572 37.852 0 14.384 5.025 26.491 15.059 36.307 10.047 9.819 22.379 14.727 36.995 14.727 14.384 0 26.489-4.908 36.307-14.727 9.819-9.817 14.728-21.922 14.728-36.307 0-15.985-5.137-28.546-15.413-37.682l0.001 0.002zM671.326 519.791c-7.875-14.614-17.253-27.261-28.086-37.852-10.845-10.619-30.314-28.486-58.402-53.605-7.764-7.080-13.988-13.303-18.669-18.669s-8.164-10.275-10.447-14.728-4.053-8.905-5.31-13.358c-1.256-4.425-3.139-12.245-5.652-23.465-4.339-23.749-17.911-35.624-40.761-35.624-11.891 0-21.866 3.881-29.973 11.647-8.12 7.763-12.159 19.295-12.159 34.593 0 19.183 2.969 35.796 8.891 49.842 5.938 14.044 13.815 26.375 23.635 36.994s23.066 23.234 39.734 37.852c14.615 12.787 25.191 22.434 31.699 28.943 6.494 6.507 11.976 13.758 16.443 21.752 4.453 7.993 6.666 16.64 6.666 26.034 0 18.267-6.795 33.682-20.382 46.243-13.587 12.532-31.112 18.812-52.579 18.812-25.12 0-43.615-6.339-55.478-19.011-11.887-12.674-21.922-31.314-30.156-56.006-7.779-25.776-22.508-38.677-44.201-38.677-12.788 0-23.565 4.508-32.354 13.529s-13.173 18.785-13.159 29.287c0 21.695 6.951 43.675 20.897 65.939 13.915 22.264 34.239 40.707 60.957 55.321s57.874 21.92 93.513 21.92c33.11 0 62.328-6.107 87.688-18.325 25.349-12.215 44.929-28.828 58.745-49.84 13.819-21.007 20.726-43.843 20.726-68.506 0.002-19.413-3.939-36.426-11.819-51.041l-0.005-0.001z" />
<glyph unicode="&#xe914;" glyph-name="add" d="M836.8 182.533h-145.6v145.6c0 18.573-15.027 33.6-33.6 33.6s-33.6-15.027-33.6-33.6v-145.6h-138.133c-18.573 0-33.6-15.027-33.6-33.6s15.027-33.6 33.6-33.6h138.133v-138.133c0-18.573 15.027-33.6 33.6-33.6s33.6 15.027 33.6 33.6v138.133h145.6c18.573 0 33.6 15.027 33.6 33.6s-15.027 33.6-33.6 33.6zM850.893 617.653l-259.467 261.8c-4.2 4.2-8.867 7.747-13.813 10.733-1.307 0.747-2.707 1.493-4.107 2.147-0.84 0.467-1.773 0.84-2.613 1.213-8.493 3.733-17.733 5.787-27.16 5.787h-322.933c-37.147 0-67.2-30.053-67.2-67.2v-821.333c0-37.147 30.053-67.2 67.2-67.2h197.867c18.573 0 33.6 15.027 33.6 33.6s-15.027 33.6-33.6 33.6h-197.867v821.333h291.2v-224c0-37.147 30.053-67.2 67.2-67.2h224v-145.6c0-18.573 15.027-33.6 33.6-33.6s33.6 15.027 33.6 33.6v175c0 17.733-7 34.72-19.507 47.32zM579.2 608.133v188.16l186.48-188.16h-186.48z" />
<glyph unicode="&#xe915;" glyph-name="reset-pass" d="M819.231 724.692c-18.631 45.985-45.015 87.123-78.292 122.123-33.277 35.323-72.262 63.215-115.877 82.815-45.123 20.138-92.831 30.369-141.938 30.369s-96.923-10.231-142.046-30.477c-43.615-19.492-82.492-47.385-115.877-82.708-33.6-35.431-59.985-76.569-78.292-122.123-19.062-47.169-28.754-97.354-28.754-149.262v-506.369c0-41.354 31.985-74.954 71.4-74.954h586.815c39.415 0 71.4 33.6 71.185 74.954v446.923l0.215 20.569v38.877c0.215 51.692-9.477 101.877-28.538 149.262zM369.723 861.785h0.215l1.4 0.538c35.215 16.046 72.8 24.123 111.677 24.123 38.662 0 76.354-8.185 111.785-23.908 34.354-15.508 65.585-37.8 92.615-66.123 27.246-28.754 48.462-62.031 63.431-99.077 15.615-38.554 23.477-79.477 23.477-121.908v-31.877h-582.615v31.985c0 42 7.862 82.923 23.477 121.8 15.077 37.369 36.508 70.646 63.431 98.969 26.815 28.215 57.292 50.292 91.108 65.477zM774.646 470.215v-401.046c0-0.646-0.108-1.185-0.215-1.508h-582.508c-0.108 0.323-0.215 0.862-0.215 1.508v401.046h582.938zM449.092 304.8v-96.385c0-18.846 15.292-34.138 34.138-34.138s34.138 15.292 34.138 34.138v96.6c18.092 11.631 28.969 31.231 28.969 52.985 0 34.892-28.323 63.215-63.215 63.215s-63.215-28.323-63.215-63.215c0.108-21.431 11.2-41.677 29.185-53.2z" />
<glyph unicode="&#xe916;" glyph-name="mind" d="M512-64c-282.77 0-512 229.23-512 512s229.23 512 512 512c282.77 0 512-229.23 512-512s-229.23-512-512-512zM463.399 779.583c-0.267 0-0.534-0.007-0.801-0.022-8.067-0.442-14.248-7.341-13.805-15.408l23.064-420.48c0.425-7.756 6.839-13.827 14.607-13.827h51.094c7.759 0 14.168 6.058 14.605 13.805l23.717 420.48c0.015 0.274 0.023 0.549 0.023 0.824 0 8.079-6.549 14.629-14.629 14.629h-97.875zM487.244 131.886h49.512c8.079 0 14.629 6.549 14.629 14.629v72.461c0 8.079-6.549 14.629-14.629 14.629h-49.512c-8.079 0-14.629-6.549-14.629-14.629v-72.461c0-8.079 6.549-14.629 14.629-14.629z" />
</font>
</defs>
</svg>
