<?xml version="1.0" standalone="no"?><!DOCTYPE svg PUBLIC "-//W3C//DTD SVG 1.1//EN" "http://www.w3.org/Graphics/SVG/1.1/DTD/svg11.dtd" ><svg xmlns="http://www.w3.org/2000/svg"><metadata></metadata><defs><font id="PingFang SC Regular; 13.0d1e3; 2017-06-09" horiz-adv-x="2327"><font-face font-family="PingFang SC Regular" font-weight="400" font-stretch="normal" units-per-em="2048" panose-1="2 11 5 4 2 2 2 2 2 4" ascent="2171" descent="-696" x-height="4" bbox="-31 -434 2306 1845" underline-thickness="119" underline-position="-307" unicode-range="U+0023-ffe5" /><missing-glyph horiz-adv-x="55"  /><glyph glyph-name="dollar" unicode="$" d="M559 1489 l0 168 l103 0 l0 -168 q180 -13 290 -105 q123 -104 154 -319 l-164 0 q-21 145 -108 217 q-65 53 -172 66 l0 -537 q92 -34 155 -57 q63 -23 96 -37 q217 -115 217 -328 q0 -215 -151 -323 q-123 -84 -317 -93 l0 -180 l-103 0 l0 180 q-204 13 -315 127 q-122 122 -144 367 l166 0 q19 -183 99 -266 q68 -72 194 -84 l0 567 q-55 22 -109 41.5 q-54 19.5 -108 38.5 q-219 109 -219 326 q0 202 145 305 q117 88 291 94 ZM662 647 l0 -530 q132 9 210 69 q91 72 91 199 q0 150 -218 233 q-21 8 -42.5 15.5 q-21.5 7.5 -40.5 13.5 ZM559 848 l0 500 q-109 -6 -176 -58 q-92 -64 -92 -200 q0 -138 217 -224 l51 -18 Z" /><glyph glyph-name="percent" unicode="%" d="M1513 801 q165 0 252 -121 q78 -106 78 -281 q0 -171 -78 -280 q-90 -119 -252 -119 q-164 0 -251 119 q-78 108 -78 280 q0 179 78 281 q84 121 251 121 ZM1337 1491 l131 0 l-819 -1520 l-133 0 l821 1520 ZM473 1462 q164 0 252 -121 q78 -105 78 -280 q0 -172 -78 -281 q-91 -118 -252 -118 q-164 0 -252 118 q-78 108 -78 281 q0 179 78 280 q85 121 252 121 ZM1513 690 q-94 0 -137 -86 q-39 -72 -39 -205 q0 -129 39 -200 q44 -88 137 -88 q91 0 138 90 q18 37 28.5 86 q10.5 49 10.5 112 q0 65 -10.5 115.5 q-10.5 50.5 -28.5 87.5 q-46 88 -138 88 ZM473 1352 q-94 0 -137 -86 q-39 -72 -39 -205 q0 -129 39 -201 q44 -88 137 -88 q91 0 137 90 q19 37 29 86.5 q10 49.5 10 112.5 q0 127 -41 203 q-42 88 -135 88 Z" /><glyph glyph-name="ampersand" unicode="&amp;" d="M625 1360 q-97 0 -146 -49 q-53 -42 -53 -129 q0 -60 66 -150 q15 -21 39.5 -50.5 q24.5 -29.5 56.5 -66.5 q18 13 43 25 q190 111 190 240 q0 77 -49 127 q-53 53 -147 53 ZM453 840 q-50 52 -82.5 92 q-32.5 40 -51.5 69 q-59 90 -59 179 q0 145 111 231 q101 80 258 80 q155 0 254 -80 q106 -81 106 -221 q0 -144 -137 -256 q-43 -28 -86.5 -56.5 q-43.5 -28.5 -87.5 -56.5 l366 -387 q79 170 95 422 l166 0 q-13 -323 -140 -549 l291 -307 l-213 0 l-170 180 q-184 -209 -475 -209 q-222 0 -362 107 q-150 116 -150 321 q0 204 190 342 l177 99 ZM592 121 q228 0 371 176 l-418 444 q-97 -60 -183 -127 q-108 -90 -108 -217 q0 -123 98 -202 q92 -74 240 -74 Z" /><glyph glyph-name="asterisk" unicode="*" d="M446 1462 l144 0 l-15 -399 l365 139 l45 -135 l-377 -113 l254 -301 l-110 -88 l-234 324 l-233 -324 l-111 88 l254 301 l-377 113 l45 135 l367 -139 l-17 399 Z" /><glyph glyph-name="plus" unicode="+" d="M551 1047 l139 0 l0 -447 l447 0 l0 -139 l-447 0 l0 -449 l-139 0 l0 449 l-449 0 l0 139 l449 0 l0 447 Z" /><glyph glyph-name="hyphen" unicode="-" d="M102 600 l1035 0 l0 -139 l-1035 0 l0 139 Z" /><glyph glyph-name="period" unicode="." d="M270 244 q52 0 88 -37 q37 -37 37 -90 q0 -51 -37 -88 q-36 -37 -88 -37 q-54 0 -88 37 q-37 37 -37 88 q0 53 37 90 q34 37 88 37 Z" /><glyph glyph-name="zero" unicode="0" d="M614 1491 q262 0 396 -231 q116 -197 116 -529 q0 -332 -116 -528 q-136 -232 -396 -232 q-262 0 -395 232 q-117 196 -117 528 q0 332 117 529 q131 231 395 231 ZM614 1348 q-197 0 -282 -211 q-62 -148 -62 -406 q0 -255 62 -405 q87 -211 282 -211 q196 0 283 211 q31 75 47.5 176.5 q16.5 101.5 16.5 228.5 q0 129 -16.5 230.5 q-16.5 101.5 -47.5 175.5 q-86 211 -283 211 Z" /><glyph glyph-name="one" unicode="1" d="M471 1462 l131 0 l0 -1462 l-168 0 l0 1257 q-135 -138 -344 -200 l0 168 q49 14 101 35.5 q52 21.5 104 52.5 q102 66 176 149 Z" /><glyph glyph-name="two" unicode="2" d="M635 1491 q202 0 334 -117 q131 -118 131 -309 q0 -188 -144 -344 q-38 -40 -113.5 -99.5 q-75.5 -59.5 -189.5 -136.5 q-279 -187 -319 -335 l768 0 l0 -150 l-975 0 q0 202 145 362 q43 50 122 115.5 q79 65.5 196 145.5 q86 61 143 106 q57 45 86 76 q113 122 113 262 q0 133 -80 207 q-80 74 -223 74 q-153 0 -232 -103 q-87 -99 -90 -293 l-168 0 q0 245 137 391 q136 148 359 148 Z" /><glyph glyph-name="three" unicode="3" d="M629 1491 q212 0 340 -107 q127 -108 127 -290 q0 -248 -240 -328 q130 -40 197 -125 q73 -86 73 -215 q0 -199 -139 -326 q-141 -129 -369 -129 q-205 0 -339 107 q-156 128 -175 375 l170 0 q7 -173 115 -263 q95 -75 229 -75 q156 0 252 90 q88 88 88 215 q0 131 -86 205 q-83 71 -237 71 l-119 0 l0 131 l113 0 q145 0 223 66 q78 68 78 190 q0 121 -76 191 q-78 72 -223 72 q-149 0 -230 -78 q-84 -79 -100 -228 l-166 0 q18 210 156 332 q128 119 338 119 Z" /><glyph glyph-name="four" unicode="4" d="M786 1462 l158 0 l0 -993 l238 0 l0 -137 l-238 0 l0 -332 l-160 0 l0 332 l-735 0 l0 160 l737 970 ZM778 1243 l-588 -774 l594 0 l0 774 l-6 0 Z" /><glyph glyph-name="five" unicode="5" d="M215 1462 l850 0 l0 -149 l-713 0 l-49 -490 l8 0 q61 73 158 111 q43 18 89.5 26.5 q46.5 8.5 96.5 8.5 q210 0 338 -131 q131 -138 131 -371 q0 -220 -157 -363 q-149 -133 -365 -133 q-194 0 -330 105 q-152 116 -168 317 l166 0 q13 -139 111 -213 q87 -65 223 -65 q153 0 254 98 q100 100 100 252 q0 173 -94 270 q-87 96 -250 96 q-105 0 -186 -45 q-87 -43 -131 -131 l-160 0 l78 807 Z" /><glyph glyph-name="six" unicode="6" d="M635 1491 q406 0 467 -391 l-166 0 q-49 250 -303 250 q-173 0 -271 -170 q-96 -157 -96 -410 q0 -6 0.5 -19.5 q0.5 -13.5 1.5 -33.5 l8 0 q57 117 158 176 q97 63 228 63 q208 0 337 -135 q127 -136 127 -348 q0 -216 -139 -358 q-143 -144 -354 -144 q-265 0 -402 199 q-127 184 -127 522 q0 353 138 570 q143 229 393 229 ZM629 817 q-145 0 -240 -98 q-94 -97 -94 -250 q0 -156 90 -252 q92 -104 244 -104 q145 0 239 100 q93 104 93 260 q0 155 -91 248 q-90 96 -241 96 Z" /><glyph glyph-name="seven" unicode="7" d="M70 1462 l960 0 l0 -137 l-538 -1325 l-179 0 l545 1309 l-788 0 l0 153 Z" /><glyph glyph-name="eight" unicode="8" d="M614 1491 q231 0 359 -119 q119 -109 119 -268 q0 -117 -56 -197 q-62 -88 -174 -127 l0 -4 q114 -28 195 -127 q86 -104 86 -246 q0 -194 -135 -311 q-143 -121 -394 -121 q-253 0 -393 121 q-135 117 -135 311 q0 142 86 246 q81 100 195 127 l0 4 q-115 39 -174 127 q-56 80 -56 197 q0 162 119 268 q128 119 358 119 ZM614 1354 q-157 0 -243 -80 q-76 -67 -76 -176 q0 -113 67 -180 q82 -82 252 -82 q167 0 252 82 q68 67 68 180 q0 106 -76 176 q-89 80 -244 80 ZM614 705 q-178 0 -272 -89 q-90 -78 -90 -213 q0 -132 90 -210 q93 -84 272 -84 q177 0 275 86 q88 81 88 208 q0 132 -88 213 q-97 89 -275 89 Z" /><glyph glyph-name="nine" unicode="9" d="M598 1491 q264 0 399 -197 q129 -184 129 -524 q0 -175 -34.5 -317 q-34.5 -142 -102.5 -252 q-149 -230 -393 -230 q-408 0 -467 391 l166 0 q46 -249 303 -249 q168 0 270 170 q97 164 97 409 q0 8 -1 21.5 q-1 13.5 -1 31.5 l-9 0 q-55 -111 -157 -176 q-102 -63 -228 -63 q-210 0 -340 139 q-125 131 -125 344 q0 219 140 359 q137 143 354 143 ZM602 1350 q-150 0 -242 -101 q-90 -99 -90 -260 q0 -158 90 -248 q90 -96 242 -96 q141 0 240 98 q94 101 94 250 q0 153 -90 252 q-92 105 -244 105 Z" /><glyph glyph-name="semicolon" unicode=";" d="M270 997 q56 0 90 -34 q35 -35 35 -91 q0 -54 -35 -92 q-39 -32 -90 -32 q-54 0 -90 32 q-35 35 -35 92 q0 59 35 91 q32 34 90 34 ZM270 244 q71 0 113 -58 q41 -56 41 -143 q0 -135 -80 -240 q-81 -99 -213 -133 l0 101 q82 28 131 90 q45 63 45 137 q-7 -3 -18 -5.5 q-11 -2.5 -27 -2.5 q-51 0 -88 37 q-37 36 -37 90 q0 59 39 92 q32 35 94 35 Z" /><glyph glyph-name="less" unicode="&lt;" d="M1137 1055 l0 -152 l-842 -375 l842 -372 l0 -154 l-1035 463 l0 129 l1035 461 Z" /><glyph glyph-name="equal" unicode="=" d="M102 809 l1035 0 l0 -137 l-1035 0 l0 137 ZM102 389 l1035 0 l0 -139 l-1035 0 l0 139 Z" /><glyph glyph-name="question" unicode="?" d="M567 1491 q201 0 316 -109 q114 -105 114 -288 q0 -136 -75 -240 q-16 -18 -58.5 -58 q-42.5 -40 -109.5 -100 q-63 -53 -95 -110 q-38 -66 -38 -152 l0 -47 l-166 0 l0 47 q0 104 39 178 q20 46 71.5 105 q51.5 59 134.5 133 q25 24 42 42.5 q17 18.5 28 31.5 q59 78 59 161 q0 123 -67 191 q-72 72 -203 72 q-151 0 -227 -101 q-66 -87 -66 -235 l-164 0 q0 214 121 344 q126 135 344 135 ZM539 244 q53 0 88 -35 q35 -35 35 -86 q0 -53 -35 -88 q-38 -35 -88 -35 q-54 0 -88 35 q-37 37 -37 88 q0 52 37 86 q31 35 88 35 Z" /><glyph glyph-name="at" unicode="@" d="M903 1491 q322 0 508 -193 q172 -175 172 -438 q0 -216 -137 -397 q-136 -170 -295 -170 q-129 0 -141 135 q-106 -139 -258 -139 q-128 0 -209 88 q-80 86 -80 219 q0 232 139 395 q134 164 318 164 q147 0 196 -154 l31 115 l133 0 l-145 -534 q-25 -89 -25 -125 q0 -51 57 -51 q95 0 191 120 q110 142 110 332 q0 218 -147 363 q-159 155 -426 155 q-284 0 -467 -186 q-180 -183 -180 -469 q0 -312 182 -479 q174 -162 473 -162 q215 0 377 78 q142 71 227 192 l144 0 q-108 -185 -310 -282 q-198 -97 -438 -97 q-367 0 -579 203 q-218 208 -218 551 q0 323 218 537 q226 229 579 229 ZM942 1026 q-135 0 -231 -127 q-105 -129 -105 -309 q0 -83 39 -131 q40 -49 117 -49 q78 0 151 61 q73 61 99 143 l45 168 q9 40 14.5 64.5 q5.5 24.5 5.5 34.5 q0 55 -35 96 q-40 49 -100 49 Z" /><glyph glyph-name="A" unicode="a" d="M575 1462 l195 0 l576 -1462 l-183 0 l-155 410 l-672 0 l-156 -410 l-180 0 l575 1462 ZM389 551 l565 0 l-276 731 l-8 0 l-281 -731 Z" /><glyph glyph-name="B" unicode="b" d="M147 1462 l654 0 q204 0 323 -98 q117 -98 117 -270 q0 -123 -65 -213 q-68 -80 -179 -117 q141 -24 224 -119 q82 -94 82 -237 q0 -215 -152 -320 q-132 -88 -354 -88 l-650 0 l0 1462 ZM315 1321 l0 -498 l445 0 q151 0 233 64 q82 66 82 190 q0 123 -80 185 q-77 59 -233 59 l-447 0 ZM315 684 l0 -543 l467 0 q77 0 137.5 15 q60.5 15 106.5 43 q109 68 109 211 q0 139 -95 208 q-86 66 -258 66 l-467 0 Z" /><glyph glyph-name="C" unicode="c" d="M778 1491 q244 0 410 -129 q166 -129 196 -348 l-161 0 q-31 158 -156 246 q-118 81 -291 81 q-255 0 -393 -178 q-129 -166 -129 -438 q0 -277 127 -434 q136 -170 391 -170 q174 0 297 92 q132 100 174 289 l162 0 q-50 -257 -229 -398 q-171 -133 -404 -133 q-340 0 -522 226 q-164 200 -164 528 q0 327 168 535 q183 231 524 231 Z" /><glyph glyph-name="D" unicode="d" d="M147 1462 l525 0 q348 0 524 -200 q164 -186 164 -531 q0 -339 -176 -530 q-186 -201 -529 -201 l-508 0 l0 1462 ZM315 1317 l0 -1172 l312 0 q284 0 430 152 q137 150 137 434 q0 294 -127 436 q-134 150 -422 150 l-330 0 Z" /><glyph glyph-name="E" unicode="e" d="M147 1462 l1037 0 l0 -145 l-869 0 l0 -490 l820 0 l0 -145 l-820 0 l0 -537 l904 0 l0 -145 l-1072 0 l0 1462 Z" /><glyph glyph-name="F" unicode="f" d="M147 1462 l979 0 l0 -145 l-811 0 l0 -492 l768 0 l0 -145 l-768 0 l0 -680 l-168 0 l0 1462 Z" /><glyph glyph-name="G" unicode="g" d="M772 1491 q276 0 436 -133 q153 -125 193 -365 l-168 0 q-34 165 -148 254 q-118 94 -313 94 q-238 0 -379 -167 q-139 -164 -139 -449 q0 -276 135 -436 q145 -170 430 -170 q60 0 117 8.5 q57 8.5 113 24.5 q53 15 99 36 q46 21 85 45 l0 373 l-459 0 l0 146 l625 0 l0 -598 q-52 -43 -116.5 -76 q-64.5 -33 -139.5 -58 q-160 -49 -340 -49 q-348 0 -539 222 q-178 205 -178 532 q0 327 176 537 q187 229 510 229 Z" /><glyph glyph-name="H" unicode="h" d="M147 1462 l168 0 l0 -635 l846 0 l0 635 l168 0 l0 -1462 l-168 0 l0 682 l-846 0 l0 -682 l-168 0 l0 1462 Z" /><glyph glyph-name="I" unicode="i" d="M160 1462 l166 0 l0 -1462 l-166 0 l0 1462 Z" /><glyph glyph-name="J" unicode="j" d="M745 1462 l168 0 l0 -995 q0 -238 -98 -361 q-110 -135 -354 -135 q-203 0 -316 113 q-114 115 -114 332 l0 51 l168 0 l0 -49 q0 -297 266 -297 q146 0 215 88 q65 84 65 264 l0 989 Z" /><glyph glyph-name="K" unicode="k" d="M1102 1462 l219 0 l-662 -626 l754 -836 l-225 0 l-645 727 l-228 -215 l0 -512 l-168 0 l0 1462 l168 0 l0 -760 l787 760 Z" /><glyph glyph-name="L" unicode="l" d="M147 1462 l166 0 l0 -1317 l846 0 l0 -145 l-1012 0 l0 1462 Z" /><glyph glyph-name="M" unicode="m" d="M147 1462 l209 0 l545 -1247 l6 0 l543 1247 l209 0 l0 -1462 l-168 0 l0 1163 l-6 0 l-506 -1163 l-152 0 l-505 1163 l-7 0 l0 -1163 l-168 0 l0 1462 Z" /><glyph glyph-name="N" unicode="n" d="M147 1462 l177 0 l827 -1190 l6 0 l0 1190 l168 0 l0 -1462 l-172 0 l-831 1202 l-7 0 l0 -1202 l-168 0 l0 1462 Z" /><glyph glyph-name="O" unicode="o" d="M786 1491 q330 0 519 -219 q180 -211 180 -543 q0 -327 -180 -539 q-192 -219 -521 -219 q-326 0 -518 219 q-180 208 -180 539 q0 333 180 541 q191 221 520 221 ZM786 1341 q-253 0 -397 -174 q-135 -166 -135 -438 q0 -270 135 -436 q141 -172 395 -172 q253 0 396 168 q137 168 137 440 q0 276 -137 445 q-141 167 -394 167 Z" /><glyph glyph-name="P" unicode="p" d="M147 1462 l598 0 q504 0 504 -430 q0 -434 -506 -434 l-428 0 l0 -598 l-168 0 l0 1462 ZM315 1317 l0 -574 l420 0 q175 0 262 72 q84 72 84 217 q0 149 -86 213 q-83 72 -260 72 l-420 0 Z" /><glyph glyph-name="Q" unicode="q" d="M786 1491 q330 0 519 -219 q180 -211 180 -543 q0 -327 -180 -539 q-9 -8 -11 -12 q43 -55 85 -113 q42 -58 83 -118 l-110 -97 q-43 62 -85 120.5 q-42 58.5 -83 113.5 q-169 -113 -400 -113 q-326 0 -518 219 q-180 208 -180 539 q0 333 180 541 q191 221 520 221 ZM786 1341 q-253 0 -397 -174 q-135 -166 -135 -438 q0 -270 135 -436 q141 -172 395 -172 q183 0 306 86 q-62 78 -123.5 150 q-61.5 72 -122.5 137 l100 96 q63 -68 126 -139 q63 -71 124 -146 q123 163 123 424 q0 276 -137 445 q-141 167 -394 167 Z" /><glyph glyph-name="R" unicode="r" d="M147 1462 l631 0 q220 0 344 -100 q131 -106 131 -307 q0 -122 -67 -217 q-72 -96 -199 -127 l0 -4 q209 -47 234 -267 l22 -225 q12 -134 78 -215 l-182 0 q-51 76 -60 195 l-18 194 q-13 131 -92 186 q-71 54 -211 54 l-443 0 l0 -629 l-168 0 l0 1462 ZM315 1317 l0 -543 l443 0 q159 0 248 76 q77 72 77 199 q0 134 -75 200 q-80 68 -250 68 l-443 0 Z" /><glyph glyph-name="S" unicode="s" d="M639 1491 q249 0 389 -113 q146 -115 168 -348 l-166 0 q-27 159 -123 236 q-96 77 -276 77 q-165 0 -254 -53 q-105 -61 -105 -186 q0 -111 125 -178 q54 -30 269 -92 q288 -86 381 -142 q182 -111 182 -309 q0 -193 -154 -303 q-155 -109 -413 -109 q-259 0 -406 111 q-172 132 -190 401 l165 0 q22 -190 134 -280 q104 -82 297 -82 q180 0 290 67 q111 68 111 185 q0 137 -145 215 q-31 18 -109 44.5 q-78 26.5 -201 61.5 q-132 40 -216 70.5 q-84 30.5 -120 48.5 q-168 98 -168 283 q0 193 162 297 q145 98 373 98 Z" /><glyph glyph-name="T" unicode="t" d="M35 1462 l1198 0 l0 -145 l-516 0 l0 -1317 l-166 0 l0 1317 l-516 0 l0 145 Z" /><glyph glyph-name="U" unicode="u" d="M147 1462 l168 0 l0 -903 q0 -217 97 -326 q102 -114 319 -114 q214 0 320 114 q96 112 96 326 l0 903 l168 0 l0 -901 q0 -284 -146 -436 q-150 -154 -438 -154 q-288 0 -436 152 q-148 153 -148 438 l0 901 Z" /><glyph glyph-name="V" unicode="v" d="M10 1462 l185 0 l456 -1280 l6 0 l457 1280 l184 0 l-540 -1462 l-207 0 l-541 1462 Z" /><glyph glyph-name="W" unicode="w" d="M10 1462 l189 0 l321 -1226 l8 0 l334 1226 l182 0 l332 -1226 l8 0 l322 1226 l188 0 l-419 -1462 l-187 0 l-332 1219 l-6 0 l-334 -1219 l-186 0 l-420 1462 Z" /><glyph glyph-name="X" unicode="x" d="M49 1462 l207 0 l395 -569 l398 569 l206 0 l-503 -702 l542 -760 l-207 0 l-436 627 l-434 -627 l-207 0 l539 760 l-500 702 Z" /><glyph glyph-name="Y" unicode="y" d="M10 1462 l203 0 l465 -712 l465 712 l203 0 l-584 -868 l0 -594 l-168 0 l0 594 l-584 868 Z" /><glyph glyph-name="Z" unicode="z" d="M113 1462 l1065 0 l0 -139 l-910 -1178 l959 0 l0 -145 l-1176 0 l0 137 l912 1180 l-850 0 l0 145 Z" /><glyph glyph-name="bracketleft" unicode="[" d="M90 1694 l502 0 l0 -138 l-350 0 l0 -1638 l350 0 l0 -137 l-502 0 l0 1913 Z" /><glyph glyph-name="backslash" unicode="\" d="M76 1679 l145 0 l727 -1884 l-147 0 l-725 1884 Z" /><glyph glyph-name="bracketright" unicode="]" d="M90 1694 l502 0 l0 -1913 l-502 0 l0 137 l350 0 l0 1638 l-350 0 l0 138 Z" /><glyph glyph-name="underscore" unicode="_" d="M0 -150 l1024 0 l0 -137 l-1024 0 l0 137 Z" /><glyph glyph-name="a" unicode="a" d="M588 1087 q226 0 336 -118 q94 -107 94 -289 l0 -680 l-154 0 l0 178 q-60 -84 -162 -141 q-118 -66 -264 -66 q-158 0 -254 80 q-98 83 -98 213 q0 182 145 273 q131 87 369 90 l254 4 l0 55 q0 266 -276 266 q-120 0 -191 -47 q-81 -48 -106 -151 l-162 12 q34 167 164 248 q116 73 305 73 ZM854 508 l-244 -4 q-356 -6 -356 -236 q0 -73 59 -121 q63 -47 160 -47 q150 0 266 99 q115 96 115 219 l0 90 Z" /><glyph glyph-name="b" unicode="b" d="M127 1491 l164 0 l0 -627 q122 223 350 223 q227 0 354 -169 q119 -157 119 -386 q0 -236 -119 -393 q-133 -168 -362 -168 q-245 0 -352 203 l0 -174 l-154 0 l0 1491 ZM606 952 q-147 0 -231 -114 q-90 -112 -90 -299 l0 -21 q0 -178 80 -289 q86 -123 247 -123 q171 0 258 125 q76 114 76 301 q0 190 -80 297 q-89 123 -260 123 Z" /><glyph glyph-name="c" unicode="c" d="M584 1087 q195 0 315 -92 q122 -94 150 -288 l-162 0 q-22 122 -99 184 q-77 59 -204 59 q-155 0 -244 -116 q-86 -114 -86 -308 q0 -197 84 -305 q84 -112 244 -112 q272 0 309 274 l164 0 q-38 -207 -158 -309 q-121 -103 -315 -103 q-239 0 -371 160 q-125 149 -125 393 q0 243 125 396 q134 167 373 167 Z" /><glyph glyph-name="d" unicode="d" d="M909 1491 l164 0 l0 -1491 l-153 0 l0 174 q-111 -203 -353 -203 q-232 0 -362 168 q-119 153 -119 393 q0 233 119 386 q127 169 354 169 q228 0 350 -223 l0 627 ZM594 952 q-176 0 -262 -123 q-78 -104 -78 -297 q0 -191 76 -301 q87 -125 258 -125 q158 0 248 123 q77 112 77 289 l0 21 q0 182 -88 299 q-87 114 -231 114 Z" /><glyph glyph-name="e" unicode="e" d="M563 1087 q256 0 385 -172 q117 -153 123 -432 l-835 0 q12 -180 96 -276 q86 -98 237 -98 q130 0 211 65 q66 54 107 166 l164 0 q-37 -152 -144 -250 q-134 -119 -338 -119 q-227 0 -364 150 q-139 151 -139 409 q0 237 133 392 q135 165 364 165 ZM567 950 q-141 0 -227 -92 q-85 -91 -100 -248 l661 0 q-31 340 -334 340 Z" /><glyph glyph-name="f" unicode="f" d="M551 1462 l203 0 l0 -141 l-183 0 q-71 0 -100 -35 q-31 -34 -31 -110 l0 -117 l299 0 l0 -137 l-299 0 l0 -922 l-164 0 l0 922 l-266 0 l0 137 l266 0 l0 121 q0 133 68 206 q70 76 207 76 Z" /><glyph glyph-name="g" unicode="g" d="M563 1087 q240 0 357 -210 l0 182 l163 0 l0 -985 q0 -508 -483 -508 q-217 0 -328 86 q-113 86 -141 258 l164 0 q18 -108 90 -158 q72 -53 215 -53 q320 0 320 352 l0 187 q-118 -213 -357 -213 q-220 0 -350 151 q-127 145 -127 377 q0 234 127 379 q128 155 350 155 ZM588 952 q-161 0 -248 -114 q-86 -105 -86 -285 q0 -169 76 -272 q87 -119 256 -119 q157 0 250 110 q86 108 86 281 q0 180 -86 285 q-91 114 -248 114 Z" /><glyph glyph-name="h" unicode="h" d="M127 1491 l164 0 l0 -606 q55 101 147 153 q86 49 193 49 q188 0 284 -108 q99 -108 99 -311 l0 -668 l-164 0 l0 643 q0 145 -70 227 q-73 80 -205 80 q-122 0 -202 -98 q-82 -97 -82 -248 l0 -604 l-164 0 l0 1491 Z" /><glyph glyph-name="i" unicode="i" d="M262 1458 q53 0 88 -35 q37 -30 37 -86 q0 -51 -37 -88 q-38 -35 -88 -35 q-50 0 -88 35 q-35 35 -35 88 q0 57 35 86 q35 35 88 35 ZM180 1059 l164 0 l0 -1059 l-164 0 l0 1059 Z" /><glyph glyph-name="j" unicode="j" d="M283 1458 q55 0 90 -35 q35 -31 35 -86 q0 -50 -35 -88 q-38 -35 -90 -35 q-50 0 -88 35 q-35 35 -35 88 q0 57 35 86 q34 35 88 35 ZM201 1059 l164 0 l0 -1182 q0 -283 -297 -283 l-99 0 l0 138 l86 0 q146 0 146 151 l0 1176 Z" /><glyph glyph-name="k" unicode="k" d="M127 1491 l164 0 l0 -924 l530 492 l217 0 l-467 -426 l512 -633 l-211 0 l-413 526 l-168 -151 l0 -375 l-164 0 l0 1491 Z" /><glyph glyph-name="l" unicode="l" d="M160 1491 l162 0 l0 -1491 l-162 0 l0 1491 Z" /><glyph glyph-name="m" unicode="m" d="M590 1087 q243 0 332 -200 q62 106 147 151 q77 49 186 49 q164 0 269 -104 q100 -110 100 -289 l0 -694 l-164 0 l0 668 q0 140 -59 209 q-60 71 -197 71 q-108 0 -174 -78 q-72 -77 -72 -206 l0 -664 l-163 0 l0 668 q0 280 -244 280 q-114 0 -186 -90 q-74 -86 -74 -213 l0 -645 l-164 0 l0 1059 l164 0 l0 -141 q118 169 299 169 Z" /><glyph glyph-name="n" unicode="n" d="M623 1087 q395 0 395 -436 l0 -651 l-164 0 l0 639 q0 309 -279 309 q-110 0 -190 -80 q-85 -85 -94 -229 l0 -639 l-164 0 l0 1059 l164 0 l0 -156 q55 89 141 135 q86 49 191 49 Z" /><glyph glyph-name="o" unicode="o" d="M600 1087 q239 0 379 -163 q135 -157 135 -396 q0 -236 -133 -391 q-144 -166 -381 -166 q-238 0 -379 166 q-135 154 -135 391 q0 239 135 396 q140 163 379 163 ZM600 950 q-170 0 -262 -129 q-84 -114 -84 -293 q0 -176 84 -290 q92 -129 262 -129 q166 0 264 129 q84 118 84 290 q0 175 -84 293 q-98 129 -264 129 Z" /><glyph glyph-name="p" unicode="p" d="M633 1087 q230 0 360 -169 q121 -155 121 -392 q0 -230 -119 -387 q-130 -168 -354 -168 q-227 0 -350 222 l0 -599 l-164 0 l0 1465 l154 0 l0 -174 q113 202 352 202 ZM612 952 q-162 0 -247 -125 q-80 -110 -80 -290 l0 -21 q0 -186 90 -297 q87 -113 231 -113 q170 0 260 119 q80 111 80 301 q0 186 -76 299 q-87 127 -258 127 Z" /><glyph glyph-name="q" unicode="q" d="M567 1087 q236 0 353 -202 l0 174 l153 0 l0 -1465 l-164 0 l0 599 q-123 -222 -350 -222 q-226 0 -356 168 q-117 154 -117 387 q0 239 119 392 q127 169 362 169 ZM588 952 q-174 0 -258 -127 q-76 -109 -76 -299 q0 -190 80 -301 q87 -119 260 -119 q141 0 231 113 q88 117 88 297 l0 21 q0 178 -77 290 q-89 125 -248 125 Z" /><glyph glyph-name="r" unicode="r" d="M592 1087 q87 0 145 -24 l0 -164 q-40 12 -79.5 17.5 q-39.5 5.5 -77.5 5.5 q-126 0 -207 -109 q-84 -102 -84 -252 l0 -561 l-162 0 l0 1059 l162 0 l0 -185 q44 94 110 146 q83 67 193 67 Z" /><glyph glyph-name="s" unicode="s" d="M502 1087 q391 0 434 -329 l-160 0 q-22 101 -82 143 q-67 49 -194 49 q-114 0 -172 -41 q-68 -40 -68 -110 q0 -70 90 -115 q29 -14 84 -31 q55 -17 135 -39 q189 -45 273 -98 q127 -80 127 -217 q0 -328 -449 -328 q-417 0 -454 367 l159 0 q18 -123 88 -180 q68 -49 203 -49 q285 0 285 180 q0 87 -101 137 q-51 24 -225 68 q-191 47 -262 94 q-121 72 -121 207 q0 133 119 213 q111 79 291 79 Z" /><glyph glyph-name="t" unicode="t" d="M410 1401 l0 -342 l262 0 l0 -137 l-262 0 l0 -674 q0 -62 22 -84 q23 -27 78 -27 l135 0 l0 -137 l-160 0 q-131 0 -186 68 q-51 60 -51 180 l0 674 l-213 0 l0 137 l213 0 l0 274 l162 68 Z" /><glyph glyph-name="u" unicode="u" d="M127 1059 l164 0 l0 -647 q0 -153 63 -226 q67 -75 209 -75 q104 0 189 82 q86 86 104 221 l0 645 l164 0 l0 -1059 l-164 0 l0 164 q-130 -193 -344 -193 q-385 0 -385 432 l0 656 Z" /><glyph glyph-name="v" unicode="v" d="M10 1059 l180 0 l304 -854 l303 854 l180 0 l-402 -1059 l-165 0 l-400 1059 Z" /><glyph glyph-name="w" unicode="w" d="M10 1059 l180 0 l261 -858 l245 858 l154 0 l246 -858 l260 858 l180 0 l-360 -1059 l-156 0 l-246 852 l-250 -852 l-153 0 l-361 1059 Z" /><glyph glyph-name="x" unicode="x" d="M55 1059 l193 0 l274 -377 l273 377 l192 0 l-375 -498 l420 -561 l-194 0 l-316 440 l-317 -440 l-195 0 l420 561 l-375 498 Z" /><glyph glyph-name="y" unicode="y" d="M10 1059 l178 0 l324 -836 l313 836 l181 0 l-580 -1465 l-178 0 l182 431 l-420 1034 Z" /><glyph glyph-name="z" unicode="z" d="M72 1059 l841 0 l0 -115 l-649 -807 l682 0 l0 -137 l-895 0 l0 119 l647 803 l-626 0 l0 137 Z" /><glyph glyph-name="braceleft" unicode="{" d="M498 1694 l141 0 l0 -129 l-115 0 q-135 0 -135 -152 l0 -426 q0 -184 -168 -250 q168 -68 168 -250 l0 -428 q0 -149 135 -149 l115 0 l0 -129 l-141 0 q-127 0 -195 80 q-65 71 -65 202 l0 418 q0 90 -39 135 q-44 51 -156 54 l0 135 q115 6 156 53 q39 46 39 135 l0 416 q0 133 65 205 q68 80 195 80 Z" /><glyph glyph-name="braceright" unicode="}" d="M43 1694 l141 0 q124 0 195 -80 q65 -75 65 -205 l0 -416 q0 -92 39 -137 q42 -45 156 -51 l0 -135 q-112 -3 -156 -54 q-39 -41 -39 -135 l0 -418 q0 -127 -65 -202 q-71 -80 -195 -80 l-141 0 l0 129 l115 0 q135 0 135 149 l0 428 q0 183 168 250 q-168 64 -168 250 l0 426 q0 152 -135 152 l-115 0 l0 129 Z" /><glyph glyph-name="asciitilde" unicode="~" d="M301 891 q99 0 231 -90 q136 -88 191 -88 q68 0 162 143 l102 -74 q-133 -200 -264 -200 q-94 0 -227 90 q-134 88 -195 88 q-73 0 -162 -142 l-102 72 q128 201 264 201 Z" /><glyph glyph-name="exclamdown" unicode="¡" d="M340 1059 q54 0 90 -33 q35 -35 35 -90 q0 -48 -35 -86 q-38 -35 -90 -35 q-51 0 -86 35 q-37 37 -37 86 q0 53 37 90 q33 33 86 33 ZM279 672 l127 0 l30 -1078 l-190 0 l33 1078 Z" /><glyph glyph-name="cent" unicode="¢" d="M629 1290 q73 0 135 -12 l76 209 l96 -35 l-74 -205 q47 -20 82 -49 q121 -90 152 -289 l-164 0 q-22 123 -98 185 q-13 9 -23 14 l-287 -782 q23 -7 49 -11 q26 -4 54 -4 q271 0 311 275 l162 0 q-37 -203 -156 -310 q-121 -102 -317 -102 q-84 0 -152 19 l-88 -238 l-96 35 l88 241 q-69 39 -123 103 q-125 149 -125 393 q0 244 127 395 q134 168 371 168 ZM430 373 l285 772 q-20 4 -41.5 6 q-21.5 2 -44.5 2 q-153 0 -242 -117 q-88 -112 -88 -307 q0 -196 82 -305 q19 -24 49 -51 Z" /><glyph glyph-name="sterling" unicode="£" d="M680 1491 q247 0 367 -172 q84 -118 90 -287 l-168 0 q-12 155 -76 232 q-73 82 -215 82 q-139 0 -215 -82 q-72 -75 -72 -197 q0 -48 10 -118.5 q10 -70.5 31 -166.5 q0 -4 2 -8 l420 0 l0 -102 l-399 0 q18 -108 18 -172 q0 -209 -151 -355 l776 0 l0 -145 l-979 0 l0 145 q198 125 198 340 q0 70 -24 187 l-213 0 l0 102 l190 0 q-24 98 -35.5 172 q-11.5 74 -11.5 125 q0 182 121 297 q123 123 336 123 Z" /><glyph glyph-name="currency" unicode="¤" d="M172 1262 l152 -150 q124 100 292 100 q161 0 289 -100 l152 150 l82 -82 l-150 -148 q101 -132 101 -295 q0 -159 -103 -293 l152 -147 l-82 -82 l-150 150 q-131 -101 -291 -101 q-161 0 -292 101 l-150 -150 l-82 82 l150 149 q-101 128 -101 291 q0 168 101 293 l-152 150 l82 82 ZM616 1053 q-131 0 -223 -92 q-92 -93 -92 -224 q0 -129 92 -221 q92 -92 223 -92 q129 0 222 92 q92 92 92 221 q0 131 -92 224 q-93 92 -222 92 Z" /><glyph glyph-name="yen" unicode="¥" d="M49 1462 l203 0 l362 -671 l363 671 l203 0 l-418 -735 l305 0 l0 -102 l-362 0 l0 -201 l362 0 l0 -102 l-362 0 l0 -322 l-181 0 l0 322 l-360 0 l0 102 l360 0 l0 201 l-360 0 l0 102 l303 0 l-418 735 Z" /><glyph glyph-name="dieresis" unicode="¨" d="M694 1784 q38 0 68 -27 q24 -24 24 -67 q0 -38 -24 -66 q-28 -25 -68 -25 q-41 0 -65 25 q-25 28 -25 66 q0 43 25 67 q26 27 65 27 ZM328 1784 q37 0 67 -27 q25 -24 25 -67 q0 -38 -25 -66 q-27 -25 -67 -25 q-41 0 -66 25 q-24 28 -24 66 q0 43 24 67 q27 27 66 27 Z" /><glyph glyph-name="macron" unicode="¯" d="M0 1761 l1399 0 l0 -137 l-1399 0 l0 137 Z" /><glyph glyph-name="degree" unicode="°" d="M338 1700 q105 0 178 -76 q76 -76 76 -178 q0 -103 -76 -178 q-74 -74 -178 -74 q-105 0 -178 74 q-74 73 -74 178 q0 104 74 178 q72 76 178 76 ZM338 1604 q-66 0 -111 -45 q-47 -45 -47 -113 q0 -67 47 -111 q47 -47 111 -47 q62 0 113 47 q45 49 45 111 q0 64 -45 113 q-48 45 -113 45 Z" /><glyph glyph-name="plusminus" unicode="±" d="M551 1059 l139 0 l0 -318 l447 0 l0 -137 l-447 0 l0 -317 l-139 0 l0 317 l-449 0 l0 137 l449 0 l0 318 ZM102 137 l1035 0 l0 -137 l-1035 0 l0 137 Z" /><glyph glyph-name="twosuperior" unicode="²" d="M522 1698 q133 0 213 -72 q82 -72 82 -192 q0 -119 -88 -213 q-44 -44 -188 -142 q-154 -101 -185 -180 l463 0 l0 -111 l-616 0 q0 131 92 232 q53 62 194 158 q53 36 87.5 62.5 q34.5 26.5 50.5 41.5 q67 71 67 152 q0 77 -47 114 q-44 41 -127 41 q-88 0 -133 -57 q-53 -63 -53 -176 l-125 0 q0 158 90 252 q78 90 223 90 Z" /><glyph glyph-name="threesuperior" unicode="³" d="M520 1698 q132 0 215 -68 q82 -66 82 -178 q0 -139 -127 -195 q146 -61 146 -204 q0 -122 -91 -203 q-90 -78 -231 -78 q-123 0 -203 55 q-110 77 -123 250 l127 0 q3 -110 72 -159 q52 -39 127 -39 q88 0 145 51 q52 51 52 119 q0 74 -49 114 q-51 39 -138 39 l-84 0 l0 101 l80 0 q172 0 172 143 q0 70 -43 106 q-46 37 -127 37 q-174 0 -192 -180 l-123 0 q12 139 98 213 q82 76 215 76 Z" /><glyph glyph-name="acute" unicode="´" d="M352 1845 l187 0 l-281 -299 l-113 0 l207 299 Z" /><glyph glyph-name="cid00122" unicode="·" d="M512 887 q61 0 104 -43 q46 -45 46 -107 q0 -59 -46 -104 q-43 -43 -104 -43 q-61 0 -104 43 q-46 42 -46 104 q0 65 46 107 q43 43 104 43 Z" /><glyph glyph-name="cedilla" unicode="¸" d="M244 6 l86 0 l-41 -115 q15 2 27 2.5 q12 0.5 18 0.5 q77 0 129 -37 q51 -39 51 -115 q0 -95 -80 -141 q-63 -35 -160 -35 q-102 0 -194 49 l29 63 q84 -38 151 -38 q65 0 105 26 q36 25 36 74 q0 88 -135 88 q-12 0 -35 -2 q-23 -2 -57 -6 l70 186 Z" /><glyph glyph-name="onesuperior" unicode="¹" d="M498 1681 l94 0 l0 -893 l-125 0 l0 736 q-80 -71 -211 -109 l0 123 q144 36 242 143 Z" /><glyph glyph-name="ordmasculine" unicode="º" d="M395 1491 q159 0 252 -109 q88 -100 88 -249 q0 -147 -90 -252 q-92 -105 -250 -105 q-157 0 -250 105 q-90 102 -90 252 q0 152 90 251 q92 107 250 107 ZM395 1386 q-102 0 -155 -71 q-58 -67 -58 -182 q0 -113 58 -183 q57 -69 155 -69 q96 0 156 69 q57 74 57 183 q0 112 -57 182 q-57 71 -156 71 Z" /><glyph glyph-name="onequarter" unicode="¼" d="M1622 688 l133 0 l0 -592 l141 0 l0 -102 l-141 0 l0 -199 l-119 0 l0 199 l-456 0 l0 108 l442 586 ZM1657 1679 l143 0 l-1407 -1884 l-145 0 l1409 1884 ZM430 1681 l94 0 l0 -893 l-123 0 l0 736 q-83 -71 -211 -109 l0 123 q142 36 240 143 ZM1628 541 l-328 -445 l336 0 l0 445 l-8 0 Z" /><glyph glyph-name="onehalf" unicode="½" d="M1593 705 q133 0 213 -72 q82 -73 82 -193 q0 -119 -90 -213 q-48 -48 -186 -141 q-157 -102 -185 -180 l463 0 l0 -111 l-616 0 q0 133 90 232 q58 64 197 157 q52 37 86.5 63 q34.5 26 50.5 42 q67 70 67 151 q0 77 -47 115 q-47 41 -129 41 q-86 0 -131 -57 q-53 -63 -53 -177 l-125 0 q0 156 88 250 q83 93 225 93 ZM1657 1679 l143 0 l-1407 -1884 l-145 0 l1409 1884 ZM430 1681 l94 0 l0 -893 l-123 0 l0 736 q-83 -71 -211 -109 l0 123 q142 36 240 143 Z" /><glyph glyph-name="threequarters" unicode="¾" d="M1622 688 l133 0 l0 -592 l141 0 l0 -102 l-141 0 l0 -199 l-119 0 l0 199 l-456 0 l0 108 l442 586 ZM1657 1679 l143 0 l-1407 -1884 l-145 0 l1409 1884 ZM463 1698 q132 0 215 -68 q82 -66 82 -178 q0 -139 -127 -195 q145 -61 145 -204 q0 -122 -90 -203 q-90 -78 -231 -78 q-123 0 -203 55 q-111 77 -123 250 l127 0 q3 -110 72 -159 q52 -39 127 -39 q88 0 145 51 q51 51 51 119 q0 74 -49 114 q-51 39 -137 39 l-84 0 l0 101 l80 0 q172 0 172 143 q0 70 -43 106 q-46 37 -127 37 q-174 0 -193 -180 l-122 0 q12 139 98 213 q82 76 215 76 ZM1628 541 l-328 -445 l336 0 l0 445 l-8 0 Z" /><glyph glyph-name="questiondown" unicode="¿" d="M563 1059 q50 0 86 -33 q37 -37 37 -90 q0 -49 -37 -86 q-38 -35 -86 -35 q-55 0 -90 35 q-35 35 -35 86 q0 58 35 90 q36 33 90 33 ZM479 672 l166 0 l0 -47 q0 -105 -47 -193 q-43 -80 -135 -166 q-103 -91 -133 -131 q-60 -71 -60 -162 q0 -120 70 -190 q69 -72 201 -72 q145 0 227 101 q62 87 66 235 l163 0 q-3 -214 -120 -344 q-126 -135 -345 -135 q-197 0 -315 108 q-115 106 -115 289 q0 143 76 240 q16 20 57.5 59.5 q41.5 39.5 110.5 97.5 q31 30 55 57.5 q24 27.5 39 53.5 q19 35 29 72.5 q10 37.5 10 77.5 l0 49 Z" /><glyph glyph-name="multiply" unicode="×" d="M215 1032 l406 -405 l403 405 l98 -98 l-405 -404 l405 -405 l-98 -98 l-403 405 l-406 -405 l-98 98 l407 405 l-407 404 l98 98 Z" /><glyph glyph-name="divide" unicode="÷" d="M618 1020 q56 0 91 -35 q34 -32 34 -86 q0 -53 -34 -88 q-38 -35 -91 -35 q-51 0 -86 35 q-36 37 -36 88 q0 55 36 86 q32 35 86 35 ZM102 600 l1035 0 l0 -139 l-1035 0 l0 139 ZM618 283 q55 0 91 -33 q34 -35 34 -88 q0 -50 -34 -88 q-38 -35 -91 -35 q-51 0 -86 35 q-36 37 -36 88 q0 54 36 88 q33 33 86 33 Z" /><glyph glyph-name="lslash" unicode="&#x142;" d="M236 1491 l163 0 l0 -668 l191 90 l43 -92 l-234 -108 l0 -713 l-163 0 l0 635 l-193 -90 l-43 92 l236 111 l0 743 Z" /><glyph glyph-name="florin" unicode="&#x192;" d="M944 1462 l203 0 l-25 -141 l-184 0 q-70 0 -104 -35 q-39 -33 -52 -110 l-20 -117 l299 0 l-23 -137 l-301 0 l-184 -1045 q-24 -131 -104 -205 q-88 -78 -220 -78 l-204 0 l24 142 l184 0 q66 0 107 35 q36 35 51 110 l182 1041 l-264 0 l23 137 l266 0 l20 121 q25 133 107 206 q79 76 219 76 Z" /><glyph glyph-name="circumflex" unicode="&#x2c6;" d="M442 1829 l140 0 l221 -260 l-111 0 l-180 182 l-178 -182 l-111 0 l219 260 Z" /><glyph glyph-name="caron" unicode="&#x2c7;" d="M223 1829 l111 0 l178 -184 l180 184 l111 0 l-221 -260 l-140 0 l-219 260 Z" /><glyph glyph-name="cid00278" unicode="&#x2c9;" d="M207 1743 l610 0 l0 -103 l-610 0 l0 103 Z" /><glyph glyph-name="cid00283" unicode="&#x2dc;" d="M373 1802 q55 0 143 -47 q88 -47 131 -47 q47 0 101 76 l75 -58 q-74 -120 -172 -120 q-30 0 -66 11.5 q-36 11.5 -79 33.5 q-45 24 -77 35.5 q-32 11.5 -50 11.5 q-51 0 -105 -78 l-73 57 q79 125 172 125 Z" /><glyph glyph-name="emdash" unicode="&#x2014;" d="M0 807 l2048 0 l0 -139 l-2048 0 l0 139 Z" /><glyph glyph-name="cid00325" unicode="&#x2015;" d="M0 817 l2048 0 l0 -160 l-2048 0 l0 160 Z" /><glyph glyph-name="quoteleft" unicode="&#x2018;" d="M528 1708 l0 -102 q-82 -25 -129 -90 q-47 -59 -47 -136 q13 6 47 6 q52 0 86 -34 q37 -37 37 -90 q0 -55 -35 -93 q-38 -34 -98 -34 q-69 0 -110 57 q-41 53 -41 143 q0 140 79 238 q77 102 211 135 Z" /><glyph glyph-name="quoteright" unicode="&#x2019;" d="M303 1710 q68 0 111 -55 q41 -57 41 -146 q0 -136 -80 -237 q-79 -98 -211 -135 l0 102 q78 27 127 88 q47 62 47 137 q-12 -6 -45 -6 q-52 0 -86 37 q-37 37 -37 88 q0 60 35 92 q35 35 98 35 Z" /><glyph glyph-name="quotedblleft" unicode="&#x201c;" d="M934 1708 l0 -102 q-82 -25 -131 -93 q-45 -57 -45 -133 q12 6 45 6 q55 0 90 -34 q35 -38 35 -90 q0 -54 -39 -93 q-38 -34 -94 -34 q-68 0 -113 57 q-39 54 -39 143 q0 142 78 238 q80 102 213 135 ZM528 1708 l0 -102 q-82 -25 -129 -90 q-47 -59 -47 -136 q13 6 47 6 q52 0 86 -34 q37 -37 37 -90 q0 -55 -35 -93 q-38 -34 -98 -34 q-69 0 -110 57 q-41 53 -41 143 q0 140 79 238 q77 102 211 135 Z" /><glyph glyph-name="quotedblright" unicode="&#x201d;" d="M707 1710 q69 0 112 -55 q41 -57 41 -146 q0 -136 -80 -237 q-79 -98 -211 -135 l0 102 q81 28 129 88 q45 63 45 137 q-12 -6 -45 -6 q-51 0 -88 37 q-37 37 -37 88 q0 59 39 92 q32 35 95 35 ZM303 1710 q68 0 111 -55 q41 -57 41 -146 q0 -136 -80 -237 q-79 -98 -211 -135 l0 102 q78 27 127 88 q47 62 47 137 q-12 -6 -45 -6 q-52 0 -86 37 q-37 37 -37 88 q0 60 35 92 q35 35 98 35 Z" /><glyph glyph-name="bullet" unicode="&#x2022;" d="M512 1075 q140 0 242 -98 q98 -98 98 -240 q0 -140 -98 -241 q-102 -99 -242 -99 q-141 0 -240 99 q-98 101 -98 241 q0 142 98 240 q99 98 240 98 Z" /><glyph glyph-name="ellipsis" unicode="&#x2026;" d="M340 244 q55 0 90 -35 q35 -35 35 -86 q0 -53 -35 -88 q-38 -35 -90 -35 q-51 0 -86 35 q-37 37 -37 88 q0 52 37 86 q32 35 86 35 ZM1024 244 q55 0 90 -35 q35 -35 35 -86 q0 -53 -35 -88 q-38 -35 -90 -35 q-50 0 -88 35 q-35 35 -35 88 q0 54 35 86 q35 35 88 35 ZM1706 244 q53 0 88 -35 q37 -34 37 -86 q0 -54 -37 -88 q-38 -35 -88 -35 q-50 0 -88 35 q-35 35 -35 88 q0 54 35 86 q35 35 88 35 Z" /><glyph glyph-name="perthousand" unicode="&#x2030;" d="M1126 1491 l131 0 l-819 -1520 l-131 0 l819 1520 ZM350 1462 q165 0 252 -121 q78 -105 78 -280 q0 -172 -78 -281 q-91 -118 -252 -118 q-164 0 -252 118 q-78 108 -78 281 q0 179 78 280 q85 121 252 121 ZM350 1352 q-94 0 -137 -86 q-39 -72 -39 -205 q0 -129 39 -201 q44 -88 137 -88 q91 0 137 90 q19 37 29 86.5 q10 49.5 10 112.5 q0 127 -41 203 q-42 88 -135 88 ZM1217 801 q164 0 251 -121 q78 -106 78 -281 q0 -171 -78 -280 q-90 -119 -251 -119 q-165 0 -252 119 q-78 108 -78 280 q0 179 78 281 q84 121 252 121 ZM1217 690 q-95 0 -138 -86 q-39 -72 -39 -205 q0 -129 39 -200 q44 -88 138 -88 q90 0 137 90 q18 37 28.5 86 q10.5 49 10.5 112 q0 127 -41 203 q-43 88 -135 88 ZM1976 801 q168 0 252 -121 q78 -106 78 -281 q0 -171 -78 -280 q-87 -119 -252 -119 q-162 0 -250 119 q-79 110 -79 280 q0 176 79 281 q85 121 250 121 ZM1976 690 q-94 0 -137 -86 q-39 -72 -39 -205 q0 -129 39 -200 q44 -88 137 -88 q90 0 140 90 q36 73 36 198 q0 65 -10 115.5 q-10 50.5 -28 87.5 q-46 88 -138 88 Z" /><glyph glyph-name="guilsinglleft" unicode="&#x2039;" d="M686 1206 l0 -145 l-465 -322 l465 -319 l0 -148 l-584 406 l0 125 l584 403 Z" /><glyph glyph-name="guilsinglright" unicode="&#x203a;" d="M102 1206 l584 -403 l0 -125 l-584 -406 l0 148 l465 319 l-465 322 l0 145 Z" /><glyph glyph-name="cid00341" unicode="&#x2074;" d="M594 1681 l133 0 l0 -591 l143 0 l0 -103 l-143 0 l0 -199 l-119 0 l0 199 l-454 0 l0 109 l440 585 ZM602 1534 l-328 -444 l334 0 l0 444 l-6 0 Z" /><glyph glyph-name="cid00348" unicode="&#x2081;" d="M498 688 l94 0 l0 -893 l-125 0 l0 735 q-80 -71 -211 -108 l0 123 q144 36 242 143 Z" /><glyph glyph-name="cid00349" unicode="&#x2082;" d="M522 705 q133 0 213 -72 q82 -73 82 -193 q0 -118 -88 -213 q-44 -44 -188 -141 q-154 -102 -185 -180 l463 0 l0 -111 l-616 0 q0 130 92 232 q53 62 194 157 q53 37 87.5 63 q34.5 26 50.5 42 q67 70 67 151 q0 77 -47 115 q-44 41 -127 41 q-88 0 -133 -57 q-53 -63 -53 -177 l-125 0 q0 157 90 250 q80 93 223 93 Z" /><glyph glyph-name="cid00350" unicode="&#x2083;" d="M520 705 q135 0 215 -66 q82 -69 82 -180 q0 -139 -127 -195 q146 -62 146 -205 q0 -122 -91 -202 q-90 -78 -231 -78 q-123 0 -203 55 q-110 77 -123 250 l127 0 q3 -110 72 -160 q52 -39 127 -39 q88 0 145 52 q52 51 52 118 q0 75 -49 115 q-51 39 -138 39 l-84 0 l0 100 l80 0 q172 0 172 144 q0 69 -43 106 q-46 37 -127 37 q-174 0 -192 -180 l-123 0 q12 139 98 213 q82 76 215 76 Z" /><glyph glyph-name="cid00351" unicode="&#x2084;" d="M594 688 l133 0 l0 -592 l143 0 l0 -102 l-143 0 l0 -199 l-119 0 l0 199 l-454 0 l0 108 l440 586 ZM602 541 l-328 -445 l334 0 l0 445 l-6 0 Z" /><glyph glyph-name="cid00357" unicode="&#x20ab;" d="M909 1491 l164 0 l0 -174 l189 0 l0 -103 l-189 0 l0 -1214 l-153 0 l0 174 q-111 -203 -353 -203 q-232 0 -362 168 q-119 153 -119 393 q0 233 119 386 q124 169 354 169 q228 0 350 -223 l0 350 l-362 0 l0 103 l362 0 l0 174 ZM594 952 q-176 0 -262 -123 q-78 -104 -78 -297 q0 -191 76 -301 q87 -125 258 -125 q158 0 248 123 q77 112 77 289 l0 21 q0 182 -88 299 q-87 114 -231 114 ZM328 -201 l612 0 l0 -106 l-612 0 l0 106 Z" /><glyph glyph-name="cid00358" unicode="&#x20ac;" d="M813 1491 q219 0 365 -127 q141 -120 178 -328 l-166 0 q-37 152 -137 228 q-96 77 -244 77 q-223 0 -338 -182 q-34 -49 -56 -110 q-22 -61 -34 -131 l737 0 l-31 -103 l-718 0 q-2 -20 -2 -41.5 q0 -21.5 0 -44.5 q0 -21 0 -41.5 q0 -20.5 2 -42.5 l671 0 l-30 -102 l-629 0 q21 -128 78 -230 q115 -192 354 -192 q149 0 252 90 q95 86 135 240 l168 0 q-50 -225 -199 -353 q-151 -127 -354 -127 q-314 0 -475 236 q-99 143 -127 336 l-213 0 l31 102 l170 0 q-2 22 -2 42.5 q0 20.5 0 41.5 q0 23 0 44.5 q0 21.5 2 41.5 l-201 0 l31 103 l180 0 q15 102 48 189.5 q33 87.5 85 158.5 q161 225 469 225 Z" /><glyph glyph-name="cid00359" unicode="&#x20b4;" d="M25 899 l712 0 q26 16 39 27 q94 78 94 178 q0 119 -69 182 q-71 62 -207 62 q-266 0 -303 -283 l-160 0 q25 212 148 319 q116 105 315 105 q205 0 321 -98 q123 -102 123 -289 q0 -111 -67 -203 l184 0 l0 -102 l-293 0 q-77 -49 -264 -142 l-53 -26 l610 0 l0 -103 l-768 0 q-90 -72 -90 -164 q0 -114 70 -178 q70 -67 206 -67 q260 0 304 280 l161 0 q-27 -209 -147 -319 q-118 -103 -318 -103 q-215 0 -325 99 q-117 101 -117 286 q0 96 41 166 l-147 0 l0 103 l233 0 l4 4 q61 51 277 158 q6 6 12 6 l-526 0 l0 102 Z" /><glyph glyph-name="cid00360" unicode="&#x20b9;" d="M166 1100 l496 0 q-16 113 -89 180 q-92 80 -251 80 l-189 0 l35 102 l932 0 l-35 -102 l-369 0 q118 -99 133 -260 l267 0 l-35 -103 l-234 0 q-15 -121 -102 -202 q-105 -96 -268 -123 q36 -24 108 -121 l426 -551 l-227 0 l-369 496 q-29 40 -56.5 67.5 q-27.5 27.5 -51.5 44.5 q-63 41 -142 41 l0 117 l111 0 q201 0 307 78 q78 56 96 153 l-528 0 l35 103 Z" /><glyph glyph-name="cid00368" unicode="&#x2153;" d="M1599 705 q137 0 218 -66 q79 -68 79 -180 q0 -139 -124 -195 q143 -62 143 -205 q0 -121 -88 -202 q-94 -78 -232 -78 q-122 0 -202 55 q-111 77 -123 250 l125 0 q6 -112 71 -160 q52 -39 127 -39 q88 0 146 52 q53 50 53 118 q0 73 -51 115 q-48 39 -137 39 l-84 0 l0 100 l79 0 q175 0 175 144 q0 67 -45 106 q-47 37 -127 37 q-172 0 -193 -180 l-123 0 q13 139 98 213 q82 76 215 76 ZM1657 1679 l143 0 l-1407 -1884 l-145 0 l1409 1884 ZM430 1681 l94 0 l0 -893 l-123 0 l0 736 q-83 -71 -211 -109 l0 123 q142 36 240 143 Z" /><glyph glyph-name="cid00369" unicode="&#x2154;" d="M1599 705 q137 0 218 -66 q79 -68 79 -180 q0 -139 -124 -195 q143 -62 143 -205 q0 -121 -88 -202 q-94 -78 -232 -78 q-122 0 -202 55 q-111 77 -123 250 l125 0 q6 -112 71 -160 q52 -39 127 -39 q88 0 146 52 q53 50 53 118 q0 73 -51 115 q-48 39 -137 39 l-84 0 l0 100 l79 0 q175 0 175 144 q0 67 -45 106 q-47 37 -127 37 q-172 0 -193 -180 l-123 0 q13 139 98 213 q82 76 215 76 ZM1657 1679 l143 0 l-1407 -1884 l-145 0 l1409 1884 ZM479 1698 q133 0 213 -72 q82 -72 82 -192 q0 -120 -90 -213 q-48 -49 -186 -142 q-157 -101 -185 -180 l463 0 l0 -111 l-616 0 q0 133 90 232 q57 64 196 158 q53 36 87.5 62.5 q34.5 26.5 50.5 41.5 q67 71 67 152 q0 77 -47 114 q-47 41 -129 41 q-86 0 -131 -57 q-53 -63 -53 -176 l-125 0 q0 157 88 252 q81 90 225 90 Z" /><glyph glyph-name="cid00370" unicode="&#x215b;" d="M1593 705 q144 0 228 -72 q75 -70 75 -168 q0 -136 -124 -193 q64 -24 108 -84 q47 -62 47 -141 q0 -121 -86 -194 q-92 -74 -248 -74 q-161 0 -247 74 q-89 72 -89 194 q0 83 48 141 q44 61 108 84 q-123 56 -123 193 q0 99 80 170 q76 70 223 70 ZM1657 1679 l143 0 l-1407 -1884 l-145 0 l1409 1884 ZM430 1681 l94 0 l0 -893 l-123 0 l0 736 q-83 -71 -211 -109 l0 123 q142 36 240 143 ZM1593 602 q-93 0 -141 -45 q-43 -37 -43 -96 q0 -62 39 -101 q44 -47 145 -47 q96 0 146 47 q39 43 39 101 q0 59 -43 96 q-51 45 -142 45 ZM1593 217 q-107 0 -161 -51 q-50 -43 -50 -119 q0 -166 211 -166 q106 0 162 47 q49 43 49 119 q0 76 -49 119 q-54 51 -162 51 Z" /><glyph glyph-name="cid00371" unicode="&#x215c;" d="M1593 705 q144 0 228 -72 q75 -70 75 -168 q0 -136 -124 -193 q64 -24 108 -84 q47 -62 47 -141 q0 -121 -86 -194 q-92 -74 -248 -74 q-161 0 -247 74 q-89 72 -89 194 q0 83 48 141 q44 61 108 84 q-123 56 -123 193 q0 99 80 170 q76 70 223 70 ZM1657 1679 l143 0 l-1407 -1884 l-145 0 l1409 1884 ZM463 1698 q132 0 215 -68 q82 -66 82 -178 q0 -139 -127 -195 q145 -61 145 -204 q0 -122 -90 -203 q-90 -78 -231 -78 q-123 0 -203 55 q-111 77 -123 250 l127 0 q3 -110 72 -159 q52 -39 127 -39 q88 0 145 51 q51 51 51 119 q0 74 -49 114 q-51 39 -137 39 l-84 0 l0 101 l80 0 q172 0 172 143 q0 70 -43 106 q-46 37 -127 37 q-174 0 -193 -180 l-122 0 q12 139 98 213 q82 76 215 76 ZM1593 602 q-93 0 -141 -45 q-43 -37 -43 -96 q0 -62 39 -101 q44 -47 145 -47 q96 0 146 47 q39 43 39 101 q0 59 -43 96 q-51 45 -142 45 ZM1593 217 q-107 0 -161 -51 q-50 -43 -50 -119 q0 -166 211 -166 q106 0 162 47 q49 43 49 119 q0 76 -49 119 q-54 51 -162 51 Z" /><glyph glyph-name="cid00372" unicode="&#x215d;" d="M1593 705 q144 0 228 -72 q75 -70 75 -168 q0 -136 -124 -193 q64 -24 108 -84 q47 -62 47 -141 q0 -121 -86 -194 q-92 -74 -248 -74 q-161 0 -247 74 q-89 72 -89 194 q0 83 48 141 q44 61 108 84 q-123 56 -123 193 q0 99 80 170 q76 70 223 70 ZM1657 1679 l143 0 l-1407 -1884 l-145 0 l1409 1884 ZM207 1681 l541 0 l0 -110 l-437 0 l-24 -258 q79 76 200 76 q131 0 215 -82 q82 -85 82 -228 q0 -136 -96 -223 q-93 -84 -231 -84 q-124 0 -211 66 q-97 73 -107 209 l123 0 q9 -84 64 -129 q49 -37 129 -37 q91 0 147 53 q57 57 57 143 q0 101 -51 156 q-54 51 -145 51 q-132 0 -191 -104 l-114 0 l49 501 ZM1593 602 q-93 0 -141 -45 q-43 -37 -43 -96 q0 -62 39 -101 q44 -47 145 -47 q96 0 146 47 q39 43 39 101 q0 59 -43 96 q-51 45 -142 45 ZM1593 217 q-107 0 -161 -51 q-50 -43 -50 -119 q0 -166 211 -166 q106 0 162 47 q49 43 49 119 q0 76 -49 119 q-54 51 -162 51 Z" /><glyph glyph-name="cid00373" unicode="&#x215e;" d="M1593 705 q144 0 228 -72 q75 -70 75 -168 q0 -136 -124 -193 q64 -24 108 -84 q47 -62 47 -141 q0 -121 -86 -194 q-92 -74 -248 -74 q-161 0 -247 74 q-89 72 -89 194 q0 83 48 141 q44 61 108 84 q-123 56 -123 193 q0 99 80 170 q76 70 223 70 ZM1657 1679 l143 0 l-1407 -1884 l-145 0 l1409 1884 ZM209 1681 l608 0 l0 -94 l-334 -799 l-131 0 l332 779 l-475 0 l0 114 ZM1593 602 q-93 0 -141 -45 q-43 -37 -43 -96 q0 -62 39 -101 q44 -47 145 -47 q96 0 146 47 q39 43 39 101 q0 59 -43 96 q-51 45 -142 45 ZM1593 217 q-107 0 -161 -51 q-50 -43 -50 -119 q0 -166 211 -166 q106 0 162 47 q49 43 49 119 q0 76 -49 119 q-54 51 -162 51 Z" /><glyph glyph-name="product" unicode="&#x220f;" d="M147 1462 l1162 0 l0 -1462 l-168 0 l0 1317 l-826 0 l0 -1317 l-168 0 l0 1462 Z" /><glyph glyph-name="summation" unicode="&#x2211;" d="M72 1462 l1069 0 l0 -145 l-867 0 l529 -555 l-543 -617 l916 0 l0 -145 l-1121 0 l0 154 l531 606 l-514 545 l0 157 Z" /><glyph glyph-name="radical" unicode="&#x221a;" d="M899 1761 l1133 0 l0 -102 l-1057 0 l-479 -1735 l-273 572 l-151 -115 l-56 84 l291 223 l185 -391 l407 1464 Z" /><glyph glyph-name="infinity" unicode="&#x221e;" d="M502 1128 q108 0 250 -92 q53 -35 117.5 -87.5 q64.5 -52.5 138.5 -123.5 q132 129 233 197 q152 106 272 106 q179 0 289 -110 q107 -113 107 -287 q0 -171 -107 -287 q-110 -110 -289 -110 q-107 0 -251 94 q-105 66 -254 209 q-146 -140 -256 -209 q-145 -94 -250 -94 q-180 0 -285 110 q-111 114 -111 287 q0 176 111 287 q105 110 285 110 ZM1513 991 q-83 0 -198 -82 q-86 -57 -207 -178 q123 -120 209 -178 q116 -82 196 -82 q118 0 189 74 q70 76 70 186 q0 114 -70 187 q-71 73 -189 73 ZM502 991 q-121 0 -189 -73 q-69 -70 -69 -187 q0 -114 69 -186 q68 -74 189 -74 q86 0 217 96 q37 28 83 68.5 q46 40.5 103 95.5 q-63 62 -115 105.5 q-52 43.5 -92 70.5 q-114 84 -196 84 Z" /><glyph glyph-name="integral" unicode="&#x222b;" d="M629 1677 q219 0 250 -286 l-142 0 q-18 155 -116 155 q-105 0 -105 -190 q0 -170 80 -619 q37 -207 56.5 -350 q19.5 -143 19.5 -221 q0 -74 -13.5 -135.5 q-13.5 -61.5 -37.5 -110.5 q-68 -123 -201 -123 q-221 0 -252 287 l141 0 q16 -156 117 -156 q106 0 106 191 q0 74 -15 199.5 q-15 125.5 -44 304.5 q-28 159 -43.5 272.5 q-15.5 113.5 -19.5 179.5 q-7 52 -11 102.5 q-4 50.5 -6 96.5 q0 117 21 199 q46 204 215 204 Z" /><glyph glyph-name="approxequal" unicode="&#x2248;" d="M512 1114 q60 0 135 -23.5 q75 -23.5 164 -72.5 q178 -98 270 -98 q122 0 252 174 l101 -84 q-46 -56 -84.5 -97 q-38.5 -41 -69.5 -65 q-92 -64 -197 -64 q-61 0 -135 24.5 q-74 24.5 -162 70.5 q-178 98 -272 98 q-124 0 -246 -168 l-100 82 q81 110 147 158 q90 65 197 65 ZM512 684 q121 0 299 -98 q180 -97 270 -97 q122 0 252 175 l101 -84 q-90 -111 -154 -162 q-91 -66 -197 -66 q-121 0 -297 99 q-89 49 -157.5 72.5 q-68.5 23.5 -114.5 23.5 q-124 0 -246 -170 l-100 84 q40 52 77 91.5 q37 39.5 70 63.5 q93 68 197 68 Z" /><glyph glyph-name="notequal" unicode="&#x2260;" d="M997 1393 l148 0 l-148 -371 l449 0 l0 -137 l-504 0 l-121 -301 l625 0 l0 -138 l-680 0 l-150 -372 l-149 0 l149 372 l-448 0 l0 138 l504 0 l121 301 l-625 0 l0 137 l680 0 l149 371 Z" /><glyph glyph-name="lessequal" unicode="&#x2264;" d="M1446 1348 l0 -148 l-1053 -330 l1053 -329 l0 -150 l-1278 404 l0 151 l1278 402 ZM168 625 l1278 -402 l0 -139 l-1278 401 l0 140 Z" /><glyph glyph-name="greaterequal" unicode="&#x2265;" d="M168 1348 l1278 -402 l0 -151 l-1278 -404 l0 150 l1053 329 l-1053 330 l0 148 ZM1446 625 l0 -140 l-1278 -401 l0 139 l1278 402 Z" /><glyph glyph-name="cid00406" unicode="&#xfe34;" d="M602 1761 q25 0 25 -22 q0 -12 -21 -29 q-160 -114 -160 -170 q0 -7 91 -113 q90 -105 90 -161 q0 -36 -90 -136 q-91 -96 -91 -112 q0 0 22 -29.5 q22 -29.5 69 -87.5 q90 -112 90 -168 q0 -47 -90 -143 q-91 -93 -91 -123 q0 -18 91 -123 q90 -109 90 -151 q0 -36 -90 -136 q-91 -93 -91 -114 q0 -42 148 -168 q33 -30 33 -37 q0 -25 -25 -25 q-6 0 -39 27 q-164 130 -164 201 q0 48 93 143 q90 99 90 109 q0 16 -90 118 q-93 105 -93 148 q0 59 93 164 q90 105 90 110 q0 26 -90 137 q-93 114 -93 144 q0 50 93 145 q90 96 90 107 q0 17 -90 123 q-93 107 -93 145 q0 111 174 215 q19 12 29 12 Z" /><glyph glyph-name="cid00407" unicode="&#xfe35;" d="M1022 324 q135 0 269.5 -22 q134.5 -22 267.5 -69 q110 -38 216 -90.5 q106 -52.5 205 -119.5 l0 -144 q-102 62 -208 110.5 q-106 48.5 -216 84.5 q-135 46 -268 68 q-133 22 -264 22 q-132 0 -264.5 -22 q-132.5 -22 -267.5 -68 q-218 -70 -424 -195 l0 144 q98 67 203.5 119.5 q105.5 52.5 217.5 90.5 q133 47 265.5 69 q132.5 22 267.5 22 Z" /><glyph glyph-name="cid00408" unicode="&#xfe36;" d="M68 1599 q101 -61 207 -109 q106 -48 217 -85 q135 -45 267.5 -67.5 q132.5 -22.5 264.5 -22.5 q259 0 532 90 q110 37 216 85 q106 48 208 109 l0 -143 q-99 -66 -205 -118.5 q-106 -52.5 -216 -92.5 q-268 -90 -537 -90 q-135 0 -267.5 23 q-132.5 23 -265.5 67 q-112 40 -217.5 92.5 q-105.5 52.5 -203.5 118.5 l0 143 Z" /><glyph glyph-name="cid00409" unicode="&#xfe37;" d="M958 369 l134 0 q6 -113 53 -154 q44 -41 135 -41 l416 0 q130 0 205 -65 q79 -68 79 -195 l0 -139 l-129 0 l0 114 q0 136 -149 136 l-428 0 q-187 0 -248 165 q-74 -165 -250 -165 l-430 0 q-149 0 -149 -136 l0 -114 l-129 0 l0 139 q0 127 79 195 q72 65 205 65 l416 0 q93 0 137 41 q47 44 53 154 Z" /><glyph glyph-name="cid00410" unicode="&#xfe38;" d="M68 1700 l129 0 l0 -115 q0 -135 149 -135 l430 0 q176 0 250 -166 q61 166 248 166 l428 0 q149 0 149 135 l0 115 l129 0 l0 -139 q0 -124 -79 -195 q-78 -66 -205 -66 l-416 0 q-93 0 -135 -38 q-47 -41 -53 -156 l-134 0 q-6 113 -55 156 q-42 38 -135 38 l-416 0 q-130 0 -205 66 q-79 71 -79 195 l0 139 Z" /><glyph glyph-name="cid00539" unicode="&#x2010;" d="M86 807 l512 0 l0 -139 l-512 0 l0 139 Z" /><glyph glyph-name="cid00540" unicode="&#x2016;" d="M219 1587 l103 0 l0 -1700 l-103 0 l0 1700 ZM702 1587 l103 0 l0 -1700 l-103 0 l0 1700 Z" /><glyph glyph-name="cid00542" unicode="&#x2032;" d="M258 1673 l174 0 l-190 -510 l-131 0 l147 510 Z" /><glyph glyph-name="cid00543" unicode="&#x2033;" d="M258 1673 l174 0 l-190 -510 l-131 0 l147 510 ZM637 1673 l174 0 l-193 -510 l-131 0 l150 510 Z" /><glyph glyph-name="cid00546" unicode="&#x2103;" d="M297 1700 q105 0 178 -76 q76 -76 76 -178 q0 -103 -76 -178 q-74 -74 -178 -74 q-104 0 -178 74 q-74 73 -74 178 q0 104 74 178 q73 76 178 76 ZM297 1604 q-66 0 -111 -45 q-47 -45 -47 -113 q0 -67 47 -111 q47 -47 111 -47 q62 0 113 47 q45 49 45 111 q0 64 -45 113 q-48 45 -113 45 ZM1176 1491 q243 0 409 -129 q166 -129 197 -348 l-162 0 q-30 158 -156 246 q-118 81 -290 81 q-255 0 -394 -178 q-129 -166 -129 -438 q0 -277 127 -434 q136 -170 391 -170 q174 0 297 92 q132 100 174 289 l162 0 q-49 -257 -229 -398 q-170 -133 -404 -133 q-340 0 -522 226 q-164 200 -164 528 q0 327 168 535 q183 231 525 231 Z" /><glyph glyph-name="cid00548" unicode="&#x2109;" d="M297 1700 q105 0 178 -76 q76 -76 76 -178 q0 -103 -76 -178 q-74 -74 -178 -74 q-104 0 -178 74 q-74 73 -74 178 q0 104 74 178 q73 76 178 76 ZM297 1604 q-66 0 -111 -45 q-47 -45 -47 -113 q0 -67 47 -111 q47 -47 111 -47 q62 0 113 47 q45 49 45 111 q0 64 -45 113 q-48 45 -113 45 ZM719 1462 l964 0 l0 -145 l-796 0 l0 -492 l749 0 l0 -145 l-749 0 l0 -680 l-168 0 l0 1462 Z" /><glyph glyph-name="cid00550" unicode="&#x2160;" d="M940 1462 l168 0 l0 -1462 l-168 0 l0 1462 Z" /><glyph glyph-name="cid00551" unicode="&#x2161;" d="M672 1462 l168 0 l0 -1462 l-168 0 l0 1462 ZM1210 1462 l168 0 l0 -1462 l-168 0 l0 1462 Z" /><glyph glyph-name="cid00552" unicode="&#x2162;" d="M412 1462 l166 0 l0 -1462 l-166 0 l0 1462 ZM940 1462 l168 0 l0 -1462 l-168 0 l0 1462 ZM1470 1462 l166 0 l0 -1462 l-166 0 l0 1462 Z" /><glyph glyph-name="cid00553" unicode="&#x2163;" d="M252 1462 l168 0 l0 -1462 l-168 0 l0 1462 ZM631 1462 l184 0 l418 -1267 l4 0 l416 1267 l184 0 l-502 -1462 l-202 0 l-502 1462 Z" /><glyph glyph-name="cid00554" unicode="&#x2164;" d="M381 1462 l184 0 l457 -1280 l6 0 l457 1280 l184 0 l-541 -1462 l-206 0 l-541 1462 Z" /><glyph glyph-name="cid00555" unicode="&#x2165;" d="M211 1462 l184 0 l418 -1267 l2 0 l418 1267 l184 0 l-502 -1462 l-202 0 l-502 1462 ZM1628 1462 l168 0 l0 -1462 l-168 0 l0 1462 Z" /><glyph glyph-name="cid00556" unicode="&#x2166;" d="M70 1462 l184 0 l367 -1233 l4 0 l366 1233 l183 0 l-459 -1462 l-185 0 l-460 1462 ZM1325 1462 l168 0 l0 -1462 l-168 0 l0 1462 ZM1724 1462 l166 0 l0 -1462 l-166 0 l0 1462 Z" /><glyph glyph-name="cid00557" unicode="&#x2167;" d="M45 1462 l176 0 l291 -1206 l4 0 l291 1206 l176 0 l-377 -1462 l-186 0 l-375 1462 ZM1110 1462 l162 0 l0 -1462 l-162 0 l0 1462 ZM1442 1462 l164 0 l0 -1462 l-164 0 l0 1462 ZM1776 1462 l163 0 l0 -1462 l-163 0 l0 1462 Z" /><glyph glyph-name="cid00558" unicode="&#x2168;" d="M217 1462 l180 0 l0 -1462 l-180 0 l0 1462 ZM635 1462 l205 0 l397 -569 l395 569 l207 0 l-502 -702 l541 -760 l-207 0 l-434 625 l-436 -625 l-207 0 l539 760 l-498 702 Z" /><glyph glyph-name="cid00559" unicode="&#x2169;" d="M422 1462 l207 0 l395 -569 l395 569 l207 0 l-502 -702 l541 -760 l-205 0 l-436 627 l-436 -627 l-205 0 l539 760 l-500 702 Z" /><glyph glyph-name="cid00560" unicode="&#x216a;" d="M209 1462 l207 0 l395 -569 l397 569 l205 0 l-502 -702 l543 -760 l-207 0 l-436 627 l-434 -627 l-207 0 l539 760 l-500 702 ZM1651 1462 l180 0 l0 -1462 l-180 0 l0 1462 Z" /><glyph glyph-name="cid00561" unicode="&#x216b;" d="M88 1462 l207 0 l328 -555 l329 555 l207 0 l-432 -714 l453 -748 l-205 0 l-352 588 l-349 -588 l-206 0 l454 748 l-434 714 ZM1333 1462 l178 0 l0 -1462 l-178 0 l0 1462 ZM1733 1462 l178 0 l0 -1462 l-178 0 l0 1462 Z" /><glyph glyph-name="cid00562" unicode="&#x2170;" d="M1024 1458 q55 0 90 -35 q35 -31 35 -86 q0 -50 -35 -88 q-38 -35 -90 -35 q-50 0 -88 35 q-35 35 -35 88 q0 57 35 86 q35 35 88 35 ZM942 1059 l164 0 l0 -1059 l-164 0 l0 1059 Z" /><glyph glyph-name="cid00563" unicode="&#x2171;" d="M756 1458 q55 0 90 -35 q35 -31 35 -86 q0 -51 -37 -88 q-38 -35 -88 -35 q-51 0 -86 35 q-37 37 -37 88 q0 56 37 86 q32 35 86 35 ZM1292 1458 q56 0 90 -35 q35 -31 35 -86 q0 -50 -35 -88 q-38 -35 -90 -35 q-51 0 -86 35 q-37 37 -37 88 q0 56 37 86 q32 35 86 35 ZM674 1059 l164 0 l0 -1059 l-164 0 l0 1059 ZM1210 1059 l164 0 l0 -1059 l-164 0 l0 1059 Z" /><glyph glyph-name="cid00564" unicode="&#x2172;" d="M526 1458 q56 0 90 -35 q35 -31 35 -86 q0 -51 -37 -88 q-38 -35 -88 -35 q-50 0 -88 35 q-35 35 -35 88 q0 57 35 86 q35 35 88 35 ZM1024 1458 q55 0 90 -35 q35 -31 35 -86 q0 -50 -35 -88 q-38 -35 -90 -35 q-50 0 -88 35 q-35 35 -35 88 q0 57 35 86 q35 35 88 35 ZM1524 1458 q55 0 90 -35 q35 -31 35 -86 q0 -50 -35 -88 q-38 -35 -90 -35 q-50 0 -88 35 q-37 37 -37 88 q0 56 37 86 q34 35 88 35 ZM444 1059 l164 0 l0 -1059 l-164 0 l0 1059 ZM942 1059 l164 0 l0 -1059 l-164 0 l0 1059 ZM1442 1059 l164 0 l0 -1059 l-164 0 l0 1059 Z" /><glyph glyph-name="cid00565" unicode="&#x2173;" d="M440 1458 q54 0 88 -35 q37 -30 37 -86 q0 -51 -37 -88 q-38 -35 -88 -35 q-53 0 -88 35 q-37 37 -37 88 q0 56 37 86 q32 35 88 35 ZM358 1059 l164 0 l0 -1059 l-164 0 l0 1059 ZM768 1059 l178 0 l305 -852 l303 852 l179 0 l-400 -1059 l-166 0 l-399 1059 Z" /><glyph glyph-name="cid00566" unicode="&#x2174;" d="M541 1059 l180 0 l303 -854 l303 854 l180 0 l-399 -1059 l-168 0 l-399 1059 Z" /><glyph glyph-name="cid00567" unicode="&#x2175;" d="M315 1059 l179 0 l305 -852 l303 852 l180 0 l-401 -1059 l-166 0 l-400 1059 ZM1610 1458 q55 0 90 -35 q35 -31 35 -86 q0 -51 -37 -88 q-38 -35 -88 -35 q-51 0 -86 35 q-37 37 -37 88 q0 56 37 86 q32 35 86 35 ZM1528 1059 l164 0 l0 -1059 l-164 0 l0 1059 Z" /><glyph glyph-name="cid00568" unicode="&#x2176;" d="M1350 1458 q53 0 88 -35 q35 -31 35 -86 q0 -50 -35 -88 q-38 -35 -88 -35 q-54 0 -88 35 q-37 37 -37 88 q0 56 37 86 q31 35 88 35 ZM1767 1458 q54 0 88 -35 q35 -31 35 -86 q0 -51 -37 -88 q-38 -35 -86 -35 q-53 0 -88 35 q-37 37 -37 88 q0 56 37 86 q32 35 88 35 ZM104 1059 l181 0 l303 -852 l305 852 l178 0 l-399 -1059 l-166 0 l-402 1059 ZM1268 1059 l162 0 l0 -1059 l-162 0 l0 1059 ZM1686 1059 l161 0 l0 -1059 l-161 0 l0 1059 Z" /><glyph glyph-name="cid00569" unicode="&#x2177;" d="M1135 1458 q51 0 86 -35 q34 -31 34 -86 q0 -50 -34 -88 q-38 -35 -86 -35 q-48 0 -86 35 q-33 36 -33 88 q0 57 33 86 q34 35 86 35 ZM1477 1458 q51 0 86 -35 q34 -31 34 -86 q0 -50 -34 -88 q-38 -35 -86 -35 q-53 0 -84 35 q-37 37 -37 88 q0 56 37 86 q29 35 84 35 ZM1817 1458 q51 0 86 -35 q34 -31 34 -86 q0 -50 -34 -88 q-38 -35 -86 -35 q-52 0 -86 35 q-35 35 -35 88 q0 57 35 86 q31 35 86 35 ZM78 1059 l174 0 l252 -840 l254 840 l174 0 l-350 -1059 l-158 0 l-346 1059 ZM1057 1059 l157 0 l0 -1059 l-157 0 l0 1059 ZM1399 1059 l155 0 l0 -1059 l-155 0 l0 1059 ZM1739 1059 l155 0 l0 -1059 l-155 0 l0 1059 Z" /><glyph glyph-name="cid00570" unicode="&#x2178;" d="M436 1458 q56 0 90 -35 q35 -31 35 -86 q0 -50 -35 -88 q-38 -35 -90 -35 q-51 0 -86 35 q-37 37 -37 88 q0 56 37 86 q32 35 86 35 ZM354 1059 l164 0 l0 -1059 l-164 0 l0 1059 ZM772 1059 l193 0 l274 -377 l272 377 l193 0 l-375 -498 l420 -561 l-195 0 l-315 440 l-317 -440 l-195 0 l420 561 l-375 498 Z" /><glyph glyph-name="cid00571" unicode="&#x2179;" d="M559 1059 l193 0 l274 -377 l270 377 l195 0 l-375 -498 l420 -561 l-195 0 l-315 440 l-317 -440 l-195 0 l420 561 l-375 498 Z" /><glyph glyph-name="cid00580" unicode="&#x2208;" d="M772 1290 l674 0 l0 -137 l-676 0 q-198 0 -309 -78 q-133 -90 -152 -274 l1137 0 l0 -137 l-1137 0 q18 -182 152 -275 q115 -78 309 -78 l676 0 l0 -139 l-674 0 q-258 0 -412 117 q-192 143 -192 444 q0 302 192 443 q151 114 412 114 Z" /><glyph glyph-name="cid00581" unicode="&#x221d;" d="M485 1128 q108 0 254 -94 q56 -34 122.5 -87 q66.5 -53 146.5 -124 q78 72 144.5 125.5 q66.5 53.5 121.5 87.5 q144 92 256 92 q212 0 319 -167 l-110 -82 q-67 112 -209 112 q-84 0 -201 -80 q-44 -29 -99 -73.5 q-55 -44.5 -120 -106.5 q132 -120 221 -178 q120 -82 199 -82 q132 0 209 117 l110 -86 q-109 -168 -319 -168 q-55 0 -118.5 24 q-63.5 24 -137.5 70 q-55 34 -122.5 86 q-67.5 52 -143.5 123 q-161 -142 -269 -211 q-147 -92 -254 -92 q-170 0 -274 110 q-105 114 -105 287 q0 176 105 287 q104 110 274 110 ZM485 991 q-108 0 -176 -73 q-65 -69 -65 -187 q0 -115 65 -186 q68 -74 176 -74 q77 0 203 82 q42 29 96 73.5 q54 44.5 121 102.5 q-137 124 -219 180 q-121 82 -201 82 Z" /><glyph glyph-name="cid00583" unicode="&#x2220;" d="M1167 1393 l172 0 l-899 -1182 l1008 0 l0 -137 l-1280 0 l999 1319 Z" /><glyph glyph-name="cid00585" unicode="&#x2225;" d="M1042 1462 l105 0 l-393 -1462 l-105 0 l393 1462 ZM561 1462 l105 0 l-394 -1462 l-104 0 l393 1462 Z" /><glyph glyph-name="cid00586" unicode="&#x2227;" d="M692 1393 l137 0 l566 -1319 l-152 0 l-481 1126 l-483 -1126 l-152 0 l565 1319 Z" /><glyph glyph-name="cid00587" unicode="&#x2228;" d="M127 1393 l152 0 l483 -1127 l481 1127 l152 0 l-566 -1319 l-137 0 l-565 1319 Z" /><glyph glyph-name="cid00588" unicode="&#x2229;" d="M717 1393 q294 0 434 -195 q115 -155 115 -422 l0 -702 l-140 0 l0 706 q0 475 -409 475 q-412 0 -412 -475 l0 -706 l-137 0 l0 702 q0 270 113 422 q136 195 436 195 Z" /><glyph glyph-name="cid00589" unicode="&#x222a;" d="M168 1393 l137 0 l0 -709 q0 -475 412 -475 q409 0 409 475 l0 709 l140 0 l0 -705 q0 -264 -115 -422 q-143 -192 -434 -192 q-297 0 -436 192 q-113 156 -113 422 l0 705 Z" /><glyph glyph-name="cid00590" unicode="&#x222e;" d="M430 1100 q-5 46 -7.5 89.5 q-2.5 43.5 -2.5 86.5 q-3 110 18 197 q46 204 215 204 q220 0 250 -284 l-141 0 q-18 155 -117 155 q-104 0 -104 -192 q0 -43 4.5 -102 q4.5 -59 15.5 -136 q148 -6 254 -112 q111 -111 111 -267 q0 -155 -111 -266 q-31 -31 -65.5 -53 q-34.5 -22 -71.5 -37 q18 -138 18 -215 q0 -75 -13 -137 q-13 -62 -38 -111 q-67 -123 -203 -123 q-219 0 -249 287 l141 0 q15 -156 117 -156 q106 0 106 193 q0 43 -5.5 103 q-5.5 60 -14.5 136 q-152 7 -258 113 q-111 111 -111 266 q0 156 111 267 q33 33 70.5 57 q37.5 24 80.5 37 ZM575 1006 q10 -59 21 -126 q11 -67 25 -143 q12 -66 21.5 -126 q9.5 -60 19.5 -113 q38 17 73 53 q80 80 80 188 q0 112 -80 189 q-68 71 -160 78 ZM522 473 q-6 35 -12 73.5 q-6 38.5 -12 78.5 q-40 230 -56 362 q-46 -18 -84 -59 q-79 -77 -79 -189 q0 -108 79 -188 q69 -72 164 -78 Z" /><glyph glyph-name="cid00593" unicode="&#x2236;" d="M512 1462 q55 0 90 -35 q35 -31 35 -86 q0 -50 -35 -88 q-38 -34 -90 -34 q-53 0 -88 34 q-35 35 -35 88 q0 57 35 86 q32 35 88 35 ZM512 244 q55 0 90 -35 q35 -35 35 -86 q0 -53 -35 -88 q-38 -35 -90 -35 q-53 0 -88 35 q-35 35 -35 88 q0 54 35 86 q32 35 88 35 Z" /><glyph glyph-name="cid00595" unicode="&#x223d;" d="M1083 903 q104 0 195 -63 q77 -50 156 -164 l-101 -82 q-123 172 -252 172 q-92 0 -270 -98 q-180 -97 -299 -97 q-196 0 -344 226 l100 82 q51 -80 115 -123 q66 -47 131 -47 q92 0 272 96 q176 98 297 98 Z" /><glyph glyph-name="cid00596" unicode="&#x224c;" d="M1083 1257 q104 0 195 -63 q81 -56 156 -164 l-101 -84 q-123 172 -252 172 q-96 0 -270 -96 q-180 -96 -299 -96 q-195 0 -344 223 l100 84 q51 -79 115 -123 q66 -47 131 -47 q92 0 272 96 q176 98 297 98 ZM168 748 l1278 0 l0 -138 l-1278 0 l0 138 ZM168 356 l1278 0 l0 -137 l-1278 0 l0 137 Z" /><glyph glyph-name="cid00598" unicode="&#x2261;" d="M168 1243 l1278 0 l0 -137 l-1278 0 l0 137 ZM168 803 l1278 0 l0 -137 l-1278 0 l0 137 ZM168 365 l1278 0 l0 -140 l-1278 0 l0 140 Z" /><glyph glyph-name="cid00601" unicode="&#x226e;" d="M801 1462 l137 0 l0 -321 l508 221 l0 -152 l-508 -221 l0 -504 l508 -221 l0 -151 l-508 221 l0 -334 l-137 0 l0 393 l-633 275 l0 139 l633 274 l0 381 ZM801 930 l-445 -193 l445 -192 l0 385 Z" /><glyph glyph-name="cid00602" unicode="&#x226f;" d="M168 1362 l508 -221 l0 321 l137 0 l0 -381 l633 -274 l0 -139 l-633 -275 l0 -393 l-137 0 l0 334 l-508 -221 l0 151 l508 221 l0 504 l-508 221 l0 152 ZM813 930 l0 -385 l444 192 l-444 193 Z" /><glyph glyph-name="cid00604" unicode="&#x2299;" d="M889 1456 q303 0 512 -209 q209 -209 209 -512 q0 -302 -209 -514 q-209 -209 -512 -209 q-306 0 -512 209 q-209 212 -209 514 q0 303 209 512 q209 209 512 209 ZM889 1343 q-259 0 -432 -176 q-178 -175 -178 -432 q0 -254 178 -432 q175 -178 432 -178 q252 0 430 178 q178 178 178 432 q0 254 -178 432 q-176 176 -430 176 ZM889 885 q62 0 104 -45 q45 -45 45 -105 q0 -59 -45 -104 q-45 -45 -104 -45 q-60 0 -105 45 q-45 42 -45 104 q0 63 45 105 q42 45 105 45 Z" /><glyph glyph-name="cid00605" unicode="&#x22a5;" d="M737 1393 l140 0 l0 -1182 l569 0 l0 -137 l-1278 0 l0 137 l569 0 l0 1182 Z" /><glyph glyph-name="cid00607" unicode="&#x2312;" d="M1024 455 q477 0 907 -369 l-73 -86 q-394 342 -834 342 q-443 0 -834 -342 l-73 86 q427 369 907 369 Z" /><glyph glyph-name="cid00796" unicode="&#x25cb;" d="M1024 1528 q326 0 553 -228 q225 -228 225 -555 q0 -327 -225 -552 q-229 -224 -553 -224 q-330 0 -553 224 q-225 225 -225 552 q0 330 225 555 q224 228 553 228 ZM1024 1434 q-291 0 -485 -201 q-199 -196 -199 -488 q0 -286 197 -483 q201 -199 487 -199 q281 0 485 199 q199 202 199 483 q0 283 -199 488 q-200 201 -485 201 Z" /><glyph glyph-name="cid00821" unicode="&#x3001;" d="M354 287 q59 -42 118 -93 q59 -51 118 -112 q100 -103 176 -211 l-102 -86 q-37 52 -81 104.5 q-44 52.5 -94 104.5 q-56 61 -113 112.5 q-57 51.5 -114 94.5 l92 86 Z" /><glyph glyph-name="cid00822" unicode="&#x3002;" d="M512 291 q109 0 188 -74 q78 -75 78 -184 q0 -108 -78 -183 q-79 -73 -188 -73 q-111 0 -188 71 q-78 72 -78 185 q0 112 78 184 q76 74 188 74 ZM512 184 q-66 0 -109 -45 q-47 -41 -47 -106 q0 -63 47 -105 q46 -45 109 -45 q60 0 109 45 q47 44 47 105 q0 62 -47 106 q-46 45 -109 45 Z" /><glyph glyph-name="cid00823" unicode="&#x3003;" d="M827 1171 l174 -41 l-284 -815 l-109 35 l219 821 ZM1268 1171 l172 -41 l-285 -815 l-108 35 l221 821 Z" /><glyph glyph-name="cid00824" unicode="&#x3005;" d="M883 1653 l141 -37 q-81 -252 -186 -457 l944 0 l0 -115 q-203 -503 -590 -786 q98 -80 187.5 -161.5 q89.5 -81.5 170.5 -164.5 l-108 -108 q-135 147 -321.5 306.5 q-186.5 159.5 -426.5 330.5 l103 96 q76 -52 146 -104.5 q70 -52.5 134 -104.5 q349 251 537 664 l-856 0 q-83 -142 -179.5 -260.5 q-96.5 -118.5 -205.5 -214.5 l-107 98 q421 411 617 1018 Z" /><glyph glyph-name="cid00827" unicode="&#x3008;" d="M1757 1694 l127 -58 l-397 -899 l397 -899 l-127 -57 l-422 956 l422 957 Z" /><glyph glyph-name="cid00828" unicode="&#x3009;" d="M291 1694 l422 -957 l-422 -956 l-127 57 l397 899 l-397 899 l127 58 Z" /><glyph glyph-name="cid00829" unicode="&#x300a;" d="M1466 1694 l133 -58 l-403 -899 l397 -899 l-127 -57 l-422 956 l422 957 ZM1798 1694 l127 -58 l-397 -899 l397 -899 l-127 -57 l-422 956 l422 957 Z" /><glyph glyph-name="cid00830" unicode="&#x300b;" d="M250 1694 l422 -957 l-422 -956 l-127 57 l397 899 l-397 899 l127 58 ZM582 1694 l422 -957 l-422 -956 l-127 57 l397 899 l-403 899 l133 58 Z" /><glyph glyph-name="cid00831" unicode="&#x300c;" d="M1331 1694 l656 0 l0 -138 l-506 0 l0 -1118 l-150 0 l0 1256 Z" /><glyph glyph-name="cid00832" unicode="&#x300d;" d="M567 1036 l150 0 l0 -1255 l-656 0 l0 137 l506 0 l0 1118 Z" /><glyph glyph-name="cid00833" unicode="&#x300e;" d="M1260 1694 l727 0 l0 -389 l-338 0 l0 -867 l-389 0 l0 1256 ZM1364 1589 l0 -1046 l178 0 l0 866 l336 0 l0 180 l-514 0 Z" /><glyph glyph-name="cid00834" unicode="&#x300f;" d="M399 1036 l389 0 l0 -1255 l-727 0 l0 389 l338 0 l0 866 ZM506 932 l0 -866 l-336 0 l0 -181 l514 0 l0 1047 l-178 0 Z" /><glyph glyph-name="cid00835" unicode="&#x3010;" d="M1350 1694 l596 0 q-328 -401 -328 -957 q0 -552 328 -956 l-596 0 l0 1913 Z" /><glyph glyph-name="cid00836" unicode="&#x3011;" d="M102 1694 l596 0 l0 -1913 l-596 0 q328 408 328 956 q0 552 -328 957 Z" /><glyph glyph-name="cid00837" unicode="&#x3012;" d="M340 1462 l1370 0 l0 -137 l-1370 0 l0 137 ZM340 969 l1370 0 l0 -138 l-616 0 l0 -831 l-140 0 l0 831 l-614 0 l0 138 Z" /><glyph glyph-name="cid00839" unicode="&#x3014;" d="M1909 1694 l78 -125 l-459 -275 l0 -1114 l459 -274 l-78 -125 l-533 317 l0 1278 l533 318 Z" /><glyph glyph-name="cid00840" unicode="&#x3015;" d="M139 1694 l533 -318 l0 -1278 l-533 -317 l-78 125 l459 274 l0 1114 l-459 275 l78 125 Z" /><glyph glyph-name="cid00841" unicode="&#x3016;" d="M1290 1694 l697 0 l0 -23 q-71 -89 -124 -199 q-53 -110 -89 -239 q-70 -236 -70 -496 q0 -256 70 -495 q74 -261 213 -439 l0 -22 l-697 0 l0 1913 ZM1397 1589 l0 -1704 l418 0 q-104 172 -158 400 q-29 115 -43.5 228.5 q-14.5 113.5 -14.5 223.5 q0 228 58 451 q55 234 158 401 l-418 0 Z" /><glyph glyph-name="cid00842" unicode="&#x3017;" d="M61 1694 l697 0 l0 -1913 l-697 0 l0 22 q141 184 213 439 q34 121 52 245 q18 124 18 250 q0 128 -18 252 q-18 124 -52 244 q-74 259 -213 438 l0 23 ZM233 1589 q100 -167 158 -401 q28 -114 43 -226.5 q15 -112.5 15 -224.5 q0 -110 -15 -223.5 q-15 -113.5 -43 -228.5 q-57 -228 -158 -400 l418 0 l0 1704 l-418 0 Z" /><glyph glyph-name="cid00843" unicode="&#x301d;" d="M1745 1710 q63 0 98 -35 q35 -35 35 -92 q0 -50 -35 -88 q-37 -37 -88 -37 q-33 0 -45 6 q-3 -71 47 -137 q45 -59 127 -88 l0 -102 q-131 36 -211 135 q-80 101 -80 237 q0 93 41 146 q43 55 111 55 ZM1341 1710 q60 0 95 -35 q39 -35 39 -92 q0 -50 -35 -88 q-40 -37 -90 -37 q-33 0 -45 6 q-4 -74 45 -137 q48 -60 129 -88 l0 -102 q-131 36 -211 135 q-80 101 -80 237 q0 93 41 146 q43 55 112 55 Z" /><glyph glyph-name="cid00844" unicode="&#x301e;" d="M707 1710 q69 0 112 -55 q41 -57 41 -146 q0 -136 -80 -237 q-79 -98 -211 -135 l0 102 q81 28 129 88 q45 63 45 137 q-12 -6 -45 -6 q-51 0 -88 37 q-37 37 -37 88 q0 59 39 92 q32 35 95 35 ZM303 1710 q68 0 111 -55 q41 -57 41 -146 q0 -136 -80 -237 q-79 -98 -211 -135 l0 102 q78 27 127 88 q47 62 47 137 q-12 -6 -45 -6 q-52 0 -86 37 q-37 37 -37 88 q0 60 35 92 q35 35 98 35 Z" /><glyph glyph-name="cid01080" unicode="&#x338e;" d="M410 1087 q144 0 190 -167 q73 167 195 167 q110 0 168 -94 q55 -86 55 -243 l0 -750 l-150 0 l0 739 q0 207 -110 207 q-64 0 -101 -86 q-32 -71 -32 -162 l0 -698 l-152 0 l0 745 q0 201 -102 201 q-58 0 -97 -78 q-45 -78 -45 -196 l0 -672 l-149 0 l0 1059 l149 0 l0 -119 q71 147 181 147 ZM1538 1087 q179 0 277 -180 l0 152 l153 0 l0 -998 q0 -495 -391 -495 q-159 0 -254 82 q-103 90 -121 260 l150 0 q12 -107 67 -156 q55 -51 158 -51 q121 0 180 84 q58 89 58 266 l0 162 q-37 -79 -103 -129 q-80 -57 -170 -57 q-173 0 -276 143 q-105 144 -105 387 q0 245 101 385 q97 145 276 145 ZM1569 950 q-128 0 -189 -108 q-61 -99 -61 -285 q0 -190 65 -289 q66 -102 185 -102 q116 0 182 113 q59 112 59 278 q0 171 -59 281 q-67 112 -182 112 Z" /><glyph glyph-name="cid01081" unicode="&#x338f;" d="M162 1491 l151 0 l0 -920 l453 488 l205 0 l-410 -424 l436 -635 l-200 0 l-344 520 l-140 -143 l0 -377 l-151 0 l0 1491 ZM1456 1087 q181 0 279 -180 l0 152 l151 0 l0 -998 q0 -495 -391 -495 q-157 0 -252 82 q-102 90 -121 260 l150 0 q12 -105 63 -156 q58 -51 162 -51 q121 0 180 84 q58 89 58 266 l0 162 q-37 -79 -103 -129 q-40 -28 -82 -42.5 q-42 -14.5 -88 -14.5 q-175 0 -278 143 q-103 142 -103 387 q0 245 101 385 q97 145 274 145 ZM1487 950 q-126 0 -187 -106 q-61 -99 -61 -287 q0 -190 66 -289 q62 -102 184 -102 q114 0 180 113 q62 110 62 278 q0 173 -62 281 q-64 112 -182 112 Z" /><glyph glyph-name="cid01082" unicode="&#x339c;" d="M381 1087 q134 0 180 -167 q70 167 195 167 q111 0 166 -94 q53 -87 53 -243 l0 -750 l-148 0 l0 737 q0 209 -110 209 q-60 0 -96 -86 q-19 -37 -27 -78 q-8 -41 -8 -84 l0 -698 l-148 0 l0 745 q0 201 -102 201 q-54 0 -96 -78 q-43 -80 -43 -196 l0 -672 l-148 0 l0 1059 l148 0 l0 -121 q70 149 184 149 ZM1405 1087 q135 0 178 -167 q73 167 197 167 q108 0 164 -92 q55 -86 55 -245 l0 -750 l-148 0 l0 737 q0 209 -110 209 q-62 0 -99 -86 q-32 -71 -32 -162 l0 -698 l-150 0 l0 745 q0 201 -100 201 q-57 0 -96 -78 q-43 -80 -43 -196 l0 -672 l-148 0 l0 1059 l148 0 l0 -121 q67 149 184 149 Z" /><glyph glyph-name="cid01083" unicode="&#x339d;" d="M510 1087 q328 0 377 -385 l-150 0 q-9 65 -28.5 111.5 q-19.5 46.5 -46.5 77.5 q-57 59 -154 59 q-128 0 -199 -116 q-71 -108 -71 -306 q0 -195 65 -305 q68 -114 199 -114 q200 0 237 278 l154 0 q-46 -416 -395 -416 q-211 0 -320 162 q-49 74 -72.5 173.5 q-23.5 99.5 -23.5 221.5 q0 240 100 390 q110 169 328 169 ZM1358 1087 q148 0 190 -167 q77 167 197 167 q110 0 168 -94 q53 -87 53 -243 l0 -750 l-149 0 l0 739 q0 207 -111 207 q-64 0 -100 -86 q-33 -71 -33 -162 l0 -698 l-150 0 l0 745 q0 201 -104 201 q-57 0 -96 -78 q-43 -80 -43 -196 l0 -672 l-150 0 l0 1059 l150 0 l0 -119 q70 147 178 147 Z" /><glyph glyph-name="cid01084" unicode="&#x339e;" d="M88 1491 l152 0 l0 -920 l452 488 l205 0 l-410 -424 l437 -635 l-201 0 l-342 520 l-141 -143 l0 -377 l-152 0 l0 1491 ZM1358 1087 q148 0 190 -167 q77 167 197 167 q110 0 168 -94 q53 -87 53 -243 l0 -750 l-149 0 l0 739 q0 207 -111 207 q-64 0 -100 -86 q-33 -71 -33 -162 l0 -698 l-150 0 l0 745 q0 201 -104 201 q-57 0 -96 -78 q-43 -80 -43 -196 l0 -672 l-150 0 l0 1059 l150 0 l0 -119 q70 147 178 147 Z" /><glyph glyph-name="cid01085" unicode="&#x33a1;" d="M1802 1729 q82 0 135 -48 q54 -43 54 -118 q0 -59 -45 -117 q-17 -19 -41.5 -40 q-24.5 -21 -57.5 -42 q-23 -15 -43 -29.5 q-20 -14.5 -37 -29.5 q-16 -14 -31.5 -29.5 q-15.5 -15.5 -27.5 -34.5 l285 0 l0 -80 l-396 0 q0 90 72 162 q23 30 123 96 q52 40 76 64 q33 39 33 76 q0 40 -27 67 q-25 25 -74 25 q-53 0 -80 -33 q-30 -34 -30 -100 l-91 0 q0 91 58 151 q53 60 145 60 ZM670 1087 q245 0 334 -200 q61 105 145 151 q77 49 188 49 q165 0 267 -104 q102 -109 102 -289 l0 -694 l-164 0 l0 668 q0 140 -59 209 q-60 71 -199 71 q-105 0 -174 -78 q-72 -77 -72 -206 l0 -664 l-164 0 l0 668 q0 280 -243 280 q-114 0 -187 -90 q-73 -86 -73 -213 l0 -645 l-164 0 l0 1059 l164 0 l0 -141 q118 169 299 169 Z" /><glyph glyph-name="cid01086" unicode="&#x33c4;" d="M571 1087 q328 0 377 -385 l-149 0 q-9 65 -28.5 111.5 q-19.5 46.5 -47.5 77.5 q-56 59 -154 59 q-128 0 -198 -116 q-70 -109 -70 -306 q0 -195 66 -305 q68 -114 198 -114 q200 0 234 278 l155 0 q-46 -416 -395 -416 q-210 0 -319 162 q-50 74 -73.5 173.5 q-23.5 99.5 -23.5 221.5 q0 240 101 390 q112 169 327 169 ZM1524 1087 q328 0 377 -385 l-150 0 q-9 65 -28.5 111.5 q-19.5 46.5 -47.5 77.5 q-59 59 -155 59 q-125 0 -199 -116 q-70 -109 -70 -306 q0 -195 66 -305 q68 -114 199 -114 q201 0 235 278 l154 0 q-47 -416 -394 -416 q-210 0 -319 162 q-98 148 -98 395 q0 240 100 390 q112 169 330 169 Z" /><glyph glyph-name="cid01087" unicode="&#x33ce;" d="M53 1462 l158 0 l0 -684 l494 684 l194 0 l-436 -594 l483 -868 l-201 0 l-387 727 l-147 -201 l0 -526 l-158 0 l0 1462 ZM1049 1462 l176 0 l297 -1165 l2 0 l295 1165 l176 0 l0 -1462 l-156 0 l0 975 l-2 0 l-244 -975 l-141 0 l-246 975 l-2 0 l0 -975 l-155 0 l0 1462 Z" /><glyph glyph-name="cid01090" unicode="&#x33d5;" d="M481 1087 q143 0 189 -169 q76 169 209 169 q106 0 168 -92 q27 -43 42 -101.5 q15 -58.5 15 -135.5 l0 -758 l-150 0 l0 748 q0 198 -114 198 q-66 0 -105 -65 q-41 -65 -41 -181 l0 -700 l-151 0 l0 743 q0 203 -103 203 q-66 0 -108 -76 q-47 -73 -47 -190 l0 -680 l-150 0 l0 1059 l150 0 l0 -121 q79 149 196 149 ZM1409 1458 q51 0 86 -35 q35 -31 35 -86 q0 -50 -35 -88 q-38 -35 -86 -35 q-52 0 -84 35 q-37 37 -37 88 q0 56 37 86 q29 35 84 35 ZM1331 1059 l152 0 l0 -1059 l-152 0 l0 1059 ZM1747 1491 l151 0 l0 -1491 l-151 0 l0 1491 Z" /><glyph glyph-name="cid01101" unicode="&#xfe30;" d="M1026 1368 q53 0 88 -35 q35 -31 35 -86 q0 -50 -35 -88 q-39 -33 -88 -33 q-54 0 -90 33 q-35 35 -35 88 q0 56 35 88 q36 33 90 33 ZM1026 344 q53 0 88 -35 q35 -31 35 -86 q0 -50 -35 -88 q-39 -33 -88 -33 q-54 0 -90 33 q-35 35 -35 88 q0 56 35 88 q36 33 90 33 Z" /><glyph glyph-name="cid01102" unicode="&#xfe39;" d="M385 385 l1278 0 l317 -532 l-125 -78 l-274 458 l-1114 0 l-274 -458 l-125 78 l317 532 Z" /><glyph glyph-name="cid01103" unicode="&#xfe3a;" d="M193 1696 l274 -459 l1114 0 l274 459 l125 -76 l-317 -533 l-1278 0 l-317 533 l125 76 Z" /><glyph glyph-name="cid01104" unicode="&#xfe3b;" d="M68 412 l1912 0 l0 -596 q-404 327 -956 327 q-555 0 -956 -327 l0 596 Z" /><glyph glyph-name="cid01105" unicode="&#xfe3c;" d="M68 1659 q405 -328 956 -328 q548 0 956 328 l0 -596 l-1912 0 l0 596 Z" /><glyph glyph-name="cid01106" unicode="&#xfe3d;" d="M1024 719 l956 -422 l-57 -133 l-899 403 l-899 -399 l-57 129 l956 422 ZM1024 387 l956 -422 l-57 -127 l-899 398 l-899 -398 l-57 127 l956 422 Z" /><glyph glyph-name="cid01107" unicode="&#xfe3e;" d="M125 1640 l899 -399 l899 399 l57 -127 l-956 -423 l-956 423 l57 127 ZM125 1309 l899 -398 l899 402 l57 -131 l-956 -424 l-956 424 l57 127 Z" /><glyph glyph-name="cid01108" unicode="&#xfe3f;" d="M1024 428 l956 -422 l-57 -127 l-899 397 l-899 -397 l-57 127 l956 422 Z" /><glyph glyph-name="cid01109" unicode="&#xfe40;" d="M125 1599 l899 -399 l899 399 l57 -126 l-956 -424 l-956 424 l57 126 Z" /><glyph glyph-name="cid01110" unicode="&#xfe41;" d="M725 430 l1255 0 l0 -655 l-137 0 l0 506 l-1118 0 l0 149 Z" /><glyph glyph-name="cid01111" unicode="&#xfe42;" d="M68 1700 l137 0 l0 -506 l1118 0 l0 -150 l-1255 0 l0 656 Z" /><glyph glyph-name="cid01112" unicode="&#xfe43;" d="M725 502 l1255 0 l0 -727 l-389 0 l0 338 l-866 0 l0 389 ZM829 397 l0 -178 l867 0 l0 -336 l180 0 l0 514 l-1047 0 Z" /><glyph glyph-name="cid01113" unicode="&#xfe44;" d="M68 1700 l389 0 l0 -338 l866 0 l0 -389 l-1255 0 l0 727 ZM172 1591 l0 -514 l1047 0 l0 178 l-867 0 l0 336 l-180 0 Z" /><glyph glyph-name="cid01114" unicode="&#xfe49;" d="M1581 1681 l315 0 l0 -127 l-315 0 l0 127 ZM864 1681 l318 0 l0 -127 l-318 0 l0 127 ZM150 1681 l315 0 l0 -127 l-315 0 l0 127 Z" /><glyph glyph-name="cid01115" unicode="&#xfe4a;" d="M1356 1681 l538 0 l0 -127 l-538 0 l0 127 ZM1024 1696 q78 0 78 -80 q0 -30 -23 -55 q-24 -25 -55 -25 q-33 0 -57 25 q-23 22 -23 55 q0 80 80 80 ZM152 1681 l538 0 l0 -127 l-538 0 l0 127 Z" /><glyph glyph-name="cid01116" unicode="&#xfe4b;" d="M23 1761 q11 0 34 -26 q131 -150 168 -150 q21 0 115 88 q91 88 135 88 q46 0 150 -88 q103 -88 125 -88 q25 0 122 88 q95 88 146 88 q56 0 166 -88 q113 -88 119 -88 q15 0 112 88 q91 88 135 88 q59 0 162 -88 q104 -88 113 -88 q52 0 170 162 q11 14 28 14 q25 0 25 -20 l-16 -29 q-109 -174 -213 -174 q-43 0 -146 90 q-102 90 -123 90 q-18 0 -108 -90 q-97 -90 -144 -90 q-36 0 -145 90 q-108 90 -135 90 q-17 0 -113 -90 q-102 -90 -164 -90 q-44 0 -143 90 q-102 90 -123 90 q-20 0 -110 -90 q-94 -90 -142 -90 q-72 0 -198 164 q-25 31 -25 39 q0 20 23 20 Z" /><glyph glyph-name="cid01117" unicode="&#xfe4c;" d="M23 1761 q11 0 34 -26 q131 -150 168 -150 q21 0 115 88 q91 88 135 88 q46 0 150 -88 q103 -88 125 -88 q25 0 122 88 q95 88 146 88 q56 0 166 -88 q113 -88 119 -88 q15 0 112 88 q91 88 135 88 q59 0 162 -88 q104 -88 113 -88 q52 0 170 162 q11 14 28 14 q25 0 25 -20 l-16 -29 q-109 -174 -213 -174 q-43 0 -146 90 q-102 90 -123 90 q-18 0 -108 -90 q-97 -90 -144 -90 q-36 0 -145 90 q-108 90 -135 90 q-17 0 -113 -90 q-102 -90 -164 -90 q-44 0 -143 90 q-102 90 -123 90 q-20 0 -110 -90 q-94 -90 -142 -90 q-72 0 -198 164 q-25 31 -25 39 q0 20 23 20 ZM23 1503 q11 0 34 -28 q131 -150 168 -150 q22 0 119 88 q90 90 131 90 q48 0 150 -90 q103 -88 125 -88 q26 0 127 88 q90 90 141 90 q55 0 166 -90 q113 -88 119 -88 q14 0 114 88 q90 90 133 90 q58 0 160 -90 q104 -88 115 -88 q53 0 170 160 q12 18 28 18 q25 0 25 -22 l-16 -29 q-109 -174 -213 -174 q-43 0 -146 90 q-102 90 -123 90 q-18 0 -108 -90 q-97 -90 -144 -90 q-36 0 -145 90 q-108 90 -135 90 q-17 0 -113 -90 q-102 -90 -164 -90 q-44 0 -143 90 q-102 90 -123 90 q-20 0 -110 -90 q-94 -90 -142 -90 q-74 0 -198 162 q-25 34 -25 41 q0 22 23 22 Z" /><glyph glyph-name="cid01118" unicode="&#xfe4d;" d="M1581 -80 l315 0 l0 -129 l-315 0 l0 129 ZM864 -80 l318 0 l0 -129 l-318 0 l0 129 ZM150 -80 l315 0 l0 -129 l-315 0 l0 129 Z" /><glyph glyph-name="cid01119" unicode="&#xfe4e;" d="M1356 -80 l538 0 l0 -129 l-538 0 l0 129 ZM1024 -61 q31 0 55 -25 q23 -23 23 -55 q0 -80 -78 -80 q-80 0 -80 80 q0 35 23 55 q24 25 57 25 ZM152 -80 l538 0 l0 -129 l-538 0 l0 129 Z" /><glyph glyph-name="cid01120" unicode="&#xfe4f;" d="M23 -59 q5 0 34 -33 q124 -146 168 -146 q22 0 115 91 q91 88 135 88 q48 0 152 -88 q102 -91 123 -91 q26 0 122 91 q95 88 146 88 q58 0 168 -88 q112 -91 117 -91 q14 0 110 91 q94 88 137 88 q59 0 162 -88 q103 -91 113 -91 q52 0 170 158 q11 21 28 21 q25 0 25 -27 l-16 -27 q-109 -174 -213 -174 q-43 0 -146 90 q-102 91 -123 91 q-18 0 -108 -91 q-97 -90 -144 -90 q-36 0 -145 90 q-108 91 -135 91 q-17 0 -113 -91 q-102 -90 -164 -90 q-44 0 -143 90 q-102 91 -123 91 q-20 0 -110 -91 q-94 -90 -142 -90 q-72 0 -198 164 q-25 31 -25 37 q0 27 23 27 Z" /><glyph glyph-name="cid01122" unicode="&#xfe51;" d="M897 924 q46 -33 92 -72.5 q46 -39.5 92 -85.5 q43 -45 80 -88 q37 -43 66 -86 l-86 -70 q-28 43 -64.5 86.5 q-36.5 43.5 -81.5 89.5 q-88 92 -174 156 l76 70 Z" /><glyph glyph-name="cid01124" unicode="&#xfe54;" d="M1024 1151 q41 0 72 -31 q30 -27 30 -71 q0 -43 -30 -74 q-32 -29 -72 -29 q-43 0 -72 29 q-30 31 -30 74 q0 44 30 71 q28 31 72 31 ZM1026 545 q57 0 90 -45 q33 -46 33 -117 q0 -105 -64 -190 q-68 -82 -172 -109 l0 82 q58 20 103 72 q37 49 37 108 q-19 -6 -35 -6 q-46 0 -72 29 q-28 28 -28 73 q0 50 28 76 q30 27 80 27 Z" /><glyph glyph-name="cid01125" unicode="&#xfe55;" d="M1024 1151 q41 0 72 -31 q30 -27 30 -71 q0 -43 -30 -74 q-32 -29 -72 -29 q-43 0 -72 29 q-30 31 -30 74 q0 44 30 71 q28 31 72 31 ZM1024 551 q43 0 72 -29 q30 -30 30 -73 q0 -43 -30 -74 q-32 -29 -72 -29 q-43 0 -72 29 q-30 31 -30 74 q0 43 30 73 q26 29 72 29 Z" /><glyph glyph-name="cid01126" unicode="&#xfe56;" d="M1051 1348 q157 0 252 -88 q92 -86 92 -232 q0 -109 -60 -190 q-24 -31 -135 -129 q-108 -94 -108 -207 l0 -47 l-136 0 l0 47 q0 148 121 260 q40 37 70 66 q30 29 51 51 q59 68 59 141 q0 92 -51 149 q-54 58 -164 58 q-124 0 -178 -78 q-55 -68 -55 -188 l-133 0 q0 175 98 276 q98 111 277 111 ZM1024 344 q45 0 72 -27 q28 -25 28 -71 q0 -43 -28 -72 q-30 -27 -72 -27 q-42 0 -72 27 q-28 26 -28 72 q0 49 28 71 q27 27 72 27 Z" /><glyph glyph-name="cid01128" unicode="&#xfe59;" d="M1266 1501 l118 0 q-229 -373 -229 -764 q0 -386 229 -766 l-118 0 q-242 358 -242 764 q0 411 242 766 Z" /><glyph glyph-name="cid01129" unicode="&#xfe5a;" d="M664 1501 l118 0 q242 -359 242 -766 q0 -401 -242 -764 l-118 0 q113 191 171 382 q58 191 58 384 q0 386 -229 764 Z" /><glyph glyph-name="cid01130" unicode="&#xfe5b;" d="M1386 1503 l113 0 l0 -108 l-92 0 q-104 0 -104 -119 l0 -340 q0 -146 -129 -199 q129 -55 129 -198 l0 -342 q0 -117 104 -117 l92 0 l0 -109 l-113 0 q-98 0 -155 64 q-53 59 -53 166 l0 331 q0 76 -31 107 q-37 40 -123 43 l0 111 q88 6 123 41 q31 33 31 108 l0 330 q0 106 53 168 q54 63 155 63 Z" /><glyph glyph-name="cid01131" unicode="&#xfe5c;" d="M549 1503 l113 0 q101 0 155 -63 q53 -66 53 -168 l0 -330 q0 -75 33 -111 q30 -32 121 -38 l0 -111 q-91 -3 -121 -39 q-33 -36 -33 -111 l0 -331 q0 -104 -53 -166 q-57 -64 -155 -64 l-113 0 l0 109 l92 0 q104 0 104 117 l0 342 q0 143 129 198 q-129 53 -129 199 l0 340 q0 119 -104 119 l-92 0 l0 108 Z" /><glyph glyph-name="cid01134" unicode="&#xfe5f;" d="M883 1319 l110 0 l-43 -277 l248 0 l43 277 l111 0 l-43 -277 l161 0 l-14 -102 l-164 0 l-65 -418 l182 0 l-14 -102 l-185 0 l-43 -273 l-112 0 l43 273 l-246 0 l-43 -273 l-113 0 l43 273 l-161 0 l14 102 l164 0 l67 418 l-184 0 l14 102 l187 0 l43 277 ZM868 522 l246 0 l68 418 l-248 0 l-66 -418 Z" /><glyph glyph-name="cid01135" unicode="&#xfe60;" d="M907 1231 q-73 0 -110 -35 q-45 -36 -45 -104 q0 -52 57 -127 q21 -31 72 -84 l28 16 q154 89 154 193 q0 70 -43 104 q-43 37 -113 37 ZM768 817 q-73 79 -102 125 q-52 75 -52 145 q0 120 88 187 q81 65 209 65 q122 0 199 -59 q90 -65 90 -182 q0 -141 -151 -246 q-25 -12 -48 -24.5 q-23 -12.5 -45 -26.5 l285 -301 q62 138 74 334 l137 0 q-9 -260 -111 -441 l234 -248 l-176 0 l-133 142 q-149 -164 -379 -164 q-174 0 -287 82 q-123 92 -123 262 q0 163 152 272 q18 13 53 32 q35 19 86 46 ZM1174 385 l-332 352 q-20 -9 -39 -19.5 q-19 -10.5 -37 -21.5 q-154 -98 -154 -231 q0 -102 84 -162 q74 -55 185 -55 q180 0 293 137 Z" /><glyph glyph-name="cid01136" unicode="&#xfe61;" d="M948 1206 l156 0 l-17 -372 l340 210 l74 -137 l-352 -180 l352 -186 l-78 -131 l-336 213 l17 -377 l-156 0 l17 377 l-338 -220 l-78 138 l354 186 l-354 186 l76 131 l340 -210 l-17 372 Z" /><glyph glyph-name="cid01137" unicode="&#xfe62;" d="M967 1262 l114 0 l0 -471 l455 0 l0 -117 l-455 0 l0 -469 l-114 0 l0 469 l-455 0 l0 117 l455 0 l0 471 Z" /><glyph glyph-name="cid01138" unicode="&#xfe63;" d="M512 791 l1024 0 l0 -117 l-1024 0 l0 117 Z" /><glyph glyph-name="cid01139" unicode="&#xfe64;" d="M1536 1237 l0 -125 l-870 -375 l870 -375 l0 -124 l-1024 440 l0 119 l1024 440 Z" /><glyph glyph-name="cid01141" unicode="&#xfe66;" d="M512 965 l1024 0 l0 -115 l-1024 0 l0 115 ZM512 618 l1024 0 l0 -114 l-1024 0 l0 114 Z" /><glyph glyph-name="cid01142" unicode="&#xfe68;" d="M680 1491 l119 0 l569 -1507 l-121 0 l-567 1507 Z" /><glyph glyph-name="cid01143" unicode="&#xfe69;" d="M979 1337 l0 133 l86 0 l0 -135 q147 -9 231 -82 q97 -84 121 -256 l-135 0 q-28 200 -217 222 l0 -426 q141 -50 197 -74 q174 -93 174 -262 q0 -174 -121 -260 q-97 -66 -250 -72 l0 -145 l-86 0 l0 145 q-333 21 -367 393 l136 0 q15 -144 75 -207 q52 -57 156 -69 l0 450 q-45 16 -88 31 q-43 15 -86 31 q-174 88 -174 262 q0 159 114 244 q94 71 234 77 ZM1065 662 l0 -420 q104 9 164 57 q69 57 69 154 q0 118 -172 186 q-15 6 -30.5 11 q-15.5 5 -30.5 12 ZM979 823 l0 396 q-85 -7 -137 -43 q-74 -50 -74 -160 q0 -111 172 -178 q9 -3 19.5 -6.5 q10.5 -3.5 19.5 -8.5 Z" /><glyph glyph-name="cid01144" unicode="&#xfe6a;" d="M1298 1339 l109 0 l-657 -1216 l-109 0 l657 1216 ZM608 1317 q132 0 201 -96 q63 -89 63 -226 q0 -136 -63 -225 q-72 -94 -201 -94 q-131 0 -200 94 q-64 85 -64 225 q0 141 64 226 q66 96 200 96 ZM608 1223 q-139 0 -139 -228 q0 -227 139 -227 q70 0 107 68 q30 61 30 159 q0 228 -137 228 ZM1440 786 q131 0 200 -96 q64 -86 64 -223 q0 -136 -64 -225 q-71 -97 -200 -97 q-133 0 -201 97 q-63 84 -63 225 q0 142 63 223 q66 96 201 96 ZM1440 694 q-137 0 -137 -227 q0 -227 137 -227 q72 0 106 67 q16 31 24.5 71 q8.5 40 8.5 89 q0 227 -139 227 Z" /><glyph glyph-name="cid01145" unicode="&#xfe6b;" d="M1042 1339 q260 0 410 -153 q137 -144 137 -352 q0 -174 -112 -318 q-110 -137 -236 -137 q-102 0 -115 104 q-81 -106 -202 -106 q-106 0 -168 72 q-66 68 -66 174 q0 184 111 319 q107 129 256 129 q113 0 155 -119 l25 88 l111 0 l-117 -430 q-21 -64 -21 -98 q0 -37 45 -37 q75 0 150 94 q86 111 86 265 q0 173 -117 286 q-126 123 -338 123 q-226 0 -370 -147 q-144 -147 -144 -373 q0 -248 146 -381 q138 -129 376 -129 q86 0 160.5 16.5 q74.5 16.5 138.5 46.5 q113 57 183 154 l116 0 q-86 -149 -247 -229 q-159 -78 -351 -78 q-292 0 -464 166 q-172 166 -172 438 q0 258 172 430 q179 182 462 182 ZM1075 965 q-106 0 -182 -101 q-84 -102 -84 -243 q0 -67 31 -107 q30 -37 92 -37 q58 0 121 47 q57 52 75 115 l35 133 q19 65 19 80 q0 39 -27 76 q-34 37 -80 37 Z" /><glyph glyph-name="cid01147" unicode="&#xff02;" d="M1124 1462 l174 0 l-20 -510 l-133 0 l-21 510 ZM752 1462 l172 0 l-19 -510 l-133 0 l-20 510 Z" /><glyph glyph-name="cid01149" unicode="&#xff04;" d="M969 1657 l102 0 l0 -168 q178 -12 289 -105 q125 -103 156 -319 l-164 0 q-25 146 -111 217 q-65 53 -170 66 l0 -537 q91 -34 153.5 -57 q62.5 -23 96.5 -37 q219 -114 219 -328 q0 -216 -154 -323 q-116 -83 -315 -93 l0 -180 l-102 0 l0 180 q-206 13 -318 127 q-119 122 -143 367 l168 0 q18 -183 98 -266 q69 -72 195 -84 l0 567 q-56 22 -110 41.5 q-54 19.5 -109 38.5 q-218 110 -218 326 q0 202 146 305 q116 88 291 94 l0 168 ZM969 1348 q-56 -3 -99.5 -18 q-43.5 -15 -76.5 -40 q-93 -64 -93 -200 q0 -138 218 -224 l51 -18 l0 500 ZM1071 117 q133 12 211 69 q90 72 90 199 q0 150 -217 233 l-84 31 l0 -532 Z" /><glyph glyph-name="cid01150" unicode="&#xff05;" d="M1368 1491 l131 0 l-819 -1520 l-131 0 l819 1520 ZM504 1462 q167 0 252 -121 q78 -105 78 -280 q0 -172 -78 -281 q-88 -118 -252 -118 q-163 0 -250 118 q-80 111 -80 281 q0 176 80 280 q85 121 250 121 ZM504 1352 q-94 0 -137 -86 q-39 -72 -39 -205 q0 -129 39 -201 q44 -88 137 -88 q92 0 139 90 q37 74 37 199 q0 64 -10.5 115 q-10.5 51 -28.5 88 q-42 88 -137 88 ZM1544 801 q168 0 252 -121 q78 -106 78 -281 q0 -171 -78 -280 q-87 -119 -252 -119 q-162 0 -250 119 q-80 110 -80 280 q0 176 80 281 q85 121 250 121 ZM1544 690 q-94 0 -137 -86 q-39 -72 -39 -205 q0 -129 39 -200 q44 -88 137 -88 q93 0 139 90 q37 73 37 198 q0 65 -10 115.5 q-10 50.5 -29 87.5 q-42 88 -137 88 Z" /><glyph glyph-name="cid01152" unicode="&#xff07;" d="M938 1462 l172 0 l-18 -510 l-134 0 l-20 510 Z" /><glyph glyph-name="cid01153" unicode="&#xff08;" d="M1741 1694 l143 0 q-125 -207 -194 -424 q-46 -135 -68.5 -268 q-22.5 -133 -22.5 -265 q0 -130 22.5 -263.5 q22.5 -133.5 68.5 -268.5 q35 -109 84 -215 q49 -106 110 -209 l-143 0 q-68 100 -120.5 205.5 q-52.5 105.5 -90.5 216.5 q-46 132 -68 265.5 q-22 133.5 -22 266.5 q0 137 22 271 q22 134 68 266 q38 112 90.5 217.5 q52.5 105.5 120.5 204.5 Z" /><glyph glyph-name="cid01154" unicode="&#xff09;" d="M164 1694 l143 0 q66 -99 118.5 -204.5 q52.5 -105.5 92.5 -217.5 q90 -267 90 -537 q0 -265 -90 -532 q-40 -111 -92.5 -216.5 q-52.5 -105.5 -118.5 -205.5 l-143 0 q61 103 109.5 209 q48.5 106 84.5 215 q91 273 91 532 q0 132 -23 265 q-23 133 -68 268 q-36 110 -84.5 216 q-48.5 106 -109.5 208 Z" /><glyph glyph-name="cid01156" unicode="&#xff0b;" d="M954 1393 l140 0 l0 -590 l569 0 l0 -137 l-569 0 l0 -592 l-140 0 l0 592 l-569 0 l0 137 l569 0 l0 590 Z" /><glyph glyph-name="cid01157" unicode="&#xff0c;" d="M381 244 q70 0 113 -58 q41 -56 41 -143 q0 -135 -80 -240 q-81 -99 -211 -133 l0 101 q78 27 129 90 q45 63 45 137 q-17 -8 -45 -8 q-51 0 -88 37 q-37 36 -37 90 q0 58 37 92 q34 35 96 35 Z" /><glyph glyph-name="cid01158" unicode="&#xff0d;" d="M385 803 l1278 0 l0 -137 l-1278 0 l0 137 Z" /><glyph glyph-name="cid01160" unicode="&#xff0f;" d="M1315 1679 l145 0 l-725 -1884 l-147 0 l727 1884 Z" /><glyph glyph-name="cid01171" unicode="&#xff1a;" d="M512 1247 q54 0 90 -39 q37 -33 37 -88 q0 -51 -37 -88 q-37 -37 -90 -37 q-53 0 -90 37 q-35 35 -35 88 q0 56 35 88 q36 39 90 39 ZM512 498 q54 0 90 -39 q37 -34 37 -88 q0 -52 -37 -88 q-37 -37 -90 -37 q-53 0 -90 37 q-35 34 -35 88 q0 56 35 88 q36 39 90 39 Z" /><glyph glyph-name="cid01172" unicode="&#xff1b;" d="M512 1247 q53 0 90 -37 q37 -33 37 -90 q0 -53 -37 -90 q-38 -35 -90 -35 q-55 0 -90 35 q-35 35 -35 90 q0 58 35 90 q34 37 90 37 ZM514 492 q68 0 111 -58 q41 -53 41 -143 q0 -136 -80 -238 q-80 -97 -211 -135 l0 102 q79 25 129 91 q45 60 45 135 q-12 -6 -45 -6 q-51 0 -86 34 q-37 37 -37 91 q0 60 35 92 q35 35 98 35 Z" /><glyph glyph-name="cid01173" unicode="&#xff1c;" d="M1663 1356 l0 -152 l-1096 -473 l1096 -473 l0 -152 l-1278 553 l0 144 l1278 553 Z" /><glyph glyph-name="cid01174" unicode="&#xff1d;" d="M385 1018 l1278 0 l0 -139 l-1278 0 l0 139 ZM385 580 l1278 0 l0 -138 l-1278 0 l0 138 Z" /><glyph glyph-name="cid01175" unicode="&#xff1e;" d="M385 1356 l1278 -553 l0 -144 l-1278 -553 l0 152 l1096 473 l-1096 473 l0 152 Z" /><glyph glyph-name="cid01176" unicode="&#xff1f;" d="M530 1491 q198 0 316 -109 q115 -105 115 -288 q0 -137 -78 -240 q-16 -18 -57.5 -58 q-41.5 -40 -108.5 -100 q-65 -56 -96 -112 q-39 -66 -39 -150 l0 -47 l-164 0 l0 47 q0 102 37 178 q42 92 207 238 q24 24 42 42.5 q18 18.5 27 31.5 q62 76 62 161 q0 121 -70 191 q-69 72 -201 72 q-154 0 -227 -101 q-68 -86 -68 -235 l-161 0 q0 217 120 344 q123 135 344 135 ZM500 244 q55 0 90 -35 q35 -35 35 -86 q0 -54 -37 -88 q-38 -35 -88 -35 q-50 0 -88 35 q-35 35 -35 88 q0 54 35 86 q34 35 88 35 Z" /><glyph glyph-name="cid01177" unicode="&#xff20;" d="M1049 1491 q320 0 510 -193 q170 -176 170 -438 q0 -216 -138 -397 q-136 -170 -295 -170 q-129 0 -141 135 q-105 -139 -258 -139 q-127 0 -209 88 q-80 86 -80 219 q0 232 140 395 q133 164 317 164 q147 0 197 -154 l32 115 l131 0 l-145 -534 q-25 -89 -25 -125 q0 -51 58 -51 q94 0 190 120 q111 142 111 332 q0 218 -148 363 q-158 155 -426 155 q-284 0 -465 -186 q-182 -182 -182 -469 q0 -312 182 -479 q175 -162 476 -162 q213 0 374 78 q71 35 129 83 q58 48 101 109 l141 0 q-108 -185 -309 -282 q-199 -97 -436 -97 q-370 0 -582 203 q-217 208 -217 551 q0 323 217 537 q226 229 580 229 ZM1087 1026 q-132 0 -229 -127 q-106 -128 -106 -309 q0 -83 39 -131 q43 -49 116 -49 q78 0 152 61 q73 61 98 143 l45 168 q23 84 23 99 q0 55 -35 96 q-43 49 -103 49 Z" /><glyph glyph-name="cid01204" unicode="&#xff3b;" d="M1466 1694 l500 0 l0 -138 l-348 0 l0 -1638 l348 0 l0 -137 l-500 0 l0 1913 Z" /><glyph glyph-name="cid01206" unicode="&#xff3d;" d="M82 1694 l500 0 l0 -1913 l-500 0 l0 137 l348 0 l0 1638 l-348 0 l0 138 Z" /><glyph glyph-name="cid01208" unicode="&#xff3f;" d="M0 -150 l2048 0 l0 -137 l-2048 0 l0 137 Z" /><glyph glyph-name="cid01209" unicode="&#xff40;" d="M827 1479 l187 0 l207 -299 l-113 0 l-281 299 Z" /><glyph glyph-name="cid01237" unicode="&#xff5c;" d="M954 1761 l140 0 l0 -2048 l-140 0 l0 2048 Z" /><glyph glyph-name="cid01239" unicode="&#xff5e;" d="M666 948 q56 0 119 -16 q63 -16 130 -49 q47 -26 95.5 -54 q48.5 -28 99.5 -59 q176 -100 289 -100 q140 0 307 237 l109 -90 q-198 -291 -416 -291 q-142 0 -320 99 q-50 30 -99 59 q-49 29 -95 55 q-121 64 -219 64 q-159 0 -322 -228 l-111 89 q199 284 433 284 Z" /><glyph glyph-name="cid01240" unicode="&#xffe0;" d="M1470 1591 l80 -47 l-100 -170 l16 -12 q166 -129 197 -346 l-162 0 q-27 140 -129 223 l-606 -1044 q117 -74 285 -74 q172 0 297 90 q131 100 174 289 l161 0 q-46 -257 -229 -398 q-172 -131 -401 -131 q-108 0 -199 22.5 q-91 22.5 -166 65.5 l-108 -188 l-80 49 l112 193 q-46 37 -84 84 q-163 200 -163 528 q0 327 167 535 q183 231 527 231 q177 0 313 -70 l98 170 ZM1296 1290 q-102 51 -241 51 q-255 0 -393 -178 q-130 -166 -130 -438 q0 -277 127 -434 q8 -9 17 -19.5 q9 -10.5 18 -19.5 l602 1038 Z" /><glyph glyph-name="cid01241" unicode="&#xffe1;" d="M1096 1491 q245 0 368 -172 q40 -58 62.5 -129.5 q22.5 -71.5 25.5 -157.5 l-168 0 q-12 155 -75 232 q-70 82 -215 82 q-141 0 -213 -82 q-74 -77 -74 -197 q0 -94 43 -285 q0 -4 2 -8 l418 0 l0 -102 l-398 0 q19 -108 19 -172 q0 -210 -154 -355 l779 0 l0 -145 l-979 0 l0 145 q198 125 198 340 q0 70 -24 187 l-215 0 l0 102 l190 0 q-45 192 -45 297 q0 181 119 297 q123 123 336 123 Z" /><glyph glyph-name="cid01243" unicode="&#xffe3;" d="M0 1761 l2048 0 l0 -137 l-2048 0 l0 137 Z" /><glyph glyph-name="cid01245" unicode="&#xffe5;" d="M459 1462 l203 0 l362 -671 l362 671 l203 0 l-418 -735 l306 0 l0 -102 l-363 0 l0 -201 l363 0 l0 -102 l-363 0 l0 -322 l-180 0 l0 322 l-361 0 l0 102 l361 0 l0 201 l-361 0 l0 102 l304 0 l-418 735 Z" /><glyph glyph-name="cid01246" unicode="&#x2f00;&#x4e00;" d="M102 825 l1842 0 l0 -147 l-1842 0 l0 147 Z" /><glyph glyph-name="cid01247" unicode="&#x4e01;" d="M143 1526 l1764 0 l0 -142 l-791 0 l0 -1366 q0 -204 -207 -204 l-323 0 l-31 141 q80 -3 155.5 -5.5 q75.5 -2.5 149.5 -2.5 q107 0 107 108 l0 1329 l-824 0 l0 142 Z" /><glyph glyph-name="cid01248" unicode="&#x4e03;" d="M1921 1188 l23 -141 l-1016 -187 l0 -797 q0 -73 65 -73 l600 0 q71 0 103 47 q28 43 41 328 l141 -46 q-19 -333 -70 -405 q-52 -68 -190 -68 l-660 0 q-182 0 -182 197 l0 788 l-659 -120 l-23 141 l682 125 l0 686 l152 0 l0 -657 l993 182 Z" /><glyph glyph-name="cid01249" unicode="&#x4e07;" d="M127 1534 l1794 0 l0 -141 l-1055 0 l0 -90 q-1 -94 -6 -181.5 q-5 -87.5 -14 -169.5 l883 0 q-4 -405 -21 -649 q-17 -244 -51 -323 q-74 -160 -246 -160 q-61 0 -136 2.5 q-75 2.5 -161 5.5 l-37 141 q91 -3 165 -5.5 q74 -2.5 132 -4.5 q130 6 166 143 q15 68 25.5 247 q10.5 179 13.5 468 l-750 0 q-21 -141 -54 -263.5 q-33 -122.5 -79 -225.5 q-159 -340 -518 -529 l-82 129 q348 189 488 512 q128 329 137 863 l0 90 l-594 0 l0 141 Z" /><glyph glyph-name="cid01250" unicode="&#x4e08;" d="M137 1325 l1032 0 l0 346 l150 0 l0 -346 l602 0 l0 -145 l-608 0 q-37 -523 -269 -842 q356 -263 924 -412 l-74 -133 q-584 160 -944 434 q-269 -269 -782 -430 l-80 125 q499 159 746 400 q-326 288 -443 692 l129 45 q111 -370 410 -629 q203 295 233 750 l-1026 0 l0 145 Z" /><glyph glyph-name="cid01251" unicode="&#x4e09;" d="M252 1518 l1548 0 l0 -144 l-1548 0 l0 144 ZM389 809 l1272 0 l0 -143 l-1272 0 l0 143 ZM100 51 l1848 0 l0 -147 l-1848 0 l0 147 Z" /><glyph glyph-name="cid01252" unicode="&#x4e0a;" d="M852 1673 l152 0 l0 -633 l759 0 l0 -143 l-759 0 l0 -877 l933 0 l0 -143 l-1822 0 l0 143 l737 0 l0 1653 Z" /><glyph glyph-name="cid01253" unicode="&#x4e0b;" d="M113 1565 l1820 0 l0 -146 l-889 0 l0 -309 q381 -190 775 -442 l-88 -131 q-205 135 -376.5 239.5 q-171.5 104.5 -310.5 177.5 l0 -1163 l-149 0 l0 1628 l-782 0 l0 146 Z" /><glyph glyph-name="cid01255" unicode="&#x4e0d;&#xf967;" d="M154 1567 l1740 0 l0 -146 l-667 0 q-54 -123 -127 -243 l0 -1387 l-152 0 l0 1170 q-289 -360 -755 -639 l-97 129 q697 401 967 970 l-909 0 l0 146 ZM1358 1016 q350 -277 592 -559 l-113 -115 q-215 270 -586 573 l107 101 Z" /><glyph glyph-name="cid01256" unicode="&#x4e0e;" d="M463 1681 l145 -12 l-28 -274 l1241 0 l0 -142 l-1256 0 l-35 -333 l1151 0 q0 -835 -116 -967 q-115 -127 -490 -127 q-49 0 -99.5 2.5 q-50.5 2.5 -103.5 5.5 l-38 135 q75 -6 127.5 -10 q52.5 -4 82.5 -4 q349 0 416 117 q72 127 72 710 l-1165 0 l96 899 ZM102 453 l1158 0 l0 -142 l-1158 0 l0 142 Z" /><glyph glyph-name="cid01257" unicode="&#x4e10;" d="M127 1581 l1782 0 l0 -139 l-830 0 l0 -291 l707 0 l0 -139 l-707 0 l0 -295 l717 0 q-12 -639 -100 -766 q-97 -131 -367 -137 q-121 0 -256 6 l-37 141 q68 -3 136.5 -5.5 q68.5 -2.5 136.5 -2.5 q185 0 262 92 q71 97 71 533 l-1304 0 l0 704 l143 0 l0 -565 l455 0 l0 725 l-809 0 l0 139 Z" /><glyph glyph-name="cid01258" unicode="&#x4e11;" d="M1497 1440 l-627 0 l-71 -606 l651 0 l47 606 ZM649 834 l72 606 l-453 0 l0 143 l1385 0 l-115 -1583 l393 0 l0 -143 l-1814 0 l0 143 l436 0 l80 690 l-324 0 l0 144 l340 0 ZM702 0 l680 0 l56 690 l-656 0 l-80 -690 Z" /><glyph glyph-name="cid01259" unicode="&#x4e13;" d="M104 1049 l586 0 q17 63 32.5 126 q15.5 63 31.5 128 l-510 0 l0 137 l540 0 q14 63 26.5 124.5 q12.5 61.5 25.5 123.5 l151 -13 q-12 -61 -23.5 -120.5 q-11.5 -59.5 -23.5 -114.5 l883 0 l0 -137 l-914 0 q-15 -68 -30.5 -131.5 q-15.5 -63.5 -30.5 -122.5 l1096 0 l0 -144 l-1135 0 q-22 -72 -44.5 -139.5 q-22.5 -67.5 -43.5 -130.5 l975 0 l0 -127 q-74 -114 -189.5 -228.5 q-115.5 -114.5 -273.5 -228.5 q92 -34 181 -71.5 q89 -37.5 173 -77.5 l-82 -129 q-230 113 -468 202.5 q-238 89.5 -482 155.5 l78 115 q115 -31 225.5 -66 q110.5 -35 216.5 -71 q282 183 447 389 l-1012 0 q37 98 72 199.5 q35 101.5 67 207.5 l-545 0 l0 144 Z" /><glyph glyph-name="cid01260" unicode="&#x4e14;" d="M580 942 l0 -391 l893 0 l0 391 l-893 0 ZM1473 1083 l0 371 l-893 0 l0 -371 l893 0 ZM580 412 l0 -402 l893 0 l0 402 l-893 0 ZM115 10 l315 0 l0 1581 l1192 0 l0 -1581 l313 0 l0 -145 l-1820 0 l0 145 Z" /><glyph glyph-name="cid01262" unicode="&#x4e16;" d="M100 1186 l262 0 l0 463 l150 0 l0 -463 l418 0 l0 481 l145 0 l0 -481 l416 0 l0 481 l145 0 l0 -481 l310 0 l0 -142 l-310 0 l0 -645 l-706 0 l0 645 l-418 0 l0 -1019 l1364 0 l0 -150 l-1514 0 l0 1169 l-262 0 l0 142 ZM1075 1044 l0 -501 l416 0 l0 501 l-416 0 Z" /><glyph glyph-name="cid01263" unicode="&#x4e18;" d="M541 809 l0 -780 l743 0 l0 780 l-743 0 ZM1432 29 l487 0 l0 -146 l-1786 0 l0 146 l258 0 l0 1396 q353 37 643.5 93.5 q290.5 56.5 515.5 130.5 l76 -131 q-472 -142 -1085 -215 l0 -353 l1282 0 l0 -141 l-391 0 l0 -780 Z" /><glyph glyph-name="cid01264" unicode="&#x4e19;" d="M993 680 q-132 -330 -418 -526 l-110 96 q377 251 463 737 l-539 0 l0 -1192 l-145 0 l0 1335 l702 0 q3 37 5.5 74 q2.5 37 2.5 74 l0 145 l-837 0 l0 144 l1814 0 l0 -144 l-829 0 l0 -145 q-2 -37 -3.5 -74 q-1.5 -37 -4.5 -74 l714 0 l0 -1093 q0 -227 -202 -227 l-246 0 l-37 143 l236 -6 q104 0 104 121 l0 919 l-586 0 q-9 -49 -18.5 -95 q-9.5 -46 -22.5 -89 q146 -105 279.5 -226.5 q133.5 -121.5 253.5 -263.5 l-82 -127 q-242 304 -494 494 Z" /><glyph glyph-name="cid01265" unicode="&#x4e1a;" d="M727 1653 l150 0 l0 -1628 l290 0 l0 1628 l150 0 l0 -1628 l614 0 l0 -144 l-1814 0 l0 144 l610 0 l0 1628 ZM1745 1280 l131 -37 q-123 -537 -309 -936 l-133 47 q179 366 311 926 ZM293 1284 q80 -207 152 -445 q72 -238 135 -507 l-136 -35 q-110 491 -276 946 l125 41 Z" /><glyph glyph-name="cid01266" unicode="&#x4e1b;" d="M127 23 l1796 0 l0 -144 l-1796 0 l0 144 ZM524 1620 l144 0 q0 -169 -9 -319.5 q-9 -150.5 -26 -280.5 q230 -227 387 -451 l-105 -106 q-119 196 -307 405 l-8 -47 q-89 -427 -405 -700 l-93 112 q267 240 357 605 q32 153 48.5 348.5 q16.5 195.5 16.5 433.5 ZM1315 1655 l141 0 q0 -142 -7 -270 q-7 -128 -19 -244 q70 -286 192 -513 q122 -227 297 -392 l-94 -111 q-288 297 -443 729 l-4 -20 q-94 -437 -440 -721 l-94 114 q296 245 395 621 q73 315 76 807 Z" /><glyph glyph-name="cid01267" unicode="&#x4e1c;" d="M160 1425 l506 0 q56 126 112 269 l146 -33 q-25 -62 -49.5 -120.5 q-24.5 -58.5 -49.5 -115.5 l1045 0 l0 -143 l-1110 0 q-148 -289 -322 -506 l553 0 l0 303 l150 0 l0 -303 l645 0 l0 -137 l-645 0 l0 -651 q0 -189 -195 -189 l-213 0 l-31 146 q51 -5 99 -8 q48 -3 94 -3 q96 0 96 91 l0 614 l-708 0 l-35 129 q94 101 181.5 229 q87.5 128 168.5 285 l-438 0 l0 143 ZM590 477 l102 -90 q-202 -279 -499 -489 l-95 122 q294 198 492 457 ZM1477 479 q139 -120 256 -241 q117 -121 213 -242 l-109 -107 q-83 117 -198 240.5 q-115 123.5 -261 255.5 l99 94 Z" /><glyph glyph-name="cid01268" unicode="&#x4e1d;" d="M117 25 l1814 0 l0 -142 l-1814 0 l0 142 ZM612 1647 l142 -58 q-192 -393 -392 -633 q87 8 174.5 18.5 q87.5 10.5 176.5 22.5 q30 53 62.5 109.5 q32.5 56.5 66.5 116.5 l137 -45 q-137 -242 -274 -433.5 q-137 -191.5 -275 -332.5 q143 12 278 31.5 q135 19.5 263 45.5 l26 -135 q-347 -61 -780 -92 l-27 139 q185 80 437 461 q-200 -27 -410 -49 l-35 133 q31 13 60 53 q213 281 370 648 ZM1485 1647 l139 -56 q-97 -199 -195 -357.5 q-98 -158.5 -196 -277.5 q86 8 174.5 18.5 q88.5 10.5 177.5 22.5 q31 53 62 107 q31 54 63 110 l139 -45 q-135 -239 -269 -428 q-134 -189 -269 -327 q298 25 555 73 l28 -135 q-176 -29 -374.5 -50.5 q-198.5 -21.5 -419.5 -37.5 l-27 139 q185 82 428 459 l-414 -49 l-36 131 q33 15 61 55 q108 142 200.5 303.5 q92.5 161.5 172.5 344.5 Z" /><glyph glyph-name="cid01270" unicode="&#x4e22;" d="M1745 1647 l67 -121 q-303 -68 -710 -99 l0 -286 l663 0 l0 -137 l-663 0 l0 -291 l844 0 l0 -144 l-1092 0 q-104 -205 -195 -350 q-91 -145 -167 -231 q522 34 1038 104 q-49 68 -103 137 q-54 69 -112 142 l115 71 q136 -162 241 -305 q105 -143 178 -264 l-120 -86 q-25 43 -52.5 87.5 q-27.5 44.5 -58.5 88.5 q-303 -37 -632 -67 q-329 -30 -685 -52 l-33 131 q11 3 18.5 7.5 q7.5 4.5 12.5 7.5 q154 108 406 579 l-599 0 l0 144 l844 0 l0 291 l-663 0 l0 137 l663 0 l0 276 q-159 -9 -334 -14.5 q-175 -5.5 -362 -5.5 l-45 129 q462 0 846 30.5 q384 30.5 690 90.5 Z" /><glyph glyph-name="cid01271" unicode="&#x4e24;" d="M119 1579 l1810 0 l0 -145 l-553 0 l0 -320 l455 0 l0 -1096 q0 -204 -178 -204 l-211 0 l-37 143 l201 -6 q80 0 80 100 l0 922 l-316 0 q-3 -43 -6.5 -84.5 q-3.5 -41.5 -7.5 -81.5 q141 -214 286 -481 l-90 -136 q-129 295 -221 461 q-73 -353 -266 -559 l-109 96 q246 259 277 785 l-432 0 q-5 -52 -11 -102.5 q-6 -50.5 -12 -98.5 q59 -77 118.5 -163 q59.5 -86 119.5 -181 l-84 -125 q-54 106 -99 189 q-45 83 -81 143 q-73 -308 -244 -494 l-111 97 q230 245 267 735 l-302 0 l0 -1170 l-145 0 l0 1311 l453 0 l0 320 l-551 0 l0 145 ZM807 1114 l430 0 l0 320 l-430 0 l0 -320 Z" /><glyph glyph-name="cid01272" unicode="&#x4e25;" d="M276 1593 l1582 0 l0 -139 l-539 0 l0 -508 l579 0 l0 -141 l-1460 0 l0 -287 q-12 -456 -252 -729 l-110 98 q203 228 215 631 l0 428 l522 0 l0 508 l-537 0 l0 139 ZM950 946 l232 0 l0 508 l-232 0 l0 -508 ZM1614 1378 l121 -32 q-55 -187 -146 -330 l-121 43 q85 129 146 319 ZM498 1374 q90 -146 153 -309 l-119 -53 q-72 181 -159 321 l125 41 Z" /><glyph glyph-name="cid01273" unicode="&#x4e27;" d="M176 1434 l774 0 l0 241 l148 0 l0 -241 l749 0 l0 -138 l-749 0 l0 -522 l825 0 l0 -137 l-895 0 q67 -180 227 -328 q108 40 210 106 q102 66 200 156 l94 -92 q-176 -169 -395 -258 q223 -164 573 -284 l-84 -138 q-803 305 -974 838 l-314 0 l0 -637 q117 32 218.5 68.5 q101.5 36.5 187.5 76.5 l26 -137 q-126 -52 -274 -99 q-148 -47 -320 -87 l-45 139 q62 28 62 109 l0 567 l-295 0 l0 137 l825 0 l0 522 l-774 0 l0 138 ZM442 1237 q51 -80 100 -167.5 q49 -87.5 95 -182.5 l-125 -60 q-45 99 -92 186.5 q-47 87.5 -96 164.5 l118 59 ZM1604 1237 l118 -57 q-81 -184 -202 -355 l-121 62 q126 171 205 350 Z" /><glyph glyph-name="cid01275" unicode="&#x4e2a;" d="M948 1067 l152 0 l0 -1270 l-152 0 l0 1270 ZM958 1671 l132 0 q257 -422 884 -745 l-88 -133 q-289 150 -505 335 q-216 185 -357 406 q-342 -486 -862 -750 l-88 134 q573 291 884 753 Z" /><glyph glyph-name="cid01278" unicode="&#x4e2d;" d="M948 1681 l152 0 l0 -368 l735 0 l0 -963 l-147 0 l0 129 l-588 0 l0 -698 l-152 0 l0 698 l-586 0 l0 -129 l-147 0 l0 963 l733 0 l0 368 ZM362 623 l586 0 l0 546 l-586 0 l0 -546 ZM1100 623 l588 0 l0 546 l-588 0 l0 -546 Z" /><glyph glyph-name="cid01279" unicode="&#x4e30;" d="M299 913 l649 0 l0 330 l-743 0 l0 143 l743 0 l0 283 l152 0 l0 -283 l760 0 l0 -143 l-760 0 l0 -330 l665 0 l0 -147 l-665 0 l0 -326 l809 0 l0 -145 l-809 0 l0 -498 l-152 0 l0 498 l-803 0 l0 145 l803 0 l0 326 l-649 0 l0 147 Z" /><glyph glyph-name="cid01280" unicode="&#x4e32;&#xf905;" d="M309 1460 l639 0 l0 217 l152 0 l0 -217 l641 0 l0 -522 l-641 0 l0 -205 l719 0 l0 -571 l-719 0 l0 -365 l-152 0 l0 365 l-715 0 l0 571 l715 0 l0 205 l-639 0 l0 522 ZM1593 1065 l0 268 l-493 0 l0 -268 l493 0 ZM948 1065 l0 268 l-491 0 l0 -268 l491 0 ZM1671 289 l0 317 l-571 0 l0 -317 l571 0 ZM948 289 l0 317 l-567 0 l0 -317 l567 0 Z" /><glyph glyph-name="cid01281" unicode="&#x4e34;" d="M514 1669 l148 0 l0 -1868 l-148 0 l0 1868 ZM1874 754 l0 -944 l-141 0 l0 106 l-717 0 l0 -106 l-142 0 l0 944 l1000 0 ZM1016 55 l295 0 l0 561 l-295 0 l0 -561 ZM1448 616 l0 -561 l285 0 l0 561 l-285 0 ZM1368 1206 q86 -89 153.5 -165.5 q67.5 -76.5 114.5 -141.5 l-114 -82 q-101 148 -271 318 l117 71 ZM168 1413 l143 0 l0 -1276 l-143 0 l0 1276 ZM1090 1276 q-112 -216 -250 -379 l-103 121 q221 254 363 668 l147 -35 q-21 -60 -43 -117 q-22 -57 -45 -111 l772 0 l0 -147 l-841 0 Z" /><glyph glyph-name="cid01283" unicode="&#x4e38;" d="M217 1292 l545 0 l0 369 l147 0 l0 -369 l633 0 l-41 -1237 q0 -82 68 -82 l117 0 q47 0 79 39 q35 51 47 348 l144 -41 q-31 -362 -92 -430 q-62 -55 -166 -55 l-172 0 q-174 0 -174 184 l32 1133 l-481 0 q-18 -316 -82 -551 q169 -126 326 -270 l-86 -133 q-72 70 -144 133.5 q-72 63.5 -143 120.5 q-11 -31 -23 -59 q-12 -28 -24 -56 q-165 -339 -545 -531 l-82 129 q371 192 518 515 q10 24 19 47.5 q9 23.5 16 48.5 q-89 66 -179.5 123 q-90.5 57 -180.5 106 l78 115 q83 -46 164 -95.5 q81 -49.5 159 -101.5 q46 206 62 459 l-539 0 l0 141 Z" /><glyph glyph-name="cid01284" unicode="&#x4e39;&#xf95e;" d="M117 758 l395 0 l0 831 l1118 0 l0 -831 l301 0 l0 -142 l-301 0 l0 -616 q0 -182 -190 -182 l-238 0 l-39 143 q126 -6 232 -6 q84 0 84 96 l0 565 l-824 0 q-37 -502 -305 -825 l-112 103 q237 296 268 722 l-389 0 l0 142 ZM1479 758 l0 696 l-817 0 l0 -696 l817 0 ZM969 1333 q95 -107 167.5 -202 q72.5 -95 125.5 -175 l-117 -82 q-55 87 -129 183.5 q-74 96.5 -166 202.5 l119 73 Z" /><glyph glyph-name="cid01285" unicode="&#x4e3a;" d="M377 1622 q178 -184 276 -326 l-114 -79 q-54 76 -123 157.5 q-69 81.5 -152 167.5 l113 80 ZM1098 758 q110 -122 195 -227.5 q85 -105.5 145 -194.5 l-129 -90 q-62 98 -144 208 q-82 110 -186 230 l119 74 ZM842 1673 l145 0 l0 -243 q-3 -137 -12 -263 l844 0 q0 -875 -78 -1118 q-80 -239 -287 -239 q-75 0 -138.5 2.5 q-63.5 2.5 -115.5 5.5 l-39 143 q157 -12 285 -12 q174 12 199 346 q24 335 24 729 l-708 0 q-50 -387 -175 -649 q-181 -366 -598 -572 l-84 131 q415 211 574 555 q95 228 135 535 l-637 0 l0 143 l653 0 q10 130 13 263 l0 243 Z" /><glyph glyph-name="cid01286" unicode="&#x4e3b;" d="M950 1180 l-762 0 l0 145 l775 0 q-27 81 -59 159.5 q-32 78.5 -68 153.5 l143 39 q38 -87 67.5 -167 q29.5 -80 51.5 -154 l-80 -31 l844 0 l0 -145 l-762 0 l0 -484 l663 0 l0 -137 l-663 0 l0 -549 l833 0 l0 -145 l-1816 0 l0 145 l833 0 l0 549 l-663 0 l0 137 l663 0 l0 484 Z" /><glyph glyph-name="cid01287" unicode="&#x4e3d;" d="M127 1567 l1794 0 l0 -144 l-1794 0 l0 144 ZM735 -201 l-153 0 l-37 135 l145 -6 q76 0 76 82 l0 1061 l-410 0 l0 -1278 l-135 0 l0 1417 l682 0 l0 -1228 q0 -183 -168 -183 ZM506 852 q64 -108 120.5 -222.5 q56.5 -114.5 102.5 -236.5 l-119 -51 q-99 270 -215 465 l111 45 ZM1651 -201 l-142 0 l-36 135 l133 -6 q84 0 84 86 l0 1057 l-412 0 l0 -1278 l-137 0 l0 1417 l684 0 l0 -1224 q0 -187 -174 -187 ZM1425 854 q133 -221 228 -467 l-119 -51 q-49 135 -104 253.5 q-55 118.5 -115 219.5 l110 45 Z" /><glyph glyph-name="cid01288" unicode="&#x4e3e;" d="M471 1651 q52 -83 101.5 -172.5 q49.5 -89.5 95.5 -188.5 l-129 -63 q-86 204 -189 366 l121 58 ZM948 1675 q49 -80 95.5 -168.5 q46.5 -88.5 89.5 -183.5 l-125 -63 q-82 196 -179 358 l119 57 ZM594 1053 l-442 0 l0 141 l1163 0 q74 114 135.5 236.5 q61.5 122.5 114.5 255.5 l139 -54 q-114 -262 -236 -438 l428 0 l0 -141 l-452 0 q166 -265 524 -416 l-63 -135 q-427 208 -602 551 l-570 0 q-152 -316 -571 -543 l-80 129 q378 183 512 414 ZM481 713 l467 0 l0 227 l152 0 l0 -227 l471 0 l0 -144 l-471 0 l0 -250 l739 0 l0 -143 l-739 0 l0 -379 l-152 0 l0 379 l-739 0 l0 143 l739 0 l0 250 l-467 0 l0 144 Z" /><glyph glyph-name="cid01290" unicode="&#x4e43;" d="M203 1569 l1362 0 l0 -72 q-53 -283 -142 -577 l461 0 l0 -70 q-24 -550 -61 -723 q-40 -179 -127 -244 q-92 -63 -281 -63 l-248 0 l-47 149 q71 -4 134 -7 q63 -3 118 -3 q157 0 221 45 q63 50 90 184 q25 129 50 592 l-500 0 q104 338 166 645 l-565 0 q-28 -679 -148 -1001 q-142 -358 -465 -617 l-100 130 q296 226 426 546 q58 149 92.5 384.5 q34.5 235.5 46.5 557.5 l-483 0 l0 144 Z" /><glyph glyph-name="cid01291" unicode="&#x4e45;" d="M1090 518 q-377 -488 -926 -721 l-84 146 q818 332 1241 1282 l-625 0 q-191 -297 -487 -523 l-98 129 q467 351 632 861 l162 -19 q-50 -159 -123 -299 l715 0 l0 -127 q-134 -332 -313 -598 q231 -445 778 -710 l-115 -136 q-520 288 -757 715 Z" /><glyph glyph-name="cid01293" unicode="&#x4e48;" d="M1458 690 q254 -375 438 -807 l-143 -63 q-23 52 -46 102.5 q-23 50.5 -44 100.5 q-534 -96 -1305 -142 l-41 152 q63 25 129 94 q394 402 848 1186 l148 -74 q-533 -876 -854 -1194 q526 37 1009 111 q-67 135 -136.5 257 q-69.5 122 -143.5 232 l141 45 ZM883 1681 l159 -34 q-320 -667 -847 -1098 l-103 123 q482 386 791 1009 Z" /><glyph glyph-name="cid01294" unicode="&#x4e49;" d="M862 1673 q97 -110 181.5 -232.5 q84.5 -122.5 158.5 -254.5 l-133 -68 q-158 280 -346 492 l139 63 ZM1575 1577 l145 -33 q-138 -719 -567 -1163 q346 -284 803 -442 l-92 -138 q-470 177 -822 473 q-344 -308 -852 -475 l-81 133 q483 156 817 447 q-399 383 -629 936 l135 76 q216 -546 602 -908 q412 427 541 1094 Z" /><glyph glyph-name="cid01295" unicode="&#x4e4b;" d="M938 1681 q94 -157 184 -366 l639 0 l0 -111 q-356 -679 -1048 -1036 l14 -14 q132 -148 344 -166 q141 -6 408 -6 q81 0 193.5 2.5 q112.5 2.5 256.5 7.5 l-35 -148 l-393 0 q-270 0 -387 6 q-328 7 -502 226 q-58 67 -102 67 q-85 0 -256 -342 l-119 82 q202 414 379 414 q42 0 70 -18 l20 -13 q640 336 977 905 l-1323 0 l0 144 l705 0 q-42 92 -90 176.5 q-48 84.5 -103 161.5 l168 28 Z" /><glyph glyph-name="cid01296" unicode="&#x4e4c;" d="M117 293 l1333 0 l0 -139 l-1333 0 l0 139 ZM1303 -205 l-46 139 q129 -6 246 -6 q95 0 123 80 q27 80 33 518 l-1249 0 l0 924 l401 0 q28 58 50.5 120.5 q22.5 62.5 37.5 127.5 l154 -21 q-33 -119 -97 -227 l631 0 q-3 -414 -59 -526 q-62 -111 -275 -111 l-114 0 l-41 131 q46 -1 92 -2.5 q46 -1.5 92 -1.5 q114 0 139 84 q10 43 15.5 115 q5.5 72 5.5 174 l-881 0 l0 -651 l1245 0 q-3 -286 -17.5 -466 q-14.5 -180 -39.5 -255 q-53 -146 -246 -146 l-200 0 Z" /><glyph glyph-name="cid01297" unicode="&#x4e4d;" d="M608 1235 q-166 -295 -381 -516 l-100 121 q322 321 524 843 l150 -32 q-28 -73 -58 -141.5 q-30 -68.5 -61 -133.5 l1235 0 l0 -141 l-930 0 l0 -344 l772 0 l0 -143 l-772 0 l0 -345 l830 0 l0 -141 l-830 0 l0 -461 l-149 0 l0 1434 l-230 0 Z" /><glyph glyph-name="cid01298" unicode="&#x4e4e;" d="M117 702 l864 0 l0 662 q-166 -12 -348 -19.5 q-182 -7.5 -379 -7.5 l-45 138 q465 1 852 39.5 q387 38.5 694 115.5 l74 -129 q-303 -80 -699 -123 l0 -676 l807 0 l0 -143 l-807 0 l0 -551 q0 -201 -186 -201 l-278 0 l-31 146 q67 -5 131.5 -7.5 q64.5 -2.5 126.5 -2.5 q88 0 88 104 l0 512 l-864 0 l0 143 ZM1567 1309 l143 -37 q-79 -263 -207 -465 l-135 49 q57 89 106.5 202.5 q49.5 113.5 92.5 250.5 ZM506 1229 q55 -89 103 -185.5 q48 -96.5 91 -199.5 l-125 -56 q-46 113 -97.5 211.5 q-51.5 98.5 -106.5 184.5 l135 45 Z" /><glyph glyph-name="cid01299" unicode="&#x4e4f;" d="M1769 1655 l74 -129 q-617 -148 -1638 -148 l-47 135 q969 4 1611 142 ZM969 1313 q81 -123 159 -287 l584 0 l0 -135 q-355 -478 -989 -764 q130 -136 301 -139 q52 -2 114 -3 q62 -1 134 -1 q155 0 321 2.5 q166 2.5 342 5.5 l-30 -150 l-611 0 q-70 0 -133 1.5 q-63 1.5 -117 2.5 q-197 13 -301 78 q-82 47 -151 142 q-31 30 -62 30 q-89 0 -251 -303 l-115 98 q190 375 371 375 q40 0 75 -26 q2 0 6 -4 q578 244 910 641 l-1266 0 l0 149 l713 0 q-72 138 -166 260 l162 27 Z" /><glyph glyph-name="cid01300" unicode="&#x4e50;" d="M215 729 q49 226 85.5 425.5 q36.5 199.5 57.5 373.5 q55 -9 119 -12 q725 3 1180 145 l69 -125 q-236 -68 -548 -103.5 q-312 -35.5 -699 -41.5 q-24 -146 -50 -275.5 q-26 -129.5 -50 -243.5 l586 0 l0 402 l151 0 l0 -402 l748 0 l0 -143 l-748 0 l0 -727 q0 -199 -192 -199 l-275 0 l-31 146 q67 -5 130 -7.5 q63 -2.5 124 -2.5 q93 0 93 100 l0 690 l-750 0 ZM481 571 l129 -63 q-80 -180 -172 -336.5 q-92 -156.5 -198 -288.5 l-127 90 q216 253 368 598 ZM1526 584 q93 -148 182.5 -308 q89.5 -160 173.5 -335 l-137 -70 q-164 366 -350 649 l131 64 Z" /><glyph glyph-name="cid01301" unicode="&#x4e52;" d="M594 999 l0 -507 l659 0 l0 507 l-659 0 ZM444 492 l0 993 q338 27 614.5 71.5 q276.5 44.5 491.5 102.5 l78 -131 q-452 -105 -1034 -160 l0 -225 l1175 0 l0 -144 l-366 0 l0 -507 l512 0 l0 -142 l-1786 0 l0 142 l315 0 ZM717 336 l110 -98 q-116 -129 -260.5 -241.5 q-144.5 -112.5 -314.5 -209.5 l-92 121 q331 184 557 428 Z" /><glyph glyph-name="cid01302" unicode="&#x4e53;" d="M608 985 l0 -506 l664 0 l0 506 l-664 0 ZM459 479 l0 1008 q353 27 642 67.5 q289 40.5 513 96.5 l76 -127 q-473 -99 -1082 -154 l0 -242 l1182 0 l0 -143 l-369 0 l0 -506 l518 0 l0 -143 l-1822 0 l0 143 l342 0 ZM1315 317 q166 -107 304.5 -215.5 q138.5 -108.5 250.5 -216.5 l-113 -112 q-196 209 -540 448 l98 96 Z" /><glyph glyph-name="cid01303" unicode="&#x4e54;" d="M147 1130 l609 0 q44 68 82.5 137 q38.5 69 68.5 140 q-141 -9 -290.5 -15 q-149.5 -6 -309.5 -6 l-45 132 q424 1 777 38 q353 37 634 111 l72 -125 q-293 -84 -678 -121 q-31 -76 -66 -149.5 q-35 -73.5 -75 -141.5 l972 0 l0 -143 l-524 0 q177 -244 590 -438 l-96 -123 q-462 253 -647 561 l-390 0 q-250 -343 -645 -569 l-96 117 q338 193 557 452 l-500 0 l0 143 ZM1274 723 l147 0 l0 -930 l-147 0 l0 930 ZM643 725 l145 0 l0 -137 q-9 -319 -126 -514 q-119 -177 -386 -279 l-77 123 q248 95 346 248 q92 166 98 422 l0 137 Z" /><glyph glyph-name="cid01304" unicode="&#x4e56;" d="M1737 289 l-285 0 q-164 0 -164 168 l0 587 l137 0 l0 -237 q111 29 211 67 q100 38 191 84 l78 -108 q-105 -51 -224.5 -93.5 q-119.5 -42.5 -255.5 -76.5 l0 -197 q0 -63 66 -63 l209 0 q21 0 38.5 5.5 q17.5 5.5 33.5 14.5 q32 30 45 201 l125 -39 q-22 -225 -72 -272 q-51 -38 -133 -41 ZM598 1044 l137 0 l0 -784 l-137 0 l0 100 q-97 -20 -206 -39.5 q-109 -19.5 -230 -37.5 l-39 133 q255 30 475 73 l0 238 l-438 0 l0 133 l438 0 l0 184 ZM121 1276 l829 0 l0 188 q-141 -7 -293 -11.5 q-152 -4.5 -315 -4.5 l-45 131 q409 0 749 24.5 q340 24.5 611 71.5 l69 -123 q-271 -52 -628 -79 l0 -197 l827 0 l0 -133 l-827 0 l0 -1350 l-148 0 l0 1350 l-829 0 l0 133 Z" /><glyph glyph-name="cid01305" unicode="&#x4e58;" d="M1726 483 l-243 0 q-195 0 -195 197 l0 399 l144 0 l0 -168 q225 31 403 105 l45 -123 q-193 -68 -448 -105 l0 -79 q0 -101 92 -101 l174 0 q41 0 65 21 q25 24 31 143 l137 -43 q-18 -176 -67 -213 q-46 -33 -138 -33 ZM121 1296 l829 0 l0 170 q-144 -7 -299 -11.5 q-155 -4.5 -321 -4.5 l-43 131 q413 0 755.5 24 q342.5 24 616.5 70 l70 -123 q-136 -26 -294 -45.5 q-158 -19.5 -337 -31.5 l0 -179 l827 0 l0 -135 l-827 0 l0 -538 q327 -374 854 -582 l-82 -139 q-447 199 -772 542 l0 -651 l-148 0 l0 641 q-316 -328 -766 -543 l-92 140 q280 120 494 266.5 q214 146.5 364 318.5 l0 545 l-829 0 l0 135 ZM592 1075 l145 0 l0 -606 l-145 0 l0 96 q-92 -21 -196.5 -41.5 q-104.5 -20.5 -219.5 -40.5 l-39 133 q123 16 236.5 34 q113.5 18 218.5 36 l0 145 l-408 0 l0 132 l408 0 l0 112 Z" /><glyph glyph-name="cid01306" unicode="&#x2f04;&#x4e59;" d="M268 1548 l1434 0 l0 -129 q-315 -230 -532 -396 q-217 -166 -336 -267 q-134 -111 -226 -205 q-92 -94 -143 -174 q-78 -120 -78 -207 q0 -61 49 -104 q58 -46 236 -46 l817 0 q164 4 231 86 q68 90 68 394 l143 -43 q0 -356 -90 -465 q-92 -111 -307 -111 l-893 0 q-227 0 -317 72 q-97 84 -97 217 q0 105 82 238 q104 175 396 415 q270 234 737 584 l-1174 0 l0 141 Z" /><glyph glyph-name="cid01308" unicode="&#x4e5d;" d="M745 1669 l148 0 l0 -442 l610 0 l0 -1164 q0 -92 101 -92 l100 0 q84 0 102 113 q13 138 13 295 l139 -41 q-19 -286 -37 -350 q-37 -162 -217 -162 l-125 0 q-227 0 -227 215 l0 1038 l-463 0 q-25 -490 -174 -788 q-164 -309 -533 -481 l-88 137 q181 86 308 200 q127 114 198 259 q120 264 141 673 l-518 0 l0 148 l522 0 l0 442 Z" /><glyph glyph-name="cid01309" unicode="&#x4e5e;" d="M551 1686 l139 -31 q-21 -57 -44 -111 q-23 -54 -48 -106 l1221 0 l0 -142 l-1295 0 q-61 -109 -133 -205.5 q-72 -96.5 -151 -179.5 l-95 115 q245 251 406 660 ZM475 1022 l1124 0 l0 -137 q-724 -438 -950 -676 q-92 -101 -104 -170 q0 -64 88 -64 l823 0 q119 0 189 41 q70 50 110 377 l139 -55 q-43 -356 -139 -428 q-100 -72 -285 -72 l-829 0 q-254 0 -254 176 q0 128 176 301 q120 120 320 262.5 q200 142.5 483 307.5 l-891 0 l0 137 Z" /><glyph glyph-name="cid01310" unicode="&#x4e5f;" d="M991 1681 l146 0 l0 -483 l614 137 q0 -628 -25 -764 q-27 -192 -264 -192 l-94 0 l-41 137 q46 -1 86.5 -2.5 q40.5 -1.5 75.5 -1.5 q94 0 113 145 q3 33 5.5 156 q2.5 123 2.5 338 l-473 -102 l0 -758 l-146 0 l0 725 l-438 -96 l0 -781 q0 -137 141 -137 l901 0 q114 0 172 45 q47 44 66 318 l135 -46 q-24 -322 -92 -393 q-72 -65 -256 -65 l-963 0 q-249 0 -249 258 l0 770 l-326 -72 l0 144 l326 73 l0 486 l145 0 l0 -453 l438 98 l0 516 Z" /><glyph glyph-name="cid01311" unicode="&#x4e60;" d="M1313 713 l37 -133 q-217 -136 -486 -256.5 q-269 -120.5 -592 -225.5 l-59 135 q639 197 1100 480 ZM498 1202 q252 -188 430 -385 l-101 -102 q-159 183 -432 389 l103 98 ZM1100 -193 l-41 142 q84 -2 168.5 -3 q84.5 -1 169.5 -1 q92 0 139 84 q46 86 55 409 q3 108 5 349.5 q2 241.5 6 617.5 l-1338 0 l0 141 l1487 0 q-8 -507 -14 -808.5 q-6 -301.5 -13 -399.5 q-12 -303 -73 -414 q-59 -110 -224 -110 q-131 0 -327 -7 Z" /><glyph glyph-name="cid01312" unicode="&#x4e61;" d="M1645 891 l149 -14 q-67 -447 -408 -719 q-292 -241 -1052 -383 l-64 147 q692 116 1000 338 q118 88 203 201 q-209 -29 -472.5 -54 q-263.5 -25 -582.5 -47 l-45 132 q315 157 659 477 q-172 -19 -343.5 -32.5 q-171.5 -13.5 -340.5 -21.5 l-37 132 q357 274 623 651 l145 -53 q-235 -333 -551 -590 q160 7 320 19 q160 12 319 28 q73 74 146.5 155 q73.5 81 148.5 168 l144 -69 q-518 -591 -928 -844 q255 18 473.5 40.5 q218.5 22.5 402.5 47.5 q31 66 54 138.5 q23 72.5 37 152.5 Z" /><glyph glyph-name="cid01313" unicode="&#x4e66;" d="M838 1681 l147 0 l0 -358 l600 0 l0 -72 l-41 -479 l291 0 q-3 -588 -96 -690 q-42 -45 -123 -64 q-34 -6 -66.5 -10 q-32.5 -4 -66.5 -4 l-135 0 l-39 139 q52 0 102 -1 q50 -1 96 -1 q92 3 131 52 q42 50 52 438 l-705 0 l0 -838 l-147 0 l0 838 l-727 0 l0 141 l727 0 l0 410 l-611 0 l0 141 l611 0 l0 358 ZM985 772 l416 0 l39 410 l-455 0 l0 -410 ZM1501 1673 q230 -118 416 -276 l-78 -123 q-204 185 -414 289 l76 110 Z" /><glyph glyph-name="cid01315" unicode="&#x4e70;" d="M315 1022 q236 -96 428 -227 l-75 -119 q-103 77 -209 137.5 q-106 60.5 -215 104.5 l71 104 ZM504 1309 q232 -95 422 -230 l-76 -116 q-101 76 -204.5 137 q-103.5 61 -211.5 104 l70 105 ZM1069 1309 l145 0 l0 -430 q-3 -85 -13.5 -162 q-10.5 -77 -26.5 -148 l761 0 l0 -143 l-811 0 q-10 -25 -21 -49 q-11 -24 -24 -45 q446 -200 811 -430 l-100 -111 q-191 121 -386.5 228.5 q-195.5 107.5 -397.5 201.5 q-10 -11 -18 -21.5 q-8 -10.5 -15 -19.5 q-226 -244 -731 -379 l-84 131 q507 132 710 351 q57 69 93 143 l-814 0 l0 143 l873 0 q43 141 49 310 l0 430 ZM225 1552 l1561 0 l0 -92 q-23 -92 -53.5 -183 q-30.5 -91 -67.5 -181 l-139 39 q32 63 58.5 133 q26.5 70 47.5 147 l-1407 0 l0 137 Z" /><glyph glyph-name="cid01316" unicode="&#x4e71;" d="M98 1092 l437 0 l0 315 q-83 -6 -172.5 -10 q-89.5 -4 -184.5 -4 l-43 131 q504 0 842 108 l72 -125 q-80 -27 -171 -47.5 q-91 -20.5 -194 -36.5 l0 -331 l422 0 l0 -142 l-422 0 l0 -344 l344 0 l0 -788 l-145 0 l0 98 l-545 0 l0 -98 l-148 0 l0 788 l345 0 l0 344 l-437 0 l0 142 ZM338 57 l545 0 l0 414 l-545 0 l0 -414 ZM1704 -170 l-287 0 q-186 0 -186 197 l0 1615 l147 0 l0 -1585 q0 -92 84 -92 l215 0 q65 0 92 49 q33 57 46 346 l141 -45 q-22 -347 -82 -419 q-56 -66 -170 -66 Z" /><glyph glyph-name="cid01317" unicode="&#x4e73;" d="M1716 -170 l-286 0 q-177 0 -177 213 l0 1599 l146 0 l0 -1568 q0 -109 76 -109 l215 0 q63 0 88 49 q32 57 45 342 l139 -45 q-21 -342 -80 -415 q-53 -66 -166 -66 ZM1108 514 l0 -141 q-89 -22 -182.5 -43 q-93.5 -21 -190.5 -39 l0 -307 q0 -174 -180 -174 l-219 0 l-41 141 q64 -5 115 -7.5 q51 -2.5 88 -2.5 q90 0 90 86 l0 237 q-118 -20 -241.5 -38 q-123.5 -18 -252.5 -33 l-18 143 q135 15 263.5 33.5 q128.5 18.5 248.5 38.5 l0 219 q52 37 113.5 81.5 q61.5 44.5 134.5 98.5 l-668 0 l0 135 l872 0 l0 -108 q-67 -62 -143 -125 q-76 -63 -162 -129 l0 -146 q204 38 373 80 ZM983 1440 l133 -37 q-65 -223 -162 -389 l-127 45 q87 147 156 381 ZM600 1382 q35 -79 63 -152 q28 -73 48 -140 l-125 -48 q-25 79 -53 155.5 q-28 76.5 -62 152.5 l129 32 ZM240 1358 q33 -68 63.5 -144.5 q30.5 -76.5 56.5 -162.5 l-129 -33 q-24 78 -54 152 q-30 74 -66 145 l129 43 ZM1061 1659 l67 -119 q-188 -49 -438.5 -74.5 q-250.5 -25.5 -562.5 -25.5 l-41 123 q584 0 975 96 Z" /><glyph glyph-name="cid01318" unicode="&#x4e7e;" d="M117 1481 l358 0 l0 190 l150 0 l0 -190 l366 0 l0 -135 l-366 0 l0 -175 l305 0 l0 -737 l-305 0 l0 -182 l372 0 l0 -133 l-372 0 l0 -328 l-150 0 l0 328 l-389 0 l0 133 l389 0 l0 182 l-299 0 l0 737 l299 0 l0 175 l-358 0 l0 135 ZM791 557 l0 188 l-476 0 l0 -188 l476 0 ZM315 864 l476 0 l0 185 l-476 0 l0 -185 ZM1233 1264 q-76 -139 -160 -244 l-94 115 q169 205 276 540 l138 -30 q-22 -65 -45 -126 q-23 -61 -48 -116 l633 0 l0 -139 l-700 0 ZM1094 954 l733 0 l0 -129 q-123 -127 -218.5 -236 q-95.5 -109 -162.5 -198 q-62 -77 -105 -135.5 q-43 -58.5 -67 -101.5 q-43 -77 -43 -115 q0 -78 102 -78 l328 0 q66 0 104 51 q30 50 45 336 l132 -45 q-25 -338 -87 -405 q-60 -67 -194 -70 l-358 0 q-228 0 -228 184 q0 62 47 144 q25 46 75 118 q50 72 124 168 q61 83 138.5 176.5 q77.5 93.5 170.5 196.5 l-536 0 l0 139 Z" /><glyph glyph-name="cid01319" unicode="&#x4e86;&#xf9ba;" d="M981 991 q157 89 305 193.5 q148 104.5 289 224.5 l-1348 0 l0 143 l1549 0 l0 -143 q-286 -258 -646 -491 l0 -916 q0 -190 -192 -190 q-92 0 -173 2.5 q-81 2.5 -151 5.5 l-41 143 q151 -12 324 -12 q84 0 84 78 l0 962 Z" /><glyph glyph-name="cid01320" unicode="&#x4e88;" d="M709 1341 q96 -63 182.5 -125.5 q86.5 -62.5 163.5 -123.5 q209 154 383 358 l-1076 0 l0 139 l1264 0 l0 -119 q-207 -271 -465 -466 q16 -13 30 -26 q14 -13 28 -26 l645 0 l0 -127 q-77 -119 -167.5 -226 q-90.5 -107 -195.5 -200 l-117 103 q155 121 306 309 l-574 0 l0 -815 q0 -193 -184 -193 l-295 0 l-33 146 q72 -5 141.5 -7.5 q69.5 -2.5 135.5 -2.5 q86 0 86 94 l0 778 l-799 0 l0 141 l848 0 q-167 140 -408 291 l101 98 Z" /><glyph glyph-name="cid01321" unicode="&#x4e89;" d="M1667 274 l-602 0 l0 -260 q0 -202 -203 -202 l-297 0 l-30 141 q72 -5 141 -7.5 q69 -2.5 135 -2.5 q109 0 109 106 l0 225 l-549 0 l0 142 l549 0 l0 235 l-797 0 l0 135 l797 0 l0 230 l-514 0 l0 133 q-80 -68 -160 -123 l-92 111 q321 210 522 544 l147 -30 q-49 -80 -98 -154 l768 0 l0 -113 q-71 -66 -140 -123 q-69 -57 -136 -106 l450 0 l0 -369 l264 0 l0 -135 l-264 0 l0 -377 ZM999 1155 q73 46 143.5 97.5 q70.5 51.5 141.5 109.5 l-663 0 q-50 -55 -101 -107 q-51 -52 -106 -100 l585 0 ZM1065 1016 l0 -230 l457 0 l0 230 l-457 0 ZM1065 651 l0 -235 l457 0 l0 235 l-457 0 Z" /><glyph glyph-name="cid01322" unicode="&#x4e8b;" d="M344 1303 l606 0 l0 127 l-803 0 l0 126 l803 0 l0 123 l148 0 l0 -123 l803 0 l0 -126 l-803 0 l0 -127 l606 0 l0 -400 l-606 0 l0 -127 l635 0 l0 -276 l223 0 l0 -121 l-223 0 l0 -268 l-635 0 l0 -136 q0 -172 -183 -172 l-251 0 l-31 140 q61 -5 119.5 -8 q58.5 -3 113.5 -3 q84 0 84 78 l0 101 l-674 0 l0 118 l674 0 l0 150 l-858 0 l0 121 l858 0 l0 157 l-674 0 l0 119 l674 0 l0 127 l-606 0 l0 400 ZM1556 1016 l0 174 l-458 0 l0 -174 l458 0 ZM950 1016 l0 174 l-458 0 l0 -174 l458 0 ZM1098 657 l0 -157 l493 0 l0 157 l-493 0 ZM1591 379 l-493 0 l0 -150 l493 0 l0 150 Z" /><glyph glyph-name="cid01323" unicode="&#x2f06;&#x4e8c;" d="M297 1446 l1454 0 l0 -146 l-1454 0 l0 146 ZM109 158 l1828 0 l0 -150 l-1828 0 l0 150 Z" /><glyph glyph-name="cid01325" unicode="&#x4e8e;" d="M248 1593 l1538 0 l0 -143 l-670 0 l0 -557 l813 0 l0 -148 l-813 0 l0 -727 q0 -200 -207 -200 l-319 0 l-31 141 q78 -3 153 -5.5 q75 -2.5 146 -2.5 q109 0 109 104 l0 690 l-848 0 l0 148 l848 0 l0 557 l-719 0 l0 143 Z" /><glyph glyph-name="cid01326" unicode="&#x4e8f;" d="M319 1563 l1412 0 l0 -144 l-1412 0 l0 144 ZM133 1098 l1782 0 l0 -142 l-1157 0 l-111 -305 l1014 0 q-37 -597 -127 -714 q-92 -117 -379 -117 q-99 0 -237 6 l-37 135 q147 -12 274 -12 q186 0 254 74 q66 71 96 493 l-1046 0 l149 440 l-475 0 l0 142 Z" /><glyph glyph-name="cid01327" unicode="&#x4e91;" d="M305 1554 l1458 0 l0 -143 l-1458 0 l0 143 ZM109 983 l1837 0 l0 -147 l-983 0 q-142 -291 -266 -492.5 q-124 -201.5 -228 -314.5 q551 30 1102 104 q-111 197 -246 406 l119 73 q141 -212 250 -397 q109 -185 186 -342 l-131 -92 q-25 54 -51 108 q-26 54 -56 109 q-311 -40 -651 -71 q-340 -31 -708 -56 l-39 149 q12 4 20 8 q8 4 15 7 q199 149 520 801 l-690 0 l0 147 Z" /><glyph glyph-name="cid01328" unicode="&#x4e92;" d="M152 1585 l1740 0 l0 -143 l-1077 0 l-84 -338 l885 0 l-164 -1094 l494 0 l0 -143 l-1831 0 l0 143 l1192 0 l57 361 l-963 0 l265 1071 l-514 0 l0 143 ZM1386 508 l72 459 l-762 0 l-114 -459 l804 0 Z" /><glyph glyph-name="cid01330" unicode="&#x4e94;" d="M297 907 l465 0 l106 504 l-675 0 l0 143 l1665 0 l0 -143 l-842 0 l-107 -504 l690 0 l0 -878 l336 0 l0 -146 l-1820 0 l0 146 l463 0 l153 735 l-434 0 l0 143 ZM725 29 l725 0 l0 735 l-571 0 l-154 -735 Z" /><glyph glyph-name="cid01331" unicode="&#x4e95;" d="M193 1278 l407 0 l0 387 l152 0 l0 -387 l546 0 l0 389 l152 0 l0 -389 l405 0 l0 -141 l-405 0 l0 -490 l494 0 l0 -143 l-494 0 l0 -697 l-152 0 l0 697 l-581 0 q-34 -177 -92 -309 q-110 -237 -369 -373 l-90 139 q241 128 340 344 q35 88 57 199 l-459 0 l0 143 l482 0 q6 55 9.5 115 q3.5 60 4.5 123 l0 252 l-407 0 l0 141 ZM752 1137 l0 -252 q-2 -65 -5.5 -124 q-3.5 -59 -9.5 -114 l561 0 l0 490 l-546 0 Z" /><glyph glyph-name="cid01333" unicode="&#x4e9a;" d="M182 1552 l1684 0 l0 -141 l-551 0 l0 -1382 l616 0 l0 -146 l-1814 0 l0 146 l612 0 l0 1382 l-547 0 l0 141 ZM874 29 l295 0 l0 1382 l-295 0 l0 -1382 ZM1681 1126 l131 -32 q-52 -234 -120.5 -438 q-68.5 -204 -151.5 -380 l-127 50 q77 156 143.5 357 q66.5 201 124.5 443 ZM350 1106 q150 -340 264 -784 l-129 -35 q-103 400 -264 776 l129 43 Z" /><glyph glyph-name="cid01334" unicode="&#x4e9b;" d="M612 1665 l144 0 l0 -344 l303 0 l0 -139 l-303 0 l0 -383 q80 15 159.5 30.5 q79.5 15.5 157.5 32.5 l0 -139 q-221 -46 -459.5 -85.5 q-238.5 -39.5 -496.5 -72.5 l-35 142 q46 4 90.5 9 q44.5 5 87.5 11 l0 737 l143 0 l0 -719 q53 7 105 14 q52 7 104 15 l0 891 ZM1817 1499 l86 -119 q-126 -66 -273.5 -122.5 q-147.5 -56.5 -316.5 -102.5 l0 -313 q0 -94 71 -94 l256 0 q71 0 103 34 q41 45 53 244 l135 -45 q-24 -263 -86 -322 q-55 -49 -178 -49 l-328 0 q-172 0 -172 201 l0 854 l146 0 l0 -373 q138 40 264 92 q126 52 240 115 ZM354 422 l1338 0 l0 -141 l-1338 0 l0 141 ZM131 10 l1788 0 l0 -145 l-1788 0 l0 145 Z" /><glyph glyph-name="cid01337" unicode="&#x4ea1;" d="M117 1315 l880 0 q-38 77 -85.5 150 q-47.5 73 -104.5 141 l145 55 q56 -72 107.5 -158.5 q51.5 -86.5 97.5 -187.5 l772 0 l0 -148 l-1388 0 l0 -1136 l1302 0 l0 -146 l-1454 0 l0 1282 l-272 0 l0 148 Z" /><glyph glyph-name="cid01339" unicode="&#x4ea4;" d="M119 1430 l846 0 q-54 122 -123 229 l164 29 q30 -59 60.5 -123.5 q30.5 -64.5 57.5 -134.5 l807 0 l0 -142 l-1812 0 l0 142 ZM1348 1227 q170 -135 313 -269.5 q143 -134.5 258 -269.5 l-109 -108 q-101 129 -242 266 q-141 137 -321 284 l101 97 ZM1368 844 l135 -60 q-147 -282 -358 -487 q328 -237 809 -360 l-92 -138 q-249 71 -456.5 170 q-207.5 99 -373.5 228 q-344 -277 -835 -406 l-91 135 q484 123 807 369 q-222 201 -368 463 l127 71 q133 -248 354 -438 q104 98 190 211 q86 113 152 242 ZM688 1225 l107 -95 q-235 -306 -578 -532 l-94 125 q167 107 308.5 232 q141.5 125 256.5 270 Z" /><glyph glyph-name="cid01340" unicode="&#x4ea5;" d="M1292 258 q-202 -160 -455.5 -274 q-253.5 -114 -557.5 -185 l-89 131 q1041 234 1440 930 l135 -57 q-75 -129 -166 -242.5 q-91 -113.5 -198 -210.5 q291 -224 493 -444 l-112 -115 q-180 219 -490 467 ZM1386 1198 l136 -59 q-378 -685 -1264 -903 l-88 133 q498 116 827 370 q-150 -15 -310 -28.5 q-160 -13.5 -329 -24.5 l-34 141 q10 3 18 7.5 q8 4.5 14 7.5 q150 85 394 471 l-625 0 l0 141 l840 0 q-50 116 -107 205 l166 29 q26 -53 51 -111 q25 -58 49 -123 l801 0 l0 -141 l-1010 0 q-210 -340 -366 -482 q153 10 305.5 22.5 q152.5 12.5 302.5 31.5 q68 70 125.5 148.5 q57.5 78.5 103.5 164.5 Z" /><glyph glyph-name="cid01341" unicode="&#x4ea6;" d="M377 1022 l145 -31 q-52 -221 -126.5 -410.5 q-74.5 -189.5 -170.5 -349.5 l-131 84 q197 320 283 707 ZM1626 1028 q182 -355 320 -752 l-142 -61 q-145 436 -319 766 l141 47 ZM1004 1669 q27 -57 54.5 -121.5 q27.5 -64.5 55.5 -138.5 l793 0 l0 -143 l-564 0 l0 -1246 q0 -208 -206 -208 l-224 0 l-30 141 q52 -5 102.5 -7.5 q50.5 -2.5 99.5 -2.5 q111 0 111 114 l0 1209 l-326 0 l0 -316 q-12 -792 -489 -1153 l-109 97 q447 332 453 1056 l0 316 l-580 0 l0 143 l811 0 q-26 65 -55 123 q-29 58 -59 110 l162 27 Z" /><glyph glyph-name="cid01342" unicode="&#x4ea7;" d="M1028 1700 q25 -52 49 -112 q24 -60 47 -126 l719 0 l0 -141 l-356 0 q-19 -81 -43.5 -159.5 q-24.5 -78.5 -57.5 -151.5 l500 0 l0 -142 l-1470 0 l0 -303 q-13 -480 -223 -768 l-113 101 q180 242 186 667 l0 445 l420 0 l-86 311 l-375 0 l0 141 l750 0 q-22 59 -47.5 111.5 q-25.5 52.5 -53.5 99.5 l154 27 ZM831 1010 l414 0 q34 73 59.5 151.5 q25.5 78.5 41.5 159.5 l-601 0 l86 -311 Z" /><glyph glyph-name="cid01344" unicode="&#x4ea9;" d="M1751 1053 l0 -1262 l-143 0 l0 117 l-1159 0 l0 -117 l-142 0 l0 1262 l1444 0 ZM449 47 l507 0 l0 365 l-507 0 l0 -365 ZM1100 47 l508 0 l0 365 l-508 0 l0 -365 ZM449 549 l507 0 l0 369 l-507 0 l0 -369 ZM1100 918 l0 -369 l508 0 l0 369 l-508 0 ZM119 1423 l854 0 q-25 56 -54 109 q-29 53 -63 102 l141 52 q34 -56 65 -121 q31 -65 58 -142 l809 0 l0 -143 l-1810 0 l0 143 Z" /><glyph glyph-name="cid01345" unicode="&#x4eab;" d="M412 1239 l1226 0 l0 -414 l-1226 0 l0 414 ZM1497 952 l0 160 l-944 0 l0 -160 l944 0 ZM1001 1677 q25 -40 48 -83.5 q23 -43.5 45 -92.5 l819 0 l0 -139 l-1778 0 l0 139 l797 0 q-23 40 -47.5 78 q-24.5 38 -50.5 72 l167 26 ZM90 307 l897 0 l0 80 q95 37 207.5 82 q112.5 45 241.5 98 l-1147 0 l0 133 l1437 0 l0 -106 q-129 -60 -277.5 -121.5 q-148.5 -61.5 -315.5 -126.5 l0 -39 l825 0 l0 -135 l-825 0 l0 -190 q0 -187 -183 -187 l-288 0 l-39 135 q86 -4 153.5 -7 q67.5 -3 116.5 -3 q94 0 94 105 l0 147 l-897 0 l0 135 Z" /><glyph glyph-name="cid01346" unicode="&#x4eac;" d="M373 1116 l1304 0 l0 -573 l-571 0 l0 -547 q0 -184 -186 -184 l-222 0 l-32 141 q52 -5 102.5 -7.5 q50.5 -2.5 99.5 -2.5 q90 0 90 90 l0 510 l-585 0 l0 573 ZM1530 684 l0 291 l-1010 0 l0 -291 l1010 0 ZM999 1683 q25 -52 48 -109 q23 -57 45 -122 l839 0 l0 -137 l-1814 0 l0 137 l825 0 q-21 55 -44.5 107 q-23.5 52 -49.5 98 l151 26 ZM1466 412 q283 -237 471 -461 l-108 -109 q-167 219 -459 473 l96 97 ZM580 410 l102 -95 q-98 -135 -218.5 -254 q-120.5 -119 -264.5 -221 l-93 119 q140 95 258.5 208.5 q118.5 113.5 215.5 242.5 Z" /><glyph glyph-name="cid01347" unicode="&#x4ead;" d="M426 442 l1194 0 l0 -123 l-516 0 l0 -329 q0 -183 -195 -183 l-207 0 l-30 138 q49 -5 96.5 -8 q47.5 -3 93.5 -3 q90 0 90 93 l0 292 l-526 0 l0 123 ZM166 1499 l786 0 q-18 45 -37 86 q-19 41 -41 78 l152 25 q18 -42 36.5 -89.5 q18.5 -47.5 35.5 -99.5 l784 0 l0 -131 l-1716 0 l0 131 ZM440 1241 l1168 0 l0 -381 l-1168 0 l0 381 ZM1460 977 l0 147 l-872 0 l0 -147 l872 0 ZM1870 721 l0 -352 l-148 0 l0 229 l-1396 0 l0 -233 l-148 0 l0 356 l1692 0 Z" /><glyph glyph-name="cid01348" unicode="&#x4eae;" d="M643 457 l764 0 l0 -443 q0 -71 82 -71 l176 0 q42 0 70 20 q29 24 51 248 l133 -43 q-21 -220 -61 -285 q-43 -67 -168 -67 l-238 0 q-190 0 -190 170 l0 344 l-474 0 l0 -51 q-12 -394 -585 -490 l-82 123 q522 77 522 387 l0 158 ZM150 1509 l808 0 q-47 83 -104 156 l160 25 q50 -77 100 -181 l784 0 l0 -129 l-1748 0 l0 129 ZM459 1249 l1130 0 l0 -391 l-1130 0 l0 391 ZM1444 975 l0 155 l-840 0 l0 -155 l840 0 ZM1851 727 l0 -362 l-147 0 l0 231 l-1362 0 l0 -238 l-147 0 l0 369 l1656 0 Z" /><glyph glyph-name="cid01349" unicode="&#x4eb2;" d="M1335 362 q326 -153 596 -374 l-78 -125 q-291 248 -591 389 l73 110 ZM682 362 l92 -104 q-240 -231 -604 -385 l-61 133 q345 135 573 356 ZM1032 1683 q43 -98 80 -227 l672 0 l0 -133 l-1516 0 l0 133 l695 0 q-40 111 -86 203 l155 24 ZM170 963 l471 0 q-28 64 -60.5 126.5 q-32.5 62.5 -70.5 120.5 l137 52 q40 -62 76 -137 q36 -75 70 -162 l483 0 q78 140 137 303 l141 -49 q-58 -143 -127 -254 l453 0 l0 -140 l-774 0 l0 -235 l709 0 l0 -133 l-709 0 l0 -469 q0 -191 -193 -191 l-233 0 l-31 142 q56 -5 109.5 -8 q53.5 -3 103.5 -3 q99 0 99 99 l0 430 l-728 0 l0 133 l728 0 l0 235 l-791 0 l0 140 Z" /><glyph glyph-name="cid01352" unicode="&#x2f08;&#x4eba;" d="M1098 1669 q0 -132 -4 -245.5 q-4 -113.5 -11 -209.5 q173 -836 889 -1275 l-96 -129 q-628 412 -846 1105 q-183 -666 -868 -1108 l-90 132 q844 519 872 1404 q2 105 3 186.5 q1 81.5 1 139.5 l150 0 Z" /><glyph glyph-name="cid01354" unicode="&#x4ebf;" d="M340 948 q-52 -70 -110 -137 q-58 -67 -119 -131 l-48 154 q169 187 293 401 q124 214 201 457 l137 -66 q-79 -237 -202 -450 l0 -1385 l-152 0 l0 1157 ZM786 1477 l1035 0 l0 -129 q-222 -222 -374 -381.5 q-152 -159.5 -235 -255.5 q-92 -106 -156 -197 q-64 -91 -100 -168 q-57 -121 -57 -199 q0 -57 37 -100 q42 -45 164 -45 l547 0 q95 3 135 74 q37 77 37 340 l141 -43 q0 -316 -62 -414 q-62 -96 -206 -96 l-619 0 q-175 0 -248 69 q-73 86 -73 215 q0 53 14.5 109.5 q14.5 56.5 42.5 118.5 q37 83 106.5 183.5 q69.5 100.5 174.5 217.5 q93 112 221 251.5 q128 139.5 291 305.5 l-816 0 l0 144 Z" /><glyph glyph-name="cid01355" unicode="&#x4ec0;&#xf9fd;" d="M358 961 q-55 -79 -117.5 -153 q-62.5 -74 -129.5 -144 l-48 153 q333 373 488 864 l137 -65 q-74 -222 -182 -420 l0 -1405 l-148 0 l0 1170 ZM1223 1673 l149 0 l0 -674 l582 0 l0 -147 l-582 0 l0 -1059 l-149 0 l0 1059 l-555 0 l0 147 l555 0 l0 674 Z" /><glyph glyph-name="cid01356" unicode="&#x4ec1;" d="M760 1341 l1081 0 l0 -143 l-1081 0 l0 143 ZM645 156 l1307 0 l0 -142 l-1307 0 l0 142 ZM342 938 q-52 -69 -109 -135.5 q-57 -66.5 -118 -130.5 l-47 153 q169 188 292.5 403 q123.5 215 200.5 458 l137 -66 q-41 -120 -92 -233.5 q-51 -113.5 -112 -219.5 l0 -1368 l-152 0 l0 1139 Z" /><glyph glyph-name="cid01360" unicode="&#x4ec5;" d="M526 1686 l138 -66 q-74 -227 -181 -428 l0 -1401 l-149 0 l0 1161 q-98 -138 -215 -264 l-47 152 q313 368 454 846 ZM1870 -205 q-326 228 -541 486 q-237 -292 -581 -488 l-101 123 q352 190 586 485 q-328 447 -377 1002 l-106 0 l0 141 l1058 0 l0 -131 q-104 -600 -393 -1018 q111 -132 250 -252 q139 -120 305 -229 l-100 -119 ZM1319 518 q247 370 340 885 l-664 0 q44 -495 324 -885 Z" /><glyph glyph-name="cid01361" unicode="&#x4ec6;" d="M653 1690 l138 -66 q-47 -120 -106 -233.5 q-59 -113.5 -130 -221.5 l0 -1374 l-149 0 l0 1176 q-65 -77 -137 -151 q-72 -74 -150 -144 l-47 153 q401 377 581 861 ZM1139 1669 l147 0 l0 -665 q160 -93 321 -200 q161 -107 324 -229 l-86 -129 q-166 131 -305.5 232 q-139.5 101 -253.5 172 l0 -1053 l-147 0 l0 1872 Z" /><glyph glyph-name="cid01362" unicode="&#x4ec7;" d="M553 1661 l133 -62 q-40 -116 -89.5 -228 q-49.5 -112 -111.5 -218 l0 -1358 l-147 0 l0 1135 q-51 -68 -106.5 -133.5 q-55.5 -65.5 -116.5 -128.5 l-47 151 q331 369 485 842 ZM985 1653 l141 0 l0 -424 l469 0 l0 -1174 q0 -98 84 -98 l60 0 q55 0 67 98 q6 62 10.5 126.5 q4.5 64.5 4.5 133.5 l139 -41 q-11 -126 -21.5 -203 q-10.5 -77 -19.5 -106 q-28 -143 -178 -143 l-84 0 q-207 0 -207 211 l0 1052 l-324 0 q-18 -875 -432 -1280 l-114 101 q390 372 405 1179 l-289 0 l0 144 l289 0 l0 424 Z" /><glyph glyph-name="cid01364" unicode="&#x4eca;" d="M846 1149 q261 -115 473 -279 l-78 -122 q-232 179 -475 284 l80 117 ZM299 664 l1438 0 l0 -113 q-201 -501 -801 -758 l-98 127 q526 217 727 606 l-1266 0 l0 138 ZM973 1671 l106 0 q194 -215 417 -385 q223 -170 478 -295 l-78 -137 q-508 257 -870 678 q-330 -392 -870 -680 l-78 139 q538 271 895 680 Z" /><glyph glyph-name="cid01365" unicode="&#x4ecb;" d="M1290 983 l148 0 l0 -1171 l-148 0 l0 1171 ZM600 977 l148 0 l0 -371 q-10 -556 -367 -815 l-109 96 q322 224 328 719 l0 371 ZM971 1663 l106 0 q379 -449 875 -707 l-72 -131 q-500 266 -856 699 q-323 -413 -852 -717 l-72 131 q524 293 871 725 Z" /><glyph glyph-name="cid01366" unicode="&#x4ecd;" d="M952 1438 l-264 0 l0 143 l989 0 l0 -72 q-20 -144 -47 -290 q-27 -146 -61 -295 l334 0 l0 -64 q-10 -279 -21 -462.5 q-11 -183.5 -24 -272.5 q-31 -180 -97 -246 q-70 -63 -211 -63 l-239 0 l-43 143 q67 -3 127 -5.5 q60 -2.5 112 -2.5 q110 0 154 47 q40 49 61 186 q19 129 37 611 l-362 0 q40 167 72 328 q32 161 55 315 l-424 0 l0 -381 q-9 -849 -441 -1243 l-120 104 q407 358 413 1139 l0 381 ZM496 1690 l129 -62 q-31 -103 -68 -201 q-37 -98 -82 -190 l0 -1446 l-145 0 l0 1184 q-102 -154 -221 -295 l-50 156 q298 374 437 854 Z" /><glyph glyph-name="cid01367" unicode="&#x4ece;" d="M524 1659 l150 0 q0 -476 -49 -830 q119 -127 219.5 -254.5 q100.5 -127.5 183.5 -252.5 l-110 -113 q-62 107 -143 219.5 q-81 112.5 -179 230.5 q-95 -514 -426 -845 l-102 125 q291 300 383 749 q73 381 73 971 ZM1325 1661 l148 0 q0 -154 -6 -296 q-6 -142 -17 -271 q74 -366 205.5 -653.5 q131.5 -287.5 318.5 -497.5 l-106 -127 q-301 371 -461 915 q-3 -15 -5 -30.5 q-2 -15.5 -5 -30.5 q-98 -525 -451 -869 l-102 125 q305 303 403 756 q37 192 57 436.5 q20 244.5 21 542.5 Z" /><glyph glyph-name="cid01368" unicode="&#x4ed1;" d="M969 1665 l110 0 q383 -497 889 -786 l-78 -138 q-507 300 -866 789 q-325 -466 -864 -805 l-76 139 q529 318 885 801 ZM1411 -170 l-645 0 q-264 0 -264 291 l0 833 l145 0 l0 -428 q231 54 456.5 132.5 q225.5 78.5 444.5 183.5 l88 -121 q-519 -227 -989 -332 l0 -244 q0 -180 158 -180 l569 0 q88 0 150 37 q76 49 98 354 l141 -45 q-37 -349 -121 -417 q-78 -61 -231 -64 Z" /><glyph glyph-name="cid01369" unicode="&#x4ed3;" d="M971 1665 l106 0 q381 -461 885 -725 l-74 -131 q-253 138 -469.5 318.5 q-216.5 180.5 -394.5 404.5 q-332 -424 -870 -733 l-74 133 q536 296 891 733 ZM1378 803 l-719 0 l0 -721 q0 -115 115 -115 l623 0 q174 0 217 62 q44 69 65 270 l138 -45 q-31 -300 -107 -367 q-76 -57 -274 -57 l-721 0 q-205 0 -205 203 l0 905 l1016 0 l0 -473 q-3 -192 -176 -201 q-154 0 -295 6 l-39 142 q153 -13 280 -13 q82 0 82 111 l0 293 Z" /><glyph glyph-name="cid01370" unicode="&#x4ed4;" d="M662 809 l606 0 l0 295 q199 150 379 356 l-824 0 l0 133 l996 0 l0 -133 q-88 -109 -188 -211.5 q-100 -102.5 -214 -197.5 l0 -242 l551 0 l0 -143 l-551 0 l0 -652 q0 -213 -209 -213 l-225 0 l-37 138 q92 -7 203 -7 q119 0 119 127 l0 607 l-606 0 l0 143 ZM338 942 q-102 -135 -223 -260 l-49 156 q168 185 292 397.5 q124 212.5 201 452.5 l135 -64 q-80 -243 -209 -461 l0 -1370 l-147 0 l0 1149 Z" /><glyph glyph-name="cid01372" unicode="&#x4ed6;" d="M522 1686 l133 -62 q-37 -115 -81.5 -224 q-44.5 -109 -98.5 -212 l0 -1397 l-145 0 l0 1159 q-98 -140 -217 -272 l-47 153 q156 188 271 401.5 q115 213.5 185 453.5 ZM1673 -166 l-704 0 q-213 0 -213 217 l0 828 l-195 -62 l0 150 l195 63 l0 455 l147 0 l0 -408 l305 99 l0 499 l148 0 l0 -452 l448 143 q0 -324 -7.5 -520.5 q-7.5 -196.5 -20.5 -265.5 q-32 -138 -244 -138 l-33 0 l-43 144 q29 -2 55.5 -3 q26.5 -1 51.5 -1 q64 0 79 73 q7 34 10 161.5 q3 127.5 5 346.5 l-301 -94 l0 -821 l-148 0 l0 774 l-305 -96 l0 -854 q0 -97 103 -97 l643 0 q76 0 114 45 q31 47 43 320 l140 -47 q-19 -322 -72 -391 q-55 -68 -201 -68 Z" /><glyph glyph-name="cid01373" unicode="&#x4ed7;" d="M520 1681 l137 -65 q-70 -215 -172 -412 l0 -1413 l-147 0 l0 1172 q-101 -144 -219 -275 l-45 148 q153 184 264.5 395.5 q111.5 211.5 181.5 449.5 ZM668 1323 l704 0 l0 352 l152 0 l0 -352 l413 0 l0 -143 l-413 0 q-16 -535 -199 -865 q254 -245 649 -387 l-73 -133 q-400 146 -660 398 q-204 -251 -571 -398 l-80 125 q365 148 547 381 q-254 297 -342 703 l129 45 q40 -180 112.5 -335 q72.5 -155 180.5 -284 q143 296 155 750 l-704 0 l0 143 Z" /><glyph glyph-name="cid01374" unicode="&#x4ed8;" d="M543 1692 l137 -66 q-34 -107 -76.5 -207.5 q-42.5 -100.5 -91.5 -195.5 l0 -1432 l-147 0 l0 1188 q-56 -81 -118.5 -158.5 q-62.5 -77.5 -131.5 -150.5 l-45 153 q326 379 473 869 ZM723 1229 l784 0 l0 440 l148 0 l0 -440 l295 0 l0 -144 l-295 0 l0 -1069 q0 -209 -193 -209 l-297 0 l-32 146 q72 -5 141 -7.5 q69 -2.5 137 -2.5 q96 0 96 110 l0 1032 l-784 0 l0 144 ZM911 862 q235 -278 361 -483 l-125 -88 q-132 224 -356 497 l120 74 Z" /><glyph glyph-name="cid01375" unicode="&#x4ed9;" d="M557 1694 l135 -66 q-79 -241 -207 -459 l0 -1378 l-147 0 l0 1155 q-51 -67 -106.5 -133 q-55.5 -66 -116.5 -129 l-47 158 q169 186 290.5 399 q121.5 213 198.5 453 ZM1251 1665 l150 0 l0 -1595 l325 0 l0 1224 l150 0 l0 -1489 l-150 0 l0 121 l-817 0 l0 -121 l-145 0 l0 1487 l145 0 l0 -1222 l342 0 l0 1595 Z" /><glyph glyph-name="cid01380" unicode="&#x4ee3;" d="M1866 1184 l22 -142 l-676 -86 q19 -196 50 -338 q73 -318 204 -495 q119 -165 226 -168 q81 3 125 391 l129 -74 q-41 -254 -107 -374 q-55 -89 -139 -93 q-151 0 -311 195 q-174 213 -261 559 q-40 155 -61 379 l-444 -57 l-23 141 l455 59 q-22 258 -25 596 l152 0 q0 -328 18 -577 l666 84 ZM344 944 q-52 -71 -110 -137.5 q-58 -66.5 -119 -130.5 l-47 153 q169 186 290.5 399.5 q121.5 213.5 198.5 452.5 l137 -65 q-40 -117 -89 -227.5 q-49 -110.5 -109 -212.5 l0 -1385 l-152 0 l0 1153 ZM1405 1663 q188 -157 317 -311 l-102 -101 q-55 76 -133 155.5 q-78 79.5 -176 164.5 l94 92 Z" /><glyph glyph-name="cid01381" unicode="&#x4ee4;" d="M860 1182 q112 -49 215 -108 q103 -59 195 -128 l-74 -115 q-200 154 -412 240 l76 111 ZM659 365 q108 -40 209.5 -86 q101.5 -46 198.5 -95 q221 169 432 408 l-1169 0 l0 139 l1351 0 l0 -125 q-210 -275 -481 -491 q78 -43 153 -87.5 q75 -44.5 146 -90.5 l-82 -127 q-204 138 -414 246 q-210 108 -425 188 l81 121 ZM975 1649 l98 0 q386 -426 891 -672 l-74 -131 q-508 256 -866 665 q-326 -400 -864 -692 l-72 131 q528 278 887 699 Z" /><glyph glyph-name="cid01382" unicode="&#x4ee5;" d="M772 1450 q281 -324 428 -563 l-125 -86 q-157 258 -426 573 l123 76 ZM1477 446 q-204 -373 -652 -630 l-98 121 q525 302 692 753 q128 381 131 977 l154 0 q0 -582 -129 -987 q-8 -23 -16 -46 q-8 -23 -17 -46 q252 -320 424 -639 l-113 -113 q-145 290 -376 610 ZM264 29 l-49 139 q55 43 55 113 l0 1333 l152 0 l0 -1368 q236 97 475 239 l41 -143 q-312 -180 -674 -313 Z" /><glyph glyph-name="cid01384" unicode="&#x4eea;" d="M551 1686 l137 -66 q-81 -242 -203 -453 l0 -1372 l-147 0 l0 1147 q-49 -66 -104 -129 q-55 -63 -113 -125 l-47 156 q330 370 477 842 ZM1118 1675 q191 -252 295 -442 l-121 -82 q-57 104 -128.5 215 q-71.5 111 -157.5 227 l112 82 ZM1683 1577 l142 -29 q-52 -368 -160.5 -667.5 q-108.5 -299.5 -273.5 -528.5 q253 -275 581 -430 l-88 -131 q-338 169 -586 445 q-244 -285 -598 -443 l-79 131 q340 152 575 430 q-312 393 -489 965 l129 72 q158 -547 452 -918 q304 437 395 1104 Z" /><glyph glyph-name="cid01386" unicode="&#x4eec;" d="M1673 -188 l-194 0 l-37 137 l200 -4 q93 0 93 114 l0 1340 l-498 0 l0 141 l643 0 l0 -1522 q0 -206 -207 -206 ZM946 1673 q72 -90 127.5 -170 q55.5 -80 95.5 -149 l-116 -82 q-80 149 -219 330 l112 71 ZM559 1686 l133 -62 q-40 -121 -92 -236.5 q-52 -115.5 -115 -224.5 l0 -1372 l-147 0 l0 1149 q-51 -68 -106 -133.5 q-55 -65.5 -115 -126.5 l-47 149 q335 372 489 857 ZM737 1325 l144 0 l0 -1528 l-144 0 l0 1528 Z" /><glyph glyph-name="cid01387" unicode="&#x4ef0;" d="M692 72 l-37 129 q50 18 50 78 l0 1200 q258 73 405 170 l84 -119 q-65 -40 -153 -78 q-88 -38 -201 -74 l0 -1118 q166 55 319 123 l27 -137 q-105 -43 -228.5 -86.5 q-123.5 -43.5 -265.5 -87.5 ZM326 973 q-46 -77 -98 -150.5 q-52 -73.5 -107 -144.5 l-47 158 q270 368 393 845 l133 -61 q-28 -100 -62.5 -195 q-34.5 -95 -74.5 -186 l0 -1440 l-137 0 l0 1174 ZM1686 49 l-144 0 l-37 144 l133 -7 q88 0 88 101 l0 1104 l-309 0 l0 -1588 l-143 0 l0 1725 l592 0 l0 -1272 q0 -207 -180 -207 Z" /><glyph glyph-name="cid01388" unicode="&#x4ef2;" d="M530 1690 l138 -66 q-77 -233 -191 -442 l0 -1391 l-145 0 l0 1161 q-49 -70 -104 -136.5 q-55 -66.5 -115 -131.5 l-50 156 q319 367 467 850 ZM1212 1665 l152 0 l0 -362 l510 0 l0 -926 l-143 0 l0 104 l-367 0 l0 -686 l-152 0 l0 686 l-362 0 l0 -104 l-143 0 l0 926 l505 0 l0 362 ZM850 618 l362 0 l0 543 l-362 0 l0 -543 ZM1364 618 l367 0 l0 543 l-367 0 l0 -543 Z" /><glyph glyph-name="cid01391" unicode="&#x4ef6;" d="M537 1686 l139 -64 q-80 -243 -203 -461 l0 -1368 l-145 0 l0 1143 q-99 -135 -215 -258 l-47 158 q162 184 279.5 397 q117.5 213 191.5 453 ZM881 1550 l145 -18 q-25 -158 -68 -291 l302 0 l0 426 l147 0 l0 -426 l471 0 l0 -143 l-471 0 l0 -494 l547 0 l0 -141 l-547 0 l0 -660 l-147 0 l0 660 l-603 0 l0 141 l603 0 l0 494 l-349 0 q-76 -203 -190 -363 l-94 123 q185 280 254 692 Z" /><glyph glyph-name="cid01392" unicode="&#x4ef7;" d="M342 963 q-49 -73 -104 -141.5 q-55 -68.5 -113 -133.5 l-49 156 q150 181 260 388.5 q110 207.5 178 440.5 l139 -63 q-64 -206 -159 -393 l0 -1416 l-152 0 l0 1162 ZM1450 956 l143 0 l0 -1142 l-143 0 l0 1142 ZM924 950 l141 0 l0 -309 q-6 -580 -301 -850 l-111 96 q264 234 271 754 l0 309 ZM1184 1663 l133 0 q189 -408 659 -721 l-84 -125 q-430 286 -643 705 q-245 -470 -616 -727 l-82 125 q412 285 633 743 Z" /><glyph glyph-name="cid01393" unicode="&#x4efb;" d="M1798 1606 l72 -125 q-111 -37 -240 -64.5 q-129 -27.5 -276 -44.5 l0 -575 l600 0 l0 -144 l-600 0 l0 -643 l497 0 l0 -145 l-1138 0 l0 145 l493 0 l0 643 l-596 0 l0 144 l596 0 l0 561 q-104 -8 -214.5 -12.5 q-110.5 -4.5 -227.5 -4.5 l-47 140 q325 0 595.5 31.5 q270.5 31.5 485.5 93.5 ZM553 1669 l137 -63 q-40 -119 -91.5 -230.5 q-51.5 -111.5 -113.5 -216.5 l0 -1368 l-147 0 l0 1149 q-98 -129 -219 -250 l-47 158 q329 354 481 821 Z" /><glyph glyph-name="cid01394" unicode="&#x4efd;" d="M1047 729 l-256 0 l0 143 l905 0 q0 -650 -31 -806 q-25 -240 -250 -240 q-63 0 -217 6 l-35 139 q66 -3 123 -5.5 q57 -2.5 107 -2.5 q114 0 133 164 q18 98 24 602 l-358 0 q-53 -341 -143 -534 q-56 -108 -137.5 -206 q-81.5 -98 -190.5 -184 l-94 121 q191 152 288 334 q43 89 76.5 207 q33.5 118 55.5 262 ZM551 1675 l135 -61 q-80 -233 -199 -440 l0 -1383 l-151 0 l0 1155 q-102 -135 -221 -258 l-47 154 q165 181 285.5 389.5 q120.5 208.5 197.5 443.5 ZM997 1653 l136 -54 q-178 -523 -467 -800 l-115 98 q296 281 446 756 ZM1483 1677 q134 -446 477 -733 l-98 -115 q-362 301 -504 779 l125 69 Z" /><glyph glyph-name="cid01395" unicode="&#x4eff;" d="M543 1681 l139 -63 q-35 -108 -78.5 -210 q-43.5 -102 -95.5 -198 l0 -1419 l-148 0 l0 1182 q-53 -77 -113 -149.5 q-60 -72.5 -126 -141.5 l-47 158 q159 184 277 394.5 q118 210.5 192 446.5 ZM991 1212 l-307 0 l0 142 l563 0 q-26 83 -56.5 158.5 q-30.5 75.5 -64.5 144.5 l160 26 q28 -72 55.5 -154.5 q27.5 -82.5 53.5 -174.5 l538 0 l0 -142 l-796 0 l0 -184 q0 -88 -7 -168 l668 0 q-3 -329 -15 -540.5 q-12 -211.5 -32 -305.5 q-52 -194 -254 -200 q-64 0 -141 2.5 q-77 2.5 -164 5.5 l-43 131 q98 -3 181 -5.5 q83 -2.5 151 -2.5 q123 6 147 153 q9 71 14.5 227 q5.5 156 8.5 396 l-533 0 q-67 -608 -379 -920 l-114 101 q360 351 366 1126 l0 184 Z" /><glyph glyph-name="cid01396" unicode="&#x4f01;" d="M971 1667 l106 0 q390 -430 897 -676 l-80 -141 q-255 130 -472 302 q-217 172 -398 384 q-332 -399 -879 -688 l-77 141 q270 135 496 305 q226 170 407 373 ZM1008 1126 l149 0 l0 -460 l559 0 l0 -142 l-559 0 l0 -504 l707 0 l0 -143 l-1704 0 l0 143 l309 0 l0 811 l145 0 l0 -811 l394 0 l0 1106 Z" /><glyph glyph-name="cid01398" unicode="&#x4f0a;" d="M1784 512 l-551 0 q-30 -175 -92 -305 q-143 -279 -434 -410 l-80 125 q251 117 379 352 q24 50 44 108.5 q20 58.5 33 129.5 l-340 0 l0 139 l363 0 q6 68 10 142 q4 74 4 157 l-461 0 l0 140 l461 0 l0 303 l-346 0 l0 137 l1010 0 l0 -440 l174 0 l0 -140 l-174 0 l0 -438 ZM1268 1393 l0 -303 l368 0 l0 303 l-368 0 ZM1268 950 l0 -8 q0 -78 -4 -150.5 q-4 -72.5 -11 -140.5 l383 0 l0 299 l-368 0 ZM342 971 q-52 -77 -110 -151 q-58 -74 -119 -144 l-50 155 q311 376 453 863 l137 -66 q-68 -212 -159 -397 l0 -1440 l-152 0 l0 1180 Z" /><glyph glyph-name="cid01399" unicode="&#x4f0d;" d="M733 897 l326 0 l65 510 l-391 0 l0 141 l1137 0 l0 -141 l-600 0 l-66 -510 l514 0 l0 -883 l230 0 l0 -141 l-1332 0 l0 141 l332 0 l92 740 l-307 0 l0 143 ZM1094 14 l483 0 l0 740 l-391 0 l-92 -740 ZM557 1686 l135 -66 q-40 -123 -91.5 -238 q-51.5 -115 -113.5 -223 l0 -1368 l-147 0 l0 1145 q-49 -68 -104 -131.5 q-55 -63.5 -113 -124.5 l-49 156 q334 374 483 850 Z" /><glyph glyph-name="cid01401" unicode="&#x4f0f;" d="M354 967 q-52 -77 -109 -151 q-57 -74 -120 -144 l-49 155 q305 373 444 854 l137 -65 q-30 -103 -69.5 -201.5 q-39.5 -98.5 -85.5 -191.5 l0 -1432 l-148 0 l0 1176 ZM1587 1618 q85 -94 149.5 -176.5 q64.5 -82.5 110.5 -153.5 l-116 -80 q-93 150 -258 340 l114 70 ZM1343 1667 q0 -115 -2.5 -255 q-2.5 -140 -7.5 -306 l598 0 l0 -141 l-573 0 q148 -684 612 -1059 l-100 -111 q-446 378 -590 967 q-155 -581 -600 -969 l-102 113 q515 454 596 1059 l-517 0 l0 141 l527 0 q12 369 12 561 l147 0 Z" /><glyph glyph-name="cid01402" unicode="&#x4f10;" d="M354 971 q-101 -150 -225 -287 l-49 156 q302 364 440 833 l137 -63 q-30 -102 -69.5 -198.5 q-39.5 -96.5 -85.5 -188.5 l0 -1428 l-148 0 l0 1176 ZM1866 1245 l22 -141 l-723 -115 q10 -84 23.5 -161 q13.5 -77 30.5 -146 q20 -80 42.5 -152 q22.5 -72 47.5 -135 q229 230 385 535 l123 -66 q-186 -358 -449 -606 q31 -61 62 -111 q128 -183 237 -186 q75 13 156 365 l131 -82 q-52 -172 -111 -289 q-77 -141 -170 -141 q-157 0 -311 194 q-57 73 -102 158 q-125 -98 -263.5 -176 q-138.5 -78 -291.5 -133 l-80 123 q162 58 306 137 q144 79 267 180 q-28 66 -53.5 138.5 q-25.5 72.5 -46.5 152.5 q-49 162 -74 379 l-385 -60 l-23 142 l392 61 q-13 126 -20 267 q-7 141 -7 296 l149 0 q0 -149 5 -284 q5 -135 16 -256 l715 112 ZM1452 1671 q60 -69 117 -144 q57 -75 112 -155 l-129 -63 q-104 169 -223 303 l123 59 Z" /><glyph glyph-name="cid01403" unicode="&#x4f11;" d="M340 940 q-51 -68 -106 -131.5 q-55 -63.5 -113 -124.5 l-49 156 q333 366 483 839 l139 -65 q-82 -244 -209 -457 l0 -1362 l-145 0 l0 1145 ZM692 1260 l482 0 l0 401 l145 0 l0 -401 l530 0 l0 -142 l-422 0 q191 -519 541 -860 l-96 -131 q-328 367 -543 991 l-10 0 l0 -1323 l-145 0 l0 1323 l-9 0 q-202 -637 -524 -1005 l-84 137 q322 321 506 868 l-371 0 l0 142 Z" /><glyph glyph-name="cid01404" unicode="&#x4f17;" d="M969 1667 l110 0 q376 -474 863 -743 l-78 -138 q-492 286 -840 748 q-324 -434 -854 -752 l-76 138 q527 301 875 747 ZM578 948 l141 0 q0 -107 -7.5 -204 q-7.5 -97 -21.5 -183 q191 -178 326 -356 l-105 -105 q-49 77 -111.5 156 q-62.5 79 -137.5 162 l-19 -64 q-99 -319 -446 -520 l-93 113 q299 174 398 438 q37 111 56.5 251 q19.5 140 19.5 312 ZM1296 967 l142 0 q0 -186 -19 -342 q154 -431 537 -682 l-96 -113 q-318 226 -482 559 l-8 -33 q-86 -324 -403 -534 l-90 110 q266 183 352 453 q64 227 67 582 Z" /><glyph glyph-name="cid01405" unicode="&#x4f18;" d="M354 958 q-107 -147 -237 -280 l-43 147 q330 367 481 842 l133 -61 q-37 -111 -84 -216.5 q-47 -105.5 -102 -205.5 l0 -1389 l-148 0 l0 1163 ZM649 1174 l422 0 q2 30 3 61 q1 31 1 61 l0 371 l142 0 l0 -371 q0 -30 -1.5 -61 q-1.5 -31 -3.5 -61 l689 0 l0 -144 l-426 0 l0 -1005 q0 -62 59 -62 l178 0 q32 0 57 35 q28 46 37 328 l133 -43 q-21 -326 -65 -396 q-44 -56 -125 -59 l-254 0 q-162 0 -162 170 l0 1032 l-129 0 q-67 -818 -512 -1229 l-108 95 q412 375 479 1134 l-414 0 l0 144 ZM1485 1630 q193 -134 321 -268 l-100 -100 q-58 66 -137 135 q-79 69 -180 141 l96 92 Z" /><glyph glyph-name="cid01406" unicode="&#x4f19;" d="M356 944 q-49 -64 -101.5 -126.5 q-52.5 -62.5 -109.5 -121.5 l-49 156 q321 357 469 821 l137 -63 q-79 -240 -202 -449 l0 -1362 l-144 0 l0 1145 ZM848 1313 l137 -17 q-34 -363 -162 -637 l-133 41 q65 134 104 287.5 q39 153.5 54 325.5 ZM1368 1657 q0 -131 -2.5 -259.5 q-2.5 -128.5 -5.5 -254.5 q0 -49 -3 -97 q-3 -48 -7 -94 q135 -688 612 -1042 l-100 -113 q-426 352 -564 869 q-134 -515 -569 -873 l-100 111 q577 454 590 1210 q0 141 1 277.5 q1 136.5 1 265.5 l147 0 ZM1757 1348 l133 -37 q-73 -355 -184 -623 l-133 47 q104 239 184 613 Z" /><glyph glyph-name="cid01407" unicode="&#x4f1a;" d="M971 1673 l106 0 q390 -436 897 -688 l-80 -141 q-255 133 -472 308 q-217 175 -398 390 q-332 -405 -879 -700 l-77 141 q542 277 903 690 ZM524 1044 l1006 0 l0 -139 l-1006 0 l0 139 ZM203 633 l1646 0 l0 -144 l-964 0 q-147 -286 -357 -505 q251 15 489 37 q238 22 466 53 q-52 67 -109.5 137.5 q-57.5 70.5 -120.5 140.5 l115 74 q140 -157 247.5 -292.5 q107.5 -135.5 182.5 -250.5 l-123 -86 q-26 42 -54 83.5 q-28 41.5 -58 84.5 q-240 -38 -543 -68.5 q-303 -30.5 -670 -52.5 l-41 129 q54 15 78 39 q98 114 181 233 q83 119 149 244 l-514 0 l0 144 Z" /><glyph glyph-name="cid01409" unicode="&#x4f1e;" d="M162 469 l788 0 l0 739 l148 0 l0 -739 l786 0 l0 -143 l-786 0 l0 -525 l-148 0 l0 525 l-788 0 l0 143 ZM1509 1008 l123 -60 q-80 -206 -202 -399 l-121 63 q63 100 113.5 198.5 q50.5 98.5 86.5 197.5 ZM973 1667 l106 0 q390 -383 893 -600 l-74 -131 q-508 230 -872 600 q-334 -365 -876 -629 l-72 131 q533 251 895 629 ZM539 977 q49 -83 92 -179.5 q43 -96.5 80 -203.5 l-123 -33 q-36 98 -80 192 q-44 94 -96 183 l127 41 Z" /><glyph glyph-name="cid01410" unicode="&#x4f1f;" d="M707 1436 l479 0 l0 229 l151 0 l0 -229 l537 0 l0 -138 l-537 0 l0 -256 l449 0 l0 -139 l-449 0 l0 -252 l574 0 q0 -448 -68 -547 q-67 -94 -237 -100 l-95 0 l-38 133 l94 0 q130 6 164 70 q30 68 36 305 l-430 0 l0 -717 l-151 0 l0 717 l-541 0 l0 139 l541 0 l0 252 l-402 0 l0 139 l402 0 l0 256 l-479 0 l0 138 ZM342 944 q-52 -67 -109 -133 q-57 -66 -118 -129 l-47 158 q334 365 489 841 l139 -65 q-40 -120 -92 -232.5 q-52 -112.5 -115 -220.5 l0 -1372 l-147 0 l0 1153 Z" /><glyph glyph-name="cid01411" unicode="&#x4f20;" d="M342 938 q-51 -68 -106 -133.5 q-55 -65.5 -115 -126.5 l-47 158 q326 366 477 839 l139 -65 q-40 -119 -89.5 -231 q-49.5 -112 -111.5 -218 l0 -1370 l-147 0 l0 1147 ZM717 1411 l399 0 l62 264 l143 -14 q-15 -65 -29.5 -127.5 q-14.5 -62.5 -27.5 -122.5 l618 0 l0 -143 l-655 0 q-17 -62 -34 -121.5 q-17 -59.5 -36 -116.5 l809 0 l0 -141 l-856 0 q-25 -71 -50.5 -135.5 q-25.5 -64.5 -49.5 -124.5 l841 0 l0 -127 q-129 -215 -411 -430 q72 -39 141.5 -80.5 q69.5 -41.5 136.5 -85.5 l-84 -127 q-372 256 -770 405 l78 115 q191 -74 369 -160 q242 169 383 353 l-877 0 q40 95 78 194.5 q38 99.5 74 202.5 l-342 0 l0 141 l387 0 q18 60 35 119.5 q17 59.5 32 118.5 l-364 0 l0 143 Z" /><glyph glyph-name="cid01413" unicode="&#x4f24;" d="M549 1696 l139 -66 q-40 -120 -89.5 -232 q-49.5 -112 -111.5 -218 l0 -1389 l-151 0 l0 1155 q-52 -69 -107.5 -135 q-55.5 -66 -115.5 -129 l-50 156 q336 376 486 858 ZM1018 1698 l145 -17 q-37 -135 -92 -251 l871 0 l0 -142 l-945 0 q-55 -90 -123.5 -171.5 q-68.5 -81.5 -148.5 -153.5 l-94 120 q289 252 387 615 ZM1159 1161 l150 0 l0 -295 l573 0 q0 -688 -31 -848 q-28 -198 -243 -198 q-43 0 -116.5 2.5 q-73.5 2.5 -176.5 5.5 l-35 127 q178 -6 309 -6 q105 0 123 123 q19 104 25 649 l-437 0 q-61 -631 -522 -938 l-114 102 q432 275 487 836 l-377 0 l0 145 l385 0 l0 295 Z" /><glyph glyph-name="cid01415" unicode="&#x4f26;" d="M1204 1667 l131 0 q187 -380 641 -666 l-84 -127 q-416 264 -622 652 q-244 -427 -621 -662 l-84 129 q417 259 639 674 ZM1581 -172 l-496 0 q-208 0 -208 205 l0 901 l149 0 l0 -361 q326 96 633 271 l86 -121 q-189 -98 -368.5 -171.5 q-179.5 -73.5 -350.5 -121.5 l0 -367 q0 -94 107 -94 l421 0 q90 0 132 45 q46 50 65 314 l141 -47 q-27 -323 -102 -392 q-65 -61 -209 -61 ZM547 1688 l139 -64 q-40 -120 -89.5 -232 q-49.5 -112 -109.5 -216 l0 -1385 l-151 0 l0 1153 q-51 -67 -106 -133 q-55 -66 -113 -127 l-47 158 q164 184 283.5 395 q119.5 211 193.5 451 Z" /><glyph glyph-name="cid01417" unicode="&#x4f2a;" d="M356 983 q-110 -163 -237 -303 l-47 154 q308 366 450 841 l133 -61 q-61 -197 -151 -377 l0 -1446 l-148 0 l0 1192 ZM819 1626 q71 -86 127 -161 q56 -75 96 -140 l-112 -78 q-86 142 -221 301 l110 78 ZM1315 750 q182 -228 278 -398 l-116 -80 q-99 179 -258 387 q-17 -79 -37.5 -150 q-20.5 -71 -44.5 -134 q-141 -358 -467 -561 l-80 123 q313 205 436 546 q37 114 62 247.5 q25 133.5 40 287.5 l-428 0 l0 143 l441 0 q3 60 5.5 122 q2.5 62 4.5 126 l0 264 l141 0 l0 -264 q-1 -64 -3 -126.5 q-2 -62.5 -5 -121.5 l574 0 q0 -879 -31 -1085 q-34 -252 -324 -252 q-48 0 -162 6 l-34 131 q104 -6 178 -6 q175 0 203 178 q21 141 24 885 l-440 0 q-9 -88 -20 -168 q-11 -80 -25 -154 l88 54 Z" /><glyph glyph-name="cid01419" unicode="&#x4f2f;" d="M373 973 q-56 -75 -118 -147.5 q-62 -72.5 -130 -141.5 l-49 156 q341 366 497 837 l136 -65 q-39 -111 -86.5 -214.5 q-47.5 -103.5 -102.5 -201.5 l0 -1401 l-147 0 l0 1178 ZM1847 1366 l0 -1561 l-145 0 l0 103 l-760 0 l0 -103 l-145 0 l0 1561 l325 0 q61 147 92 311 l152 -20 q-36 -155 -98 -291 l579 0 ZM942 49 l760 0 l0 529 l-760 0 l0 -529 ZM942 715 l760 0 l0 510 l-760 0 l0 -510 Z" /><glyph glyph-name="cid01420" unicode="&#x4f30;" d="M532 1683 l140 -65 q-81 -248 -203 -465 l0 -1362 l-147 0 l0 1135 q-96 -129 -209 -252 l-47 155 q319 372 466 854 ZM664 1266 l559 0 l0 405 l151 0 l0 -405 l584 0 l0 -142 l-584 0 l0 -428 l451 0 l0 -899 l-146 0 l0 90 l-747 0 l0 -90 l-148 0 l0 899 l439 0 l0 428 l-559 0 l0 142 ZM932 29 l747 0 l0 526 l-747 0 l0 -526 Z" /><glyph glyph-name="cid01422" unicode="&#x4f34;" d="M887 1556 q49 -90 91 -194.5 q42 -104.5 79 -220.5 l-137 -35 q-34 104 -77 205.5 q-43 101.5 -93 199.5 l137 45 ZM1706 1595 l141 -36 q-37 -133 -83.5 -248 q-46.5 -115 -104.5 -213 l-135 47 q52 89 98 201.5 q46 112.5 84 248.5 ZM698 1004 l519 0 l0 665 l151 0 l0 -665 l535 0 l0 -142 l-535 0 l0 -336 l590 0 l0 -143 l-590 0 l0 -588 l-151 0 l0 588 l-580 0 l0 143 l580 0 l0 336 l-519 0 l0 142 ZM528 1683 l140 -63 q-79 -240 -197 -457 l0 -1372 l-145 0 l0 1143 q-48 -66 -99 -129 q-51 -63 -106 -123 l-49 158 q156 184 271 394.5 q115 210.5 185 448.5 Z" /><glyph glyph-name="cid01423" unicode="&#x4f36;" d="M1145 1159 q144 -104 266 -248 l-88 -102 q-131 153 -276 262 l98 88 ZM532 1683 l138 -65 q-40 -120 -89.5 -233.5 q-49.5 -113.5 -109.5 -221.5 l0 -1372 l-145 0 l0 1145 q-50 -66 -101 -129 q-51 -63 -106 -123 l-49 156 q315 367 462 843 ZM670 748 l1083 0 l0 -121 q-98 -145 -210.5 -272.5 q-112.5 -127.5 -242.5 -237.5 q82 -54 156 -108 q74 -54 141 -107 l-106 -105 q-129 111 -307 230 q-178 119 -406 245 l101 97 q81 -45 156.5 -89 q75.5 -44 146.5 -87 q103 86 203 191 q100 105 198 228 l-913 0 l0 136 ZM1165 1655 l129 0 q197 -381 670 -670 l-80 -119 q-437 257 -653 643 q-129 -210 -291 -372.5 q-162 -162.5 -358 -276.5 l-80 121 q429 258 663 674 Z" /><glyph glyph-name="cid01424" unicode="&#x4f38;" d="M872 803 l0 -299 l359 0 l0 299 l-359 0 ZM1231 369 l-359 0 l0 -101 l-139 0 l0 1098 l498 0 l0 299 l145 0 l0 -299 l506 0 l0 -1098 l-141 0 l0 101 l-365 0 l0 -574 l-145 0 l0 574 ZM1376 504 l365 0 l0 299 l-365 0 l0 -299 ZM1741 936 l0 295 l-365 0 l0 -295 l365 0 ZM1231 1231 l-359 0 l0 -295 l359 0 l0 295 ZM545 1683 l137 -63 q-81 -245 -203 -459 l0 -1370 l-145 0 l0 1149 q-49 -66 -102 -129 q-53 -63 -111 -125 l-47 156 q163 184 280 394.5 q117 210.5 191 446.5 Z" /><glyph glyph-name="cid01425" unicode="&#x4f3a;" d="M1673 -195 l-291 0 l-36 138 l296 -4 q91 0 91 120 l0 1397 l-1061 0 l0 139 l1210 0 l0 -1579 q0 -211 -209 -211 ZM678 1210 l878 0 l0 -135 l-878 0 l0 135 ZM745 852 l734 0 l0 -651 l-734 0 l0 651 ZM1333 336 l0 381 l-444 0 l0 -381 l444 0 ZM492 1686 l137 -66 q-31 -103 -69 -200 q-38 -97 -83 -189 l0 -1440 l-145 0 l0 1182 q-49 -74 -102 -145.5 q-53 -71.5 -111 -139.5 l-47 158 q286 363 420 840 Z" /><glyph glyph-name="cid01426" unicode="&#x4f3c;" d="M717 88 l-45 135 q94 35 94 92 l0 1307 l145 0 l0 -1325 q148 58 295 141 l37 -129 q-244 -128 -526 -221 ZM348 961 q-105 -150 -235 -293 l-50 155 q325 377 472 860 l137 -65 q-37 -114 -82 -220 q-45 -106 -98 -204 l0 -1389 l-144 0 l0 1156 ZM1608 1665 l141 0 q0 -295 -24.5 -544 q-24.5 -249 -71.5 -453 q-29 -117 -68 -219 q253 -311 393 -551 l-116 -80 q-65 113 -149 237.5 q-84 124.5 -185 259.5 q-152 -303 -434 -524 l-95 117 q387 304 510 766 q99 387 99 991 ZM1161 1430 q69 -122 129.5 -252 q60.5 -130 112.5 -269 l-121 -55 q-107 301 -240 537 l119 39 Z" /><glyph glyph-name="cid01428" unicode="&#x4f43;" d="M553 1683 l137 -65 q-74 -224 -178 -422 l0 -1389 l-147 0 l0 1151 q-108 -153 -236 -290 l-49 157 q326 376 473 858 ZM1249 1366 l-340 0 l0 -565 l340 0 l0 565 ZM1249 666 l-340 0 l0 -586 l340 0 l0 586 ZM1382 80 l334 0 l0 586 l-334 0 l0 -586 ZM1382 801 l334 0 l0 565 l-334 0 l0 -565 ZM1716 -61 l-807 0 l0 -134 l-143 0 l0 1704 l1094 0 l0 -1704 l-144 0 l0 134 Z" /><glyph glyph-name="cid01429" unicode="&#x4f46;" d="M827 1544 l977 0 l0 -1222 l-977 0 l0 1222 ZM1655 461 l0 401 l-682 0 l0 -401 l682 0 ZM973 999 l682 0 l0 408 l-682 0 l0 -408 ZM668 10 l1290 0 l0 -145 l-1290 0 l0 145 ZM557 1688 l137 -66 q-40 -120 -92 -233.5 q-52 -113.5 -115 -221.5 l0 -1376 l-147 0 l0 1153 q-101 -135 -223 -260 l-49 158 q335 366 489 846 Z" /><glyph glyph-name="cid01430" unicode="&#x4f4d;" d="M551 1686 l137 -64 q-80 -242 -199 -451 l0 -1380 l-147 0 l0 1155 q-51 -67 -106 -133 q-55 -66 -115 -129 l-47 158 q327 371 477 844 ZM678 1343 l551 0 q-22 82 -47.5 157 q-25.5 75 -53.5 142 l156 27 q49 -141 92 -326 l535 0 l0 -141 l-1233 0 l0 141 ZM643 37 l705 0 q78 206 146 464 q68 258 126 568 l141 -37 q-53 -281 -119 -530 q-66 -249 -143 -465 l465 0 l0 -146 l-1321 0 l0 146 ZM930 1047 q119 -395 215 -908 l-137 -37 q-42 234 -95.5 459.5 q-53.5 225.5 -117.5 444.5 l135 41 Z" /><glyph glyph-name="cid01431" unicode="&#x4f4e;" d="M887 778 l0 -735 q47 18 93.5 39 q46.5 21 90.5 43 l25 -129 q-80 -32 -175 -66 q-95 -34 -202 -69 l-39 127 q65 22 65 80 l0 1349 q649 99 1008 221 l82 -118 q-77 -26 -166.5 -51 q-89.5 -25 -193.5 -50 q1 -144 5.5 -268.5 q4.5 -124.5 10.5 -230.5 l438 0 l0 -142 l-426 0 q6 -66 15 -124 q9 -58 18 -107 q49 -271 121 -412 q67 -129 106 -129 q41 3 72 340 l123 -67 q-59 -445 -170 -445 q-95 0 -203 164 q-110 169 -178 498 q-28 126 -43 282 l-477 0 ZM1333 1389 q-101 -22 -213 -42 q-112 -20 -233 -40 l0 -387 l465 0 q-19 208 -19 469 ZM1225 252 q173 -211 268 -373 l-113 -76 q-101 175 -258 375 l103 74 ZM547 1675 l133 -61 q-38 -117 -87 -227.5 q-49 -110.5 -108 -215.5 l0 -1380 l-143 0 l0 1157 q-105 -142 -225 -268 l-47 156 q329 366 477 839 Z" /><glyph glyph-name="cid01432" unicode="&#x4f4f;" d="M666 1323 l567 0 q-53 163 -123 311 l147 39 q73 -175 113 -323 l-70 -27 l609 0 l0 -145 l-541 0 l0 -490 l483 0 l0 -141 l-483 0 l0 -539 l584 0 l0 -145 l-1319 0 l0 145 l584 0 l0 539 l-488 0 l0 141 l488 0 l0 490 l-551 0 l0 145 ZM545 1683 l137 -63 q-79 -240 -203 -457 l0 -1372 l-145 0 l0 1151 q-49 -68 -103 -131 q-54 -63 -112 -123 l-47 156 q325 365 473 839 Z" /><glyph glyph-name="cid01434" unicode="&#x4f51;" d="M555 1661 l139 -64 q-80 -242 -209 -460 l0 -1336 l-147 0 l0 1117 q-49 -68 -104 -131.5 q-55 -63.5 -113 -122.5 l-49 155 q333 371 483 842 ZM1804 768 l0 -965 l-143 0 l0 123 l-553 0 l0 -123 l-143 0 l0 775 q-71 -106 -150 -195.5 q-79 -89.5 -168 -161.5 l-74 133 q355 306 519 852 l-381 0 l0 137 l417 0 q37 160 62 332 l147 -18 q-24 -166 -61 -314 l643 0 l0 -137 l-678 0 q-67 -240 -166 -438 l729 0 ZM1108 61 l553 0 l0 574 l-553 0 l0 -574 Z" /><glyph glyph-name="cid01435" unicode="&#x4f53;" d="M330 899 q-48 -69 -100 -135 q-52 -66 -107 -129 l-43 147 q320 394 461 899 l133 -61 q-40 -128 -89.5 -249 q-49.5 -121 -109.5 -234 l0 -1344 l-145 0 l0 1106 ZM639 1323 l543 0 l0 352 l145 0 l0 -352 l559 0 l0 -143 l-418 0 q142 -507 498 -904 l-96 -120 q-378 457 -518 1024 l-25 0 l0 -822 l318 0 l0 -141 l-318 0 l0 -422 l-145 0 l0 422 l-314 0 l0 141 l314 0 l0 822 l-25 0 q-153 -639 -532 -1049 l-76 127 q341 353 489 922 l-399 0 l0 143 Z" /><glyph glyph-name="cid01436" unicode="&#x4f55;" d="M690 1548 l1266 0 l0 -143 l-158 0 l0 -1413 q0 -191 -192 -191 l-349 0 l-30 146 q86 -5 168.5 -7.5 q82.5 -2.5 158.5 -2.5 q95 0 95 92 l0 1376 l-959 0 l0 143 ZM741 1098 l664 0 l0 -766 l-664 0 l0 766 ZM1262 467 l0 498 l-379 0 l0 -498 l379 0 ZM526 1686 l133 -64 q-72 -228 -184 -438 l0 -1393 l-145 0 l0 1157 q-48 -67 -100 -132.5 q-52 -65.5 -109 -127.5 l-47 158 q311 367 452 840 Z" /><glyph glyph-name="cid01439" unicode="&#x4f59;" d="M973 1665 l104 0 q385 -361 897 -573 l-78 -136 q-511 222 -872 580 q-330 -339 -881 -590 l-73 135 q540 237 903 584 ZM483 1116 l1088 0 l0 -141 l-455 0 l0 -264 l744 0 l0 -144 l-744 0 l0 -540 q0 -207 -213 -207 l-246 0 l-32 139 q60 -3 117 -5.5 q57 -2.5 112 -2.5 q117 0 117 112 l0 504 l-781 0 l0 144 l781 0 l0 264 l-488 0 l0 141 ZM588 434 l129 -53 q-174 -318 -461 -487 l-113 94 q293 164 445 446 ZM1456 461 q302 -277 465 -484 l-123 -86 q-166 225 -455 498 l113 72 Z" /><glyph glyph-name="cid01441" unicode="&#x4f5b;" d="M514 1688 l133 -62 q-37 -123 -84 -237 q-47 -114 -104 -222 l0 -1376 l-142 0 l0 1145 q-92 -132 -196 -252 l-47 152 q150 187 260.5 399.5 q110.5 212.5 179.5 452.5 ZM786 897 l-34 -274 l204 0 q8 64 13 133 q5 69 8 141 l-191 0 ZM1118 897 q-3 -74 -8 -142 q-5 -68 -12 -132 l241 0 l0 274 l-221 0 ZM1481 897 l0 -274 l430 0 q0 -397 -41 -504 q-46 -114 -197 -117 q-27 0 -52 1.5 q-25 1.5 -48 2.5 l-37 135 q31 -3 59 -5.5 q28 -2.5 54 -2.5 q86 0 104 86 q19 74 19 273 l-291 0 l0 -699 l-142 0 l0 699 l-260 0 q-15 -82 -34 -154 q-19 -72 -44 -135 q-107 -267 -354 -418 l-80 127 q229 147 322 393 q29 91 47 187 l-332 0 l60 534 l315 0 l0 272 l-313 0 l0 134 l313 0 l0 233 l141 0 l0 -233 l219 0 l0 233 l142 0 l0 -233 l360 0 l0 -535 l-360 0 ZM1120 1298 l0 -272 l219 0 l0 272 l-219 0 ZM1481 1298 l0 -272 l227 0 l0 272 l-227 0 Z" /><glyph glyph-name="cid01442" unicode="&#x4f5c;" d="M991 1239 q-140 -296 -325 -518 l-105 125 q273 323 445 840 l147 -33 q-25 -71 -49.5 -138.5 q-24.5 -67.5 -48.5 -130.5 l884 0 l0 -145 l-688 0 l0 -338 l598 0 l0 -143 l-598 0 l0 -346 l611 0 l0 -142 l-611 0 l0 -477 l-149 0 l0 1446 l-111 0 ZM336 944 q-98 -129 -215 -246 l-49 156 q334 362 483 825 l139 -65 q-41 -120 -93 -232 q-52 -112 -114 -217 l0 -1372 l-151 0 l0 1151 Z" /><glyph glyph-name="cid01446" unicode="&#x4f60;" d="M340 932 q-105 -142 -223 -266 l-47 155 q332 376 483 862 l137 -65 q-80 -245 -203 -459 l0 -1364 l-147 0 l0 1137 ZM1659 858 q78 -181 146 -376 q68 -195 126 -404 l-129 -58 q-122 448 -274 795 l131 43 ZM954 1280 q-49 -120 -105.5 -228 q-56.5 -108 -121.5 -206 l-127 78 q234 341 338 755 l139 -28 q-15 -60 -33 -117 q-18 -57 -36 -111 l872 0 l0 -96 q-25 -95 -55.5 -189 q-30.5 -94 -69.5 -186 l-141 41 q72 132 117 287 l-777 0 ZM1210 -190 l-268 0 l-31 139 q65 -5 127.5 -7.5 q62.5 -2.5 120.5 -2.5 q78 0 78 79 l0 1090 l143 0 l0 -1126 q0 -172 -170 -172 ZM903 842 l133 -37 q-110 -427 -288 -750 l-138 49 q168 293 293 738 Z" /><glyph glyph-name="cid01447" unicode="&#x4f63;" d="M897 934 l0 -254 q0 -32 -1.5 -63 q-1.5 -31 -2.5 -60 l342 0 l0 377 l-338 0 ZM883 422 q-43 -379 -193 -635 l-115 104 q175 306 181 779 l0 913 l1124 0 l0 -1608 q0 -174 -180 -174 l-172 0 l-37 138 q44 -4 85.5 -6.5 q41.5 -2.5 78.5 -2.5 q82 0 82 97 l0 395 l-359 0 l0 -596 l-143 0 l0 596 l-352 0 ZM1737 557 l0 377 l-359 0 l0 -377 l359 0 ZM1737 1069 l0 375 l-359 0 l0 -375 l359 0 ZM1235 1444 l-338 0 l0 -375 l338 0 l0 375 ZM326 936 q-50 -68 -102 -133.5 q-52 -65.5 -109 -126.5 l-47 153 q318 370 462 854 l134 -61 q-77 -246 -197 -461 l0 -1370 l-141 0 l0 1145 Z" /><glyph glyph-name="cid01451" unicode="&#x4f69;" d="M879 1272 l651 0 l0 -125 l-264 0 l0 -213 l256 0 l0 -774 q0 -144 -111 -144 l-145 0 l0 -190 l-119 0 l0 989 l-143 0 l0 -821 l-111 0 l0 940 l254 0 l0 213 l-268 0 l0 125 ZM1266 129 l100 -4 q45 0 45 65 l0 625 l-145 0 l0 -686 ZM664 1591 l1087 0 l0 -1102 q0 -340 21 -434 q18 -92 49 -92 q34 0 59 336 l107 -47 q-31 -261 -68 -356 q-37 -84 -84 -84 q-110 0 -156 135 q-27 67 -40 203.5 q-13 136.5 -13 338.5 l0 975 l-838 0 l0 -721 q-6 -561 -167 -940 l-107 86 q71 169 108.5 382.5 q37.5 213.5 41.5 471.5 l0 848 ZM467 1679 l127 -59 q-31 -108 -68 -210.5 q-37 -102.5 -82 -201.5 l0 -1415 l-133 0 l0 1163 q-44 -72 -92 -141 q-48 -69 -100 -135 l-45 147 q270 372 393 852 Z" /><glyph glyph-name="cid01455" unicode="&#x4f73;" d="M768 1425 l444 0 l0 248 l152 0 l0 -248 l453 0 l0 -143 l-453 0 l0 -303 l557 0 l0 -143 l-1259 0 l0 143 l550 0 l0 303 l-444 0 l0 143 ZM745 502 l467 0 l0 260 l152 0 l0 -260 l471 0 l0 -144 l-471 0 l0 -348 l590 0 l0 -145 l-1327 0 l0 145 l585 0 l0 348 l-467 0 l0 144 ZM336 936 q-98 -132 -215 -252 l-47 158 q329 363 481 839 l139 -63 q-41 -120 -93 -233.5 q-52 -113.5 -114 -221.5 l0 -1368 l-151 0 l0 1141 Z" /><glyph glyph-name="cid01461" unicode="&#x4f7f;" d="M700 1464 l537 0 l0 209 l149 0 l0 -209 l564 0 l0 -141 l-564 0 l0 -195 l480 0 l0 -579 l-488 0 q-24 -276 -106 -428 q307 -169 710 -191 l-36 -141 q-432 28 -756 217 q-166 -169 -522 -221 l-64 135 q315 34 457 170 q-182 129 -324 311 l113 78 q66 -83 139.5 -152.5 q73.5 -69.5 155.5 -127.5 q66 137 84 350 l-459 0 l0 579 l467 0 l0 195 l-537 0 l0 141 ZM1726 682 l0 315 l-340 0 l0 -266 q0 -12 -1 -24.5 q-1 -12.5 -1 -24.5 l342 0 ZM1235 682 q0 12 1 24.5 q1 12.5 1 24.5 l0 266 l-328 0 l0 -315 l326 0 ZM326 934 q-50 -69 -102.5 -135 q-52.5 -66 -110.5 -129 l-50 155 q320 375 461 861 l140 -64 q-78 -242 -191 -453 l0 -1378 l-147 0 l0 1143 Z" /><glyph glyph-name="cid01463" unicode="&#x4f84;" d="M737 1573 l1178 0 l0 -139 l-637 0 q-167 -340 -330 -500 q427 31 680 61 q-40 71 -80 135.5 q-40 64.5 -82 122.5 l123 56 q183 -251 320 -557 l-125 -64 q-23 49 -46 96.5 q-23 47.5 -44 92.5 q-212 -25 -444.5 -43.5 q-232.5 -18.5 -487.5 -32.5 l-21 131 q169 74 383 502 l-387 0 l0 139 ZM750 494 l491 0 l0 237 l141 0 l0 -237 l478 0 l0 -138 l-478 0 l0 -360 l572 0 l0 -141 l-1301 0 l0 141 l588 0 l0 360 l-491 0 l0 138 ZM352 936 q-49 -69 -103.5 -135 q-54.5 -66 -113.5 -127 l-47 153 q327 370 473 846 l135 -61 q-40 -122 -90 -235.5 q-50 -113.5 -110 -219.5 l0 -1345 l-144 0 l0 1124 Z" /><glyph glyph-name="cid01464" unicode="&#x4f88;" d="M571 1671 l131 -61 q-39 -120 -91 -233.5 q-52 -113.5 -115 -221.5 l0 -1364 l-148 0 l0 1143 q-104 -138 -227 -264 l-49 155 q342 367 499 846 ZM1507 924 l123 -54 q-59 -89 -141 -168 l432 0 l0 -122 q-203 -557 -1196 -793 l-74 133 q191 40 349.5 91 q158.5 51 285.5 116 q-52 49 -104.5 97 q-52.5 48 -106.5 98 l109 77 q123 -95 227 -202 q247 155 352 372 l-444 0 q-230 -147 -571 -233 l-82 119 q606 141 841 469 ZM1405 1651 q-52 -80 -111 -148 l506 0 l0 -119 q-209 -490 -1061 -692 l-82 117 q306 67 527 176 q-52 55 -98.5 95.5 q-46.5 40.5 -86.5 68.5 l107 78 q124 -90 190 -180 q230 137 351 329 l-476 0 q-86 -77 -182.5 -140.5 q-96.5 -63.5 -204.5 -115.5 l-88 107 q341 161 570 454 l139 -30 Z" /><glyph glyph-name="cid01466" unicode="&#x4f8b;&#xf9b5;" d="M645 1554 l674 0 l0 -141 l-373 0 q-15 -151 -43 -291 l377 0 l0 -127 q-110 -848 -616 -1194 l-74 131 q245 169 387 471 q-65 63 -129 114 q-64 51 -127 91 q-31 -54 -63.5 -103 q-32.5 -49 -67.5 -93 l-74 143 q240 313 289 858 l-160 0 l0 141 ZM780 729 q68 -40 131 -87 q63 -47 123 -99 q37 101 63.5 212.5 q26.5 111.5 45.5 231.5 l-273 0 q-18 -69 -41 -133.5 q-23 -64.5 -49 -124.5 ZM1692 -190 l-226 0 l-32 141 q55 -5 106 -7.5 q51 -2.5 100 -2.5 q91 0 91 92 l0 1634 l147 0 l0 -1671 q0 -186 -186 -186 ZM281 905 q-39 -58 -79 -113.5 q-40 -55.5 -83 -107.5 l-49 156 q270 369 393 843 l139 -63 q-34 -121 -78 -235 q-44 -114 -96 -222 l0 -1372 l-147 0 l0 1114 ZM1407 1479 l135 0 l0 -1270 l-135 0 l0 1270 Z" /><glyph glyph-name="cid01467" unicode="&#x4f8d;" d="M1217 1677 l151 0 l0 -223 l485 0 l0 -133 l-485 0 l0 -258 l582 0 l0 -139 l-1344 0 l0 139 l611 0 l0 258 l-484 0 l0 133 l484 0 l0 223 ZM659 680 l869 0 l0 158 l145 0 l0 -158 l242 0 l0 -137 l-242 0 l0 -535 q0 -188 -184 -188 l-281 0 l-30 139 q67 -5 132 -7.5 q65 -2.5 128 -2.5 q90 0 90 94 l0 500 l-869 0 l0 137 ZM946 451 q158 -188 246 -336 l-115 -82 q-46 77 -108 163 q-62 86 -142 181 l119 74 ZM338 940 q-98 -144 -219 -274 l-49 157 q313 369 454 844 l138 -63 q-36 -111 -80 -217 q-44 -106 -97 -207 l0 -1389 l-147 0 l0 1149 Z" /><glyph glyph-name="cid01472" unicode="&#x4f9b;" d="M700 1237 l265 0 l0 428 l151 0 l0 -428 l367 0 l0 428 l149 0 l0 -428 l273 0 l0 -143 l-273 0 l0 -480 l330 0 l0 -141 l-1319 0 l0 141 l322 0 l0 480 l-265 0 l0 143 ZM1116 614 l367 0 l0 480 l-367 0 l0 -480 ZM1544 397 q129 -144 227.5 -271 q98.5 -127 167.5 -235 l-131 -90 q-70 117 -166.5 247.5 q-96.5 130.5 -218.5 275.5 l121 73 ZM1026 383 l135 -64 q-158 -298 -379 -522 l-127 92 q108 103 201 226.5 q93 123.5 170 267.5 ZM336 942 q-51 -68 -106.5 -133.5 q-55.5 -65.5 -116.5 -128.5 l-50 156 q334 373 488 854 l139 -64 q-80 -242 -203 -452 l0 -1379 l-151 0 l0 1147 Z" /><glyph glyph-name="cid01473" unicode="&#x4f9d;" d="M530 1688 l140 -66 q-72 -220 -174 -414 l0 -1411 l-152 0 l0 1164 q-104 -151 -233 -289 l-48 157 q324 376 467 859 ZM1270 1671 q23 -67 44.5 -145 q21.5 -78 43.5 -164 l532 0 l0 -141 l-471 0 q16 -145 44.5 -277 q28.5 -132 68.5 -252 q178 131 293 271 l92 -117 q-65 -71 -150.5 -140.5 q-85.5 -69.5 -189.5 -138.5 q143 -356 391 -596 l-88 -141 q-500 503 -598 1391 l-29 0 q-83 -240 -215 -443 l0 -764 q209 68 387 154 l27 -141 q-246 -111 -590 -209 l-31 127 q62 24 62 78 l0 559 q-129 -148 -283 -271 l-80 131 q398 303 574 779 l-457 0 l0 141 l563 0 q-42 154 -98 285 l158 24 Z" /><glyph glyph-name="cid01474" unicode="&#x4fa0;" d="M307 913 q-44 -63 -92 -123 q-48 -60 -98 -118 l-49 155 q303 378 440 856 l137 -65 q-38 -123 -86 -239.5 q-48 -116.5 -106 -227.5 l0 -1360 l-146 0 l0 1122 ZM1675 1196 l125 -33 q-62 -217 -160 -379 l-122 45 q46 73 84.5 164.5 q38.5 91.5 72.5 202.5 ZM823 1192 q81 -162 146 -371 l-127 -30 q-56 189 -142 360 l123 41 ZM664 1421 l530 0 l0 250 l143 0 l0 -250 l533 0 l0 -139 l-533 0 l0 -260 q0 -167 -24 -311 l600 0 l0 -140 l-545 0 q89 -184 242 -348.5 q153 -164.5 368 -310.5 l-102 -129 q-426 327 -614 717 q-160 -489 -639 -719 l-88 121 q466 202 602 669 l-506 0 l0 140 l536 0 q13 66 19 135 q6 69 8 143 l0 293 l-530 0 l0 139 Z" /><glyph glyph-name="cid01475" unicode="&#x4fa3;" d="M840 1577 l956 0 l0 -680 l-956 0 l0 680 ZM1651 1028 l0 414 l-672 0 l0 -414 l672 0 ZM1884 672 l0 -873 l-145 0 l0 123 l-852 0 l0 -125 l-142 0 l0 875 l1139 0 ZM887 59 l852 0 l0 478 l-852 0 l0 -478 ZM342 946 q-51 -69 -106.5 -135 q-55.5 -66 -116.5 -127 l-45 147 q330 367 481 842 l133 -61 q-40 -117 -89.5 -227.5 q-49.5 -110.5 -109.5 -215.5 l0 -1378 l-147 0 l0 1155 Z" /><glyph glyph-name="cid01476" unicode="&#x4fa5;" d="M1845 1530 l23 -137 l-611 -56 q31 -98 68 -166 q8 -15 16 -30 q8 -15 17 -27 q156 88 264 186 l109 -83 q-62 -60 -133 -113.5 q-71 -53.5 -154 -99.5 q15 -17 31 -32.5 q16 -15.5 34 -27.5 q108 -74 183 -74 q68 7 133 222 l121 -80 q-105 -283 -242 -283 q-115 0 -250 88 q-72 48 -135 121 q-252 -120 -578 -190 l-59 133 q311 64 551 170 q-6 9 -12 16.5 q-6 7.5 -9 13.5 q-27 46 -52 107 q-25 61 -48 135 l-407 -37 l-23 139 l391 35 q-12 49 -24 101 q-12 52 -21 106 l152 16 q9 -58 18.5 -110 q9.5 -52 22.5 -98 l624 55 ZM659 629 l1244 0 l0 -144 l-367 0 l0 -452 q0 -74 68 -74 l96 0 q52 0 78 35 q26 41 39 246 l133 -43 q-19 -270 -72 -326 q-51 -51 -152 -51 l-167 0 q-166 0 -166 182 l0 483 l-252 0 q-9 -276 -111 -442 q-103 -161 -342 -254 l-82 129 q221 83 307 221 q77 135 86 346 l-340 0 l0 144 ZM322 932 q-48 -65 -99 -127.5 q-51 -62.5 -106 -120.5 l-49 158 q317 367 462 841 l140 -63 q-40 -120 -89.5 -234.5 q-49.5 -114.5 -109.5 -222.5 l0 -1372 l-149 0 l0 1141 Z" /><glyph glyph-name="cid01477" unicode="&#x4fa6;" d="M1182 1681 l149 0 l0 -155 l580 0 l0 -133 l-580 0 l0 -193 l457 0 l0 -948 l-146 0 l0 815 l-720 0 l0 -836 l-142 0 l0 969 l402 0 l0 481 ZM1456 250 q145 -89 265 -178 q120 -89 218 -178 l-102 -103 q-169 169 -479 365 l98 94 ZM1219 926 l143 0 l0 -289 q-9 -339 -160 -545 q-145 -188 -475 -295 l-80 125 q318 101 447 266 q115 171 125 449 l0 289 ZM346 942 q-52 -64 -108 -127 q-56 -63 -117 -125 l-43 148 q343 364 500 837 l135 -63 q-43 -123 -98 -237 q-55 -114 -121 -222 l0 -1362 l-148 0 l0 1151 Z" /><glyph glyph-name="cid01478" unicode="&#x4fa7;" d="M1290 1567 l0 -1248 l-131 0 l0 1121 l-397 0 l0 -1129 l-131 0 l0 1256 l659 0 ZM1079 227 q86 -83 157.5 -166 q71.5 -83 129.5 -165 l-102 -103 q-50 82 -118.5 168 q-68.5 86 -156.5 178 l90 88 ZM903 1335 l119 0 l0 -655 q-6 -358 -104 -574 q-99 -201 -314 -311 l-76 119 q207 106 293 285 q37 92 58 212.5 q21 120.5 24 268.5 l0 655 ZM291 932 q-40 -65 -83 -127.5 q-43 -62.5 -89 -120.5 l-47 154 q263 367 383 843 l129 -59 q-33 -117 -72.5 -226 q-39.5 -109 -85.5 -210 l0 -1393 l-135 0 l0 1139 ZM1704 -188 l-221 0 l-31 137 q52 -5 103 -7.5 q51 -2.5 100 -2.5 q80 0 80 90 l0 1638 l143 0 l0 -1673 q0 -182 -174 -182 ZM1434 1485 l129 0 l0 -1270 l-129 0 l0 1270 Z" /><glyph glyph-name="cid01479" unicode="&#x4fa8;" d="M764 1411 l-29 135 q280 17 527.5 47.5 q247.5 30.5 463.5 73.5 l48 -131 q-111 -22 -232 -40.5 q-121 -18.5 -250 -35.5 q-15 -74 -34.5 -141.5 q-19.5 -67.5 -43.5 -128.5 l689 0 l0 -141 l-381 0 q152 -248 458 -390 l-63 -133 q-380 202 -537 523 l-225 0 q-12 -27 -25.5 -51.5 q-13.5 -24.5 -27.5 -49.5 q-157 -233 -461 -418 l-92 119 q290 155 434 375 l14 25 l-360 0 l0 141 l430 0 q49 121 74 254 q-91 -9 -185 -17 q-94 -8 -192 -16 ZM1053 502 q0 -405 -305 -713 l-117 105 q280 265 280 608 l0 227 l142 0 l0 -227 ZM330 954 q-51 -70 -106.5 -139 q-55.5 -69 -114.5 -133 l-50 158 q322 373 469 856 l138 -64 q-37 -116 -84 -226.5 q-47 -110.5 -103 -213.5 l0 -1401 l-149 0 l0 1163 ZM1434 729 l141 0 l0 -936 l-141 0 l0 936 Z" /><glyph glyph-name="cid01483" unicode="&#x4fae;&#xfa30;" d="M346 961 q-104 -139 -227 -265 l-49 158 q334 356 485 821 l133 -61 q-77 -228 -194 -432 l0 -1387 l-148 0 l0 1166 ZM958 1376 q-51 -93 -108 -176 l948 0 l-14 -477 l162 0 l0 -137 l-168 0 q-5 -114 -9.5 -205 q-4.5 -91 -7.5 -162 l158 0 l0 -129 l-166 0 q-5 -38 -8 -63 q-3 -25 -6 -37 q-24 -94 -94 -146 q-74 -43 -209 -43 q-43 0 -92.5 -1 q-49.5 -1 -104.5 -1 l-43 133 q123 -6 221 -6 q62 0 115 17 q49 21 74 92 q1 6 3 20 q2 14 5 35 l-889 0 q25 123 43.5 247 q18.5 124 34.5 249 l-187 0 l0 137 l201 0 q11 118 18.5 236 q7.5 118 10.5 235 q-32 -43 -64.5 -83 q-32.5 -40 -66.5 -77 l-94 113 q195 207 319 549 l147 -31 q-15 -40 -30.5 -78.5 q-15.5 -38.5 -32.5 -75.5 l866 0 l0 -135 l-932 0 ZM942 586 q-11 -100 -24.5 -192 q-13.5 -92 -28.5 -175 l733 0 q3 69 7.5 161 q4.5 92 8.5 206 l-696 0 ZM1645 723 q1 80 4 167 q3 87 6 181 l-678 0 q-5 -92 -9.5 -179.5 q-4.5 -87.5 -11.5 -168.5 l689 0 ZM1204 1038 q77 -52 143 -103 q66 -51 119 -104 l-94 -92 q-47 49 -111.5 102.5 q-64.5 53.5 -146.5 108.5 l90 88 ZM1182 565 q76 -57 142 -113.5 q66 -56.5 118 -113.5 l-92 -94 q-48 55 -112.5 114.5 q-64.5 59.5 -145.5 120.5 l90 86 Z" /><glyph glyph-name="cid01484" unicode="&#x4faf;" d="M655 1233 l875 0 l0 227 l-737 0 l0 133 l880 0 l0 -360 l254 0 l0 -135 l-1272 0 l0 135 ZM901 760 q-40 -55 -83 -105.5 q-43 -50.5 -91 -93.5 l-88 109 q166 145 279 385 l129 -29 q-16 -34 -31.5 -67 q-15.5 -33 -30.5 -64 l842 0 l0 -135 l-465 0 q-6 -71 -15 -134 q-9 -63 -20 -118 l586 0 l0 -133 l-496 0 q111 -287 539 -449 l-78 -127 q-473 206 -590 559 q-17 -52 -37 -97.5 q-20 -45.5 -45 -82.5 q-147 -221 -491 -381 l-92 115 q319 138 454 326 q39 56 70 137 l-514 0 l0 133 l553 0 q24 114 37 252 l-322 0 ZM344 965 q-101 -151 -227 -289 l-47 153 q305 367 444 842 l135 -61 q-32 -105 -71.5 -203 q-39.5 -98 -85.5 -190 l0 -1426 l-148 0 l0 1174 Z" /><glyph glyph-name="cid01485" unicode="&#x4fb5;" d="M297 915 q-42 -61 -86.5 -119.5 q-44.5 -58.5 -93.5 -113.5 l-47 158 q289 369 424 846 l137 -66 q-73 -244 -189 -465 l0 -1364 l-145 0 l0 1124 ZM1753 952 l-1020 0 l0 121 l885 0 l0 146 l-825 0 l0 118 l825 0 l0 146 l-887 0 l0 119 l1022 0 l0 -650 ZM1894 825 l0 -340 l-139 0 l0 215 l-1005 0 l0 -159 l972 0 l0 -117 q-107 -191 -319 -332 q114 -52 250 -95.5 q136 -43.5 295 -78.5 l-78 -121 q-361 89 -598 215 q-260 -136 -631 -221 l-53 129 q323 69 549 172 q-213 143 -310 324 l-79 0 l0 73 l-136 0 l0 336 l1282 0 ZM969 416 q52 -71 126 -135 q74 -64 173 -121 q186 110 295 256 l-594 0 Z" /><glyph glyph-name="cid01486" unicode="&#x4fbf;&#xf965;" d="M702 1585 l1229 0 l0 -135 l-579 0 l0 -182 l483 0 l0 -787 l-487 0 q-22 -217 -123 -364 q321 -170 745 -189 l-37 -135 q-459 25 -800 221 q-167 -139 -478 -221 l-75 119 q282 73 426 182 q-154 106 -275 246 l111 78 q116 -129 258 -228 q84 125 102 291 l-477 0 l0 787 l483 0 l0 182 l-506 0 l0 135 ZM1696 602 l0 215 l-344 0 l0 -215 l344 0 ZM1208 602 l0 215 l-344 0 l0 -215 l344 0 ZM864 938 l344 0 l0 209 l-344 0 l0 -209 ZM1352 1147 l0 -209 l344 0 l0 209 l-344 0 ZM319 932 q-91 -139 -194 -260 l-49 155 q291 372 420 846 l133 -61 q-34 -112 -74.5 -218.5 q-40.5 -106.5 -89.5 -207.5 l0 -1389 l-146 0 l0 1135 Z" /><glyph glyph-name="cid01487" unicode="&#x4fc3;" d="M319 930 q-88 -129 -194 -250 l-49 156 q301 366 436 837 l133 -61 q-37 -117 -81.5 -227.5 q-44.5 -110.5 -98.5 -215.5 l0 -1378 l-146 0 l0 1139 ZM778 1591 l1039 0 l0 -657 l-418 0 l0 -330 l479 0 l0 -135 l-479 0 l0 -481 q55 -10 121 -15 q66 -5 143 -8 q192 0 303 6 l-27 -141 l-208 0 q-426 3 -578 90 q-186 96 -293 320 q-93 -270 -227 -453 l-94 117 q225 327 305 880 l139 -24 q-14 -92 -31 -177 q-17 -85 -39 -165 q46 -130 123 -230 q94 -114 217 -163 l0 909 l-475 0 l0 657 ZM1673 1071 l0 385 l-751 0 l0 -385 l751 0 Z" /><glyph glyph-name="cid01488" unicode="&#x4fc4;" d="M831 -190 l-192 0 l-31 139 q46 -5 89.5 -7.5 q43.5 -2.5 84.5 -2.5 q86 0 86 90 l0 383 q-69 -25 -138.5 -46.5 q-69.5 -21.5 -139.5 -41.5 l-37 149 q160 33 315 86 l0 408 l-307 0 l0 141 l307 0 l0 235 q-52 -21 -108.5 -38.5 q-56.5 -17.5 -114.5 -32.5 l-57 131 q335 74 502 244 l106 -91 q-78 -80 -184 -143 l0 -305 l305 0 q-6 127 -8 267 q-2 140 -2 292 l137 0 q0 -155 2 -295 q2 -140 8 -264 l467 0 l0 -141 l-461 0 q8 -166 20.5 -304.5 q12.5 -138.5 30.5 -248.5 q136 188 228 444 l114 -61 q-122 -332 -305 -557 q77 -280 176 -289 q63 9 127 336 l113 -97 q-98 -399 -240 -399 q-117 0 -211 162 q-21 38 -38.5 81 q-17.5 43 -32.5 91 q-129 -123 -275 -199 l-77 123 q86 43 164 100 q78 57 147 130 q-11 43 -20 88.5 q-9 45.5 -15 93.5 q-31 215 -43 506 l-311 0 l0 -357 q53 22 107 46 q54 24 108 49 l0 -148 q-108 -49 -215 -92 l0 -473 q0 -182 -181 -182 ZM297 942 q-43 -68 -89.5 -132.5 q-46.5 -64.5 -96.5 -125.5 l-48 158 q139 184 239 395.5 q100 211.5 165 450.5 l133 -62 q-32 -110 -72 -215 q-40 -105 -86 -205 l0 -1415 l-145 0 l0 1151 ZM1638 1612 q66 -68 127.5 -142 q61.5 -74 116.5 -155 l-108 -84 q-117 178 -234 307 l98 74 Z" /><glyph glyph-name="cid01490" unicode="&#x4fca;" d="M1556 1587 q116 -110 203.5 -207 q87.5 -97 149.5 -180 l-117 -82 q-49 68 -104 135 q-258 -33 -501.5 -58.5 q-243.5 -25.5 -473.5 -43.5 l-27 125 q215 80 440 420 l154 -45 q-169 -234 -342 -361 q224 22 387.5 40 q163.5 18 267.5 32 q-73 80 -149 156 l112 69 ZM991 1110 l99 -86 q-168 -195 -416 -344 l-88 115 q241 136 405 315 ZM1827 717 q-105 95 -210 176.5 q-105 81.5 -212 148.5 l96 93 q178 -103 426 -314 l-100 -104 ZM922 412 q-57 -40 -117.5 -78 q-60.5 -38 -124.5 -72 l-90 119 q437 216 592 530 l139 -30 q-55 -117 -129 -215 l537 0 l0 -121 q-83 -240 -310 -414 q234 -126 561 -197 l-55 -141 q-385 87 -637 248 q-129 -77 -290 -139 q-161 -62 -355 -111 l-72 133 q179 40 327.5 91.5 q148.5 51.5 266.5 115.5 q-151 124 -243 281 ZM1292 211 q195 140 283 328 l-500 0 q-12 -13 -24 -23.5 q-12 -10.5 -23 -19.5 q94 -161 264 -285 ZM336 938 q-49 -66 -103 -129.5 q-54 -63.5 -112 -124.5 l-49 156 q328 368 479 846 l139 -66 q-80 -242 -203 -453 l0 -1376 l-151 0 l0 1147 Z" /><glyph glyph-name="cid01492" unicode="&#x4fcf;" d="M346 940 q-101 -138 -219 -262 l-45 156 q324 370 471 841 l137 -63 q-79 -234 -196 -445 l0 -1376 l-148 0 l0 1149 ZM1260 1667 l145 0 l0 -567 l444 0 l0 -1088 q0 -205 -194 -205 l-246 0 l-37 142 l236 -6 q96 0 96 102 l0 205 l-762 0 l0 -459 l-145 0 l0 1309 l463 0 l0 567 ZM942 600 l0 -223 l762 0 l0 223 l-762 0 ZM1704 727 l0 231 l-762 0 l0 -231 l762 0 ZM868 1591 q105 -154 199 -336 l-125 -63 q-48 95 -98 179.5 q-50 84.5 -103 158.5 l127 61 ZM1776 1614 l125 -60 q-43 -95 -98.5 -186 q-55.5 -91 -123.5 -180 l-118 59 q134 183 215 367 Z" /><glyph glyph-name="cid01493" unicode="&#x4fd0;" d="M291 938 q-40 -63 -84 -123 q-44 -60 -90 -119 l-49 158 q266 355 389 815 l131 -61 q-62 -221 -158 -420 l0 -1372 l-139 0 l0 1122 ZM600 1124 l307 0 l0 275 q-67 -13 -136 -23 q-69 -10 -138 -16 l-45 129 q393 33 663 151 l66 -116 q-68 -28 -137 -52 q-69 -24 -140 -42 l0 -306 l273 0 l0 -141 l-273 0 l0 -117 q71 -76 142 -162.5 q71 -86.5 145 -183.5 l-80 -117 q-61 100 -112.5 180 q-51.5 80 -94.5 138 l0 -920 l-133 0 l0 961 q-129 -329 -354 -594 l-61 151 q282 292 405 664 l-297 0 l0 141 ZM1696 -190 l-256 0 l-31 139 q61 -5 120 -7.5 q59 -2.5 116 -2.5 q92 0 92 75 l0 1645 l141 0 l0 -1679 q0 -170 -182 -170 ZM1409 1473 l133 0 l0 -1258 l-133 0 l0 1258 Z" /><glyph glyph-name="cid01495" unicode="&#x4fd7;" d="M1722 621 l0 -820 l-139 0 l0 111 l-629 0 l0 -111 l-139 0 l0 820 l907 0 ZM954 47 l629 0 l0 438 l-629 0 l0 -438 ZM1458 1649 q131 -91 240 -181.5 q109 -90.5 198 -179.5 l-108 -106 q-154 173 -428 372 l98 95 ZM1032 1636 l113 -84 q-89 -116 -184 -214.5 q-95 -98.5 -193 -178.5 l-109 103 q111 89 203.5 182.5 q92.5 93.5 169.5 191.5 ZM342 938 q-51 -68 -106 -133.5 q-55 -65.5 -115 -126.5 l-49 156 q330 367 477 835 l139 -63 q-40 -117 -89.5 -227.5 q-49.5 -110.5 -109.5 -215.5 l0 -1362 l-147 0 l0 1137 ZM1233 1270 l94 0 q186 -329 631 -576 l-82 -125 q-400 225 -596 555 q-245 -358 -616 -555 l-82 125 q423 221 651 576 Z" /><glyph glyph-name="cid01496" unicode="&#x4fd8;" d="M502 1686 l131 -62 q-32 -107 -72 -210 q-40 -103 -86 -202 l0 -1421 l-145 0 l0 1163 q-48 -73 -100 -142.5 q-52 -69.5 -109 -135.5 l-49 155 q295 375 430 855 ZM639 473 l633 0 l0 158 q58 37 127 82.5 q69 45.5 149 99.5 l-751 0 l0 137 l970 0 l0 -108 q-76 -63 -163.5 -129 q-87.5 -66 -186.5 -133 l0 -107 l512 0 l0 -143 l-512 0 l0 -322 q0 -190 -184 -190 l-256 0 l-41 139 q75 -3 135 -5.5 q60 -2.5 105 -2.5 q96 0 96 102 l0 279 l-633 0 l0 143 ZM1706 1448 l133 -37 q-37 -111 -84 -208 q-47 -97 -104 -181 l-129 45 q104 151 184 381 ZM1260 1389 q38 -82 67.5 -157 q29.5 -75 50.5 -142 l-125 -48 q-52 160 -123 314 l130 33 ZM856 1368 q37 -68 71 -145 q34 -77 64 -166 l-131 -33 q-26 80 -59.5 155 q-33.5 75 -73.5 146 l129 43 ZM1790 1679 l68 -118 q-212 -62 -496 -93.5 q-284 -31.5 -637 -31.5 l-41 123 q666 0 1106 120 Z" /><glyph glyph-name="cid01499" unicode="&#x4fdd;" d="M528 1686 l140 -64 q-37 -114 -83 -220.5 q-46 -106.5 -100 -207.5 l0 -1403 l-149 0 l0 1161 q-52 -72 -107.5 -141 q-55.5 -69 -115.5 -133 l-50 158 q321 369 465 850 ZM788 1581 l967 0 l0 -645 l-412 0 l0 -223 l590 0 l0 -144 l-444 0 q175 -307 479 -534 l-94 -129 q-305 265 -506 663 l-25 0 l0 -774 l-147 0 l0 774 l-25 0 q-205 -425 -516 -665 l-84 133 q297 204 480 532 l-424 0 l0 144 l569 0 l0 223 l-408 0 l0 645 ZM1610 1077 l0 363 l-676 0 l0 -363 l676 0 Z" /><glyph glyph-name="cid01502" unicode="&#x4fe1;" d="M315 942 q-46 -68 -96.5 -133.5 q-50.5 -65.5 -105.5 -126.5 l-47 158 q299 369 438 852 l137 -64 q-74 -239 -180 -444 l0 -1393 l-146 0 l0 1151 ZM633 1403 l631 0 q-46 122 -107 237 l141 39 q33 -67 57.5 -129 q24.5 -62 43.5 -118 l-78 -29 l645 0 l0 -139 l-1333 0 l0 139 ZM821 1098 l969 0 l0 -133 l-969 0 l0 133 ZM821 809 l969 0 l0 -135 l-969 0 l0 135 ZM1827 506 l0 -711 l-144 0 l0 111 l-757 0 l0 -111 l-144 0 l0 711 l1045 0 ZM926 45 l757 0 l0 324 l-757 0 l0 -324 Z" /><glyph glyph-name="cid01506" unicode="&#x4fe9;" d="M346 979 q-51 -80 -107.5 -155.5 q-56.5 -75.5 -117.5 -147.5 l-47 153 q292 369 428 850 l133 -61 q-31 -98 -67 -192 q-36 -94 -79 -185 l0 -1450 l-143 0 l0 1188 ZM674 1544 l1251 0 l0 -141 l-391 0 l-6 -293 l342 0 l0 -1108 q0 -190 -172 -190 l-185 0 l-38 141 l176 -6 q78 0 78 86 l0 944 l-207 0 q-2 -34 -3.5 -66 q-1.5 -32 -5.5 -61 l-12 -131 q52 -77 106 -161.5 q54 -84.5 109 -178.5 l-84 -125 q-88 202 -155 324 q-57 -284 -174 -484 l-86 111 q145 266 169 700 l5 72 l-230 0 l-6 -103 q-3 -36 -7.5 -70.5 q-4.5 -34.5 -8.5 -68.5 q38 -49 81.5 -115 q43.5 -66 92.5 -147 l-94 -94 q-28 58 -54.5 111.5 q-26.5 53.5 -52.5 99.5 q-55 -251 -170 -440 l-86 108 q148 252 172 672 q0 12 1 23.5 q1 11.5 1 23.5 l-192 0 l0 -1176 l-138 0 l0 1309 l336 0 l6 293 l-368 0 l0 141 ZM1397 1110 q1 68 2.5 140.5 q1.5 72.5 1.5 152.5 l-227 0 q0 -164 -7 -293 l230 0 Z" /><glyph glyph-name="cid01508" unicode="&#x4fed;" d="M915 1075 q-63 -58 -129 -110 q-66 -52 -137 -97 l-82 125 q404 257 623 676 l137 0 q184 -384 633 -676 l-82 -125 q-77 50 -144.5 101 q-67.5 51 -125.5 106 l0 -129 l-693 0 l0 129 ZM1599 1083 q-107 100 -192 210.5 q-85 110.5 -150 230.5 q-146 -256 -333 -441 l675 0 ZM627 4 l774 0 q74 166 137.5 370.5 q63.5 204.5 118.5 448.5 l145 -39 q-49 -219 -111.5 -414 q-62.5 -195 -136.5 -366 l361 0 l0 -143 l-1288 0 l0 143 ZM854 754 q48 -132 91 -283.5 q43 -151.5 81 -323.5 l-133 -34 q-64 311 -166 598 l127 43 ZM1194 821 q46 -126 86 -271.5 q40 -145.5 76 -307.5 l-135 -35 q-61 298 -154 573 l127 41 ZM338 942 q-52 -71 -108 -137 q-56 -66 -117 -129 l-47 158 q165 184 285.5 397 q120.5 213 195.5 452 l137 -65 q-40 -120 -89.5 -232 q-49.5 -112 -109.5 -217 l0 -1378 l-147 0 l0 1151 Z" /><glyph glyph-name="cid01509" unicode="&#x4fee;" d="M1186 1679 l143 -18 q-14 -40 -30.5 -78.5 q-16.5 -38.5 -34.5 -75.5 l585 0 l0 -127 q-101 -202 -307 -350 q179 -80 414 -135 l-58 -137 q-297 73 -497 184 q-216 -117 -512 -190 l-55 133 q246 58 434 145 q-131 100 -205 217 q-32 -30 -66 -58.5 q-34 -28.5 -71 -55.5 l-84 110 q252 178 344 436 ZM1155 1346 q86 -138 248 -242 q183 116 287 268 l-514 0 q-7 -6 -11.5 -13 q-4.5 -7 -9.5 -13 ZM516 1675 l131 -61 q-37 -115 -81.5 -224 q-44.5 -109 -98.5 -210 l0 -1387 l-141 0 l0 1153 q-48 -69 -100 -135 q-52 -66 -109 -127 l-43 147 q304 370 442 844 ZM649 1313 l133 0 l0 -1159 l-133 0 l0 1159 ZM1468 809 l107 -68 q-115 -97 -236 -161 q-129 -68 -338 -136 l-71 117 q86 22 164 48 q78 26 149 59 q62 30 117.5 65.5 q55.5 35.5 107.5 75.5 ZM1663 657 l98 -75 q-244 -305 -721 -441 l-59 125 q454 120 682 391 ZM958 -219 l-61 135 q348 92 567 221 q219 126 373 330 l105 -78 q-137 -213 -412 -373 q-138 -76 -281 -135.5 q-143 -59.5 -291 -99.5 Z" /><glyph glyph-name="cid01510" unicode="&#x4fef;" d="M1055 709 q-34 -42 -69.5 -81.5 q-35.5 -39.5 -72.5 -76.5 l-41 135 q220 251 318 571 l131 -59 q-26 -74 -58 -144.5 q-32 -70.5 -69 -138.5 l0 -1116 l-139 0 l0 910 ZM1315 958 l340 0 l0 263 l145 0 l0 -263 l152 0 l0 -139 l-152 0 l0 -844 q0 -176 -180 -176 l-193 0 l-30 140 q46 -5 89 -8 q43 -3 85 -3 q84 0 84 82 l0 809 l-340 0 l0 139 ZM1354 1683 q21 -47 42.5 -100.5 q21.5 -53.5 41.5 -112.5 l493 0 l0 -139 l-1083 0 l0 -506 q-9 -644 -199 -1032 l-112 101 q158 332 168 931 l0 645 l579 0 q-20 53 -42.5 99.5 q-22.5 46.5 -47.5 89.5 l160 24 ZM1395 684 q44 -94 87 -195.5 q43 -101.5 83 -212.5 l-117 -59 q-40 115 -82.5 218 q-42.5 103 -85.5 192 l115 57 ZM315 954 q-92 -141 -202 -270 l-47 158 q286 366 419 846 l136 -64 q-64 -215 -160 -414 l0 -1419 l-146 0 l0 1163 Z" /><glyph glyph-name="cid01511" unicode="&#x4ff1;" d="M360 952 q-55 -73 -114 -142.5 q-59 -69.5 -123 -133.5 l-49 155 q341 369 497 848 l138 -65 q-81 -230 -197 -434 l0 -1389 l-152 0 l0 1161 ZM1759 1593 l0 -1237 l203 0 l0 -135 l-1317 0 l0 135 l209 0 l0 1237 l905 0 ZM997 356 l619 0 l0 197 l-619 0 l0 -197 ZM997 674 l619 0 l0 184 l-619 0 l0 -184 ZM997 981 l619 0 l0 178 l-619 0 l0 -178 ZM997 1280 l619 0 l0 186 l-619 0 l0 -186 ZM1100 205 l100 -90 q-180 -190 -442 -330 l-88 115 q252 131 430 305 ZM1509 207 q228 -141 412 -313 l-94 -107 q-98 94 -198.5 175.5 q-100.5 81.5 -205.5 150.5 l86 94 Z" /><glyph glyph-name="cid01514" unicode="&#x4ffa;" d="M1708 -182 l-379 0 q-176 0 -176 172 l0 196 l-434 0 l0 672 q-83 -55 -172 -98 l-68 123 q314 160 484 422 l-345 0 l0 137 l418 0 q50 118 80 235 l144 -16 q-16 -58 -33.5 -113.5 q-17.5 -55.5 -38.5 -105.5 l670 0 l0 -137 l-375 0 q144 -227 477 -406 l-94 -117 q-42 26 -80 52.5 q-38 26.5 -72 52.5 l0 -701 l-418 0 l0 -166 q0 -69 74 -69 l311 0 q65 0 99 26 q39 40 51 205 l133 -41 q-25 -233 -84 -280 q-55 -43 -172 -43 ZM1632 954 q-195 168 -293 351 l-215 0 q-109 -201 -280 -351 l309 0 l0 199 l143 0 l0 -199 l336 0 ZM1296 315 l283 0 l0 189 l-283 0 l0 -189 ZM1296 627 l283 0 l0 198 l-283 0 l0 -198 ZM1153 825 l-297 0 l0 -198 l297 0 l0 198 ZM1153 504 l-297 0 l0 -189 l297 0 l0 189 ZM287 905 q-81 -118 -168 -223 l-47 154 q280 370 409 845 l137 -63 q-36 -123 -82.5 -239 q-46.5 -116 -101.5 -224 l0 -1364 l-147 0 l0 1114 Z" /><glyph glyph-name="cid01517" unicode="&#x500d;" d="M692 1473 l512 0 q-17 52 -35.5 98.5 q-18.5 46.5 -38.5 89.5 l150 25 q18 -48 36.5 -101.5 q18.5 -53.5 37.5 -111.5 l530 0 l0 -144 l-1192 0 l0 144 ZM612 909 l373 0 q-26 80 -58.5 156.5 q-32.5 76.5 -70.5 146.5 l139 52 q39 -74 74 -162 q35 -88 68 -193 l276 0 q83 166 141 357 l144 -49 q-29 -87 -61 -163.5 q-32 -76.5 -66 -144.5 l366 0 l0 -143 l-1325 0 l0 143 ZM1753 578 l0 -779 l-147 0 l0 113 l-670 0 l0 -113 l-150 0 l0 779 l967 0 ZM936 55 l670 0 l0 379 l-670 0 l0 -379 ZM313 940 q-46 -68 -96.5 -132.5 q-50.5 -64.5 -103.5 -125.5 l-50 158 q302 369 441 850 l137 -66 q-74 -230 -178 -436 l0 -1397 l-150 0 l0 1149 Z" /><glyph glyph-name="cid01519" unicode="&#x5012;" d="M1315 143 l0 -143 q-172 -48 -355.5 -87.5 q-183.5 -39.5 -379.5 -72.5 l-33 137 q83 13 163.5 26.5 q80.5 13.5 159.5 29.5 l0 395 l-278 0 l0 135 l278 0 l0 238 l144 0 l0 -238 l270 0 l0 -135 l-270 0 l0 -365 q153 37 301 80 ZM602 1587 l703 0 l0 -135 l-359 0 q-47 -155 -92 -272 q-45 -117 -88 -195 q181 25 344 62 q-25 55 -52 109 q-27 54 -57 110 l109 67 q71 -129 123.5 -242.5 q52.5 -113.5 89.5 -211.5 l-109 -78 q-24 67 -55 135 q-130 -28 -271.5 -52 q-141.5 -24 -293.5 -42 l-33 127 q40 6 55 14 q40 55 87 172 q47 117 102 297 l-203 0 l0 135 ZM1710 -186 l-223 0 l-31 139 q54 -5 105 -7.5 q51 -2.5 100 -2.5 q80 0 80 88 l0 1632 l143 0 l0 -1669 q0 -180 -174 -180 ZM1409 1485 l135 0 l0 -1268 l-135 0 l0 1268 ZM297 958 q-40 -70 -84.5 -137.5 q-44.5 -67.5 -91.5 -132.5 l-49 156 q245 365 356 835 l133 -61 q-48 -191 -123 -371 l0 -1456 l-141 0 l0 1167 Z" /><glyph glyph-name="cid01520" unicode="&#x5014;" d="M1722 627 l0 295 l136 0 l0 -426 l-357 0 l0 -465 l268 0 l0 334 l138 0 l0 -560 l-138 0 l0 95 l-673 0 l0 -93 l-140 0 l0 558 l140 0 l0 -334 l264 0 l0 465 l-354 0 l0 426 l135 0 l0 -295 l219 0 l0 385 l141 0 l0 -385 l221 0 ZM489 1686 l134 -62 q-34 -114 -76 -221.5 q-42 -107.5 -92 -208.5 l0 -1403 l-142 0 l0 1157 q-91 -139 -194 -260 l-47 152 q288 368 417 846 ZM1745 1454 l-873 0 l0 -227 l873 0 l0 227 ZM872 1094 l0 -156 q0 -668 -235 -1151 l-115 102 q206 406 209 1049 l0 653 l1157 0 l0 -497 l-1016 0 Z" /><glyph glyph-name="cid01521" unicode="&#x5018;" d="M1225 1673 l147 0 l0 -602 l504 0 l0 -1069 q0 -203 -190 -203 l-173 0 l-38 144 l163 -6 q95 0 95 98 l0 897 l-875 0 l0 -1139 l-143 0 l0 1278 l510 0 l0 602 ZM1034 733 l522 0 l0 -588 l-522 0 l0 588 ZM1423 272 l0 334 l-254 0 l0 -334 l254 0 ZM1759 1589 l123 -61 q-104 -222 -248 -383 l-110 80 q67 77 126.5 167.5 q59.5 90.5 108.5 196.5 ZM885 1569 q49 -85 90.5 -175 q41.5 -90 77.5 -186 l-125 -55 q-79 210 -176 373 l133 43 ZM338 936 q-49 -66 -104 -130.5 q-55 -64.5 -113 -125.5 l-49 156 q331 368 479 847 l139 -65 q-80 -240 -203 -455 l0 -1372 l-149 0 l0 1145 Z" /><glyph glyph-name="cid01522" unicode="&#x5019;" d="M494 1675 l131 -61 q-67 -228 -170 -434 l0 -1389 l-138 0 l0 1151 q-92 -142 -198 -266 l-47 155 q290 372 422 844 ZM629 1300 l137 0 l0 -1206 l-137 0 l0 1206 ZM858 1212 l690 0 l0 242 l-594 0 l0 131 l740 0 l0 -373 l209 0 l0 -131 l-1045 0 l0 131 ZM1085 743 q-33 -55 -71 -105.5 q-38 -50.5 -78 -94.5 l-88 106 q143 146 235 387 l125 -28 q-14 -34 -27.5 -67.5 q-13.5 -33.5 -27.5 -66.5 l698 0 l0 -131 l-397 0 q-3 -131 -24 -247 l507 0 l0 -129 l-469 0 q144 -250 494 -453 l-96 -121 q-344 232 -496 506 q-148 -348 -532 -514 l-93 121 q380 148 502 461 l-397 0 l0 129 l436 0 q25 107 25 227 l0 20 l-226 0 Z" /><glyph glyph-name="cid01523" unicode="&#x501a;" d="M725 1501 l496 0 q9 54 12 113 l0 57 l143 0 l0 -57 q-1 -31 -4 -59 q-3 -28 -6 -54 l524 0 l0 -135 l-557 0 q-6 -15 -13 -31.5 q-7 -16.5 -13 -31.5 q152 -47 292 -103.5 q140 -56.5 269 -122.5 l-82 -127 q-135 77 -272 139.5 q-137 62.5 -275 108.5 l-12 -16 q-135 -150 -447 -234 l-80 125 q297 74 416 199 q19 21 34 45 q15 24 28 49 l-453 0 l0 135 ZM612 887 l1350 0 l0 -142 l-197 0 l0 -776 q0 -168 -184 -168 l-258 0 l-33 142 q65 -5 125 -8 q60 -3 115 -3 q90 0 90 74 l0 739 l-1008 0 l0 142 ZM750 594 l628 0 l0 -504 l-628 0 l0 504 ZM1239 213 l0 262 l-350 0 l0 -262 l350 0 ZM328 944 q-48 -67 -100 -130.5 q-52 -63.5 -107 -125.5 l-49 156 q309 364 450 837 l137 -63 q-73 -234 -188 -444 l0 -1383 l-143 0 l0 1153 Z" /><glyph glyph-name="cid01525" unicode="&#x501f;" d="M344 952 q-51 -76 -106.5 -149.5 q-55.5 -73.5 -116.5 -143.5 l-49 156 q305 383 440 866 l139 -63 q-32 -108 -72 -210 q-40 -102 -87 -198 l0 -1419 l-148 0 l0 1161 ZM676 1438 l278 0 l0 225 l146 0 l0 -225 l370 0 l0 225 l144 0 l0 -225 l287 0 l0 -131 l-287 0 l0 -258 l336 0 l0 -140 l-1327 0 l0 140 l331 0 l0 258 l-278 0 l0 131 ZM1100 1049 l370 0 l0 258 l-370 0 l0 -258 ZM1784 748 l0 -941 l-144 0 l0 93 l-696 0 l0 -93 l-143 0 l0 941 l983 0 ZM944 35 l696 0 l0 225 l-696 0 l0 -225 ZM944 389 l696 0 l0 225 l-696 0 l0 -225 Z" /><glyph glyph-name="cid01526" unicode="&#x5021;" d="M821 1591 l955 0 l0 -739 l-955 0 l0 739 ZM1630 979 l0 178 l-669 0 l0 -178 l669 0 ZM961 1282 l669 0 l0 182 l-669 0 l0 -182 ZM1882 686 l0 -891 l-145 0 l0 90 l-877 0 l0 -92 l-143 0 l0 893 l1165 0 ZM860 20 l877 0 l0 205 l-877 0 l0 -205 ZM860 356 l877 0 l0 201 l-877 0 l0 -201 ZM338 938 q-105 -142 -225 -268 l-50 157 q335 375 488 859 l137 -66 q-40 -120 -89.5 -233.5 q-49.5 -113.5 -111.5 -219.5 l0 -1376 l-149 0 l0 1147 Z" /><glyph glyph-name="cid01528" unicode="&#x5026;" d="M518 1694 l139 -66 q-36 -118 -83.5 -229 q-47.5 -111 -102.5 -215 l0 -1393 l-149 0 l0 1151 q-48 -68 -100.5 -133.5 q-52.5 -65.5 -108.5 -126.5 l-47 156 q310 371 452 856 ZM911 1634 q67 -115 119 -250 l-121 -53 q-57 146 -127 262 l129 41 ZM1634 1653 l129 -47 q-61 -166 -153 -289 l-117 63 q85 115 141 273 ZM705 1309 l456 0 q23 89 40.5 185.5 q17.5 96.5 29.5 199.5 l145 -19 q-24 -192 -67 -366 l526 0 l0 -131 l-565 0 q-19 -54 -39 -105 q-20 -51 -41 -100 l731 0 l0 -131 l-342 0 q121 -200 406 -361 l-95 -116 q-76 50 -139.5 102 q-63.5 52 -116.5 104 l0 -258 q0 -163 -168 -170 q-105 0 -200 7 l-33 122 q49 -3 94 -5.5 q45 -2.5 88 -2.5 q78 0 78 88 l0 148 l-457 0 l0 -469 q0 -76 74 -76 l518 0 q91 0 117 39 q22 44 35 176 l141 -45 q-21 -211 -74 -260 q-47 -41 -182 -41 l-612 0 q-162 0 -162 160 l0 546 q-115 -114 -250 -202 l-84 129 q243 139 401 385 l-344 0 l0 131 l418 0 q25 49 47.5 100.5 q22.5 51.5 40.5 104.5 l-415 0 l0 131 ZM1124 842 q-33 -59 -70 -113.5 q-37 -54.5 -77 -103.5 l608 0 q-94 106 -149 217 l-312 0 Z" /><glyph glyph-name="cid01535" unicode="&#x503a;" d="M731 1559 l506 0 l0 112 l147 0 l0 -112 l504 0 l0 -123 l-504 0 l0 -129 l453 0 l0 -119 l-453 0 l0 -129 l578 0 l0 -129 l-1311 0 l0 129 l586 0 l0 129 l-449 0 l0 119 l449 0 l0 129 l-506 0 l0 123 ZM1823 801 l0 -670 l-144 0 l0 537 l-729 0 l0 -551 l-143 0 l0 684 l1016 0 ZM1251 578 l142 0 q0 -248 -86 -420 q-111 -225 -516 -369 l-95 117 q350 116 467 293 q85 148 88 379 ZM1434 154 q141 -50 271 -110.5 q130 -60.5 247 -131.5 l-82 -127 q-126 80 -255 144 q-129 64 -261 110 l80 115 ZM336 963 q-102 -145 -223 -279 l-47 158 q313 369 454 844 l139 -66 q-71 -220 -174 -414 l0 -1415 l-149 0 l0 1172 Z" /><glyph glyph-name="cid01537" unicode="&#x503e;" d="M1040 1087 l0 -131 l-231 -30 l0 -658 q61 28 118 60.5 q57 32.5 109 70.5 l25 -129 q-178 -117 -412 -204 l-37 131 q58 25 58 108 l0 1342 l139 0 l0 -588 l231 28 ZM477 1675 l127 -59 q-32 -102 -71.5 -197 q-39.5 -95 -86.5 -186 l0 -1434 l-141 0 l0 1200 q-86 -122 -184 -233 l-43 149 q274 333 399 760 ZM1063 1595 l895 0 l0 -133 l-379 0 q-19 -123 -43 -231 l352 0 l0 -981 l-139 0 l0 850 l-483 0 l0 -850 l-138 0 l0 981 l265 0 q13 55 23.5 113 q10.5 58 17.5 118 l-371 0 l0 133 ZM1649 207 q95 -80 176 -160 q81 -80 145 -160 l-98 -98 q-114 157 -313 332 l90 86 ZM1440 975 l137 0 l0 -445 q-9 -294 -133 -477 q-126 -166 -406 -258 l-75 117 q264 86 372 231 q99 148 105 387 l0 445 Z" /><glyph glyph-name="cid01539" unicode="&#x5047;" d="M793 596 l0 -266 l381 0 l0 -137 l-381 0 l0 -400 l-144 0 l0 1798 l563 0 l0 -600 l-419 0 l0 -254 l378 0 l0 -141 l-378 0 ZM1866 991 l-553 0 l0 137 l409 0 l0 326 l-405 0 l0 137 l549 0 l0 -600 ZM1247 801 l643 0 l0 -129 q-68 -304 -219 -512 q145 -158 316 -246 l-70 -125 q-201 103 -336 260 q-151 -163 -373 -266 l-80 125 q217 102 363 260 l-2 2 q-142 218 -184 494 l-58 0 l0 137 ZM1434 664 q33 -223 145 -388 q117 169 178 388 l-323 0 ZM793 1126 l280 0 l0 328 l-280 0 l0 -328 ZM281 928 q-39 -63 -80 -123.5 q-41 -60.5 -84 -118.5 l-49 158 q250 367 364 844 l137 -64 q-59 -221 -141 -410 l0 -1423 l-147 0 l0 1137 Z" /><glyph glyph-name="cid01542" unicode="&#x504e;" d="M342 956 q-104 -151 -225 -284 l-49 155 q311 377 452 854 l137 -65 q-33 -106 -73.5 -207 q-40.5 -101 -89.5 -197 l0 -1421 l-152 0 l0 1165 ZM776 1593 l1022 0 l0 -733 l-1022 0 l0 733 ZM1661 983 l0 186 l-309 0 l0 -186 l309 0 ZM1221 983 l0 186 l-308 0 l0 -186 l308 0 ZM913 1282 l308 0 l0 191 l-308 0 l0 -191 ZM1352 1473 l0 -191 l309 0 l0 191 l-309 0 ZM639 705 l1300 0 l0 -140 l-606 0 q45 -153 152 -284 q171 74 321 225 l97 -96 q-148 -145 -330 -224 q80 -76 182.5 -141 q102.5 -65 226.5 -121 l-77 -123 q-581 280 -707 764 l-240 0 l0 -571 q99 21 188 50 q89 29 171 62 l24 -133 q-122 -44 -264.5 -82.5 q-142.5 -38.5 -302.5 -72.5 l-35 131 q78 12 78 51 l0 565 l-178 0 l0 140 Z" /><glyph glyph-name="cid01543" unicode="&#x504f;" d="M1745 1333 l-920 0 l0 -268 l920 0 l0 268 ZM825 938 q-6 -657 -241 -1128 l-107 94 q214 403 217 1044 l0 516 l537 0 q-43 105 -92 191 l147 24 q23 -47 45 -101 q22 -54 43 -114 l502 0 l0 -526 l-1051 0 ZM317 948 q-43 -64 -90.5 -126 q-47.5 -62 -99.5 -122 l-43 148 q141 178 243 383.5 q102 205.5 167 435.5 l131 -61 q-34 -111 -75.5 -214.5 q-41.5 -103.5 -90.5 -201.5 l0 -1399 l-142 0 l0 1157 ZM1749 -199 l-94 0 l-29 113 l84 -6 q47 0 47 45 l0 289 l-182 0 l0 -408 l-107 0 l0 408 l-174 0 l0 -408 l-106 0 l0 408 l-182 0 l0 -437 l-123 0 l0 951 l1001 0 l0 -832 q0 -123 -135 -123 ZM1006 360 l182 0 l0 277 l-182 0 l0 -277 ZM1294 637 l0 -277 l174 0 l0 277 l-174 0 ZM1575 637 l0 -277 l182 0 l0 277 l-182 0 Z" /><glyph glyph-name="cid01545" unicode="&#x505a;" d="M1358 940 q-51 -105 -105 -182 l-88 106 q184 290 248 789 l137 -25 q-10 -72 -23 -140 q-13 -68 -28 -132 l443 0 l0 -137 l-97 0 q-9 -556 -172 -918 q60 -114 135.5 -214.5 q75.5 -100.5 167.5 -186.5 l-102 -99 q-164 164 -275 361 q-135 -225 -335 -365 l-86 113 q221 144 350 393 q-130 288 -170 637 ZM1597 465 q113 313 119 754 l-254 0 l-12 -43 q22 -401 147 -711 ZM485 1667 l133 -63 q-33 -111 -73.5 -215.5 q-40.5 -104.5 -89.5 -202.5 l0 -1395 l-144 0 l0 1145 q-44 -66 -92 -130.5 q-48 -64.5 -100 -125.5 l-47 158 q141 181 245 388.5 q104 207.5 168 440.5 ZM1194 741 l0 -708 l-440 0 l0 -133 l-140 0 l0 841 l220 0 l0 402 l-267 0 l0 137 l267 0 l0 365 l139 0 l0 -365 l262 0 l0 -137 l-262 0 l0 -402 l221 0 ZM754 162 l301 0 l0 448 l-301 0 l0 -448 Z" /><glyph glyph-name="cid01546" unicode="&#x505c;" d="M494 1683 l137 -63 q-36 -114 -79 -222.5 q-43 -108.5 -93 -209.5 l0 -1393 l-150 0 l0 1137 q-88 -133 -188 -248 l-49 156 q289 369 422 843 ZM1255 1683 q16 -38 30 -82.5 q14 -44.5 30 -93.5 l583 0 l0 -131 l-1267 0 l0 131 l536 0 q-29 84 -61 152 l149 24 ZM766 1257 l975 0 l0 -387 l-975 0 l0 387 ZM1597 983 l0 162 l-688 0 l0 -162 l688 0 ZM1903 752 l0 -351 l-111 0 l0 -92 l-442 0 l0 -332 q0 -167 -181 -167 l-231 0 l-31 143 q56 -3 108.5 -5.5 q52.5 -2.5 102.5 -2.5 q80 0 80 69 l0 295 l-448 0 l0 92 l-138 0 l0 351 l1291 0 ZM756 436 l1005 0 l0 187 l-1005 0 l0 -187 Z" /><glyph glyph-name="cid01547" unicode="&#x5065;" d="M1829 813 l-340 0 l0 -160 l379 0 l0 -116 l-379 0 l0 -152 l442 0 l0 -123 l-442 0 l0 -209 l-141 0 l0 209 l-342 0 l0 123 l342 0 l0 152 l-279 0 l0 116 l279 0 l0 160 l-258 0 l0 119 l258 0 l0 166 l-342 0 l0 121 l342 0 l0 165 l-258 0 l0 119 l258 0 l0 158 l141 0 l0 -158 l340 0 l0 -284 l131 0 l0 -121 l-131 0 l0 -285 ZM1489 1384 l0 -165 l209 0 l0 165 l-209 0 ZM1489 1098 l0 -166 l209 0 l0 166 l-209 0 ZM563 1479 l406 0 l0 -121 q-63 -132 -123.5 -242.5 q-60.5 -110.5 -118.5 -200.5 l254 0 l0 -84 q-9 -374 -123 -632 q97 -106 215 -158 q163 -71 512 -80 q240 0 381 6 l-27 -137 l-262 0 q-532 3 -723 117 q-46 24 -86.5 56 q-40.5 32 -76.5 69 q-107 -166 -254 -269 l-72 125 q140 101 233 256 q-124 176 -198 449 l118 45 q49 -203 146 -356 q37 101 59.5 218 q22.5 117 28.5 251 l-297 0 l0 106 q144 203 258 442 l-250 0 l0 140 ZM274 932 q-36 -60 -75 -117 q-39 -57 -80 -110 l-47 155 q123 178 211 381 q88 203 143 430 l133 -61 q-29 -108 -64.5 -208 q-35.5 -100 -76.5 -196 l0 -1413 l-144 0 l0 1139 Z" /><glyph glyph-name="cid01549" unicode="&#x5076;" d="M780 1591 l1010 0 l0 -784 l-440 0 l0 -166 l532 0 l0 -645 q0 -193 -178 -193 l-188 0 l-37 136 l180 -7 q88 0 88 95 l0 487 l-414 0 l0 -270 q46 6 87.5 13 q41.5 7 78.5 13 q-12 39 -23.5 74.5 q-11.5 35.5 -23.5 69.5 l100 32 q33 -82 61.5 -177.5 q28.5 -95.5 53.5 -202.5 l-108 -29 q-7 32 -14 63 q-7 31 -15 60 q-105 -28 -250.5 -48.5 q-145.5 -20.5 -333.5 -35.5 l-41 135 q167 6 303 18 l0 285 l-379 0 l0 -719 l-141 0 l0 846 l522 0 l0 166 l-430 0 l0 784 ZM1649 928 l0 209 l-299 0 l0 -209 l299 0 ZM1210 928 l0 209 l-288 0 l0 -209 l288 0 ZM922 1260 l288 0 l0 204 l-288 0 l0 -204 ZM1350 1464 l0 -204 l299 0 l0 204 l-299 0 ZM340 956 q-99 -137 -223 -268 l-49 156 q323 363 469 839 l139 -65 q-78 -235 -193 -438 l0 -1389 l-143 0 l0 1165 Z" /><glyph glyph-name="cid01550" unicode="&#x5077;" d="M1077 -197 l-147 0 l-33 125 l139 -6 q60 0 60 74 l0 221 l-271 0 l0 -418 l-129 0 l0 1119 l529 0 l0 -951 q0 -164 -148 -164 ZM825 332 l271 0 l0 172 l-271 0 l0 -172 ZM825 618 l271 0 l0 177 l-271 0 l0 -177 ZM344 977 q-51 -77 -107.5 -149.5 q-56.5 -72.5 -119.5 -143.5 l-47 154 q304 368 442 841 l133 -61 q-32 -101 -71.5 -199.5 q-39.5 -98.5 -86.5 -193.5 l0 -1434 l-143 0 l0 1186 ZM915 1217 l674 0 l0 -127 l-674 0 l0 127 ZM1389 879 l122 0 l0 -756 l-122 0 l0 756 ZM1655 -190 l-199 0 l-29 127 q48 -5 94 -8 q46 -3 89 -3 q76 0 76 82 l0 946 l129 0 l0 -979 q0 -165 -160 -165 ZM1204 1661 l111 0 q316 -332 645 -528 l-76 -117 q-172 104 -327.5 231.5 q-155.5 127.5 -296.5 276.5 q-148 -151 -309 -278.5 q-161 -127.5 -335 -233.5 l-75 116 q186 114 351.5 246.5 q165.5 132.5 311.5 286.5 Z" /><glyph glyph-name="cid01553" unicode="&#x507f;" d="M1188 1667 l147 0 l0 -356 l172 0 q86 156 148 331 l131 -47 q-62 -160 -139 -284 l249 0 l0 -387 l-137 0 l0 252 l-987 0 l0 -252 l-139 0 l0 387 l248 0 q-28 70 -63 136 q-35 66 -75 128 l131 47 q40 -64 76 -142.5 q36 -78.5 68 -168.5 l170 0 l0 356 ZM860 944 l811 0 l0 -133 l-811 0 l0 133 ZM586 586 l1370 0 l0 -142 l-719 0 q-183 -315 -322 -454 q348 27 695 86 q-37 52 -76 106 q-39 54 -82 109 l119 76 q216 -275 334 -482 l-123 -86 q-40 74 -86 148 q-221 -31 -463.5 -57 q-242.5 -26 -503.5 -46 l-33 140 q19 6 31 12 q132 84 348 448 l-489 0 l0 142 ZM319 932 q-91 -140 -204 -273 l-47 154 q150 191 258 409 q108 218 176 464 l133 -62 q-34 -117 -76.5 -226.5 q-42.5 -109.5 -93.5 -213.5 l0 -1393 l-146 0 l0 1141 Z" /><glyph glyph-name="cid01554" unicode="&#x5080;" d="M344 971 q-98 -148 -215 -283 l-47 150 q147 184 253.5 394.5 q106.5 210.5 174.5 446.5 l133 -63 q-31 -102 -69 -198.5 q-38 -96.5 -82 -188.5 l0 -1438 l-148 0 l0 1180 ZM731 1495 l303 0 q25 48 42.5 97 q17.5 49 29.5 100 l149 -19 q-27 -95 -73 -178 l592 0 l0 -866 l-512 0 q-142 -537 -580 -832 l-111 97 q413 264 547 735 l-387 0 l0 866 ZM1630 758 l0 235 l-311 0 q-5 -61 -12.5 -119.5 q-7.5 -58.5 -16.5 -115.5 l340 0 ZM1149 758 q22 117 31 235 l-308 0 l0 -235 l277 0 ZM872 1120 l314 0 l0 244 l-314 0 l0 -244 ZM1325 1364 l0 -244 l305 0 l0 244 l-305 0 ZM1759 -170 l-358 0 q-158 0 -158 168 l0 518 l131 0 l0 -493 q0 -62 64 -62 l286 0 q19 0 34.5 4 q15.5 4 27.5 10 q29 21 39 152 l127 -41 q-22 -182 -66 -223 q-41 -30 -127 -33 ZM1825 463 q40 -78 70.5 -150.5 q30.5 -72.5 50.5 -140.5 l-86 -33 l-25 70 q-169 -63 -348 -88 l-33 92 q103 136 174 356 l107 -30 q-68 -183 -156 -310 q58 10 113.5 26 q55.5 16 109.5 38 q-32 81 -67 145 l90 25 Z" /><glyph glyph-name="cid01555" unicode="&#x5085;" d="M479 1681 l129 -61 q-58 -200 -141 -381 l0 -1448 l-141 0 l0 1186 q-50 -77 -102.5 -150.5 q-52.5 -73.5 -110.5 -142.5 l-50 156 q285 370 416 841 ZM662 1526 l557 0 l0 141 l143 0 l0 -141 l250 0 q-16 34 -31.5 64.5 q-15.5 30.5 -34.5 58.5 l127 20 q16 -32 30 -67.5 q14 -35.5 30 -75.5 l188 0 l0 -125 l-559 0 l0 -141 l481 0 l0 -750 l-137 0 l0 156 l-344 0 l0 -144 l-143 0 l0 144 l-342 0 l0 -158 l-136 0 l0 752 l478 0 l0 141 l-557 0 l0 125 ZM877 768 l342 0 l0 131 l-342 0 l0 -131 ZM1362 899 l0 -131 l344 0 l0 131 l-344 0 ZM877 1004 l342 0 l0 141 l-342 0 l0 -141 ZM1362 1145 l0 -141 l344 0 l0 141 l-344 0 ZM612 387 l926 0 l0 102 l143 0 l0 -102 l281 0 l0 -131 l-281 0 l0 -299 q0 -160 -163 -160 l-234 0 l-31 137 q57 -4 111 -7 q54 -3 104 -3 q70 0 70 68 l0 264 l-926 0 l0 131 ZM920 250 q178 -129 301 -258 l-93 -92 q-55 61 -129 127 q-74 66 -170 137 l91 86 Z" /></font>
</defs>
</svg>
