<?xml version="1.0" encoding="UTF-8"?>
<svg width="38px" height="38px" viewBox="0 0 38 38" version="1.1" xmlns="http://www.w3.org/2000/svg" xmlns:xlink="http://www.w3.org/1999/xlink">
    <!-- Generator: Sketch 52.4 (67378) - http://www.bohemiancoding.com/sketch -->
    <title>Group 22</title>
    <desc>Created with Sketch.</desc>
    <g id="全民营销" stroke="none" stroke-width="1" fill="none" fill-rule="evenodd">
        <g id="Group-22" fill="#7ED321">
            <g id="Group-2">
                <g id="system-charge">
                    <path d="M19,38 C29.4934102,38 38,29.4934102 38,19 C38,8.50658975 29.4934102,0 19,0 C8.50658975,0 0,8.50658975 0,19 C0,29.4934102 8.50658975,38 19,38 Z M28.6769231,23 L27.6923077,23 L27.6923077,11.6153846 C27.6923077,11.2769231 27.4153846,11 27.0769231,11 L12.9230769,11 C12.5846154,11 12.3076923,11.2769231 12.3076923,11.6153846 L12.3076923,22.8153846 L11.3230769,22.8153846 C11.2,22.8153846 11.1076923,22.8769231 11.0461538,22.9692308 C10.9538462,23.1230769 11.0153846,23.3076923 11.1692308,23.4 L19.7230769,28.1692308 C19.9076923,28.2615385 20.1230769,28.2615385 20.3076923,28.1692308 L28.8307692,23.5846154 C28.9230769,23.5230769 28.9846154,23.4307692 28.9846154,23.3076923 C28.9846154,23.1230769 28.8615385,23 28.6769231,23 Z M20.0307692,26.8769231 L13.5692308,23.3076923 L13.5692308,12.2307692 L26.4923077,12.2307692 L26.4923077,23.4615385 L20.0307692,26.8769231 Z M20.6153846,16.9692308 L23.0769231,14.6923077 L21.2307692,14.6923077 L20,15.9230769 L18.7692308,14.6923077 L16.9230769,14.6923077 L19.3846154,17 L19.3846154,17.4615385 L17.2307692,17.4615385 L17.2307692,18.6923077 L19.3846154,18.6923077 L19.3846154,19.9230769 L17.2307692,19.9230769 L17.2307692,21.1538462 L19.3846154,21.1538462 L19.3846154,22.6923077 L20.6153846,22.6923077 L20.6153846,21.1538462 L22.7692308,21.1538462 L22.7692308,19.9230769 L20.6153846,19.9230769 L20.6153846,18.6923077 L22.7692308,18.6923077 L22.7692308,17.4615385 L20.6153846,17.4615385 L20.6153846,16.9692308 Z" id="Oval-2"></path>
                </g>
            </g>
        </g>
    </g>
</svg>