<?xml version="1.0" encoding="UTF-8"?>
<svg width="52px" height="52px" viewBox="0 0 52 52" version="1.1" xmlns="http://www.w3.org/2000/svg" xmlns:xlink="http://www.w3.org/1999/xlink">
    <!-- Generator: Sketch 49.3 (51167) - http://www.bohemiancoding.com/sketch -->
    <title>Group 11</title>
    <desc>Created with Sketch.</desc>
    <defs></defs>
    <g id="会员管理" stroke="none" stroke-width="1" fill="none" fill-rule="evenodd">
        <g id="Group-11">
            <g id="Group-2" fill="#F7C002">
                <path d="M26,48.1153846 C13.7860103,48.1153846 3.88461538,38.2139897 3.88461538,26 C3.88461538,13.7860103 13.7860103,3.88461538 26,3.88461538 C38.2139897,3.88461538 48.1153846,13.7860103 48.1153846,26 C48.1153846,38.2139897 38.2139897,48.1153846 26,48.1153846 Z M36.8533654,21.1134315 L31.3846154,24.4788161 C31.3004808,24.5629507 31.3004808,24.5629507 31.2163462,24.4788161 L26,17.8321815 C25.9158654,17.7480469 25.9158654,17.7480469 25.8317308,17.8321815 L19.9423077,24.4788161 C19.8581731,24.5629507 19.8581731,24.5629507 19.7740385,24.4788161 L15.0625,21.1134315 C14.9783654,21.0292969 14.8942308,21.1134315 14.8942308,21.1975661 L16.7451923,33.1446815 C16.7451923,33.3129507 16.9134615,33.3970853 17.0817308,33.3970853 L34.4975962,33.3970853 C34.6658654,33.3970853 34.75,33.3129507 34.8341346,33.1446815 L37.0216346,21.2817007 C37.0216346,21.1134315 36.9375,21.0292969 36.8533654,21.1134315 Z M33.7403846,34.8273738 L17.8389423,34.8273738 C17.4182692,34.8273738 16.9975962,35.1639123 16.9975962,35.66872 L16.9975962,36.2576623 C16.9975962,36.6783353 17.3341346,37.0990084 17.8389423,37.0990084 L33.8245192,37.0990084 C34.2451923,37.0990084 34.6658654,36.76247 34.5817308,36.2576623 L34.5817308,35.66872 C34.5817308,35.2480469 34.1610577,34.8273738 33.7403846,34.8273738 Z M12.5384615,19.5990084 C12.5384615,20.4354012 13.2164918,21.1134315 14.0528846,21.1134315 C14.8892774,21.1134315 15.5673077,20.4354012 15.5673077,19.5990084 C15.5673077,18.7626156 14.8892774,18.0845853 14.0528846,18.0845853 C13.2164918,18.0845853 12.5384615,18.7626156 12.5384615,19.5990084 Z M24.4855769,15.98122 C24.4855769,16.8176127 25.1636072,17.495643 26,17.495643 C26.8363928,17.495643 27.5144231,16.8176127 27.5144231,15.98122 C27.5144231,15.4401687 27.2257757,14.9402167 26.7572116,14.6696911 C26.2886474,14.3991654 25.7113526,14.3991654 25.2427884,14.6696911 C24.7742243,14.9402167 24.4855769,15.4401687 24.4855769,15.98122 Z M36.4326923,19.5990084 C36.4326923,20.4354012 37.1107226,21.1134315 37.9471154,21.1134315 C38.7835082,21.1134315 39.4615385,20.4354012 39.4615385,19.5990084 C39.4615385,19.0579571 39.1728911,18.5580051 38.7043269,18.2874795 C38.2357628,18.0169539 37.658468,18.0169539 37.1899038,18.2874795 C36.7213397,18.5580051 36.4326923,19.0579571 36.4326923,19.5990084 Z M26,51.5 C11.9167389,51.5 0.5,40.0832611 0.5,26 C0.5,11.9167389 11.9167389,0.5 26,0.5 C40.0832611,0.5 51.5,11.9167389 51.5,26 C51.5,40.0832611 40.0832611,51.5 26,51.5 Z M26,50.5 C39.5309764,50.5 50.5,39.5309764 50.5,26 C50.5,12.4690236 39.5309764,1.5 26,1.5 C12.4690236,1.5 1.5,12.4690236 1.5,26 C1.5,39.5309764 12.4690236,50.5 26,50.5 Z" id="Combined-Shape"></path>
            </g>
            <g id="会员俱乐部" transform="translate(12.538462, 14.461538)"></g>
        </g>
    </g>
</svg>