<?xml version="1.0" encoding="UTF-8"?>
<svg width="38px" height="38px" viewBox="0 0 38 38" version="1.1" xmlns="http://www.w3.org/2000/svg" xmlns:xlink="http://www.w3.org/1999/xlink">
    <!-- Generator: Sketch 49.3 (51167) - http://www.bohemiancoding.com/sketch -->
    <title>Group 22</title>
    <desc>Created with Sketch.</desc>
    <defs></defs>
    <g id="会员管理" stroke="none" stroke-width="1" fill="none" fill-rule="evenodd">
        <g id="Group-22">
            <circle id="Oval-2" fill="#7ED321" cx="19" cy="19" r="19"></circle>
            <g id="财务记录" transform="translate(10.000000, 11.000000)" fill="#FFFFFF" fill-rule="nonzero">
                <g id="Group">
                    <path d="M15.8456376,3.37026846 L2.15436242,3.37026846 C0.973988735,3.37159996 0.0174388826,4.32814981 0.0161073826,5.50852349 L0.0161073826,13.1595302 C0.0174388826,14.3399039 0.973988735,15.2964537 2.15436242,15.2977852 L15.8456376,15.2977852 C17.0260113,15.2964537 17.9825611,14.3399039 17.9838926,13.1595302 L17.9838926,5.50852349 C17.9825611,4.32814981 17.0260113,3.37159996 15.8456376,3.37026846 Z M16.1234899,13.1595302 C16.1213258,13.3120784 15.9981858,13.4352184 15.8456376,13.4373826 L2.15436242,13.4373826 C2.0018142,13.4352184 1.8786742,13.3120784 1.87651007,13.1595302 L1.87651007,5.50852349 C1.8786742,5.35597528 2.0018142,5.23283527 2.15436242,5.23067114 L15.8456376,5.23067114 C15.9981858,5.23283527 16.1213258,5.35597528 16.1234899,5.50852349 L16.1234899,13.1595302 Z" id="Shape"></path>
                    <path d="M14.033557,2.01926174 L3.96644295,2.01926174 C3.41114,2.01760329 2.96139,1.56785329 2.95973154,1.01255034 C2.96139,0.457247383 3.41114,0.00749738311 3.96644295,0.00583892617 L14.033557,0.00583892617 C14.58886,0.00749738311 15.03861,0.457247383 15.0402685,1.01255034 C15.03861,1.56785329 14.58886,2.01760329 14.033557,2.01926174 Z M9.89818792,9.75080537 L10.1891275,9.24744966 L12.7685235,9.24744966 C13.1335988,9.24634129 13.4290884,8.9503116 13.4295302,8.5852349 L13.4295302,8.49805369 C13.4285346,8.13340294 13.1331742,7.83804254 12.7685235,7.83704698 L11.002953,7.83704698 L11.408255,7.1347651 C11.629319,6.74954408 11.497917,6.25811326 11.114094,6.03463087 C10.7287153,5.81366909 10.2372363,5.94535382 10.0139597,6.32939597 L9.14295302,7.83704698 L8.85704698,7.83704698 L7.9866443,6.32939597 C7.76334946,5.9449932 7.27142009,5.81326014 6.88590604,6.03463087 C6.50186388,6.25790742 6.37017916,6.74938648 6.59114094,7.1347651 L6.99644295,7.83704698 L5.23147651,7.83704698 C4.86682576,7.83804254 4.57146536,8.13340294 4.5704698,8.49805369 L4.5704698,8.5852349 C4.57146483,8.94991854 4.86679319,9.24533686 5.23147651,9.24644295 L7.81087248,9.24644295 L8.10181208,9.74979866 C8.12828851,9.79585928 8.15938867,9.83910268 8.19463087,9.87885906 L8.19463087,10.2525503 L5.23147651,10.2525503 C4.86659065,10.2535473 4.57113348,10.5492745 4.5704698,10.9141611 L4.5704698,11.0013423 C4.57146483,11.3660259 4.86679319,11.6614442 5.23147651,11.6625503 L8.19463087,11.6625503 L8.19463087,12.165906 C8.19595764,12.6101484 8.55575764,12.9699484 9,12.9712752 C9.44424236,12.9699484 9.80404236,12.6101484 9.80536913,12.165906 L9.80536913,11.6625503 L12.7685235,11.6625503 C13.1332068,11.6614442 13.4285352,11.3660259 13.4295302,11.0013423 L13.4295302,10.9141611 C13.4285346,10.5495103 13.1331742,10.2541499 12.7685235,10.2531544 L9.80536913,10.2531544 L9.80536913,9.87946309 C9.84061133,9.83970671 9.87171149,9.79646331 9.89818792,9.75040268 L9.89818792,9.75080537 Z" id="Shape"></path>
                </g>
            </g>
        </g>
    </g>
</svg>