<?xml version="1.0" encoding="UTF-8"?>
<svg width="140px" height="26px" viewBox="0 0 140 26" version="1.1" xmlns="http://www.w3.org/2000/svg" xmlns:xlink="http://www.w3.org/1999/xlink">
    <!-- Generator: Sketch 49.3 (51167) - http://www.bohemiancoding.com/sketch -->
    <title>Page 1</title>
    <desc>Created with Sketch.</desc>
    <defs>
        <polygon id="path-1" points="0 0.265236364 17.9429091 0.265236364 17.9429091 24.9454545 0 24.9454545"></polygon>
        <polygon id="path-3" points="0.479249413 0.336712727 18.997199 0.336712727 18.997199 24.9454545 0.479249413 24.9454545"></polygon>
        <polygon id="path-5" points="0 25.1895636 139.528073 25.1895636 139.528073 0.509345455 0 0.509345455"></polygon>
    </defs>
    <g id="Symbols" stroke="none" stroke-width="1" fill="none" fill-rule="evenodd">
        <g id="Page-1">
            <g id="Group-3" transform="translate(0.000000, 0.244109)">
                <mask id="mask-2" fill="white">
                    <use xlink:href="#path-1"></use>
                </mask>
                <g id="Clip-2"></g>
                <path d="M10.9836364,22.0758618 C12.2390545,22.0758618 13.8172364,22.00408 15.3602909,21.8605164 L15.0370182,24.3718618 C12.7415273,24.7302618 9.9792,24.9456073 8.04210909,24.9456073 C1.65658182,24.9456073 -0.926545455,23.7976073 0.293236364,13.8606618 C1.62043636,3.13462545 2.80458182,0.26488 11.3781818,0.26488 C12.1316364,0.26488 15.3241455,0.480225455 17.9429091,0.802989091 L17.584,3.60095273 C17.5127273,3.60095273 17.4409455,3.56531636 17.3686545,3.56531636 C12.9925091,3.24255273 11.8088727,3.17077091 11.3425455,3.17077091 C5.56690909,3.17077091 5.06443636,5.17964364 3.98821818,14.0403709 C3.01941818,21.7892436 4.95701818,22.0758618 10.9836364,22.0758618" id="Fill-1" fill="#FFFFFF" mask="url(#mask-2)"></path>
            </g>
            <polygon id="Fill-4" fill="#FFFFFF" points="19.4494618 24.8669018 22.3553527 0.975265455 25.9424073 0.975265455 23.3597891 22.0689382 33.87048 22.0689382 33.5477164 24.8669018"></polygon>
            <g id="Group-8" transform="translate(36.654545, 0.244109)">
                <mask id="mask-4" fill="white">
                    <use xlink:href="#path-3"></use>
                </mask>
                <g id="Clip-7"></g>
                <path d="M15.0093745,12.6770764 C16.0499564,4.42624 15.7984655,2.88369455 10.8837018,2.88369455 C5.89766545,2.88369455 5.46697455,4.60594909 4.46304727,12.6770764 C3.49424727,20.6769309 3.52988364,22.3986764 8.48079273,22.3986764 C13.3594109,22.3986764 14.0049382,20.9635491 15.0093745,12.6770764 M0.947265455,12.6770764 C2.20268364,2.66834909 3.56602909,0.336712727 11.2069745,0.336712727 C19.02712,0.336712727 19.7449382,2.77627636 18.5251564,12.6770764 C17.3053745,22.6858036 15.9425382,24.9456582 8.15802909,24.9456582 C0.373010909,24.9456582 -0.236370909,22.3986764 0.947265455,12.6770764" id="Fill-6" fill="#FFFFFF" mask="url(#mask-4)"></path>
            </g>
            <polygon id="Fill-9" fill="#FFFFFF" points="63.5746109 24.8669018 66.1572291 3.73759273 58.9469745 3.73759273 59.2697382 0.975265455 77.3139564 0.975265455 76.9911927 3.73759273 69.7804291 3.73759273 67.1978109 24.8669018"></polygon>
            <path d="M80.6149527,16.4007709 L88.6504436,16.4007709 L86.1034618,4.09655273 L80.6149527,16.4007709 Z M73.2967709,24.8669527 L83.91488,0.975316364 L89.0811345,0.975316364 L93.9953891,24.8669527 L90.4801164,24.8669527 L89.29648,19.3784436 L79.3233891,19.3784436 L76.9199709,24.8669527 L73.2967709,24.8669527 Z" id="Fill-11" fill="#FFFFFF"></path>
            <mask id="mask-6" fill="white">
                <use xlink:href="#path-5"></use>
            </mask>
            <g id="Clip-14"></g>
            <path d="M100.605527,16.6337818 L108.358473,16.6337818 L108.358473,15.9083273 L100.605527,15.9083273 L100.605527,16.6337818 Z M105.986618,20.5934909 C106.953891,21.6717455 107.914545,22.8151636 108.868582,24.0237455 L108.133455,24.5725455 C107.898255,24.2492727 107.663055,23.9336364 107.427855,23.6271636 C105.081455,23.7086182 103.102109,23.8012727 101.487782,23.9061455 C101.206764,23.9387273 100.942545,23.9911636 100.6936,24.0629455 L100.302109,23.1613455 C100.6936,22.9719636 101.020436,22.7199636 101.282109,22.4063636 C101.984145,21.5572 102.632727,20.6357455 103.227855,19.6425091 L99.6937455,19.6425091 L99.6937455,18.9175636 L109.279927,18.9175636 L109.279927,19.6425091 L104.291345,19.6425091 C103.310836,21.1030909 102.464727,22.2561818 101.752,23.1022909 C103.980291,23.0468 105.697455,22.9943636 106.903491,22.946 C106.383709,22.2826545 105.862909,21.6417091 105.339564,21.0241818 L105.986618,20.5934909 Z" id="Fill-13" fill="#FFFFFF" mask="url(#mask-6)"></path>
            <path d="M120.679033,19.5348873 C121.397869,18.7768509 122.044924,17.9404145 122.620196,17.0255782 L123.354815,17.4959782 C122.616633,18.50856 121.926815,19.3582327 121.286378,20.0444873 L120.679033,19.5348873 Z M115.689942,17.4959782 L116.307469,17.0642691 C117.039542,17.92056 117.669796,18.7473236 118.199251,19.54456 L117.503324,20.0638327 C116.999833,19.2472509 116.395542,18.3914691 115.689942,17.4959782 Z M114.749142,20.5148873 L119.091178,20.5148873 L119.091178,16.4177236 L115.190015,16.4177236 L115.190015,15.6632509 L123.854742,15.6632509 L123.854742,16.4177236 L119.914378,16.4177236 L119.914378,20.5148873 L124.285942,20.5148873 L124.285942,21.26936 L119.914378,21.26936 L119.914378,24.8762691 L119.091178,24.8762691 L119.091178,21.26936 L114.749142,21.26936 L114.749142,20.5148873 Z" id="Fill-15" fill="#FFFFFF" mask="url(#mask-6)"></path>
            <path d="M131.862691,23.4749455 L137.253964,23.4749455 L137.253964,21.1030909 L131.862691,21.1030909 L131.862691,23.4749455 Z M138.057309,20.3776364 L138.057309,24.8276 L137.253964,24.8276 L137.253964,24.1810545 L131.862691,24.1810545 L131.862691,24.8276 L131.059345,24.8276 L131.059345,20.3776364 L138.057309,20.3776364 Z M136.616582,16.4861455 C137.6424,17.4401818 138.613236,18.4171273 139.528073,19.4169818 L138.831636,19.9953091 C138.570473,19.6883273 138.305745,19.3864364 138.037964,19.0891273 C135.104073,19.2128364 132.862545,19.3192364 131.313891,19.4073091 C130.954473,19.4332727 130.608291,19.4857091 130.275345,19.5641091 L129.951564,18.7210545 C130.252436,18.6100727 130.523273,18.4563273 130.765091,18.2608364 C131.882545,17.346 132.905309,16.2906545 133.832873,15.0948 L134.568,15.5458545 C133.588,16.6953818 132.565236,17.7181455 131.500218,18.6131273 C133.502982,18.5515273 135.473164,18.4792364 137.410255,18.3977818 C136.962764,17.9110909 136.508655,17.4371273 136.048436,16.9764 L136.616582,16.4861455 Z" id="Fill-16" fill="#FFFFFF" mask="url(#mask-6)"></path>
        </g>
    </g>
</svg>