<?xml version="1.0" encoding="UTF-8"?>
<svg width="100px" height="98px" viewBox="0 0 100 98" version="1.1" xmlns="http://www.w3.org/2000/svg" xmlns:xlink="http://www.w3.org/1999/xlink">
    <!-- Generator: Sketch 49.3 (51167) - http://www.bohemiancoding.com/sketch -->
    <title>同意</title>
    <desc>Created with Sketch.</desc>
    <defs>
        <rect id="path-1" x="0" y="0" width="100" height="100"></rect>
    </defs>
    <g id="Page-1" stroke="none" stroke-width="1" fill="none" fill-rule="evenodd">
        <g id="同意" transform="translate(0.000000, -1.000000)">
            <g id="Group-29">
                <mask id="mask-2" fill="white">
                    <use xlink:href="#path-1"></use>
                </mask>
                <g id="Mask"></g>
                <g mask="url(#mask-2)">
                    <g id="圆" transform="translate(18.715524, 1.041667)">
                        <path d="M51.3055986,11.644135 L52.1434288,11.644135 L52.1434288,12.1983197 C52.7020391,12.1983197 52.981259,11.9213119 53.2606494,11.644135 C54.9363097,12.1983197 55.2155296,12.1983197 57.1705803,12.1983197 L57.1705803,13.306689 C57.7291906,13.306689 57.1705803,12.4754965 58.0084105,12.7525043 C58.0084105,13.0295121 57.4499707,13.0295121 57.7291906,13.5836967 C56.61197,13.8608736 56.61197,13.0295121 55.49492,13.306689 C55.49492,12.7525043 56.0535302,13.0295121 56.3327501,13.0295121 L56.3327501,12.7525043 C55.7741399,12.4753274 54.9363097,12.7525043 55.2155296,13.306689 C54.9363097,12.7525043 53.5398693,13.306689 53.2606494,12.7525043 C52.981259,13.306689 52.4226487,12.7525043 51.8642089,12.7525043 C51.3055986,11.9213119 51.5848185,12.1983197 51.3055986,11.644135" id="Fill-1" fill="#F7981C"></path>
                        <path d="M72.2522053,19.9563975 C72.8108155,20.2335744 73.0900354,20.2335744 73.9278656,20.2335744 C73.9278656,20.5105822 73.3692553,20.5105822 73.6486457,21.0647668 C73.3692553,20.5105822 72.2522053,20.5105822 71.9728149,20.2335744 C71.693595,19.9563975 72.5314252,20.2335744 72.2522053,19.9563975" id="Fill-2" fill="#F7981C"></path>
                        <path d="M75.6036964,23.0043286 L76.4415266,23.0043286 C76.4415266,23.2813364 76.4415266,23.2813364 76.7207465,23.2813364 C76.4415266,23.5585132 76.4415266,23.835521 75.8829163,23.835521 C75.8829163,23.5585132 75.6036964,23.5585132 75.6036964,23.0043286" id="Fill-3" fill="#F7981C"></path>
                        <path d="M14.160317,39.6288536 L14.160317,40.7370538 C13.6017067,40.7370538 13.0430965,41.0142307 12.7638766,41.0142307 C13.0430965,40.7370538 13.0430965,39.6288536 14.160317,39.6288536" id="Fill-5" fill="#37BD4B"></path>
                        <path d="M47.6953575,95.5981218 C47.9950349,95.5981218 47.9950349,95.8966482 47.9950349,96.1951746 L47.3954972,96.1951746 C47.3954972,95.5981218 47.9950349,95.8966482 47.6953575,95.5981218" id="Fill-6" fill="#F7981C"></path>
                        <path d="M5.22306411,28.8228447 C5.50228401,28.8228447 5.50228401,29.1000216 5.50228401,29.1000216 C5.78167438,28.8228447 5.78167438,27.9916523 5.50228401,27.9916523 C6.06089428,27.1604598 6.34011418,26.0520905 6.89872445,24.9438903 L8.01594499,24.9438903 C8.01594499,25.4979059 8.29516489,25.4979059 8.01594499,26.0520905 C8.57455526,26.0520905 8.01594499,24.9438903 8.01594499,24.9438903 C8.01594499,24.3897057 8.29516489,24.1125288 8.29516489,23.5585132 C7.73655462,23.2813364 8.29516489,24.3897057 7.73655462,24.1125288 C8.01594499,23.835521 8.01594499,23.2813364 8.01594499,23.0043286 L8.57455526,22.7271517 C8.85377516,22.1731362 8.85377516,22.4501439 9.13299506,21.8959593 C9.41238543,21.6189515 9.41238543,21.0647668 9.41238543,20.7877591 C9.69160533,20.5105822 9.9709957,20.5105822 10.2502156,20.5105822 L10.2502156,19.9563975 C10.2502156,19.6793898 10.8088259,19.6793898 11.0880458,19.402382 C11.646656,18.8481973 10.8088259,19.1252051 11.3674361,19.1252051 C11.646656,19.1252051 11.3674361,18.2940127 11.3674361,18.5710204 C11.9258759,18.5710204 11.646656,18.8481973 11.646656,19.1252051 C12.2052663,19.402382 11.646656,18.5710204 12.2052663,18.8481973 C12.2052663,18.5710204 11.646656,18.5710204 11.646656,18.2940127 C16.6738075,12.7525043 21.9803494,8.0421884 29.5211619,4.99442645 C29.8003818,4.71724957 29.8003818,4.71724957 30.0796017,4.4402418 C30.6382119,4.16306491 30.0796017,5.27143423 30.358992,5.27143423 C30.6382119,5.27143423 30.358992,4.71724957 30.358992,4.4402418 C30.6382119,4.4402418 31.4760421,3.60904937 31.7554325,4.4402418 C32.0346524,4.4402418 31.7554325,4.16306491 31.7554325,3.88605714 C32.8724826,3.33187248 33.9897031,3.33187248 35.1069236,2.77785694 C35.6653634,2.50068005 35.1069236,3.33187248 35.6653634,3.05486471 C36.782584,2.50068005 38.7376347,1.66948762 39.8546848,1.94649539 C39.8546848,1.66948762 40.413295,1.66948762 40.1340751,1.39247985 C42.0891258,1.66948762 43.2061759,0.838295193 45.4404465,1.11530296 C45.7198369,1.39247985 45.1612266,1.39247985 45.1612266,1.66948762 C45.1612266,1.94649539 45.7198369,1.66948762 45.9990568,1.66948762 C45.4404465,1.11530296 46.2784472,1.39247985 46.2784472,0.838295193 C47.9541075,0.561118307 49.9091582,0.00710276338 50.7469884,0.561118307 C51.5848185,0.284110535 51.5848185,0.561118307 52.4226487,0.284110535 C52.7020391,1.39247985 53.8190892,0.284110535 55.2155296,0.561118307 L55.2155296,1.39247985 C55.7741399,1.39247985 56.0535302,1.11530296 56.0535302,0.838295193 C56.61197,0.838295193 57.4499707,0.838295193 57.1705803,1.39247985 C57.4499707,1.39247985 57.4499707,1.11530296 57.4499707,0.838295193 C59.6842413,1.11530296 61.639292,1.66948762 63.5941722,2.22367228 C63.8735626,2.77785694 63.3149523,2.50068005 63.3149523,2.77785694 C62.7563421,3.05486471 63.3149523,2.22367228 63.0357324,2.50068005 C63.0357324,3.05486471 62.4771222,2.77785694 62.4771222,3.33187248 C63.0357324,3.05486471 63.5941722,3.05486471 64.1527825,2.77785694 C64.1527825,2.50068005 64.1527825,2.50068005 63.8735626,2.50068005 C65.2700031,1.94649539 66.1078332,3.33187248 67.5042737,3.33187248 L67.5042737,3.88605714 C68.0628839,4.16323402 67.7834936,3.60904937 68.0628839,3.60904937 C71.1349847,4.99442645 73.9278656,6.65681131 77.0001368,8.31936528 C77.0001368,8.59637306 77.2793567,8.59637306 77.0001368,8.87338083 C77.837967,8.59637306 77.837967,9.70474237 78.6757972,9.42756549 C78.6757972,10.2587579 78.6757972,11.3671272 78.3965773,12.1983197 C78.1171869,12.1983197 77.5585767,12.1983197 77.5585767,11.9213119 C77.837967,11.9213119 77.837967,12.1983197 77.837967,12.1983197 C78.1171869,12.1983197 77.837967,11.644135 78.1171869,11.644135 C77.837967,11.3671272 77.2793567,11.644135 77.2793567,11.9213119 C73.6486457,9.70474237 70.2971545,7.21099597 65.8286133,5.82561888 L65.8286133,5.27143423 C65.549223,5.27143423 65.549223,5.82561888 65.2700031,5.54861111 C65.2700031,5.27143423 65.2700031,5.27143423 64.9906127,5.27143423 C64.9906127,4.99442645 65.2700031,4.99442645 65.2700031,4.99442645 C65.2700031,4.71724957 64.9906127,4.99442645 64.9906127,4.99442645 C64.7113928,4.99442645 64.9906127,5.82561888 64.7113928,5.54861111 C64.7113928,4.71724957 64.7113928,4.4402418 65.2700031,4.16323402 C64.9906127,3.88605714 64.9906127,3.88605714 64.9906127,3.60904937 L64.4321729,3.60904937 C64.9906127,4.16323402 64.1527825,4.4402418 64.7113928,4.71724957 C64.4321729,4.71724957 64.4321729,4.99442645 64.4321729,4.99442645 C63.5941722,4.71724957 62.4771222,4.16323402 61.3599016,4.16323402 C61.3599016,3.88605714 61.3599016,3.60904937 61.0806817,3.60904937 C60.8012914,3.05486471 61.639292,3.60904937 61.3599016,3.05486471 C60.8012914,2.77785694 61.3599016,3.60904937 60.8012914,3.33187248 C60.8012914,3.60904937 61.3599016,3.60904937 61.0806817,4.16323402 C60.8012914,3.88605714 60.2428516,3.88605714 59.6842413,3.88605714 L59.6842413,3.05486471 C59.4048509,4.16323402 57.7291906,3.60904937 57.1705803,3.05486471 C56.61197,3.60904937 55.49492,2.77785694 54.3776994,3.05486471 C54.3776994,2.77785694 53.8190892,2.77785694 54.0984795,2.50068005 C53.5398693,2.22367228 53.5398693,2.50068005 53.5398693,2.77785694 C49.071328,2.50068005 44.6026163,3.33187248 41.2511252,3.05486471 C40.6926854,3.33187248 41.5305156,3.33187248 41.2511252,3.60904937 C35.9447538,4.16323402 32.3140427,6.37980354 28.1247214,7.76518063 C26.4488906,9.42756549 23.6560097,9.98175014 22.5389597,11.644135 C21.700959,11.644135 21.9803494,12.4754965 21.1425192,12.1983197 C20.8631289,12.4754965 20.583909,12.7525043 20.3045186,13.306689 C19.1874685,13.5836967 18.6288582,14.6920661 17.5116377,15.5232585 C16.6738075,16.0774431 15.8359774,16.9086356 15.5567575,17.739828 L14.9981472,17.739828 C14.7187568,19.1252051 13.3223164,18.8481973 13.3223164,20.2335744 L12.7638766,20.2335744 L12.7638766,21.0647668 C10.5294355,23.0043286 9.13299506,25.7750828 7.73655462,28.5458369 C7.45733472,28.5458369 7.45733472,28.26866 7.45733472,28.26866 C7.17811482,28.26866 7.45733472,29.1000216 7.17811482,28.8228447 C6.89872445,29.3770294 7.73655462,28.8228447 7.45733472,29.3770294 C6.89872445,29.6540371 7.17811482,29.1000216 6.61950455,29.1000216 C6.61950455,28.8228447 7.17811482,28.8228447 6.89872445,28.26866 C7.45733472,28.5458369 7.45733472,27.9916523 7.73655462,27.9916523 L7.45733472,27.7144754 C7.17811482,27.7144754 7.45733472,28.26866 7.17811482,27.9916523 C7.45733472,27.4374676 6.89872445,27.7144754 6.89872445,27.4374676 C6.61950455,27.7146445 7.17811482,27.9916523 7.17811482,28.26866 C6.61950455,28.26866 6.89872445,29.3770294 6.34011418,29.6540371 C5.22306411,29.6540371 5.50228401,29.1000216 5.22306411,28.8228447 L5.22306411,28.8228447 Z M23.6560097,9.42756549 C23.3767898,9.42756549 23.0973995,9.70474237 23.0973995,10.2587579 C23.6560097,10.5359348 23.6560097,9.98175014 23.6560097,9.42756549 L23.6560097,9.42756549 Z M47.9541075,1.66948762 C48.5127178,1.94649539 48.5127178,1.11530296 47.9541075,1.11530296 C48.2333274,1.39247985 47.9541075,1.66948762 47.9541075,1.66948762 L47.9541075,1.66948762 Z M44.8820067,2.50068005 C45.1612266,2.50068005 45.4404465,2.22367228 45.4404465,1.66948762 C45.1612266,1.94649539 45.1612266,2.22367228 44.8820067,2.50068005 L44.8820067,2.50068005 Z M60.2428516,3.60904937 L60.2428516,2.77785694 C59.9634612,2.77785694 59.9634612,2.50068005 59.6842413,2.77785694 C59.9634612,3.05486471 59.9634612,3.33187248 60.2428516,3.60904937 L60.2428516,3.60904937 Z M64.1527825,4.16323402 C64.1527825,3.60904937 64.1527825,3.33187248 63.5941722,3.33187248 C63.5941722,3.88605714 63.5941722,4.16323402 64.1527825,4.16323402 L64.1527825,4.16323402 Z M65.8286133,4.71724957 L66.1078332,4.71724957 C66.1078332,4.4402418 65.8286133,4.4402418 65.549223,4.16323402 C65.2700031,4.4402418 65.8286133,4.16323402 65.8286133,4.71724957 L65.8286133,4.71724957 Z M68.3421038,5.54861111 L68.9007141,5.54861111 C68.9007141,5.27143423 68.9007141,4.99442645 68.6214942,4.99442645 C68.9007141,5.27143423 68.0628839,4.99442645 68.3421038,5.54861111 L68.3421038,5.54861111 Z M70.0179346,5.82561888 C70.2971545,5.82561888 70.5763744,5.54861111 70.2971545,5.27143423 C70.0179346,5.27143423 69.7385443,5.82561888 70.0179346,5.82561888 L70.0179346,5.82561888 Z M70.2971545,5.82561888 C70.2971545,6.10262666 70.5776868,6.9339882 70.5776868,6.65681131 C70.5776868,6.37980354 70.8583903,5.54861111 70.2971545,5.82561888 L70.2971545,5.82561888 L70.2971545,5.82561888 Z M14.160317,18.2940127 L13.3223164,18.2940127 C13.3223164,19.1252051 14.160317,18.5710204 14.160317,18.2940127 L14.160317,18.2940127 Z M7.17811482,26.0520905 L8.01594499,26.0520905 L8.01594499,25.4979059 C7.45733472,25.4979059 8.01594499,26.0520905 7.17811482,26.0520905 C7.45733472,25.4979059 7.45733472,25.4979059 7.17811482,25.4979059 L7.17811482,26.0520905 L7.17811482,26.0520905 Z" id="Fill-7" fill="#F7981C"></path>
                        <path d="M87.6130501,21.6189515 C87.0544398,21.0647668 87.3336597,21.0647668 86.7752199,20.5105822 C87.3336597,20.5105822 87.6130501,20.2335744 87.6130501,19.9563975 C87.0544398,20.2335744 87.0544398,20.2335744 86.4958296,20.2335744 L86.4958296,19.6793898 L87.0544398,19.6793898 C87.3336597,18.8481973 86.7752199,18.5710204 86.7752199,18.2940127 C86.4958296,18.2940127 86.4958296,18.8481973 86.2166097,18.2940127 C85.9372193,18.2940127 86.2166097,18.5710204 86.2166097,18.5710204 C85.6579994,18.2940127 85.6579994,18.5710204 85.3787795,18.5710204 C86.2166097,18.0170049 83.982339,18.2940127 84.5407789,17.1856434 C83.982339,16.9086356 84.5407789,17.739828 83.982339,17.4628202 C83.982339,16.9086356 83.7029487,16.6316278 83.4237288,16.6316278 C83.1443384,16.0774431 83.982339,16.6316278 83.982339,16.3544509 C82.0272883,16.0774431 81.4686781,14.6920661 80.3514575,13.8608736 C80.0722376,13.306689 80.9100678,13.8608736 80.6308479,13.306689 C80.0722376,13.0295121 80.6308479,13.8608736 80.0722376,13.5836967 C78.9550171,13.306689 79.7930177,11.9213119 80.0722376,11.0901195 C80.0722376,10.8129426 79.5136274,11.0901195 79.5136274,10.8129426 C80.3514575,10.2587579 81.4686781,11.0901195 81.4686781,11.9213119 C80.9100678,11.3671272 80.9100678,12.1983197 80.6308479,11.644135 C80.0722376,11.9213119 80.9100678,12.1983197 80.6308479,12.7525043 C80.9100678,12.7525043 80.6308479,12.1983197 80.6308479,12.1983197 C83.7029487,12.1983197 83.982339,14.9690738 86.2166097,16.0774431 L86.2166097,16.9086356 L87.0544398,16.9086356 C87.0544398,17.4628202 87.6130501,17.739828 87.6130501,18.0170049 L87.0544398,18.0170049 C87.3336597,18.5710204 87.6130501,17.739828 87.89227,18.0170049 C87.89227,18.2940127 88.1716604,18.2940127 88.4508803,18.5710204 C88.4508803,18.8481973 88.1716604,18.8481973 88.1716604,18.8481973 C88.4508803,19.402382 88.4508803,18.5710204 88.7301002,18.8481973 C89.0094905,19.402382 89.2887104,19.9563975 89.8473207,20.2335744 L89.8473207,20.7877591 C89.8473207,21.0647668 90.1265406,20.7877591 90.405931,20.7877591 L87.6130501,21.6189515 Z M0.754352418,44.3391695 C1.31296269,42.3996078 1.03374278,41.8454231 1.31296269,39.9058614 C1.59235305,37.9662997 2.43018322,36.5809226 2.43018322,34.6415299 L2.98879349,34.6415299 C2.70940313,33.8101684 3.2680134,33.5331606 2.98879349,32.4247913 C3.5472333,32.4247913 3.2680134,32.978976 4.10584357,32.7019682 C4.10584357,32.978976 3.5472333,32.978976 3.82662367,33.2561528 C3.82662367,33.5331606 4.38523393,33.2561528 4.66445384,33.2561528 C4.38523393,32.4247913 4.38523393,32.1477835 4.66445384,31.3165911 C4.10584357,31.3165911 4.38523393,31.8707758 4.10584357,32.1477835 C3.82662367,32.1477835 3.82662367,31.5935989 3.2680134,31.8707758 C3.2680134,31.5935989 3.82662367,31.5935989 3.5472333,31.0394142 L4.38523393,31.0394142 C4.66445384,30.4853987 4.10584357,30.4853987 4.10584357,30.2082218 C4.66445384,30.2082218 4.38523393,29.3770294 4.38523393,29.1000216 L4.94367374,29.1000216 C4.66445384,29.6540371 4.66445384,29.931214 4.38523393,30.4853987 C5.22306411,31.0394142 4.94367374,29.3770294 5.50228401,29.3770294 L5.50228401,30.2082218 C6.06089428,30.2082218 6.34011418,29.931214 6.34011418,29.3770294 C6.61950455,29.6540371 6.61950455,29.931214 6.89872445,30.2082218 C6.89872445,31.0394142 6.06089428,31.0394142 6.34011418,32.4247913 C5.78167438,32.7019682 6.34011418,31.5935989 6.06089428,31.5935989 C5.78167438,31.8707758 6.06089428,32.4247913 6.06089428,32.4247913 C4.66445384,36.3039148 3.2680134,39.074669 3.2680134,44.3391695 L0.754352418,44.3391695 Z M95.9916927,55.9762018 L98.2259634,56.5303864 C97.6673531,57.9157635 97.6673531,59.8553253 97.3881332,61.5177101 C97.3881332,61.794887 96.8295229,62.0718948 96.8295229,62.0718948 C96.550303,62.9030872 96.550303,63.7344488 96.550303,64.5656412 C96.550303,64.842649 95.9916927,65.1198258 95.9916927,65.1198258 L95.9916927,65.9510183 C95.9916927,66.2280261 95.4330825,66.2280261 95.4330825,66.2280261 L95.4330825,67.0592185 C95.4330825,67.3363954 94.8744722,67.3363954 94.8744722,67.6134031 C94.5952523,67.89058 94.8744722,68.4445956 94.8744722,68.7217725 C94.8744722,68.9987802 94.5952523,68.9987802 94.3158619,68.9987802 C94.036642,69.5529649 93.7574221,70.6613342 93.4780318,71.4925266 C93.1988119,71.7695344 92.9194215,72.0467113 92.6402016,72.3237191 L92.6402016,72.8779037 C92.6402016,73.1549115 92.0815913,72.8779037 92.0815913,73.1549115 C91.8023714,73.7090961 91.8023714,74.2632808 91.5229811,74.8174655 C91.2437612,75.0944732 90.6851509,75.371481 90.405931,75.6486579 C90.1265406,75.9256657 90.405931,76.4798503 90.1265406,76.7568581 C89.8473207,77.034035 89.5681008,77.034035 89.2887104,77.3110427 C88.7301002,78.1422352 88.4508803,79.2506045 87.6130501,79.5276123 L87.6130501,78.9735967 C87.3336597,78.9735967 87.3336597,79.2506045 87.0544398,79.2506045 C87.0544398,79.5276123 87.3336597,79.2506045 87.6130501,79.2506045 C86.2166097,81.7443509 83.7029487,83.129728 82.0272883,85.3462975 C81.4686781,85.6233053 82.0272883,84.7921128 81.747898,84.7921128 C81.4686781,84.7921128 81.747898,85.3462975 81.747898,85.6233053 C81.1892877,85.9004822 81.747898,85.0691206 81.1892877,85.3462975 C80.9100678,85.9004822 81.747898,85.3462975 81.4686781,85.9004822 C79.7930177,87.0086824 78.3965773,88.3940594 76.4415266,89.2252519 C76.1621362,89.2252519 76.1621362,88.9482441 76.1621362,88.6712363 C75.8829163,88.9482441 76.1621362,89.2252519 76.1621362,89.5024288 C72.5314252,91.1648136 69.4593244,93.3813831 65.2700031,94.2127447 L65.2700031,93.65856 C64.4321729,93.9355678 65.2700031,94.2127447 65.2700031,94.4897524 C64.7113928,94.4897524 63.8735626,95.0439371 63.5941722,94.2127447 C63.3149523,94.2127447 63.5941722,94.7667602 63.5941722,95.0439371 C62.7563421,95.0439371 62.4771222,95.3209449 61.9185119,95.5981218 C61.6391215,95.5981218 61.6391215,95.3209449 61.6391215,95.0439371 C61.0806817,95.0439371 61.0806817,95.5981218 60.5220715,95.5981218 C60.5220715,95.3209449 60.5220715,95.3209449 60.2426811,95.3209449 C59.9634612,95.8751295 58.8462407,95.8751295 58.0084105,96.1521373 C58.0084105,95.8751295 58.5670208,95.8751295 58.2878008,95.5981218 C57.4498002,96.4293142 55.49492,96.4293142 54.0984795,96.706322 C52.981259,96.1521373 51.0262083,96.9834988 48.5127178,96.706322 C49.0711576,96.1521373 48.7919377,95.5981218 48.5127178,95.3209449 C49.0711576,95.0439371 48.7919377,95.5981218 49.0711576,95.5981218 C49.3505479,95.5981218 49.3505479,95.0439371 49.3505479,95.0439371 C49.3505479,94.7667602 48.5127178,94.7667602 48.5127178,94.4897524 L49.9091582,94.4897524 C50.1883781,95.0439371 49.3505479,95.0439371 49.6297678,95.5981218 C49.9091582,95.8751295 49.9091582,94.4897524 50.1883781,95.3209449 C50.467598,95.3209449 50.1883781,94.7667602 50.1883781,94.4897524 C50.467598,94.4897524 51.5848185,94.7667602 51.5848185,94.2127447 C51.8640385,94.7667602 52.1434288,93.9355678 52.7020391,94.2127447 L52.7020391,95.5981218 C52.1434288,95.8751295 52.7020391,94.7667602 52.1434288,95.0439371 C51.8640385,95.0439371 52.1434288,95.3209449 52.1434288,95.5981218 C53.2604789,96.1521373 52.981259,94.7667602 53.8190892,94.7667602 C53.8190892,95.0439371 53.2604789,95.0439371 53.5398693,95.3209449 C53.5398693,95.5981218 54.3776994,95.3209449 54.0984795,95.8751295 C54.6569193,96.1521373 54.0984795,95.3209449 54.6569193,95.5981218 C54.6569193,96.1521373 54.9363097,96.1521373 54.9363097,96.1521373 C55.2155296,96.1521373 54.9363097,95.8751295 54.9363097,95.5981218 C54.9363097,95.3209449 54.6569193,95.5981218 54.3776994,95.5981218 C54.0984795,94.7667602 54.9363097,94.7667602 54.3776994,94.2127447 C54.9363097,94.2127447 56.3327501,93.65856 56.8913604,94.2127447 C57.4498002,93.3813831 59.4048509,93.9355678 60.2426811,93.3813831 C60.8012914,93.1043754 60.2426811,93.9355678 60.8012914,93.65856 C60.8012914,93.9355678 60.8012914,93.9355678 60.5220715,93.9355678 C60.8012914,94.2127447 61.0806817,93.9355678 61.3599016,93.9355678 C61.3599016,93.3813831 60.8012914,93.65856 61.0806817,93.1043754 C62.7563421,92.8273676 64.7113928,92.5501907 65.8284429,91.7189983 C66.1078332,91.7189983 66.1078332,91.996006 66.1078332,91.996006 C66.3870531,91.4419905 67.7834936,90.8878058 68.0628839,91.1648136 C70.5763744,89.5024288 73.3692553,88.3940594 76.1621362,86.7316746 L76.1621362,86.1774899 C76.7207465,86.1774899 76.9999664,85.6233053 77.5585767,85.9004822 C77.5585767,85.9004822 77.2793567,85.9004822 77.2793567,85.6233053 C79.2344075,84.7921128 80.0722376,82.8525511 82.0272883,82.2983664 L82.0272883,81.7443509 C82.3065082,82.0213587 82.3065082,82.0213587 82.5857281,82.2983664 C82.0272883,81.1901662 83.9821686,80.3589738 84.5407789,79.2506045 C85.378609,79.2506045 85.378609,78.6964198 85.378609,78.4194121 C85.6579994,78.4194121 85.6579994,78.6964198 85.9372193,78.4194121 C85.9372193,77.5882196 86.4958296,77.034035 87.0544398,76.4798503 C87.0544398,77.034035 87.3336597,77.034035 87.3336597,77.034035 C87.6130501,76.7568581 86.7750495,76.4798503 87.0544398,76.2028425 C87.6130501,75.371481 88.1714899,74.8174655 88.7301002,73.9861039 C88.7301002,74.5402886 88.7301002,74.5402886 88.4508803,74.5402886 L88.7301002,74.8174655 C88.7301002,73.7090961 89.0094905,72.8779037 89.2887104,72.0467113 C89.8473207,72.3237191 89.8473207,71.7695344 90.1265406,71.7695344 C90.405931,71.2153497 89.5679303,71.7695344 89.8473207,71.2153497 C93.1988119,67.6134031 94.8744722,62.0718948 95.9916927,55.9762018 L95.9916927,55.9762018 Z M57.7291906,95.5981218 C57.1705803,95.8751295 57.7291906,95.0439371 57.1705803,95.3209449 C57.4499707,96.1521373 56.8913604,96.1521373 56.8913604,96.706322 L57.4499707,96.706322 C57.4499707,95.8751295 57.7291906,95.8751295 57.7291906,95.5981218 L57.7291906,95.5981218 Z M87.89227,75.9256657 C88.1716604,76.4798503 87.3336597,75.9256657 87.6130501,76.4798503 C88.1716604,76.7568581 87.89227,76.2028425 87.89227,75.9256657 L88.1716604,76.4798503 C88.1716604,76.7568581 87.6130501,76.7568581 87.89227,77.3110427 C88.4508803,77.3110427 88.1716604,76.4798503 89.0094905,76.7568581 C88.7301002,76.2028425 89.2887104,76.2028425 89.2887104,75.9256657 C89.0094905,75.6486579 88.7301002,76.2028425 87.89227,75.9256657 L87.89227,75.9256657 Z M84.261559,17.4628202 C84.8201692,17.1856434 84.8201692,17.739828 85.0993891,17.739828 C85.0993891,17.1856434 84.8201692,16.9086356 84.5407789,16.6316278 C84.5407789,17.1856434 83.982339,17.1856434 84.261559,17.4628202 L84.261559,17.4628202 Z M85.0993891,17.4628202 L85.0993891,18.0170049 C85.6579994,18.2940127 86.2166097,17.4628202 85.6579994,17.1856434 C85.9372193,17.4628202 85.3787795,17.1856434 85.0993891,17.4628202 L85.0993891,17.4628202 Z M97.3881332,57.0845711 L97.9467435,57.0845711 C97.9467435,56.5303864 96.8295229,56.5303864 97.3881332,57.0845711 C97.3881332,56.8075633 97.3881332,56.8075633 97.3881332,57.0845711 L97.3881332,57.0845711 Z M89.5681008,74.5402886 L90.1265406,74.5402886 C89.8473207,74.2632808 89.8473207,73.9861039 89.5681008,73.9861039 L89.5681008,74.5402886 L89.5681008,74.5402886 Z M77.3508664,88.1170517 L77.3508664,87.562867 L77.0001368,87.562867 C77.0001368,87.8398748 77.0001368,88.1170517 77.3508664,88.1170517 L77.3508664,88.1170517 Z M74.4864759,90.3336212 C74.7656958,90.3336212 75.0450861,90.0566134 75.0450861,89.7794365 C74.7656958,89.5024288 74.7656958,88.9482441 74.4864759,88.9482441 C74.207256,89.5024288 74.4864759,89.7794365 74.4864759,90.3336212 C74.4864759,90.0566134 74.4864759,90.0566134 74.4864759,90.3336212 L74.4864759,90.3336212 Z M73.0900354,90.610629 L73.0900354,91.1648136 L73.9278656,91.1648136 C73.9278656,90.8878058 74.207256,90.3336212 73.9278656,90.610629 C73.6486457,90.8878058 73.3692553,90.610629 73.0900354,90.610629 L73.0900354,90.610629 Z M70.2971545,92.8273676 L70.2971545,92.2731829 L69.7385443,92.2731829 C69.7385443,92.8273676 70.0179346,93.1043754 70.2971545,92.8273676 L70.2971545,92.8273676 Z M66.9456634,93.9355678 C67.2250538,93.3813831 66.1078332,93.1043754 66.6664435,93.3813831 C66.9456634,93.3813831 66.3870531,94.2127447 66.9456634,93.9355678 L66.9456634,93.9355678 Z M64.7113928,93.9355678 L65.2700031,93.9355678 L65.2700031,94.2127447 C65.549223,94.2127447 65.8286133,93.9355678 65.8286133,93.3813831 C65.2700031,93.3813831 65.2700031,92.8273676 64.7113928,93.1043754 L64.7113928,93.9355678 L64.7113928,93.9355678 Z M49.3505479,96.9834988 C49.3505479,97.2605066 49.3505479,97.5375144 49.6297678,97.5375144 C49.6297678,96.9834988 50.4677685,96.9834988 50.4677685,96.706322 C49.9091582,96.9834988 50.4677685,95.8751295 49.9091582,96.1521373 C50.1883781,96.4293142 49.9091582,96.9834988 49.3505479,96.9834988 L49.3505479,96.9834988 Z M51.3769378,97.2605066 C51.0262083,96.9834988 51.3769378,96.9834988 51.3769378,96.706322 L51.0262083,96.706322 L51.0262083,97.2605066 C51.3769378,96.9834988 51.3769378,97.8146913 51.3769378,97.2605066 L51.3769378,97.2605066 Z M4.94367374,31.5935989 C5.22306411,31.5935989 5.50228401,31.3165911 5.50228401,31.0394142 C5.22306411,31.0394142 4.94367374,31.3165911 4.94367374,31.5935989 L4.94367374,31.5935989 Z M4.10584357,34.6415299 C4.10584357,34.0873453 3.82662367,34.0873453 3.5472333,34.0873453 C3.5472333,34.3643531 3.82662367,34.6415299 4.10584357,34.6415299 L4.10584357,34.6415299 Z M4.66445384,35.7497301 L4.66445384,35.1955455 L4.10584357,35.1955455 C3.82662367,35.4727224 4.10584357,35.7497301 4.66445384,35.7497301 L4.66445384,35.7497301 Z M4.10584357,36.026907 C3.82662367,36.026907 3.82662367,35.4727224 3.2680134,35.7497301 C2.98879349,36.3039148 3.82662367,36.026907 4.10584357,36.026907 L4.10584357,36.026907 Z M1.87157296,44.0619927 L2.43018322,44.0619927 C2.43018322,43.7849849 2.43018322,43.507808 2.15079286,43.507808 C2.15079286,43.7849849 1.59235305,43.507808 1.87157296,44.0619927 L1.87157296,44.0619927 Z" id="Fill-8" fill="#F7981C"></path>
                        <path d="M15.2773671,81.1901662 C15.5567575,81.7443509 14.9981472,81.7443509 14.9981472,82.0213587 C15.5567575,82.2983664 15.5567575,81.7443509 15.8359774,81.7443509 L15.8359774,81.1901662 L15.2773671,81.1901662 L15.2773671,81.1901662 Z M14.7187568,82.0213587 C14.7187568,81.7443509 14.9981472,81.1901662 14.4395369,81.1901662 C14.7187568,81.467174 14.4395369,82.0213587 14.7187568,82.0213587 L14.7187568,82.0213587 Z M15.2773671,83.129728 C15.5567575,83.129728 15.8359774,82.8525511 15.8359774,82.5755433 C15.2773671,82.8525511 15.8359774,82.0213587 15.2773671,82.2983664 L15.2773671,83.129728 L15.2773671,83.129728 Z" id="Fill-9" fill="#F7981C"></path>
                        <path d="M48.7919377,11.9213119 C49.071328,12.1983197 49.071328,12.1983197 49.071328,12.4754965 C47.1162773,12.1983197 45.1612266,13.306689 43.7647862,12.7525043 C42.6475656,13.5836967 40.1340751,13.306689 39.0168546,14.1378814 C38.7376347,14.1378814 38.7376347,14.1378814 38.7376347,13.8608736 C38.4582443,14.4148892 37.6204141,14.4148892 37.0618039,14.9690738 C33.1518729,15.8002663 30.358992,18.2940127 27.2867208,19.9563975 C27.2867208,19.402382 27.8453311,19.1252051 27.8453311,18.5710204 C27.8453311,18.2940127 27.5661112,18.5710204 27.2867208,18.5710204 C29.2417715,16.9086356 31.7554325,15.5232585 34.5483134,14.4148892 C34.5483134,14.1378814 35.1069236,14.1378814 34.8275333,13.8608736 C36.782584,13.8608736 37.3411942,12.7525043 39.2962449,12.7525043 L39.2962449,13.306689 C39.5754649,13.306689 39.2962449,12.7525043 39.2962449,12.4754965 C39.8546848,13.0295121 40.1340751,12.1983197 39.8546848,13.0295121 C40.413295,13.306689 39.8546848,12.4754965 40.413295,12.7525043 C40.6926854,12.1983197 39.8546848,12.7525043 40.1340751,12.1983197 C41.2511252,11.9213119 42.926956,11.3671272 43.4855663,12.1983197 C44.0440061,12.1983197 44.0440061,11.644135 44.3233964,11.644135 C44.8820067,11.644135 44.0440061,12.1983197 44.6026163,12.1983197 C45.1612266,12.1983197 44.8820067,11.9213119 44.8820067,11.644135 C45.4404465,11.3671272 47.1162773,11.0901195 47.6748876,11.644135 C47.6748876,11.3671272 48.5127178,11.3671272 48.7919377,11.3671272 L48.7919377,11.9213119 L49.071328,11.9213119 C49.3505479,11.9213119 49.071328,11.644135 49.071328,11.3671272 L50.467598,11.3671272 C50.467598,11.644135 50.1883781,11.9213119 49.9091582,11.9213119 C49.9091582,12.1983197 50.467598,12.1983197 50.467598,12.4754965 L49.071328,12.4754965 C49.6297678,12.1983197 49.3505479,11.9213119 48.7919377,11.9213119 L48.7919377,11.9213119 Z M45.4404465,12.4754965 C45.9990568,12.4754965 46.2784472,12.1983197 46.5576671,11.9213119 C46.2784472,12.1983197 45.7198369,11.9213119 45.4404465,12.4754965 L45.4404465,12.4754965 Z" id="Fill-10" fill="#F7981C"></path>
                        <path d="M61.0806817,13.8608736 C61.0806817,13.306689 62.4771222,13.306689 62.4771222,13.8608736 C62.4771222,13.8608736 62.4771222,13.5836967 62.7563421,13.5836967 C63.0357324,14.1378814 64.1527825,14.6920661 64.7113928,14.4148892 L64.7113928,14.9690738 L64.1527825,14.9690738 C64.1527825,15.2462507 64.4321729,15.2462507 64.4321729,15.2462507 C64.7113928,15.2462507 64.4321729,14.6920661 64.7113928,14.9690738 C64.7113928,15.2462507 64.7113928,15.2462507 64.9906127,15.2462507 C64.7113928,15.5232585 64.7113928,15.5232585 64.7113928,15.8002663 C63.8735626,15.8002663 63.0357324,15.5232585 63.0357324,14.9690738 C63.5941722,14.6920661 63.0357324,15.5232585 63.5941722,15.2462507 C63.5941722,14.9690738 63.0357324,14.6920661 63.0357324,14.4148892 C62.7563421,14.4148892 63.0357324,14.9690738 63.0357324,15.2462507 C61.9185119,14.9690738 60.8012914,14.9690738 60.2428516,13.8608736 C59.6842413,14.4148892 59.125631,13.5836967 58.2878008,13.8608736 L58.2878008,12.4754965 C58.8464111,12.1983197 58.5670208,12.7525043 59.125631,12.7525043 C58.8464111,13.306689 59.125631,13.306689 59.125631,13.5836967 C60.2428516,13.8608736 61.639292,12.7525043 61.0806817,13.8608736" id="Fill-11" fill="#F7981C"></path>
                        <path d="M67.5042737,16.0774431 C68.6214942,15.8002663 68.3421038,16.6316278 69.179934,16.6316278 C69.179934,16.9086356 68.6214942,17.4628202 69.179934,17.739828 C69.179934,17.4628202 69.4593244,17.1856434 69.4593244,16.9086356 C70.0179346,16.6316278 69.4593244,17.4628202 70.0179346,17.1856434 C69.7385443,17.739828 69.7385443,17.4628202 70.0179346,18.0170049 C69.4593244,18.0170049 69.179934,18.0170049 69.179934,18.2940127 C68.6214942,18.0170049 68.3421038,17.739828 67.7834936,17.4628202 C67.7834936,17.1856434 68.0628839,17.1856434 68.3421038,16.9086356 C68.0628839,16.6316278 67.7834936,16.6316278 67.5042737,16.0774431 C67.2250538,16.6316278 68.0628839,16.6316278 67.7834936,17.1856434 C67.2250538,16.9086356 66.6664435,16.9086356 66.6664435,16.3544509 C66.3870531,16.3544509 66.3870531,16.9086356 65.8286133,16.6316278 C65.8286133,16.3544509 65.549223,16.3544509 65.8286133,16.0774431 L66.3870531,16.0774431 C66.6664435,15.5232585 66.1078332,15.8002663 66.1078332,15.2462507 C66.6664435,15.2462507 66.9456634,15.8002663 67.5042737,15.5232585 L67.5042737,16.0774431" id="Fill-12" fill="#F7981C"></path>
                        <path d="M24.7732303,20.5105822 C25.0524502,20.5105822 25.3318405,20.5105822 25.3318405,20.2335744 L25.8902803,20.2335744 C26.1696707,20.2335744 25.8902803,19.6793898 25.8902803,19.6793898 C26.4488906,19.402382 25.8902803,20.2335744 26.4488906,19.9563975 C26.728281,19.402382 25.8902803,19.9563975 26.1696707,19.402382 C26.728281,19.402382 26.4488906,18.8481973 27.0075009,18.8481973 C27.0075009,19.6793898 26.4488906,19.9563975 26.728281,20.7877591 C25.8902803,21.0647668 25.6110604,21.8959593 24.4938399,22.1731362 C24.4938399,22.7271517 23.9354001,23.0043286 23.6560097,23.2813364 L23.3767898,23.2813364 C23.3767898,22.7271517 23.9354001,23.0043286 23.9354001,22.4501439 C23.9354001,22.1731362 23.6560097,22.4501439 23.6560097,22.4501439 C23.3767898,23.0043286 23.0973995,23.5585132 23.6560097,24.1125288 C21.1425192,26.0520905 20.0252987,29.1000216 17.5116377,31.3165911 C17.5116377,30.7624064 17.5116377,30.7624064 17.7910281,30.7624064 C17.7910281,30.4853987 17.2324178,30.7624064 16.9531979,30.7624064 C17.2324178,30.2082218 17.7910281,30.2082218 17.7910281,29.3770294 C18.070248,29.1000216 17.7910281,29.931214 17.7910281,29.931214 C18.070248,29.6540371 18.3496383,29.3770294 18.9080781,29.3770294 L18.9080781,29.1000216 C18.9080781,28.8228447 18.6288582,29.1000216 18.3496383,29.1000216 C18.070248,28.5458369 18.6288582,28.5458369 18.6288582,27.9916523 C19.4666884,27.9916523 19.1874685,26.883283 20.0252987,27.1604598 L20.0252987,26.3292674 C20.583909,26.0520905 20.0252987,26.883283 20.583909,26.6062752 C19.7460788,25.7750828 21.4217391,25.4979059 21.1425192,24.6667134 C21.700959,24.9438903 22.2595693,23.0043286 22.5389597,24.1125288 C22.8181796,24.1125288 22.5389597,23.5585132 22.5389597,23.2813364 C23.0973995,23.0043286 23.0973995,22.4501439 23.9354001,22.4501439 C24.21462,22.7271517 23.9354001,23.2813364 23.9354001,23.5583441 C24.4938399,22.1731362 25.0524502,21.6189515 24.7732303,20.5105822" id="Fill-13" fill="#F7981C"></path>
                        <path d="M74.207256,20.7877591 C75.324306,20.5105822 75.324306,22.4501439 75.8829163,21.6189515 C75.8829163,22.1731362 75.6036964,22.7271517 75.324306,23.0043286 C75.324306,22.4501439 74.7656958,22.4501439 74.207256,22.1731362 C74.207256,21.8959593 74.4864759,21.6189515 75.0450861,21.6189515 C74.7656958,21.3417746 74.4864759,21.3417746 74.207256,20.7877591 C73.9278656,21.0647668 74.207256,21.6189515 74.207256,21.6189515 L73.6486457,21.6189515 L73.9278656,21.6189515 C73.9278656,21.3417746 74.207256,21.0647668 74.207256,20.7877591" id="Fill-14" fill="#F7981C"></path>
                        <path d="M16.3945876,32.4247913 C16.3945876,31.8707758 16.1151973,31.5935989 16.1151973,31.3165911 C16.3945876,31.3165911 16.3945876,31.0394142 16.3945876,31.0394142 L17.5116377,31.0394142 C17.5116377,31.8707758 16.9531979,31.5935989 17.5116377,32.1477835 C16.3945876,33.2561528 16.3945876,35.4727224 15.2773671,36.5809226 C15.5567575,37.4122841 14.9981472,37.6892919 14.9981472,37.9662997 C14.4395369,37.9662997 14.7187568,37.4122841 14.4395369,37.6892919 C14.4395369,37.6892919 14.4395369,37.6892919 14.160317,37.6892919 C13.8809267,37.9662997 14.160317,38.7976612 14.160317,39.074669 C13.8809267,39.074669 13.8809267,39.3516767 13.8809267,39.3516767 L13.0430965,39.3516767 C13.6017067,36.5809226 14.7187568,34.6413608 15.5567575,32.4247913 L16.3945876,32.4247913 L16.3945876,32.4247913 Z M16.1151973,33.2561528 C16.6738075,33.2561528 16.9531979,32.978976 16.9531979,32.7019682 C16.3945876,32.4247913 16.1151973,32.7019682 16.1151973,33.2561528 L16.1151973,33.2561528 Z" id="Fill-15" fill="#F7981C"></path>
                        <path d="M80.3514575,69.5529649 C80.9100678,70.1071495 80.3514575,70.938342 80.3514575,71.4925266 L79.7930177,71.4925266 C79.7930177,72.6007268 78.6757972,72.6007268 78.6757972,73.7090961 C77.2793567,74.5402886 76.7207465,75.9256657 75.324306,76.4798503 L75.324306,77.034035 C74.207256,76.7568581 74.207256,78.4194121 73.3692553,77.5882196 C72.8108155,77.8652274 73.6486457,78.1422352 73.3692553,78.4194121 C72.2522053,78.1422352 72.5314252,78.9735967 71.9728149,78.9735967 C71.9728149,78.6964198 72.2522053,78.4194121 71.9728149,78.4194121 C71.9728149,78.9735967 71.693595,79.2506045 70.8557648,78.9735967 C70.5763744,79.5276123 71.4143751,78.9735967 71.1349847,79.2506045 C70.0179346,80.6359816 68.0628839,81.1901662 66.6664435,82.2983664 C66.3870531,82.2983664 66.3870531,82.0213587 66.3870531,82.0213587 C66.1078332,82.8525511 64.7113928,83.129728 63.8735626,83.129728 C62.1977318,84.5151051 59.4048509,84.7921128 57.1705803,85.6233053 C56.8913604,85.6233053 56.8913604,85.3462975 56.8913604,85.3462975 C56.3327501,85.9004822 54.9363097,85.6233053 54.3776994,86.1774899 L54.3776994,85.6233053 C54.0984795,85.6233053 54.3776994,85.9004822 54.3776994,86.1774899 C52.1434288,86.1774899 50.7469884,86.4544977 49.071328,86.4544977 C49.071328,85.9004822 49.071328,85.9004822 49.6297678,85.9004822 L49.6297678,85.6233053 C49.6297678,85.3462975 49.071328,85.6233053 49.071328,85.3462975 C48.7919377,85.6233053 48.5127178,85.6233053 48.2333274,85.9004822 C48.5127178,86.4544977 48.7919377,85.9004822 49.071328,85.9004822 C49.071328,86.1774899 48.5127178,86.1774899 48.7919377,86.7316746 C47.9541075,86.4544977 47.1162773,86.1774899 46.2784472,86.4544977 L46.2784472,85.9004822 C45.7198369,85.9004822 45.9990568,86.4544977 45.4404465,86.4544977 C44.8820067,86.4544977 45.1612266,85.9004822 44.8820067,85.9004822 C42.0891258,86.4544977 39.0168546,84.7921128 36.5033641,84.2379282 C36.782584,83.6837435 35.9447538,84.2379282 36.2239737,83.6837435 C35.6653634,83.4067358 36.2239737,84.2379282 35.6653634,83.9609204 C35.3861435,83.4067358 34.8275333,83.4067358 34.268923,83.4067358 C34.268923,82.8525511 34.268923,82.5755433 34.5483134,82.5755433 C34.268923,82.2983664 33.7104832,82.5755433 33.7104832,82.8525511 C33.4310928,82.8525511 33.1518729,82.5755433 32.5932626,82.5755433 C32.5932626,82.2983664 32.3140427,82.2983664 32.5932626,82.0213587 C30.9176023,82.0213587 30.0796017,81.1901662 29.5211619,80.3589738 C29.5211619,80.3589738 29.5211619,80.6359816 29.2417715,80.6359816 C29.2417715,80.3589738 28.9625516,80.0817969 28.9625516,79.5276123 L28.4039413,79.5276123 C28.1247214,80.0817969 28.9625516,79.5276123 28.6831612,80.0817969 C28.1247214,79.8047891 27.5661112,79.5276123 27.2867208,78.9735967 L27.8453311,78.9735967 C27.8453311,78.6964198 27.5661112,78.4194121 27.8453311,77.8652274 C27.5661112,78.1422352 27.2867208,78.4194121 27.2867208,78.9735967 C27.0075009,78.9735967 27.0075009,78.4194121 26.4488906,78.6964198 C26.1696707,78.1422352 27.0075009,78.1422352 26.728281,77.5882196 C26.1696707,77.5882196 26.4488906,78.1422352 26.1696707,78.1422352 C26.4488906,77.5882196 25.6110604,78.1422352 25.8902803,77.5882196 C26.4488906,77.5882196 26.4488906,77.3110427 26.4488906,77.034035 C28.1247214,78.1422352 29.8003818,79.5276123 31.7554325,80.6359816 C31.7554325,80.9129893 31.1968222,80.9129893 31.4760421,81.467174 C31.7554325,81.467174 32.0346524,81.1901662 32.0346524,80.9129893 C33.7104832,81.1901662 34.268923,82.5755433 35.9447538,82.8525511 C36.2239737,83.4067358 35.3861435,82.8525511 35.3861435,83.129728 C35.9447538,83.4067358 36.5033641,82.8525511 37.0618039,83.129728 C37.0618039,83.6837435 37.0618039,83.6837435 36.782584,83.6837435 C36.782584,83.9609204 37.0618039,83.6837435 37.0618039,83.6837435 C37.3411942,83.6837435 37.0618039,83.129728 37.3411942,83.129728 C38.1790244,83.4067358 38.7376347,83.6837435 39.5754649,83.6837435 C39.5754649,83.9609204 39.2962449,83.9609204 39.2962449,83.9609204 C39.2962449,84.2379282 39.5754649,83.9609204 39.5754649,83.9609204 C39.8546848,83.9609204 39.5754649,83.6837435 39.5754649,83.4067358 C40.1340751,83.6837435 40.9719053,83.9609204 41.5305156,84.5151051 C41.8097355,84.5151051 41.5305156,84.2379282 41.5305156,83.9609204 C42.0891258,84.2379282 42.6475656,84.5151051 43.4855663,84.5151051 C43.4855663,84.7921128 43.4855663,85.0691206 43.2061759,85.0691206 C43.2061759,85.0691206 43.4855663,85.0691206 43.4855663,85.3462975 C43.4855663,85.0691206 43.4855663,84.7921128 44.0441765,84.5151051 C44.6026163,84.7921128 45.1612266,84.7921128 45.9990568,84.7921128 L45.9990568,85.3462975 C47.1162773,84.7921128 48.2334979,85.0691206 49.9091582,85.0691206 C49.9091582,85.0691206 49.6299383,85.0691206 49.6299383,85.3462975 C49.9091582,85.3462975 49.9091582,85.0691206 49.9091582,85.0691206 C52.1434288,85.3462975 54.3776994,84.2379282 56.0535302,84.7921128 C56.3327501,84.5151051 56.8913604,83.9609204 57.1705803,84.5151051 C57.7291906,83.9609204 59.125631,83.9609204 59.9634612,83.4067358 C60.5220715,83.129728 59.9634612,83.9609204 60.2428516,83.9609204 C60.5220715,83.129728 61.9185119,82.5755433 62.4771222,83.129728 C62.7563421,83.129728 62.4771222,82.8525511 62.4771222,82.5755433 C64.7113928,82.2983664 66.1078332,80.6359816 68.0628839,80.3589738 C68.6214942,79.5276123 69.4593244,78.6964198 70.5765449,78.9735967 L70.5765449,78.6964198 C73.6486457,76.7568581 76.1623067,73.9861039 78.3965773,71.2153497 C78.9550171,71.2153497 79.2344075,71.2153497 79.5136274,71.4925266 C79.7930177,71.2153497 79.5136274,70.1071495 79.5136274,69.5529649 C82.0272883,66.2280261 83.4237288,64.0114565 84.5407789,59.0241328 C85.3787795,59.3011406 85.3787795,58.1929404 86.2166097,58.4699482 C85.0993891,62.9030872 83.7029487,65.3968336 81.747898,68.9987802 C81.4686781,69.2759571 81.1894582,69.8299727 80.3514575,69.5529649 L80.3514575,69.5529649 Z M74.7656958,76.4798503 C74.4864759,76.4798503 74.4864759,77.034035 74.207256,77.3110427 L74.7656958,77.3110427 L74.7656958,76.4798503 L74.7656958,76.4798503 Z M73.9278656,77.3110427 C73.6486457,77.3110427 73.6486457,77.5882196 73.0900354,77.3110427 C73.0900354,77.5882196 73.6486457,77.5882196 73.9278656,77.8652274 L73.9278656,77.3110427 L73.9278656,77.3110427 Z M70.2985183,80.0817969 C70.2985183,79.8047891 70.5791019,79.2506045 70.0179346,79.2506045 C70.2985183,79.8047891 69.7371797,80.3589738 70.2985183,80.0817969 L70.2985183,80.0817969 Z M47.3954972,86.1774899 L47.3954972,85.6233053 L46.836887,85.6233053 C46.836887,86.1774899 47.1162773,86.4544977 47.3954972,86.1774899 L47.3954972,86.1774899 Z" id="Fill-16" fill="#F7981C"></path>
                        <path d="M19.4666884,84.5151051 C18.9080781,84.7921128 18.9080781,85.3462975 19.4666884,85.6233053 L18.9080781,85.6233053 L18.9080781,86.1774899 C18.9080781,86.4544977 19.7460788,86.1774899 19.4666884,86.7316746 C20.0252987,86.7316746 19.7460788,85.9004822 20.0252987,85.3462975 C20.0252987,85.0691206 19.7460788,85.3462975 19.4666884,85.3462975 C19.7460788,85.3462975 19.7460788,84.7921128 20.0252987,85.0691206 C19.7460788,85.6233053 20.3045186,85.3462975 20.3045186,85.6233053 C20.583909,85.6233053 20.583909,85.0691206 20.8631289,85.3462975 C20.583909,86.1774899 21.700959,85.6233053 21.4217391,86.4544977 C22.5389597,86.7316746 24.21462,87.2858592 23.9354001,88.3940594 C24.21462,88.6712363 24.4938399,88.6712363 24.7732303,88.9482441 C25.0524502,88.6712363 25.0524502,88.6712363 25.3318405,88.3940594 C26.1696707,88.6712363 26.728281,89.5024288 27.5661112,89.7794365 C27.8453311,90.3336212 27.2867208,90.3336212 27.2867208,90.610629 C27.5661112,90.610629 27.8453311,90.3336212 27.8453311,90.0566134 C28.9625516,90.0566134 29.5211619,90.610629 30.0796017,91.1648136 C30.358992,91.7189983 29.8003818,91.4419905 29.8003818,91.7189983 C29.8003818,91.996006 30.0796017,91.7189983 30.0796017,91.7189983 C30.358992,91.7189983 30.0796017,91.1648136 30.0796017,91.1648136 C30.358992,91.7189983 30.6382119,91.4419905 31.1968222,91.4419905 C30.9176023,91.996006 31.7554325,91.4419905 31.7554325,91.996006 L31.7554325,91.7189983 C33.7104832,92.5501907 35.6653634,93.3813831 37.8998045,93.65856 C37.8998045,93.9355678 38.1790244,93.9355678 37.8998045,94.2127447 C38.1790244,94.2127447 38.4582443,93.9355678 39.0168546,93.9355678 L39.0168546,94.7667602 L38.4582443,94.7667602 C38.4582443,95.0439371 39.0168546,95.0439371 38.7376347,95.5981218 C38.1790244,95.8751295 38.7376347,95.0439371 38.4582443,95.0439371 C38.4582443,95.3209449 37.8998045,95.5981218 38.1790244,96.1521373 C37.0618039,95.8751295 36.2239737,95.5981218 35.1069236,95.3209449 C35.1069236,95.0439371 34.8275333,95.0439371 35.1069236,94.4897524 L34.268923,94.4897524 C34.268923,93.9355678 33.9897031,93.65856 33.9897031,93.65856 C33.9897031,93.9355678 33.7104832,94.2127447 33.7104832,94.4897524 C32.8724826,94.4897524 32.8724826,93.9355678 31.7554325,94.2127447 C31.7554325,93.9355678 31.4760421,93.65856 31.4760421,93.1043754 C31.7554325,93.1043754 31.7554325,93.3813831 31.7554325,93.3813831 C32.3140427,92.8273676 31.4760421,92.2731829 31.1968222,91.996006 C31.1968222,92.5501907 31.1968222,92.8273676 30.9176023,93.1043754 C30.358992,93.3813831 30.9176023,92.5501907 30.358992,92.8273676 C30.358992,93.3813831 31.1968222,93.3813831 30.9176023,93.9355678 C29.8003818,93.3813831 28.9625516,93.1043754 27.8453311,92.8273676 C27.8453311,92.2731829 27.8453311,91.996006 27.5661112,91.7189983 C27.0075009,91.996006 27.8453311,92.2731829 27.5661112,92.5501907 C27.0075009,91.996006 26.728281,91.4419905 25.6110604,91.7189983 C25.6110604,91.1648136 25.6110604,90.8878058 26.1696707,90.8878058 C26.1696707,90.610629 25.8902803,90.610629 25.8902803,90.3336212 C25.3318405,91.1648136 24.4938399,89.5024288 24.21462,90.610629 C22.5389597,89.7794365 21.1425192,88.6712363 19.7460788,87.8398748 L19.7460788,87.0086824 C19.4666884,87.0086824 19.4666884,87.2858592 19.4666884,87.562867 C18.9080781,87.2858592 18.9080781,86.7316746 18.070248,86.7316746 C18.070248,86.1774899 18.070248,85.6233053 18.3496383,85.3462975 C18.6288582,85.3462975 18.6288582,85.6233053 18.6288582,85.6233053 C19.1874685,85.3462975 18.3496383,85.3462975 18.6288582,85.0691206 C19.1874685,84.7921128 19.4666884,83.9609204 19.4666884,84.5151051 C19.4666884,84.7921128 19.4666884,84.7921128 19.4666884,84.5151051 L19.4666884,84.5151051 Z M25.8902803,90.3336212 L26.4488906,90.3336212 C26.4488906,90.0566134 26.1696707,89.7794365 25.8902803,89.7794365 L25.8902803,90.3336212 L25.8902803,90.3336212 Z M28.6831612,91.4419905 L28.6831612,91.996006 C29.2417715,91.996006 28.9625516,91.4419905 29.2417715,91.4419905 C29.5211619,91.4419905 29.8003818,91.4419905 29.5211619,91.1648136 C28.9625516,90.8878058 29.2417715,91.4419905 28.6831612,91.4419905 L28.6831612,91.4419905 Z M35.1069236,93.9355678 C35.1069236,94.2127447 35.3861435,94.2127447 35.3861435,94.4897524 C35.3861435,94.2127447 35.3861435,94.2127447 35.6653634,94.2127447 C35.6653634,93.65856 35.3861435,93.65856 35.1069236,93.9355678 C35.1069236,93.65856 35.1069236,93.9355678 35.1069236,93.9355678 L35.1069236,93.9355678 Z M37.0618039,95.8751295 C37.0618039,95.3209449 37.3411942,94.4897524 36.782584,94.2127447 C36.5033641,94.7667602 36.2239737,95.5981218 37.0618039,95.8751295 L37.0618039,95.8751295 Z" id="Fill-17" fill="#F7981C"></path>
                        <path d="M40.413295,94.4897524 C42.0891258,95.0439371 40.9719053,94.4897524 40.413295,95.3209449 C40.6926854,95.3209449 40.9719053,95.8751295 41.5305156,95.5981218 C41.2511252,95.8751295 41.2511252,96.1521373 41.2511252,96.706322 C40.413295,96.9834988 40.413295,96.1521373 39.5754649,96.4293142 C39.2962449,96.4293142 40.1340751,96.1521373 40.1340751,96.1521373 C40.1340751,95.5981218 40.413295,95.3209449 40.413295,94.4897524" id="Fill-18" fill="#F7981C"></path>
                        <path d="M47.6748876,96.706322 C47.6748876,96.9834988 46.836887,96.9834988 47.1162773,97.8146913 L46.5576671,97.8146913 C46.5576671,96.9834988 47.3954972,96.4293142 47.6748876,96.706322" id="Fill-19" fill="#F7981C"></path>
                        <path d="M46.5576671,96.1521373 C46.5576671,96.706322 46.5576671,97.8146913 46.2784472,97.8146913 L46.2784472,96.9834988 C45.9990568,97.8146913 44.6026163,97.5375144 43.4855663,97.5375144 C43.7647862,97.2605066 43.7647862,96.9834988 44.3233964,96.706322 L44.3233964,97.2605066 C44.8820067,96.1521373 43.2061759,96.706322 42.3683457,96.706322 C42.0891258,97.2605066 42.926956,96.706322 42.6475656,97.2605066 C41.8097355,97.5375144 41.8097355,96.9834988 41.2511252,96.706322 C41.8097355,96.4293142 41.2511252,95.5981218 41.5305156,94.7667602 C41.8097355,95.0439371 42.3683457,95.0439371 42.926956,94.7667602 C42.926956,95.0439371 42.926956,95.3209449 43.2061759,95.3209449 C43.4855663,95.3209449 43.2061759,95.0439371 43.2061759,94.7667602 C43.4855663,94.7667602 44.0440061,95.0439371 44.0440061,95.3209449 C45.1612266,95.0439371 45.9990568,95.0439371 46.836887,95.3209449 C46.5576671,95.8751295 46.5576671,95.5981218 46.836887,96.1521373 C46.836887,96.4293142 47.1162773,95.8751295 46.5576671,96.1521373 L46.5576671,96.1521373 Z M45.4404465,96.1521373 C45.4404465,95.8751295 45.1612266,95.5981218 44.8820067,95.5981218 C44.8820067,95.8751295 44.3233964,95.8751295 44.6026163,96.1521373 C44.8820067,95.8751295 45.1612266,95.8751295 45.4404465,96.1521373 L45.4404465,96.1521373 Z" id="Fill-20" fill="#F7981C"></path>
                        <path d="M70.2971545,17.4628202 C70.5763744,17.4628202 70.5763744,18.0170049 70.8557648,17.739828 L70.8557648,18.2940127 C71.693595,18.0170049 71.693595,18.5710204 72.2522053,18.5710204 L72.2522053,19.402382 C71.693595,19.1252051 71.9728149,19.6793898 71.693595,19.6793898 C71.4143751,19.6793898 71.1349847,19.402382 70.5763744,19.402382 C70.2971545,19.1252051 70.5763744,18.5710204 70.2971545,18.5710204 C70.2971545,18.0170049 70.8557648,18.2940127 70.5763744,18.0170049 C70.5763744,18.0170049 70.2971545,18.0170049 70.2971545,17.4628202" id="Fill-21" fill="#F7981C"></path>
                    </g>
                    <path d="M122.59518,56.186676 C121.76556,56.186676 121.76556,56.4638529 120.936108,56.4638529 C121.212704,55.9096682 120.383084,56.186676 120.383084,55.6324914 C120.106656,55.6324914 120.106656,56.4638529 120.65968,56.186676 C118.447752,57.2950453 115.959228,58.1262378 113.194276,58.4032455 C113.194276,57.84923 112.917848,57.5720531 112.364824,57.5720531 C112.364824,57.84923 112.917848,58.1262378 112.641252,58.6804224 C110.152896,58.9574302 107.387944,60.8969919 104.899419,60.0657995 C104.622992,60.0657995 104.899419,60.3428073 104.622992,60.6199842 C94.9456595,63.3907383 84.9917308,65.8843156 75.3143985,68.6550698 C74.7613744,68.6550698 75.0379708,68.1008851 74.7613744,68.1008851 C74.4849467,68.1008851 74.7613744,68.6550698 74.4849467,68.9322467 C72.2730188,69.2092545 70.6139463,70.0404469 68.9550425,69.7634391 C68.9550425,69.2092545 70.0610909,69.7634391 69.7844944,68.9322467 C70.3375186,68.9322467 70.3375186,69.2092545 70.6139463,69.2092545 C70.8905427,69.2092545 70.6139463,68.378062 71.1669704,68.6550698 C71.1669704,68.378062 70.8905427,67.8238774 70.8905427,67.2696927 C71.1669704,67.8238774 71.4435669,67.5468696 71.4435669,66.9926849 C71.9964223,66.9926849 72.5494465,66.9926849 72.5494465,67.2696927 C72.8260429,67.2696927 72.5494465,66.9926849 72.8260429,66.7155081 C76.973471,65.8843156 80.8443027,64.4989385 84.9917308,63.3907383 C86.6508033,63.3907383 88.0332793,62.8365537 89.4157554,62.0053613 C90.2452072,62.5593768 91.3510868,61.4511766 92.7335628,61.4511766 C93.0101593,62.0053613 92.4571351,61.7281844 92.1807074,62.0053613 C92.7335628,62.282369 93.0101593,61.1739997 93.8396112,60.6199842 C94.3926353,60.3428073 94.9456595,60.8969919 95.2220872,60.3428073 C95.2220872,60.6199842 94.9456595,61.1739997 95.4985149,61.1739997 C95.7751114,61.1739997 95.4985149,60.6199842 95.7751114,60.3428073 C99.3695153,59.5116149 102.410895,58.1262378 106.83492,57.84923 C107.940799,56.7408607 110.429324,56.7408607 111.535372,55.9096682 C112.917848,56.4638529 114.853179,54.8012989 117.065276,54.8012989 C117.065276,55.6324914 117.894728,55.6324914 117.894728,56.186676 C118.171156,55.6324914 116.78868,55.3554836 117.065276,54.5242912 C117.894728,54.2471143 117.618131,55.0784758 117.894728,55.0784758 C118.171156,55.0784758 117.894728,54.5242912 118.171156,54.2471143 C119.000776,54.5242912 119.830228,53.6930987 119.830228,54.2471143 C121.212704,53.6930987 123.70106,52.8617372 125.083536,53.1389141 C125.360132,52.5847294 124.530512,53.1389141 124.807108,52.5847294 C125.083536,52.5847294 125.912988,52.8617372 125.912988,52.3077216 C127.848488,52.5847294 125.083536,52.5847294 127.295464,52.0305448 C127.57206,52.5847294 126.742608,52.0305448 127.019036,52.5847294 C127.57206,52.5847294 127.57206,51.753537 127.848488,51.753537 C131.166464,52.0305448 133.654989,49.2597906 136.143344,50.3681599 C136.696368,50.090983 136.972796,48.9827828 136.143344,48.7056059 C135.59032,48.7056059 136.419941,49.8139752 135.59032,49.5369675 C135.59032,45.9348518 133.101964,43.1640976 133.931416,39.8393279 C134.48444,39.562151 133.931416,40.3933434 134.48444,40.3933434 C135.037465,40.1163356 134.207844,39.8393279 134.207844,39.562151 C134.48444,39.562151 134.48444,39.562151 134.48444,39.2851432 C134.48444,39.0079663 133.931416,39.2851432 133.654989,39.0079663 C133.378392,39.0079663 133.654989,39.562151 133.378392,39.8393279 C131.995916,36.7913968 131.442892,32.6352655 130.060416,29.3103267 C129.783988,28.7563112 130.337012,28.4791343 130.337012,28.2021265 C130.337012,27.9249496 130.060416,28.2021265 129.783988,27.9249496 C128.954536,24.6001799 128.125084,21.8294257 127.295464,18.5044869 C128.125084,19.0586716 127.848488,17.6732945 128.67794,17.6732945 C128.125084,17.6732945 128.125084,17.3961176 127.848488,16.8419329 C127.57206,16.8419329 127.848488,17.6732945 127.57206,18.22731 C126.466012,18.5044869 127.295464,17.1191098 126.466012,16.8419329 C126.466012,16.5649252 127.295464,16.8419329 127.295464,16.8419329 C127.57206,16.5649252 127.295464,16.0107405 127.848488,16.0107405 C127.57206,15.7337327 127.57206,15.7337327 127.295464,15.4565558 C126.742608,15.4565558 127.295464,16.2879174 127.019036,16.0107405 C126.466012,16.0107405 127.019036,15.7337327 126.742608,15.4565558 C125.912988,15.1795481 125.912988,16.0107405 125.359964,16.0107405 C125.359964,16.5649252 125.912988,16.5649252 125.912988,17.1191098 C125.083536,17.6732945 123.977488,17.9503022 123.148036,18.5044869 C122.59518,18.7814947 123.148036,17.9503022 122.59518,17.9503022 C122.318584,18.22731 128.401512,17.3961176 127.57206,17.3961176 L127.57206,16.2879174 L127.019036,16.2879174 C126.742608,16.5649252 127.019036,17.3961176 126.742608,17.6732945 C120.65968,19.0586716 115.129776,20.9980642 109.046848,22.1064335 L109.046848,20.9980642 C108.770251,20.9980642 108.770251,21.2752411 108.493823,21.2752411 C108.77042,21.5522488 109.046848,21.8294257 108.77042,22.6606182 C97.9870393,25.4313723 86.927231,28.2021265 76.4204469,31.5270653 C74.7613744,31.2498885 73.6554948,32.9124424 72.5494465,31.8040731 C72.2730188,32.0810809 72.2730188,32.3582578 71.9964223,32.6352655 C71.1669704,32.0810809 69.7844944,32.9124424 68.9550425,33.1894502 L68.9550425,32.3582578 L68.1255907,32.3582578 C68.4020184,32.9124424 68.4020184,32.6352655 68.1255907,33.1894502 C67.5725665,32.6352655 67.2961388,33.466458 66.1900905,33.1894502 C65.9136628,33.1894502 66.1900905,33.7436349 65.9136628,34.0206426 C64.8076144,33.466458 66.7431146,32.6352655 65.9136628,32.3582578 L66.4665182,32.3582578 L66.4665182,31.8040731 C65.9136628,31.8040731 66.1900905,32.3582578 65.6370663,32.0810809 C65.3606386,32.3582578 65.3606386,32.9124424 64.8076144,32.9124424 C65.0840421,32.6352655 65.3606386,32.6352655 65.3606386,32.0810809 C65.0840421,32.3582578 64.5311867,32.6352655 63.9781625,32.6352655 C64.8076144,32.6352655 64.2545903,33.7436349 65.3606386,33.466458 L65.3606386,34.2978195 C64.8076144,34.0206426 64.8076144,32.9124424 63.9781625,32.9124424 C63.9781625,33.466458 63.4251384,33.7436349 63.1487107,34.0206426 C63.4251384,34.5748273 63.7015661,33.466458 64.2545903,33.7436349 L64.2545903,34.2978195 C63.7015661,34.2978195 63.4251384,34.2978195 63.1487107,34.5748273 C62.8721142,34.0206426 62.0426623,34.2978195 61.7662346,33.466458 C61.2132105,33.7436349 61.7662346,34.0206426 61.7662346,34.2978195 C61.4896382,34.0206426 60.936614,33.466458 60.936614,32.6352655 C60.3837586,32.3582578 60.3837586,32.9124424 60.1071621,33.1894502 C60.3837586,33.466458 60.3837586,33.7436349 60.936614,33.7436349 L60.936614,34.8518351 C61.4896382,35.1290119 60.936614,34.2978195 61.4896382,34.5748273 C61.7662346,35.1290119 60.936614,34.5748273 61.2132105,35.1290119 C50.4298299,37.8997661 39.6466181,40.6705203 29.1396652,43.7182822 C27.7571891,43.7182822 26.9277373,44.2724669 25.8218577,44.5494747 C25.5452612,44.5494747 25.5452612,44.2724669 25.5452612,43.9954591 L24.7158094,43.9954591 C24.4393817,44.5494747 25.2688335,44.2724669 24.9922371,44.8266516 C24.1627852,44.5494747 23.3333333,45.657844 22.7803092,44.8266516 C22.227285,45.9348518 20.2919536,46.2120286 19.1859052,45.3808362 C19.1859052,45.9348518 19.7389294,45.657844 19.4623329,46.2120286 C18.6328811,46.4890364 19.1859052,45.3808362 18.3564534,45.657844 C18.3564534,45.9348518 18.6328811,45.9348518 18.6328811,46.2120286 C17.5270015,46.4890364 17.5270015,45.9348518 16.6973809,44.8266516 C16.1445254,45.1036593 16.9739773,45.3808362 16.6973809,45.657844 C16.1445254,45.657844 17.5270015,47.5974057 16.6973809,47.3202288 C16.6973809,47.0432211 18.3564534,45.3808362 18.0798569,45.1036593 C17.8034292,45.3808362 17.8034292,45.657844 17.8034292,45.9348518 C16.6973809,45.9348518 16.1445254,46.2120286 15.0384771,46.4890364 C15.0384771,46.2120286 15.3149048,46.2120286 15.3149048,45.9348518 C14.7620494,45.9348518 14.4854529,46.2120286 14.4854529,46.7662133 C14.2090252,46.7662133 14.2090252,46.7662133 14.2090252,46.4890364 C13.9324288,46.4890364 14.2090252,46.7662133 13.9324288,47.0432211 C13.3795734,46.4890364 16.4209532,45.1036593 15.867929,45.657844 L15.867929,45.1036593 C15.3149048,45.1036593 15.3149048,45.657844 15.0384771,45.9348518 C15.3149048,46.4890364 15.3149048,45.3808362 15.867929,45.657844 L15.867929,46.2120286 C14.2090252,47.0432211 13.6560011,48.4285982 12.5499527,47.5974057 C11.9970973,47.5974057 12.8265492,47.8744135 12.5499527,48.1515904 C11.7205009,48.4285982 10.6146213,48.4285982 10.0615971,48.7056059 C10.0615971,48.1515904 10.0615971,48.1515904 10.3380248,47.8744135 C9.78500068,47.5974057 9.23214527,46.7662133 8.6791211,47.0432211 C8.95554881,47.5974057 9.23214527,47.5974057 10.0615971,47.5974057 C9.78500068,48.1515904 9.78500068,48.7056059 9.23214527,48.9827828 C8.6791211,48.9827828 8.95554881,48.4285982 8.6791211,48.4285982 C8.40252464,48.7056059 8.40252464,48.9827828 8.12609694,49.2597906 C7.0200486,49.2597906 6.19059673,49.5369675 5.36114486,49.8139752 C5.36114486,49.5369675 5.63757257,48.9827828 5.08471716,48.9827828 C4.8081207,48.9827828 5.08471716,49.5369675 4.8081207,49.8139752 C4.8081207,50.3681599 4.53169299,49.5369675 4.53169299,49.2597906 C3.70224112,49.5369675 3.70224112,50.3681599 2.59619279,50.090983 L2.59619279,49.2597906 C2.04316862,49.2597906 2.87262049,50.090983 2.04316862,49.8139752 L2.04316862,49.2597906 C1.49014446,49.2597906 1.49014446,48.9827828 0.937289051,48.9827828 C0.384264885,49.5369675 0.660692588,50.3681599 0.660692588,51.1993523 L1.21371675,51.1993523 C1.49014446,51.1993523 1.21371675,50.3681599 1.49014446,50.090983 C2.04316862,49.8139752 2.04316862,50.3681599 2.31976509,50.3681599 C2.31976509,51.4763601 2.59619279,52.0305448 2.59619279,52.8617372 C2.59619279,52.8617372 2.31976509,52.8617372 2.31976509,52.5847294 L2.04316862,52.5847294 C2.04316862,52.0305448 2.59619279,52.3077216 2.31976509,51.753537 C2.59619279,52.3077216 2.59619279,52.0305448 2.04316862,52.0305448 C1.76674092,52.0305448 2.04316862,52.3077216 1.76674092,52.5847294 L0.937289051,52.5847294 C0.937289051,50.9223446 0.107668422,50.3681599 0.107668422,48.7056059 C0.660692588,48.7056059 0.660692588,48.9827828 0.937289051,48.9827828 C1.21371675,48.9827828 0.937289051,48.7056059 1.21371675,48.4285982 C2.31976509,48.7056059 2.87262049,47.5974057 3.70224112,48.4285982 C3.97866883,48.1515904 4.53169299,48.1515904 4.53169299,47.5974057 C5.08471716,47.3202288 5.08471716,47.8744135 5.08471716,48.1515904 C5.08471716,47.0432211 6.19059673,47.5974057 7.29664507,47.0432211 C7.0200486,47.5974057 7.84966923,47.3202288 7.57307277,48.1515904 L8.12609694,48.1515904 L8.12609694,47.5974057 C8.12609694,47.0432211 7.29664507,47.5974057 7.57307277,47.3202288 C7.84966923,46.7662133 8.95554881,45.9348518 9.50857297,46.7662133 C9.78500068,46.7662133 9.50857297,46.4890364 9.78500068,46.2120286 C10.0615971,46.2120286 10.0615971,46.4890364 10.3380248,46.4890364 C11.9970973,45.3808362 15.0384771,45.3808362 16.9739773,44.5494747 L15.867929,45.1036593 C18.0798569,44.5494747 15.5915013,45.1036593 18.0798569,44.8266516 C17.8034292,45.657844 18.6328811,45.3808362 18.9094775,45.3808362 C18.9094775,44.8266516 18.3564534,45.1036593 18.6328811,44.5494747 C21.3978331,44.2724669 23.609761,42.610082 26.3747131,42.8870898 C26.6513096,42.8870898 26.3747131,42.610082 26.6513096,42.3329052 C28.5868098,41.7787205 30.7987377,41.224705 32.7342379,40.6705203 C35.49919,40.3933434 37.9875456,39.2851432 40.4760699,38.7309585 C46.5589982,37.3455815 52.6417578,35.6831966 58.1716619,34.0206426 C59.8307344,34.0206426 60.936614,32.9124424 62.5956865,33.466458 C62.8721142,33.466458 62.5956865,33.1894502 62.8721142,32.9124424 C63.1487107,32.9124424 63.9781625,32.6352655 63.7015661,33.1894502 C63.7015661,32.9124424 64.2545903,32.9124424 64.2545903,32.6352655 C78.0793506,29.0333189 91.904111,25.1541955 106.005468,21.5522488 C106.558323,21.5522488 106.281896,22.3834413 106.83492,22.1064335 C107.111347,21.5522488 106.281896,21.8294257 106.558323,21.2752411 C109.046848,20.9980642 111.258775,20.1668718 113.7473,19.6126871 L116.235655,18.7814947 C119.553632,18.5044869 121.76556,17.3961176 124.530512,16.8419329 C124.254084,17.3961176 124.807108,17.3961176 125.083536,17.6732945 C125.63656,17.3961176 124.530512,17.3961176 124.807108,16.8419329 C128.401512,16.0107405 125.359964,16.2879174 128.954536,15.7337327 C128.954536,17.1191098 129.783988,17.9503022 129.230964,18.7814947 C129.230964,19.0586716 129.50756,18.7814947 129.783988,19.0586716 C129.783988,20.9980642 131.442892,22.9376259 130.61344,24.6001799 C131.442892,25.4313723 131.442892,27.3709341 131.995916,28.4791343 C131.442892,28.4791343 131.719488,27.9249496 131.166464,28.2021265 C132.54894,29.0333189 133.101964,30.9728807 132.825368,32.9124424 C133.378392,32.9124424 132.54894,31.8040731 133.378392,32.0810809 C133.101964,33.7436349 134.760868,35.1290119 133.931416,36.514389 C135.59032,38.4539508 135.037296,42.3329052 136.696368,44.2724669 C136.972796,47.5974057 138.078844,49.5369675 138.631869,52.3077216 C132.272344,53.9701065 132.272344,54.5242912 126.189584,56.186676 L122.59518,56.186676 L122.59518,56.186676 Z M68.9550425,32.3582578 C68.9550425,32.9124424 69.7844944,32.6352655 69.7844944,32.9124424 C69.5080667,32.3582578 70.0610909,32.3582578 70.0610909,32.0810809 C70.0610909,32.0810809 69.7844944,32.6352655 68.9550425,32.3582578 L68.9550425,32.3582578 Z M128.67794,16.5649252 C128.67794,16.0107405 128.401512,15.7337327 127.848488,16.0107405 C127.848488,16.2879174 128.125084,16.5649252 128.67794,16.5649252 L128.67794,16.5649252 Z M128.401512,20.7210564 C128.401512,20.1668718 128.125084,19.889864 127.848488,19.889864 C127.848488,19.889864 127.848488,20.4440486 128.401512,20.7210564 L128.401512,20.7210564 Z M120.65968,19.0586716 C120.936108,18.7814947 121.489132,18.7814947 121.489132,18.5044869 L120.65968,18.5044869 L120.65968,19.0586716 L120.65968,19.0586716 Z M109.599872,21.2752411 C110.429324,21.5522488 110.152896,20.7210564 110.982348,20.9980642 L110.982348,20.4440486 C110.152896,20.1668718 109.876299,20.7210564 109.599872,21.2752411 L109.599872,21.2752411 Z M107.387944,21.5522488 C107.664372,20.9980642 107.111347,20.9980642 106.83492,20.9980642 C106.83492,21.5522488 107.111347,21.5522488 107.387944,21.5522488 L107.387944,21.5522488 Z M130.337012,30.418696 C130.61344,30.1416883 131.166464,30.1416883 131.166464,29.8645114 L130.61344,29.8645114 C130.890036,30.1416883 130.060416,29.8645114 130.337012,30.418696 L130.337012,30.418696 Z M131.166464,32.3582578 C131.719488,32.3582578 131.442892,31.5270653 131.442892,30.9728807 C130.890036,30.9728807 130.890036,30.9728807 130.61344,30.6957038 C130.61344,31.5270653 131.442892,31.2498885 131.166464,32.3582578 L131.166464,32.3582578 Z M134.760868,42.8870898 L134.760868,42.0558974 L134.207844,42.0558974 C133.931416,42.610082 134.48444,42.610082 134.760868,42.8870898 L134.760868,42.8870898 Z M135.59032,42.8870898 L135.037465,42.8870898 C135.313892,43.7182822 134.48444,43.4412745 134.48444,44.2724669 C134.760868,44.2724669 135.037465,44.2724669 135.037465,44.5494747 C135.59032,44.5494747 135.313892,43.9954591 135.866916,44.2724669 L135.866916,43.4412745 C135.313892,43.1640976 135.866916,44.2724669 135.313892,44.2724669 C135.313892,43.9954591 134.760868,43.9954591 134.760868,43.7182822 L135.313892,43.7182822 C135.59032,43.4412745 135.59032,43.1640976 135.59032,42.8870898 L135.59032,42.8870898 Z M135.59032,46.7662133 C135.866916,46.4890364 136.143344,46.2120286 136.143344,45.657844 C135.866916,45.657844 135.866916,46.2120286 135.59032,46.7662133 L135.59032,46.7662133 Z M122.042156,55.9096682 L122.042156,55.3554836 L121.489132,55.3554836 C121.212704,55.9096682 121.489132,56.186676 122.042156,55.9096682 L122.042156,55.9096682 Z M76.1438504,66.9926849 L76.6968746,66.9926849 C76.6968746,66.7155081 76.4204469,66.4385003 76.1438504,66.4385003 L76.1438504,66.9926849 L76.1438504,66.9926849 Z M74.208519,68.1008851 L74.208519,67.2696927 L73.6554948,67.2696927 C73.3788983,67.8238774 73.6554948,68.1008851 74.208519,68.1008851 L74.208519,68.1008851 Z M26.6513096,43.7182822 C27.2043337,43.9954591 27.4807614,42.8870898 26.9277373,43.1640976 C26.9277373,43.4412745 26.6513096,43.4412745 26.6513096,43.7182822 L26.6513096,43.7182822 Z M17.8034292,45.9348518 C17.8034292,46.2120286 16.9739773,45.9348518 17.250405,46.4890364 C18.0798569,46.4890364 18.3564534,46.2120286 18.3564534,45.657844 L17.8034292,45.657844 L17.8034292,45.9348518 L17.8034292,45.9348518 Z M16.4209532,46.2120286 L16.4209532,45.657844 L15.867929,45.657844 C15.5915013,45.9348518 15.867929,46.2120286 16.4209532,46.2120286 L16.4209532,46.2120286 Z M11.4440732,48.1515904 C11.7205009,47.5974057 10.891049,47.8744135 10.6146213,47.8744135 C10.3380248,48.4285982 11.1674767,48.1515904 11.4440732,48.1515904 L11.4440732,48.1515904 Z M6.19059673,49.2597906 C6.19059673,48.7056059 5.91416903,48.4285982 5.63757257,48.4285982 C5.91416903,48.4285982 5.63757257,49.2597906 6.19059673,49.2597906 L6.19059673,49.2597906 Z M7.57307277,49.2597906 L7.57307277,48.7056059 L7.0200486,48.7056059 C7.0200486,48.9827828 7.0200486,49.2597906 7.57307277,49.2597906 L7.57307277,49.2597906 Z M3.97866883,50.090983 C3.97866883,49.5369675 3.70224112,49.2597906 3.14921696,49.2597906 C3.14921696,49.5369675 3.14921696,50.090983 3.97866883,50.090983 L3.97866883,50.090983 Z" id="Fill-23" fill="#F7981C"></path>
                    <path d="M18.6328811,84.1713946 C12.5499527,85.5567717 15.867929,84.4484024 9.78500068,85.8337795 C9.78500068,85.2795948 8.95554881,84.4484024 9.78500068,83.8942178 C8.95554881,83.61721 8.95554881,82.7860176 8.95554881,81.6776482 C9.23214527,81.6776482 9.23214527,81.954656 9.50857297,81.954656 C9.78500068,81.954656 9.50857297,81.6776482 9.78500068,81.4006405 C9.78500068,81.1234636 9.23214527,81.4006405 8.95554881,81.1234636 C7.57307277,76.1361399 6.19059673,71.1488162 4.8081207,66.1614925 C4.8081207,65.8843156 5.08471716,65.8843156 5.08471716,65.6073079 C4.53169299,65.0531232 3.70224112,62.8365537 4.25509653,62.0053613 C2.59619279,60.8969919 2.87262049,57.84923 1.76674092,56.186676 C1.49014446,55.6324914 2.31976509,56.186676 2.31976509,55.6324914 C2.31976509,55.3554836 1.76674092,55.6324914 1.49014446,55.3554836 C1.49014446,54.5242912 1.49014446,54.2471143 1.21371675,53.6930987 C1.76674092,54.2471143 1.76674092,53.6930987 2.04316862,53.1389141 C2.31976509,53.1389141 2.59619279,53.1389141 2.59619279,53.6930987 C2.87262049,53.6930987 2.87262049,53.4159218 3.14921696,53.4159218 L3.14921696,52.0305448 C3.97866883,52.3077216 3.14921696,53.4159218 3.14921696,53.9701065 C3.70224112,54.2471143 3.14921696,53.4159218 3.70224112,53.6930987 C4.25509653,57.0178685 6.19059673,60.3428073 5.63757257,63.6677461 C5.91416903,64.2219308 5.91416903,63.3907383 6.19059673,63.3907383 L6.19059673,65.6073079 C7.57307277,67.5468696 8.12609694,70.0404469 8.40252464,72.8112011 C7.57307277,73.3653857 7.84966923,75.0277706 7.0200486,75.3049475 C7.0200486,75.5819552 7.29664507,75.5819552 7.57307277,75.5819552 C7.57307277,74.7507628 8.6791211,74.7507628 8.40252464,73.6423935 C8.40252464,73.3653857 8.6791211,73.6423935 8.6791211,73.9195704 C8.6791211,74.1965782 8.95554881,73.9195704 9.23214527,74.1965782 C9.23214527,76.4131477 10.6146213,78.0757016 10.0615971,80.0152634 C10.3380248,80.0152634 10.3380248,79.7380865 10.6146213,79.7380865 L10.6146213,80.8464558 C10.3380248,80.8464558 9.78500068,80.5692789 9.78500068,81.1234636 C10.0615971,81.6776482 10.6146213,81.1234636 10.891049,80.8464558 C11.4440732,81.954656 10.3380248,83.0630253 11.4440732,83.8942178 C11.7205009,83.3400331 11.9970973,82.7860176 12.273525,82.2318329 C13.1029769,81.954656 12.8265492,82.7860176 13.6560011,82.5088407 C13.6560011,82.2318329 13.6560011,82.2318329 13.3795734,82.2318329 C23.8863575,79.1839018 26.0982854,79.4610787 36.3286418,76.4131477 C36.881666,76.4131477 37.1580937,76.4131477 37.1580937,76.6903246 C37.4345214,76.6903246 37.1580937,76.4131477 37.4345214,76.1361399 C37.7111179,76.1361399 37.9875456,76.4131477 37.9875456,76.6903246 C38.264142,76.4131477 37.7111179,76.1361399 38.264142,75.8591321 C41.858546,75.3049475 45.1765222,74.1965782 48.217902,73.3653857 C49.0473539,73.3653857 49.8768057,73.3653857 50.1534022,72.8112011 C50.7064264,73.3653857 51.2592818,72.8112011 51.8123059,72.5341933 C51.8123059,73.088378 51.2592818,72.8112011 51.5358782,73.3653857 C51.8123059,72.8112011 52.9183543,72.8112011 52.9183543,71.9800086 C53.194782,71.9800086 53.4713784,72.5341933 54.0242338,72.2570164 C54.3008303,72.2570164 54.0242338,71.9800086 54.3008303,71.7030009 C55.959734,71.7030009 57.8952342,70.3176238 59.0012826,70.8716393 C59.2777103,70.5946315 59.554138,70.0404469 60.3837586,70.3176238 C60.3837586,70.5946315 60.1071621,70.5946315 60.1071621,70.8716393 C60.3837586,71.1488162 60.6601863,71.1488162 60.936614,71.425824 C61.2132105,71.425824 60.936614,70.8716393 61.2132105,70.5946315 C60.936614,70.5946315 60.936614,70.5946315 60.936614,70.8716393 C60.3837586,70.3176238 61.4896382,70.0404469 62.31909,70.0404469 C61.7662346,70.3176238 62.31909,70.5946315 62.8721142,70.5946315 C62.0426623,69.7634391 63.7015661,70.5946315 63.4251384,69.4862622 C65.0840421,69.4862622 66.1900905,68.9322467 67.5725665,68.6550698 C67.5725665,68.9322467 67.2961388,68.9322467 67.2961388,69.2092545 C67.2961388,69.4862622 67.8489942,69.2092545 68.1255907,69.4862622 C68.4020184,68.9322467 67.5725665,69.4862622 67.8489942,68.9322467 C68.1255907,68.9322467 68.1255907,68.9322467 68.1255907,68.6550698 C68.6786148,68.6550698 68.6786148,69.2092545 68.9550425,69.4862622 C68.9550425,69.2092545 68.4020184,69.2092545 68.6786148,69.7634391 C67.5725665,69.7634391 66.4665182,70.3176238 66.1900905,69.2092545 C65.6370663,69.4862622 65.0840421,69.7634391 65.0840421,70.5946315 C64.8076144,70.3176238 64.2545903,70.3176238 63.9781625,70.0404469 C63.9781625,70.5946315 63.9781625,70.5946315 63.7015661,71.7030009 C64.2545903,71.1488162 64.8076144,70.5946315 65.6370663,70.3176238 C65.9136628,70.8716393 65.0840421,70.3176238 65.3606386,70.8716393 C65.9136628,71.1488162 65.3606386,70.3176238 65.9136628,70.5946315 C65.6370663,71.1488162 66.7431146,70.5946315 66.4665182,71.1488162 C65.0840421,71.1488162 64.5311867,71.9800086 62.8721142,71.7030009 C63.1487107,71.7030009 63.1487107,70.5946315 62.8721142,70.5946315 C62.31909,71.1488162 62.31909,71.9800086 62.0426623,72.2570164 C61.7662346,72.2570164 60.936614,72.5341933 61.2132105,71.9800086 C60.6601863,71.9800086 61.4896382,72.2570164 61.2132105,72.5341933 C58.1716619,72.8112011 54.3008303,74.7507628 52.6417578,74.1965782 C52.3653301,74.1965782 52.6417578,74.473755 52.3653301,74.7507628 C51.2592818,74.7507628 50.1534022,75.5819552 49.0473539,75.0277706 C48.7709262,75.0277706 49.0473539,75.3049475 48.7709262,75.5819552 C41.0290941,77.521517 33.8401175,80.0152634 25.8218577,81.4006405 C25.8218577,81.1234636 25.5452612,80.8464558 25.2688335,80.5692789 C24.7158094,81.1234636 25.8218577,81.1234636 25.8218577,81.6776482 C24.1627852,81.954656 22.5038815,82.5088407 21.1214054,83.0630253 L18.6328811,84.1713946 L18.6328811,84.1713946 Z M5.91416903,65.0531232 C6.19059673,65.0531232 6.4671932,65.0531232 6.4671932,64.4989385 C6.19059673,64.4989385 5.63757257,64.4989385 5.91416903,65.0531232 L5.91416903,65.0531232 Z M2.04316862,55.0784758 L2.59619279,55.0784758 C2.59619279,54.8012989 2.87262049,54.2471143 2.31976509,54.5242912 C2.59619279,55.0784758 1.76674092,54.5242912 2.04316862,55.0784758 L2.04316862,55.0784758 Z M3.97866883,58.6804224 L3.97866883,57.84923 L3.42564466,57.84923 C3.14921696,58.1262378 3.42564466,58.4032455 3.97866883,58.6804224 L3.97866883,58.6804224 Z M5.08471716,62.8365537 L5.63757257,62.8365537 C5.63757257,62.282369 5.36114486,62.0053613 5.08471716,62.0053613 L5.08471716,62.8365537 L5.08471716,62.8365537 Z M15.3149048,83.3400331 C15.867929,83.3400331 15.5915013,82.7860176 15.867929,82.5088407 L15.3149048,82.5088407 L15.3149048,83.3400331 L15.3149048,83.3400331 Z M13.1029769,84.4484024 C13.6560011,84.4484024 13.9324288,84.1713946 13.9324288,83.8942178 C13.6560011,84.1713946 13.1029769,83.8942178 13.1029769,84.4484024 L13.1029769,84.4484024 Z M14.2090252,83.8942178 C15.0384771,83.8942178 15.0384771,83.3400331 15.0384771,82.5088407 L14.4854529,82.5088407 C14.2090252,83.0630253 14.2090252,83.3400331 14.2090252,83.8942178 L14.2090252,83.8942178 Z M12.8265492,84.4484024 L13.3795734,84.4484024 C13.3795734,83.8942178 13.1029769,83.8942178 12.8265492,83.61721 L12.8265492,84.4484024 L12.8265492,84.4484024 Z" id="Fill-24" fill="#F7981C"></path>
                    <path d="M21.565235,39.799008 L23.329235,40.611008 C21.873235,43.691008 19.549235,46.435008 16.301235,48.815008 L15.713235,46.883008 C18.401235,44.811008 20.333235,42.459008 21.565235,39.799008 Z M22.601235,46.239008 L24.337235,47.051008 C23.665235,48.563008 22.825235,49.991008 21.817235,51.335008 L21.817235,65.503008 L19.885235,65.503008 L19.885235,53.575008 C18.877235,54.639008 17.757235,55.619008 16.553235,56.543008 L15.965235,54.611008 C18.989235,52.175008 21.201235,49.375008 22.601235,46.239008 Z M32.037235,39.911008 L33.969235,39.911008 L33.969235,42.963008 L40.269235,42.963008 L40.269235,44.783008 L33.969235,44.783008 L33.969235,48.283008 L41.417235,48.283008 L41.417235,50.131008 L24.729235,50.131008 L24.729235,48.283008 L32.037235,48.283008 L32.037235,44.783008 L25.793235,44.783008 L25.793235,42.963008 L32.037235,42.963008 L32.037235,39.911008 Z M24.869235,53.547008 L35.733235,53.547008 L35.733235,51.475008 L37.749235,51.475008 L37.749235,53.547008 L41.025235,53.547008 L41.025235,55.423008 L37.749235,55.423008 L37.749235,62.619008 C37.749235,64.439008 36.825235,65.363008 35.033235,65.363008 L31.057235,65.363008 L30.609235,63.431008 C31.897235,63.515008 33.157235,63.571008 34.333235,63.571008 C35.257235,63.571008 35.733235,63.067008 35.733235,62.115008 L35.733235,55.423008 L24.869235,55.423008 L24.869235,53.547008 Z M28.173235,56.515008 C29.741235,58.111008 30.945235,59.511008 31.785235,60.687008 L30.217235,61.807008 C29.321235,60.519008 28.117235,59.063008 26.605235,57.495008 L28.173235,56.515008 Z M52.7400042,54.975008 L52.7400042,58.195008 L58.9560042,58.195008 L58.9560042,54.975008 L52.7400042,54.975008 Z M58.9560042,60.043008 L52.7400042,60.043008 L52.7400042,61.695008 L50.7800042,61.695008 L50.7800042,48.115008 L58.9560042,48.115008 L58.9560042,45.315008 L60.9720042,45.315008 L60.9720042,48.115008 L69.2320042,48.115008 L69.2320042,61.611008 L67.2720042,61.611008 L67.2720042,60.043008 L60.9720042,60.043008 L60.9720042,65.727008 L58.9560042,65.727008 L58.9560042,60.043008 Z M60.9720042,58.195008 L67.2720042,58.195008 L67.2720042,54.975008 L60.9720042,54.975008 L60.9720042,58.195008 Z M67.2720042,53.183008 L67.2720042,49.963008 L60.9720042,49.963008 L60.9720042,53.183008 L67.2720042,53.183008 Z M58.9560042,49.963008 L52.7400042,49.963008 L52.7400042,53.183008 L58.9560042,53.183008 L58.9560042,49.963008 Z M71.5000042,42.095008 L71.5000042,46.995008 L69.5400042,46.995008 L69.5400042,43.915008 L50.1080042,43.915008 L50.1080042,47.135008 L48.1480042,47.135008 L48.1480042,42.095008 L58.8160042,42.095008 C58.5360042,41.367008 58.2560042,40.695008 57.9480042,40.079008 L60.0760042,39.715008 C60.3560042,40.415008 60.6080042,41.199008 60.8880042,42.095008 L71.5000042,42.095008 Z M84.4187733,51.391008 L84.4187733,65.643008 L82.4867733,65.643008 L82.4867733,51.615008 C81.5907733,54.471008 80.4147733,57.047008 78.9867733,59.343008 L78.1467733,57.299008 C80.1347733,54.387008 81.5627733,51.083008 82.4027733,47.387008 L78.6227733,47.387008 L78.6227733,45.455008 L82.4867733,45.455008 L82.4867733,39.995008 L84.4187733,39.995008 L84.4187733,45.455008 L87.7227733,45.455008 L87.7227733,47.387008 L84.4187733,47.387008 L84.4187733,49.207008 C85.7627733,50.747008 87.1067733,52.483008 88.5067733,54.443008 L87.3867733,56.151008 C86.2387733,54.191008 85.2587733,52.595008 84.4187733,51.391008 Z M88.4227733,43.047008 L95.4227733,43.047008 C95.0307733,42.039008 94.5827733,41.115008 94.0787733,40.275008 L96.1507733,39.939008 C96.5707733,40.835008 96.9907733,41.871008 97.3827733,43.047008 L103.598773,43.047008 L103.598773,44.867008 L95.9267733,44.867008 C94.3867733,47.583008 93.0427733,49.515008 91.8667733,50.663008 C93.6587733,50.551008 95.4227733,50.439008 97.1587733,50.299008 C97.8867733,49.291008 98.5307733,48.255008 99.0907733,47.135008 L100.714773,48.003008 C97.9147733,53.547008 93.8267733,57.355008 88.3947733,59.371008 L87.3027733,57.691008 C90.6907733,56.487008 93.5187733,54.611008 95.8147733,52.035008 C93.8547733,52.147008 91.7547733,52.259008 89.5427733,52.343008 L89.1227733,50.691008 C89.2907733,50.635008 89.4027733,50.579008 89.5147733,50.523008 C90.6347733,49.795008 92.0627733,47.919008 93.8547733,44.867008 L88.4227733,44.867008 L88.4227733,43.047008 Z M97.3827733,59.959008 C94.6947733,62.367008 91.5867733,64.215008 88.0027733,65.447008 L86.9107733,63.711008 C93.4907733,61.555008 98.4187733,57.411008 101.694773,51.279008 L103.402773,52.175008 C102.058773,54.695008 100.462773,56.879008 98.6427733,58.727008 C100.658773,60.519008 102.394773,62.283008 103.794773,64.047008 L102.338773,65.503008 C101.106773,63.767008 99.4547733,61.919008 97.3827733,59.959008 Z" id="待审核" fill="#F7981C" transform="translate(59.754004, 52.721008) rotate(-14.000000) translate(-59.754004, -52.721008) "></path>
                </g>
            </g>
        </g>
    </g>
</svg>