<?xml version="1.0" encoding="UTF-8"?>
<svg width="116px" height="128px" viewBox="0 0 116 128" version="1.1" xmlns="http://www.w3.org/2000/svg" xmlns:xlink="http://www.w3.org/1999/xlink">
    <!-- Generator: Sketch 52.2 (67145) - http://www.bohemiancoding.com/sketch -->
    <title>分组 10</title>
    <desc>Created with Sketch.</desc>
    <defs>
        <filter x="-72.4%" y="-262.5%" width="244.8%" height="625.0%" filterUnits="objectBoundingBox" id="filter-1">
            <feGaussianBlur stdDeviation="14" in="SourceGraphic"></feGaussianBlur>
        </filter>
        <linearGradient x1="0%" y1="0%" x2="100%" y2="100%" id="linearGradient-2">
            <stop stop-color="#40C7FF" offset="0%"></stop>
            <stop stop-color="#5881FF" offset="100%"></stop>
        </linearGradient>
    </defs>
    <g id="Page-1" stroke="none" stroke-width="1" fill="none" fill-rule="evenodd">
        <g id="分组-10" transform="translate(22.000000, 0.000000)">
            <g id="分组-9-copy" transform="translate(0.000000, 48.000000)">
                <path d="M21,10.5 C21,16.2987097 16.2987097,21 10.5,21 C4.70129032,21 0,16.2987097 0,10.5 C0,4.70129032 4.70129032,0 10.5,0 C16.2987097,0 21,4.70129032 21,10.5" id="Fill-18" fill="#FFAA84"></path>
                <path d="M19,11 C19,15.4186279 15.4187774,19 11.0010015,19 C6.5825579,19 3,15.4186279 3,11 C3,6.58137206 6.5825579,3 11.0010015,3 C15.4187774,3 19,6.58137206 19,11" id="Fill-19" fill="#FF7543"></path>
                <path d="M11.9670574,12.7072593 C11.9670574,12.5374467 11.9210792,12.396049 11.8284155,12.2830661 C11.7343371,12.1687301 11.5645715,12.0631892 11.3191188,11.9657669 L11.3191188,13.4609296 C11.7513137,13.3310331 11.9670574,13.0800352 11.9670574,12.7072593 Z M9.9730194,8.28401326 C9.60802344,8.40646776 9.42552546,8.62837426 9.42552546,8.95243894 C9.42552546,9.27718016 9.60802344,9.52344226 9.9730194,9.69325485 L9.9730194,8.28401326 Z M9.9730194,16 L9.9730194,15.1130505 C8.8964228,14.9506799 7.90612369,14.4852175 7,13.7159867 L8.18128537,12.342602 C8.84195635,12.893309 9.43967259,13.2464651 9.9730194,13.399364 L9.9730194,11.5889317 C9.08457963,11.370408 8.43098222,11.0767878 8.01576395,10.7080712 C7.60125303,10.3400311 7.39329022,9.80894391 7.39329022,9.11683919 C7.39329022,8.42338137 7.630962,7.8530546 8.10418351,7.40382924 C8.57881973,6.95392734 9.20200081,6.6839862 9.9730194,6.59535891 L9.9730194,6 L11.3191188,6 L11.3191188,6.6197145 C12.1658246,6.73269738 13.0097009,7.06893986 13.8479184,7.62776537 L12.8052749,9.06136256 C12.2719281,8.69738177 11.7774859,8.4545024 11.3191188,8.33340099 L11.3191188,10.0836209 C12.2337308,10.3095866 12.9092563,10.6126784 13.3449879,10.9935728 C13.7821342,11.3744672 14,11.913673 14,12.6105135 C14,13.3066775 13.755962,13.8817401 13.2693007,14.3350247 C12.7819321,14.7896624 12.1325788,15.0609566 11.3191188,15.1495839 L11.3191188,16 L9.9730194,16 Z" id="Fill-20" fill="#FFFFFF"></path>
            </g>
            <g id="等待" transform="translate(3.000000, 0.000000)" fill-rule="nonzero">
                <ellipse id="椭圆形" fill="#FFC6B3" filter="url(#filter-1)" cx="33" cy="85" rx="29" ry="8"></ellipse>
                <path d="M51.1408756,13.3713988 L51.4472623,13.3713988 C53.1969932,13.3713988 54.6283764,11.7042394 54.6283764,9.66591744 L54.6283764,6.72269261 L56.8183486,6.72269261 C58.5684316,6.72269261 59.9999953,5.05553318 59.9999953,3.01721123 L60,0 L0,0 L8.1165113e-05,3.0171214 C8.1165113e-05,5.05543437 1.43191106,6.72260278 3.18164194,6.72260278 L5.29136801,6.72260278 L5.29136801,9.66582762 C5.29136801,11.7041406 6.72275987,13.371309 8.47301468,13.371309 L8.78704808,13.371309 C8.78889375,22.3070543 11.1970164,30.7383951 17.2555841,36.5326335 C17.788114,37.090836 19.0527772,38.4225965 19.6957853,39.1518524 C20.1885005,39.7966388 20.5767145,40.4403222 20.6036063,40.8970492 C20.6686455,41.9908388 19.507173,43.3698492 18.5815042,44.2871655 C18.5666507,44.3023316 18.554346,44.3187844 18.5436233,44.3357888 C11.5397869,50.1277457 8.79161351,59.0896831 8.78714728,68.628691 L8.47311388,68.628691 C6.72294496,68.628691 5.29146721,70.2958504 5.29146721,72.3341724 L5.29146721,75.2773972 L3.18156078,75.2773972 C1.43182989,75.2773972 0,76.9445566 0,78.9828786 L0,82 L60,82 L60,78.9828786 C60,76.9450237 58.5680842,75.2773972 56.8183533,75.2773972 L54.6283812,75.2773972 L54.6283812,72.3341724 C54.6283812,70.2963175 53.1969893,68.628691 51.4468204,68.628691 L51.140785,68.628691 C51.1362146,59.1119589 48.3405886,50.2007171 41.3783826,44.405311 C41.3665174,44.3630299 41.3440173,44.3224033 41.3087731,44.287751 C40.3834564,43.3704348 39.2220738,41.9909662 39.287109,40.8971767 C39.3138278,40.4409087 39.702129,39.7967672 40.1948442,39.152438 C41.0222482,38.21325 42.8810487,36.2752054 42.8810487,36.2752054 L42.8649647,36.2622453 C48.7442391,30.4782825 51.1389105,22.1841718 51.140843,13.3714647 L51.1408756,13.3713988 Z M41.7118575,31.1135485 C41.7118575,31.1135485 41.108833,31.9433372 39.7590847,33.1931024 C39.1185825,33.9425594 38.4459306,34.6280797 37.745569,35.236932 C36.6349954,36.4938429 35.4155289,38.1383948 35.171568,39.5201572 L35.1031837,39.5201572 C34.9133949,40.702603 34.5897695,44.6009263 37.8185711,47.7479745 C39.2113879,49.1049152 39.597091,49.5279135 39.5224967,49.5146299 C39.6013606,49.6038466 39.6810236,49.6909562 39.7590885,49.7823713 C41.1088324,51.0322287 41.71141,51.8616567 41.71141,51.8616567 C46.4395146,56.4183056 46.9475106,66.501986 47,69 L40.9913389,69 C41.1505766,62.6241163 37.8043717,58.2653518 37.2047189,57.3614587 C36.5993849,56.4495095 35.5406723,55.1894836 33.1202252,51.9749342 C30.6996913,48.7602954 31.682999,43.5908557 32.2125792,40.8540414 C32.7420683,38.1172718 36.0323262,34.2944162 37.2047189,32.6870475 C38.3771116,31.0798669 38.2637838,29.9066766 38.2637838,29.9066766 L31.1538701,29.9066766 L30.7047545,29.9066766 L30.3923187,29.9066766 L29.6409805,29.9066766 L22.8336443,29.9066766 C22.8336443,29.9066766 22.7199669,31.0797773 23.8923535,32.6870475 C25.0647461,34.2944162 28.3549997,38.1172718 28.8844931,40.8540414 C29.4140707,43.5908109 30.397381,48.7602596 27.9768471,51.9749342 C25.5563132,55.1894836 24.4972483,56.4495095 23.8923535,57.3614587 C23.2927926,58.2654413 19.9465817,62.6242416 20.1057335,69 L14,69 C14.0525759,66.5024783 14.5604837,56.4188068 19.288321,51.8616567 C19.288321,51.8616567 19.891257,51.0322341 21.2410937,49.7823713 C21.3188031,49.6913223 21.3988213,49.6038466 21.4776855,49.5146299 C21.4030846,49.5279116 21.7887892,49.1049107 23.1810731,47.7479745 C26.4102279,44.6009352 26.0867778,40.702603 25.8969899,39.5201572 L25.8285168,39.5201572 C25.5845541,38.1384844 24.3646467,36.4938429 23.2546025,35.236932 C22.5540639,34.6281701 21.881235,33.9426498 21.240731,33.1931024 C19.8912562,31.943245 19.2884096,31.1135485 19.2884096,31.1135485 C14.5757619,26.5714632 14.0557718,16.5382944 14,14 L46.9993926,14 C46.9444183,16.538375 46.4245203,26.5715259 41.7118701,31.1135485 L41.7118575,31.1135485 Z" id="形状" fill="url(#linearGradient-2)"></path>
            </g>
            <g id="分组-9" transform="translate(44.000000, 48.000000)">
                <path d="M31,15.5 C31,24.06 24.06,31 15.5,31 C6.94,31 0,24.06 0,15.5 C0,6.94 6.94,0 15.5,0 C24.06,0 31,6.94 31,15.5" id="Fill-18" fill="#FFAA84"></path>
                <path d="M27.965,15.982 C27.965,22.6 22.601,27.964 15.984,27.964 C9.366,27.964 4,22.6 4,15.982 C4,9.364 9.366,4 15.984,4 C22.601,4 27.965,9.364 27.965,15.982" id="Fill-19" fill="#FF7543"></path>
                <path d="M18.022,18.914 C18.022,18.663 17.957,18.454 17.826,18.287 C17.693,18.118 17.453,17.962 17.106,17.818 L17.106,20.028 C17.717,19.836 18.022,19.465 18.022,18.914 Z M15.203,12.376 C14.687,12.557 14.429,12.885 14.429,13.364 C14.429,13.844 14.687,14.208 15.203,14.459 L15.203,12.376 Z M15.203,23.781 L15.203,22.47 C13.681,22.23 12.281,21.542 11,20.405 L12.67,18.375 C13.604,19.189 14.449,19.711 15.203,19.937 L15.203,17.261 C13.947,16.938 13.023,16.504 12.436,15.959 C11.85,15.415 11.556,14.63 11.556,13.607 C11.556,12.582 11.892,11.739 12.561,11.075 C13.232,10.41 14.113,10.011 15.203,9.88 L15.203,9 L17.106,9 L17.106,9.916 C18.303,10.083 19.496,10.58 20.681,11.406 L19.207,13.525 C18.453,12.987 17.754,12.628 17.106,12.449 L17.106,15.036 C18.399,15.37 19.354,15.818 19.97,16.381 C20.588,16.944 20.896,17.741 20.896,18.771 C20.896,19.8 20.551,20.65 19.863,21.32 C19.174,21.992 18.256,22.393 17.106,22.524 L17.106,23.781 L15.203,23.781 Z" id="Fill-20" fill="#FFFFFF"></path>
            </g>
        </g>
    </g>
</svg>