<?xml version="1.0" encoding="UTF-8"?>
<svg width="63px" height="63px" viewBox="0 0 63 63" version="1.1" xmlns="http://www.w3.org/2000/svg" xmlns:xlink="http://www.w3.org/1999/xlink">
    <!-- Generator: Sketch 52.2 (67145) - http://www.bohemiancoding.com/sketch -->
    <title>交易成功icon</title>
    <desc>Created with Sketch.</desc>
    <g id="Page-1" stroke="none" stroke-width="1" fill="none" fill-rule="evenodd">
        <g id="交易成功icon" fill="#22BB5F">
            <g id="分组">
                <path d="M31.2888642,62.5778506 C14.0044234,62.5684191 0.000307118842,48.5489843 0.0097182409,31.2645419 C0.01657461,18.6993495 7.53769922,7.35656412 19.1094071,2.4597862 C22.962371,0.828740296 27.1048902,-0.00787178863 31.2888673,6.0442819e-05 C36.2954804,-0.00710417117 41.230129,1.19212572 45.6750508,3.49622507 C46.7238532,4.04011829 47.1331637,5.33125334 46.5892742,6.38006179 C46.045381,7.42886412 44.7542459,7.83817459 43.7054375,7.29428507 C30.4655177,0.431744388 14.1692432,5.6016404 7.30664077,18.8416103 C5.3131329,22.6876914 4.27426114,26.9569308 4.27773225,31.2889803 L4.27773139,31.2878916 C4.2892536,46.2100812 16.3954066,58.2976286 31.3176573,58.2860786 C42.1615921,58.2777054 51.9499535,51.7869655 56.1777473,41.8010927 C57.5850772,38.4754885 58.3068797,34.9001115 58.2999497,31.2889907 C58.2999497,30.4236563 58.2583941,29.5509886 58.1777273,28.694821 C58.0658437,27.5187792 58.9285148,26.4747069 60.1045629,26.3628184 C61.2806048,26.2509348 62.3246771,27.1136059 62.4365656,28.289654 C62.5306768,29.2796552 62.5783435,30.2892119 62.5783435,31.2889848 L62.5783433,31.2886893 C62.5916743,48.5558983 48.6046604,62.5645368 31.3374514,62.5778591 C31.3215564,62.5778713 31.3056615,62.5778715 31.2897665,62.5778595 L31.2888642,62.5778506 Z M28.4812637,38.5137337 L53.7078375,13.2871599 C54.8601622,12.1348352 56.0124807,12.1348352 57.1648054,13.2871599 C58.3171301,14.4394846 58.3171301,15.5918031 57.1648054,16.7441278 L30.2038963,43.705037 C29.0515716,44.8573616 27.899253,44.8573616 26.7469283,43.705037 C26.6795572,43.6376658 26.6161249,43.5702947 26.5566316,43.5029236 C26.5500202,43.4963881 26.5434089,43.4898147 26.5367975,43.4832034 L14.4806002,31.427006 C13.3282755,30.2746813 13.3282755,29.1223628 14.4806002,27.9700381 C15.6329249,26.8177134 16.7852434,26.8177134 17.9375681,27.9700381 L28.4812637,38.5137337 Z" id="合并形状"></path>
            </g>
        </g>
    </g>
</svg>