<?xml version="1.0" encoding="UTF-8"?>
<svg width="64px" height="64px" viewBox="0 0 64 64" version="1.1" xmlns="http://www.w3.org/2000/svg" xmlns:xlink="http://www.w3.org/1999/xlink">
    <!-- Generator: Sketch 52.2 (67145) - http://www.bohemiancoding.com/sketch -->
    <title>形状</title>
    <desc>Created with Sketch.</desc>
    <g id="Page-1" stroke="none" stroke-width="1" fill="none" fill-rule="evenodd">
        <g id="交易失败-icon" fill="#EB6751" fill-rule="nonzero">
            <path d="M54.4285008,9.3689484 L54.4285018,9.36894935 C48.4691136,3.3536236 40.3466729,-0.0211240787 31.8792255,6.34459613e-05 L31.879226,6.34472187e-05 C23.4138412,-0.021217265 15.2935817,3.35367985 9.3370748,9.36894935 L9.33707176,9.36895239 C3.33445852,15.3677531 -0.0263141364,23.5137813 0.000185894472,32.0000412 C0.000185894472,40.5511137 3.31040225,48.5866855 9.33350926,54.6311301 L9.33350716,54.6311279 C15.2904828,60.6457037 23.410461,64.0204514 31.8756584,64.0000138 L31.8756597,64.0000138 C40.3445445,64.0196262 48.467929,60.6437474 54.4284984,54.6275654 C66.8587004,42.1511759 66.8587004,21.8489648 54.4284984,9.36901278 L54.4285008,9.3689484 Z M51.5129537,51.6728726 L51.5129541,51.6728722 C46.3266418,56.9101846 39.2570023,59.8494442 31.8863063,59.8328817 L31.8863064,59.8328817 C24.5212354,59.8491452 17.4570397,56.9125408 12.2739086,51.6799972 L12.2739076,51.6799962 C7.05139527,46.4592651 4.12827312,39.3702319 4.15302315,31.9857858 C4.15302315,24.5475896 7.04012651,17.550269 12.2774701,12.2951379 L12.2774679,12.2951401 C17.4613614,7.06202155 24.5274196,4.12644313 31.8934282,4.14581816 L31.8934278,4.14581816 C39.2604364,4.12671051 46.3275071,7.06214655 51.5129506,12.2951401 C62.3254007,23.1537778 62.3254007,40.8177358 51.5129506,51.672811 L51.5129537,51.6728726 Z M42.6525059,21.6071501 C40.5886848,21.6091138 38.9172141,23.2837646 38.9191828,25.3475857 C38.9211465,27.4114069 40.5957973,29.0828776 42.6596184,29.0809088 C42.6596184,29.0809088 42.6596184,29.0809088 42.6596184,29.0809088 C44.7234396,29.0789451 46.3949103,27.4042944 46.3929416,25.3404732 C46.3909779,23.2766521 44.7163271,21.6051814 42.652506,21.6071501 C42.652506,21.6071501 42.652506,21.6071501 42.652506,21.6071501 Z M22.7769828,29.0809088 L22.7769826,29.0809088 C24.8408037,29.0809089 26.5138619,27.4078506 26.5138619,25.3440295 C26.513862,23.2802083 24.8408037,21.6071501 22.7769826,21.6071501 L22.7769824,21.6071501 C20.7131613,21.6071502 19.0401031,23.2802083 19.0401031,25.3440295 C19.0401032,27.4078506 20.7131613,29.0809088 22.7769824,29.0809088 L22.7769828,29.0809088 Z M31.9147434,37.4009185 C26.6987561,37.4009185 22.1014195,40.145803 19.3672288,44.3449266 C18.5281216,45.6391469 19.4490064,47.3778114 20.9672244,47.3778114 L21.1094464,47.3778114 C21.7272247,47.3835027 22.3067041,47.0790748 22.6525545,46.5671479 C24.6934381,43.4987131 28.0783233,41.4898233 31.9111903,41.4898233 C35.765401,41.4898233 39.1716362,43.4702631 41.2053886,46.5635917 L41.2053884,46.5635914 C41.5520032,47.0769451 42.1326583,47.3826236 42.7520527,47.3778111 L42.8444972,47.3778111 C44.3591615,47.3778111 45.2800501,45.6355903 44.4373803,44.3449263 C41.7031646,40.1493777 37.1129343,37.4009183 31.9111782,37.4009183 L31.9147434,37.4009185 Z" id="形状"></path>
        </g>
    </g>
</svg>