<?xml version="1.0" encoding="UTF-8"?>
<svg width="116px" height="136px" viewBox="0 0 116 136" version="1.1" xmlns="http://www.w3.org/2000/svg" xmlns:xlink="http://www.w3.org/1999/xlink">
    <!-- Generator: Sketch 52.2 (67145) - http://www.bohemiancoding.com/sketch -->
    <title>分组</title>
    <desc>Created with Sketch.</desc>
    <defs>
        <filter x="-72.4%" y="-262.5%" width="244.8%" height="625.0%" filterUnits="objectBoundingBox" id="filter-1">
            <feGaussianBlur stdDeviation="14" in="SourceGraphic"></feGaussianBlur>
        </filter>
        <radialGradient cx="50%" cy="17.8878764%" fx="50%" fy="17.8878764%" r="82.1121236%" gradientTransform="translate(0.500000,0.178879),scale(0.920900,1.000000),rotate(90.000000),translate(-0.500000,-0.178879)" id="radialGradient-2">
            <stop stop-color="#FFA688" offset="0%"></stop>
            <stop stop-color="#FF7543" offset="100%"></stop>
        </radialGradient>
        <linearGradient x1="50%" y1="0%" x2="50%" y2="100%" id="linearGradient-3">
            <stop stop-color="#40C7FF" offset="0%"></stop>
            <stop stop-color="#5881FF" offset="100%"></stop>
        </linearGradient>
    </defs>
    <g id="Page-1" stroke="none" stroke-width="1" fill="none" fill-rule="evenodd">
        <g id="分组" transform="translate(2.000000, 0.000000)">
            <path d="M101.729248,0 L9.24832363,0 C4.1409369,0 0,4.224786 0,9.43559129 L0,60.2533271 C0,65.4641324 4.1409369,69.6889184 9.24832363,69.6889184 L101.729248,69.6889184 C106.836635,69.6889184 110.977571,65.4641324 110.977571,60.2533271 L110.977571,9.43559129 C110.977571,4.224786 106.836635,0 101.729248,0" id="Fill-65" fill="#F5F7FA"></path>
            <ellipse id="椭圆形" fill="#FFC6B3" fill-rule="nonzero" filter="url(#filter-1)" cx="56" cy="93" rx="29" ry="8"></ellipse>
            <polygon id="Fill-66" fill="#374753" points="14.360449 57.262102 20.1266939 57.262102 20.1266939 12.0877959 14.360449 12.0877959"></polygon>
            <polygon id="Fill-67" fill="#374753" points="23.6967551 57.262102 24.7615102 57.262102 24.7615102 12.0877959 23.6967551 12.0877959"></polygon>
            <polygon id="Fill-68" fill="#374753" points="44.6463673 57.262102 45.7111224 57.262102 45.7111224 12.0877959 44.6463673 12.0877959"></polygon>
            <polygon id="Fill-69" fill="#374753" points="29.3761224 57.262102 33.0492245 57.262102 33.0492245 12.0877959 29.3761224 12.0877959"></polygon>
            <polygon id="Fill-70" fill="#374753" points="71.2834286 57.262102 74.9524898 57.262102 74.9524898 12.0877959 71.2834286 12.0877959"></polygon>
            <polygon id="Fill-71" fill="#374753" points="64.4605102 57.262102 67.8063061 57.262102 67.8063061 12.0877959 64.4605102 12.0877959"></polygon>
            <polygon id="Fill-72" fill="#374753" points="58.4659592 57.262102 59.8317551 57.262102 59.8317551 12.0877959 58.4659592 12.0877959"></polygon>
            <polygon id="Fill-73" fill="#374753" points="50.0408571 57.262102 54.2857347 57.262102 54.2857347 12.0837551 50.0408571 12.0837551"></polygon>
            <polygon id="Fill-74" fill="#374753" points="83.7634898 57.262102 87.4386122 57.262102 87.4386122 12.0877959 83.7634898 12.0877959"></polygon>
            <polygon id="Fill-75" fill="#374753" points="91.3097143 57.262102 96.8294694 57.262102 96.8294694 12.0877959 91.3097143 12.0877959"></polygon>
            <polygon id="Fill-76" fill="#374753" points="37.2254082 57.262102 39.1670204 57.262102 39.1670204 12.0837551 37.2254082 12.0837551"></polygon>
            <polygon id="Fill-77" fill="#374753" points="77.7810612 57.262102 79.1872653 57.262102 79.1872653 12.0837551 77.7810612 12.0837551"></polygon>
            <path d="M80.6871262,69.0148163 L74.1362449,84.9477551 C73.0228765,87.656474 72.114366,91.5515808 71.4107134,96.6330753 C70.9998041,99.6004582 68.4631222,101.810082 65.4674239,101.810082 L45.7346675,101.810081 C42.738998,101.810081 40.2023304,99.6005007 39.7913897,96.6331511 C39.0872044,91.5483207 38.1773262,87.6498214 37.0617551,84.9376531 L30.5027984,69.0148163 L30.4994694,55.5892041 L80.690449,55.5892041 L80.690449,69.0148163 Z" id="合并形状" fill="url(#radialGradient-2)"></path>
            <polyline id="Fill-81" fill="#56AFCA" points="20.1287143 46.0245918 20.1287143 33.5223061 14.360449 33.5223061 14.360449 40.4846327 20.1287143 46.0245918"></polyline>
            <polyline id="Fill-82" fill="#56AFCA" points="24.7615102 50.475551 24.7615102 33.5223061 23.6947347 33.5223061 23.6947347 49.4491837 24.7615102 50.475551"></polyline>
            <polygon id="Fill-83" fill="#56AFCA" points="44.6463673 55.9953061 45.7111224 55.9953061 45.7111224 33.5223061 44.6463673 33.5223061"></polygon>
            <polyline id="Fill-84" fill="#56AFCA" points="30.507551 55.9953061 33.0492245 55.9953061 33.0492245 33.5223061 29.3761224 33.5223061 29.3761224 54.9063061 30.507551 55.9953061"></polyline>
            <polygon id="Fill-85" fill="#56AFCA" points="71.2834286 55.9953061 74.9524898 55.9953061 74.9524898 33.5223061 71.2834286 33.5223061"></polygon>
            <polygon id="Fill-86" fill="#56AFCA" points="64.4605102 55.9953061 67.8063061 55.9953061 67.8063061 33.5223061 64.4605102 33.5223061"></polygon>
            <polygon id="Fill-87" fill="#56AFCA" points="58.47 55.9953061 59.8317551 55.9953061 59.8317551 33.5223061 58.47 33.5223061"></polygon>
            <polygon id="Fill-88" fill="#56AFCA" points="50.0408571 55.9953061 54.2857347 55.9953061 54.2857347 33.5223061 50.0408571 33.5223061"></polygon>
            <polyline id="Fill-89" fill="#56AFCA" points="87.4386122 49.5118163 87.4386122 33.5223061 83.7634898 33.5223061 83.7634898 53.039449 87.4386122 49.5118163"></polyline>
            <polyline id="Fill-90" fill="#56AFCA" points="96.8294694 40.4886735 96.8294694 33.5182653 91.3097143 33.5182653 91.3097143 45.7942653 96.8294694 40.4886735"></polyline>
            <polygon id="Fill-91" fill="#56AFCA" points="37.2254082 55.9953061 39.1670204 55.9953061 39.1670204 33.5223061 37.2254082 33.5223061"></polygon>
            <polygon id="Fill-92" fill="#56AFCA" points="77.7810612 55.5892041 79.1872653 55.5892041 79.1872653 33.1162041 77.7810612 33.1162041"></polygon>
            <polyline id="Fill-80" fill="url(#linearGradient-3)" fill-rule="nonzero" opacity="0.8" points="7.22436735 33.5223061 30.5014898 55.9407551 80.690449 55.9407551 103.971612 33.5223061 7.22436735 33.5223061"></polyline>
        </g>
    </g>
</svg>