<?xml version="1.0" encoding="UTF-8"?>
<svg width="428px" height="385px" viewBox="0 0 428 385" version="1.1" xmlns="http://www.w3.org/2000/svg" xmlns:xlink="http://www.w3.org/1999/xlink">
    <!-- Generator: Sketch 49.3 (51167) - http://www.bohemiancoding.com/sketch -->
    <title>Group 37</title>
    <desc>Created with Sketch.</desc>
    <defs>
        <path d="M26.0262965,14.6008176 C34.4596269,-1.47698432 47.2190834,-4.27664038 64.304666,6.20184947 C65.0672778,6.65990545 93.0854425,0.627938848 82.9642141,26.7214862 C82.5560212,27.6918609 85.4441693,44.5274957 69.8761323,46.1030714 C69.1863596,46.1500014 56.9408275,85.3152736 26.0262965,58.4757411 C24.652947,57.0131045 1.62683531e-15,56.8308849 0,36.066327 C0,22.2232884 8.67543216,15.0681186 26.0262965,14.6008176 Z" id="path-1"></path>
        <circle id="path-3" cx="31.5" cy="31.5" r="31.5"></circle>
        <path d="M37.8939166,21.296162 C50.1727256,-2.15426959 68.7503123,-6.23773466 93.6266769,9.04576676 C94.7370289,9.71386868 135.531077,0.915886202 120.794713,38.9748789 C120.20039,40.3902282 124.405492,64.9460041 101.738652,67.244075 C100.734353,67.3125252 82.9050331,124.437407 37.8939166,85.2903505 C35.8943394,83.1570079 1.82135805e-12,82.8912298 1.8189894e-12,52.6048856 C1.8189894e-12,32.4139895 12.6313055,21.9777483 37.8939166,21.296162 Z" id="path-5"></path>
        <linearGradient x1="50%" y1="0%" x2="50%" y2="100%" id="linearGradient-7">
            <stop stop-color="#483E81" offset="0%"></stop>
            <stop stop-color="#6A6295" offset="100%"></stop>
        </linearGradient>
        <filter x="-3.0%" y="-1.5%" width="104.0%" height="106.0%" filterUnits="objectBoundingBox" id="filter-8">
            <feOffset dx="-2" dy="2" in="SourceAlpha" result="shadowOffsetOuter1"></feOffset>
            <feColorMatrix values="0 0 0 0 0   0 0 0 0 0   0 0 0 0 0  0 0 0 0.05 0" type="matrix" in="shadowOffsetOuter1" result="shadowMatrixOuter1"></feColorMatrix>
            <feMerge>
                <feMergeNode in="shadowMatrixOuter1"></feMergeNode>
                <feMergeNode in="SourceGraphic"></feMergeNode>
            </feMerge>
        </filter>
        <path d="M0.0926735681,21.9988855 L0.0926735681,14.8290232 L3.16382599,14.8056004 C7.37095394,8.95187665 15.3496672,4 24.5,4 C33.4812032,4 41.3336976,8.77051296 45.5990363,14.481959 L48.9459818,14.4564328 L48.9459818,22.3322099 C48.9818046,22.6875001 49,23.0399133 49,23.3885647 C49,31.9489783 38.0309764,38.8885647 24.5,38.8885647 C10.9690236,38.8885647 0,31.9489783 0,23.3885647 C0,22.9311472 0.0313187303,22.4672548 0.0926735681,21.9988855 Z M24.4928223,30 C33.9112585,30 41.5464097,25.7467051 41.5464097,20.5 C41.5464097,15.2532949 33.9112585,11 24.4928223,11 C15.074386,11 7.43923491,15.2532949 7.43923491,20.5 C7.43923491,25.7467051 15.074386,30 24.4928223,30 Z" id="path-9"></path>
        <filter x="-1.0%" y="-1.4%" width="102.0%" height="102.9%" filterUnits="objectBoundingBox" id="filter-10">
            <feOffset dx="0" dy="-1" in="SourceAlpha" result="shadowOffsetInner1"></feOffset>
            <feComposite in="shadowOffsetInner1" in2="SourceAlpha" operator="arithmetic" k2="-1" k3="1" result="shadowInnerInner1"></feComposite>
            <feColorMatrix values="0 0 0 0 0.924984056   0 0 0 0 0.769351036   0 0 0 0 0.302451976  0 0 0 1 0" type="matrix" in="shadowInnerInner1"></feColorMatrix>
        </filter>
        <linearGradient x1="33.252266%" y1="100%" x2="92.1967019%" y2="8.91484176%" id="linearGradient-11">
            <stop stop-color="#0066BB" offset="0%"></stop>
            <stop stop-color="#00C2CD" offset="100%"></stop>
        </linearGradient>
        <linearGradient x1="74.1838349%" y1="2.89206814%" x2="26.4194735%" y2="100%" id="linearGradient-12">
            <stop stop-color="#C8EDFF" offset="0%"></stop>
            <stop stop-color="#1688CA" offset="100%"></stop>
        </linearGradient>
        <path d="M25.8736697,60.9187331 L23.554633,64.8421616 C22.4599703,66.6941509 20.096547,67.3486223 18.2051688,66.3235176 L8,60.7924362 L8.02054439,60.7580979 C3.07855632,57.618786 0,51.4592334 0,43.1128427 C0,26.905876 11.6078869,8.59054966 25.9269411,2.20441643 C33.1032768,-0.996146594 39.5986343,-0.592974991 44.2930728,2.6458111 L51.8655382,7.02061644 C51.879898,7.02891248 51.8942165,7.03727991 51.9084931,7.04571842 C54.2857043,8.45082621 55.0737498,11.5170016 53.668642,13.8942128 L51.7314952,17.1715466 C51.8124543,18.0796051 51.8538823,19.0183927 51.8538823,19.9866085 C51.8538823,36.1935753 40.2459953,54.5089016 25.9269411,60.8950349 C25.9091799,60.9029561 25.8914229,60.9108554 25.8736701,60.9187325 Z" id="path-13"></path>
        <filter x="-0.9%" y="-0.7%" width="101.8%" height="101.5%" filterUnits="objectBoundingBox" id="filter-14">
            <feMorphology radius="1" operator="erode" in="SourceAlpha" result="shadowSpreadInner1"></feMorphology>
            <feOffset dx="0" dy="0" in="shadowSpreadInner1" result="shadowOffsetInner1"></feOffset>
            <feComposite in="shadowOffsetInner1" in2="SourceAlpha" operator="arithmetic" k2="-1" k3="1" result="shadowInnerInner1"></feComposite>
            <feColorMatrix values="0 0 0 0 1   0 0 0 0 1   0 0 0 0 1  0 0 0 0.3 0" type="matrix" in="shadowInnerInner1"></feColorMatrix>
        </filter>
        <linearGradient x1="86.611414%" y1="7.23813814%" x2="23.0926447%" y2="97.8725949%" id="linearGradient-15">
            <stop stop-color="#EEF9FF" offset="0%"></stop>
            <stop stop-color="#6DBAE4" offset="100%"></stop>
        </linearGradient>
        <path d="M36.9269411,66.8950349 C51.2459953,60.5089016 62.8538823,42.1935753 62.8538823,25.9866085 C62.8538823,9.77964179 51.2459953,1.81828319 36.9269411,8.20441643 C22.6078869,14.5905497 11,32.905876 11,49.1128427 C11,65.3198095 22.6078869,73.2811681 36.9269411,66.8950349 Z" id="path-16"></path>
        <filter x="-1.9%" y="-1.6%" width="103.9%" height="103.2%" filterUnits="objectBoundingBox" id="filter-17">
            <feOffset dx="0" dy="2" in="SourceAlpha" result="shadowOffsetInner1"></feOffset>
            <feComposite in="shadowOffsetInner1" in2="SourceAlpha" operator="arithmetic" k2="-1" k3="1" result="shadowInnerInner1"></feComposite>
            <feColorMatrix values="0 0 0 0 1   0 0 0 0 1   0 0 0 0 1  0 0 0 0.5 0" type="matrix" in="shadowInnerInner1"></feColorMatrix>
        </filter>
        <path d="M6.02705766,18.7775911 C2.725441,19.2940562 0.284610363,16.993003 0.284610363,12.9581171 C0.284610363,8.1808856 3.7061984,2.78218541 7.92694114,0.899782765 C12.1476839,-0.982619879 15.5692719,1.36410261 15.5692719,6.14133414 C15.5692719,9.1823037 14.1828377,12.4750936 12.0863819,14.9524363 L12.0863819,23.5824516 C12.0863819,23.92348 11.9125891,24.2409971 11.6253268,24.4247926 L7.53894507,27.0393332 C7.37699654,27.1429508 7.18861119,27.1976868 6.99635241,27.1969855 C6.44407134,27.1949709 5.99799221,26.7456255 6.0000068,26.1933444 L6.02705766,18.7775911 Z" id="path-18"></path>
        <filter x="-6.5%" y="-11.1%" width="113.1%" height="114.8%" filterUnits="objectBoundingBox" id="filter-20">
            <feOffset dx="0" dy="-2" in="SourceAlpha" result="shadowOffsetOuter1"></feOffset>
            <feColorMatrix values="0 0 0 0 1   0 0 0 0 1   0 0 0 0 1  0 0 0 0.5 0" type="matrix" in="shadowOffsetOuter1"></feColorMatrix>
        </filter>
        <path d="M0.0242135494,20.4186229 L0.0242135494,11.1920914 L8.63763907,11.2986045 C12.1058192,9.85304135 16.378576,9 21,9 C25.9474256,9 30.495258,9.97763556 34.0841405,11.6132744 L41.9104815,11.7100544 L41.9104815,19.8845826 C41.9697215,20.2518456 42,20.6239023 42,21 C42,27.627417 32.5979797,33 21,33 C9.40202025,33 0,27.627417 0,21 C0,20.8050873 0.00813228632,20.6112601 0.0242135494,20.4186229 Z" id="path-21"></path>
        <filter x="-0.6%" y="-1.0%" width="101.2%" height="102.1%" filterUnits="objectBoundingBox" id="filter-22">
            <feOffset dx="0" dy="-0.5" in="SourceAlpha" result="shadowOffsetInner1"></feOffset>
            <feComposite in="shadowOffsetInner1" in2="SourceAlpha" operator="arithmetic" k2="-1" k3="1" result="shadowInnerInner1"></feComposite>
            <feColorMatrix values="0 0 0 0 0.814254892   0 0 0 0 0.772997077   0 0 0 0 0.877391582  0 0 0 0.5 0" type="matrix" in="shadowInnerInner1"></feColorMatrix>
        </filter>
        <ellipse id="path-23" cx="21" cy="12" rx="21" ry="12"></ellipse>
        <filter x="-1.2%" y="-2.1%" width="102.4%" height="104.2%" filterUnits="objectBoundingBox" id="filter-24">
            <feOffset dx="0" dy="1" in="SourceAlpha" result="shadowOffsetInner1"></feOffset>
            <feComposite in="shadowOffsetInner1" in2="SourceAlpha" operator="arithmetic" k2="-1" k3="1" result="shadowInnerInner1"></feComposite>
            <feColorMatrix values="0 0 0 0 1   0 0 0 0 1   0 0 0 0 1  0 0 0 0.5 0" type="matrix" in="shadowInnerInner1"></feColorMatrix>
        </filter>
        <path d="M0.0242135494,20.4186229 L0.0242135494,11.1920914 L8.63763907,11.2986045 C12.1058192,9.85304135 16.378576,9 21,9 C25.9474256,9 30.495258,9.97763556 34.0841405,11.6132744 L41.9104815,11.7100544 L41.9104815,19.8845826 C41.9697215,20.2518456 42,20.6239023 42,21 C42,27.627417 32.5979797,33 21,33 C9.40202025,33 0,27.627417 0,21 C0,20.8050873 0.00813228632,20.6112601 0.0242135494,20.4186229 Z" id="path-25"></path>
        <filter x="-0.6%" y="-1.0%" width="101.2%" height="102.1%" filterUnits="objectBoundingBox" id="filter-26">
            <feOffset dx="0" dy="-0.5" in="SourceAlpha" result="shadowOffsetInner1"></feOffset>
            <feComposite in="shadowOffsetInner1" in2="SourceAlpha" operator="arithmetic" k2="-1" k3="1" result="shadowInnerInner1"></feComposite>
            <feColorMatrix values="0 0 0 0 0.814254892   0 0 0 0 0.772997077   0 0 0 0 0.877391582  0 0 0 0.5 0" type="matrix" in="shadowInnerInner1"></feColorMatrix>
        </filter>
        <ellipse id="path-27" cx="21" cy="12" rx="21" ry="12"></ellipse>
        <filter x="-1.2%" y="-2.1%" width="102.4%" height="104.2%" filterUnits="objectBoundingBox" id="filter-28">
            <feOffset dx="0" dy="1" in="SourceAlpha" result="shadowOffsetInner1"></feOffset>
            <feComposite in="shadowOffsetInner1" in2="SourceAlpha" operator="arithmetic" k2="-1" k3="1" result="shadowInnerInner1"></feComposite>
            <feColorMatrix values="0 0 0 0 1   0 0 0 0 1   0 0 0 0 1  0 0 0 0.5 0" type="matrix" in="shadowInnerInner1"></feColorMatrix>
        </filter>
        <path d="M4.88036904,110.094562 L4.88036904,68.2666264 C4.88036904,46.5228752 16.9379858,26.572417 36.1890022,16.4635553 L36.1890022,16.4635553 C46.6394707,10.9759313 59.5598475,14.9991116 65.0474716,25.4495801 C66.6568107,28.5143578 67.4976354,31.9241793 67.4976354,35.3858024 L67.4976354,77" id="path-29"></path>
        <filter x="-21.6%" y="-11.4%" width="139.9%" height="122.7%" filterUnits="objectBoundingBox" id="filter-30">
            <feMorphology radius="10.5" operator="dilate" in="SourceAlpha" result="shadowSpreadOuter1"></feMorphology>
            <feOffset dx="-1" dy="0" in="shadowSpreadOuter1" result="shadowOffsetOuter1"></feOffset>
            <feMorphology radius="10.5" operator="erode" in="SourceAlpha" result="shadowInner"></feMorphology>
            <feOffset dx="-1" dy="0" in="shadowInner" result="shadowInner"></feOffset>
            <feComposite in="shadowOffsetOuter1" in2="shadowInner" operator="out" result="shadowOffsetOuter1"></feComposite>
            <feGaussianBlur stdDeviation="0.5" in="shadowOffsetOuter1" result="shadowBlurOuter1"></feGaussianBlur>
            <feColorMatrix values="0 0 0 0 0   0 0 0 0 0   0 0 0 0 0  0 0 0 0.01 0" type="matrix" in="shadowBlurOuter1"></feColorMatrix>
        </filter>
        <path d="M4.48164049,10 C6.41463712,10 8.53180035,7.98528137 9.21045692,5.5 C9.8891135,3.01471863 8.87226998,1 6.93927335,1 C5.00627673,1 2.8891135,3.01471863 2.21045692,5.5 C1.53180035,7.98528137 2.54864387,10 4.48164049,10 Z" id="path-31"></path>
        <filter x="-14.8%" y="-12.2%" width="129.6%" height="124.4%" filterUnits="objectBoundingBox" id="filter-32">
            <feGaussianBlur stdDeviation="1" in="SourceAlpha" result="shadowBlurInner1"></feGaussianBlur>
            <feOffset dx="0" dy="0" in="shadowBlurInner1" result="shadowOffsetInner1"></feOffset>
            <feComposite in="shadowOffsetInner1" in2="SourceAlpha" operator="arithmetic" k2="-1" k3="1" result="shadowInnerInner1"></feComposite>
            <feColorMatrix values="0 0 0 0 0.474509804   0 0 0 0 0.290196078   0 0 0 0 0.788235294  0 0 0 1 0" type="matrix" in="shadowInnerInner1"></feColorMatrix>
        </filter>
        <path d="M4.48164049,10 C6.41463712,10 8.53180035,7.98528137 9.21045692,5.5 C9.8891135,3.01471863 8.87226998,1 6.93927335,1 C5.00627673,1 2.8891135,3.01471863 2.21045692,5.5 C1.53180035,7.98528137 2.54864387,10 4.48164049,10 Z" id="path-33"></path>
        <filter x="-14.8%" y="-12.2%" width="129.6%" height="124.4%" filterUnits="objectBoundingBox" id="filter-34">
            <feGaussianBlur stdDeviation="1" in="SourceAlpha" result="shadowBlurInner1"></feGaussianBlur>
            <feOffset dx="0" dy="0" in="shadowBlurInner1" result="shadowOffsetInner1"></feOffset>
            <feComposite in="shadowOffsetInner1" in2="SourceAlpha" operator="arithmetic" k2="-1" k3="1" result="shadowInnerInner1"></feComposite>
            <feColorMatrix values="0 0 0 0 0.474509804   0 0 0 0 0.290196078   0 0 0 0 0.788235294  0 0 0 1 0" type="matrix" in="shadowInnerInner1"></feColorMatrix>
        </filter>
        <path d="M4.48164049,10 C6.41463712,10 8.53180035,7.98528137 9.21045692,5.5 C9.8891135,3.01471863 8.87226998,1 6.93927335,1 C5.00627673,1 2.8891135,3.01471863 2.21045692,5.5 C1.53180035,7.98528137 2.54864387,10 4.48164049,10 Z" id="path-35"></path>
        <filter x="-14.8%" y="-12.2%" width="129.6%" height="124.4%" filterUnits="objectBoundingBox" id="filter-36">
            <feGaussianBlur stdDeviation="1" in="SourceAlpha" result="shadowBlurInner1"></feGaussianBlur>
            <feOffset dx="0" dy="0" in="shadowBlurInner1" result="shadowOffsetInner1"></feOffset>
            <feComposite in="shadowOffsetInner1" in2="SourceAlpha" operator="arithmetic" k2="-1" k3="1" result="shadowInnerInner1"></feComposite>
            <feColorMatrix values="0 0 0 0 0.474509804   0 0 0 0 0.290196078   0 0 0 0 0.788235294  0 0 0 1 0" type="matrix" in="shadowInnerInner1"></feColorMatrix>
        </filter>
        <path d="M4.48164049,10 C6.41463712,10 8.53180035,7.98528137 9.21045692,5.5 C9.8891135,3.01471863 8.87226998,1 6.93927335,1 C5.00627673,1 2.8891135,3.01471863 2.21045692,5.5 C1.53180035,7.98528137 2.54864387,10 4.48164049,10 Z" id="path-37"></path>
        <filter x="-14.8%" y="-12.2%" width="129.6%" height="124.4%" filterUnits="objectBoundingBox" id="filter-38">
            <feGaussianBlur stdDeviation="1" in="SourceAlpha" result="shadowBlurInner1"></feGaussianBlur>
            <feOffset dx="0" dy="0" in="shadowBlurInner1" result="shadowOffsetInner1"></feOffset>
            <feComposite in="shadowOffsetInner1" in2="SourceAlpha" operator="arithmetic" k2="-1" k3="1" result="shadowInnerInner1"></feComposite>
            <feColorMatrix values="0 0 0 0 0.474509804   0 0 0 0 0.290196078   0 0 0 0 0.788235294  0 0 0 1 0" type="matrix" in="shadowInnerInner1"></feColorMatrix>
        </filter>
        <path d="M4.48164049,10 C6.41463712,10 8.53180035,7.98528137 9.21045692,5.5 C9.8891135,3.01471863 8.87226998,1 6.93927335,1 C5.00627673,1 2.8891135,3.01471863 2.21045692,5.5 C1.53180035,7.98528137 2.54864387,10 4.48164049,10 Z" id="path-39"></path>
        <filter x="-14.8%" y="-12.2%" width="129.6%" height="124.4%" filterUnits="objectBoundingBox" id="filter-40">
            <feGaussianBlur stdDeviation="1" in="SourceAlpha" result="shadowBlurInner1"></feGaussianBlur>
            <feOffset dx="0" dy="0" in="shadowBlurInner1" result="shadowOffsetInner1"></feOffset>
            <feComposite in="shadowOffsetInner1" in2="SourceAlpha" operator="arithmetic" k2="-1" k3="1" result="shadowInnerInner1"></feComposite>
            <feColorMatrix values="0 0 0 0 0.474509804   0 0 0 0 0.290196078   0 0 0 0 0.788235294  0 0 0 1 0" type="matrix" in="shadowInnerInner1"></feColorMatrix>
        </filter>
        <path d="M4.48164049,10 C6.41463712,10 8.53180035,7.98528137 9.21045692,5.5 C9.8891135,3.01471863 8.87226998,1 6.93927335,1 C5.00627673,1 2.8891135,3.01471863 2.21045692,5.5 C1.53180035,7.98528137 2.54864387,10 4.48164049,10 Z" id="path-41"></path>
        <filter x="-14.8%" y="-12.2%" width="129.6%" height="124.4%" filterUnits="objectBoundingBox" id="filter-42">
            <feGaussianBlur stdDeviation="1" in="SourceAlpha" result="shadowBlurInner1"></feGaussianBlur>
            <feOffset dx="0" dy="0" in="shadowBlurInner1" result="shadowOffsetInner1"></feOffset>
            <feComposite in="shadowOffsetInner1" in2="SourceAlpha" operator="arithmetic" k2="-1" k3="1" result="shadowInnerInner1"></feComposite>
            <feColorMatrix values="0 0 0 0 0.474509804   0 0 0 0 0.290196078   0 0 0 0 0.788235294  0 0 0 1 0" type="matrix" in="shadowInnerInner1"></feColorMatrix>
        </filter>
        <path d="M4.48164049,10 C6.41463712,10 8.53180035,7.98528137 9.21045692,5.5 C9.8891135,3.01471863 8.87226998,1 6.93927335,1 C5.00627673,1 2.8891135,3.01471863 2.21045692,5.5 C1.53180035,7.98528137 2.54864387,10 4.48164049,10 Z" id="path-43"></path>
        <filter x="-14.8%" y="-12.2%" width="129.6%" height="124.4%" filterUnits="objectBoundingBox" id="filter-44">
            <feGaussianBlur stdDeviation="1" in="SourceAlpha" result="shadowBlurInner1"></feGaussianBlur>
            <feOffset dx="0" dy="0" in="shadowBlurInner1" result="shadowOffsetInner1"></feOffset>
            <feComposite in="shadowOffsetInner1" in2="SourceAlpha" operator="arithmetic" k2="-1" k3="1" result="shadowInnerInner1"></feComposite>
            <feColorMatrix values="0 0 0 0 0.474509804   0 0 0 0 0.290196078   0 0 0 0 0.788235294  0 0 0 1 0" type="matrix" in="shadowInnerInner1"></feColorMatrix>
        </filter>
        <path d="M4.48164049,10 C6.41463712,10 8.53180035,7.98528137 9.21045692,5.5 C9.8891135,3.01471863 8.87226998,1 6.93927335,1 C5.00627673,1 2.8891135,3.01471863 2.21045692,5.5 C1.53180035,7.98528137 2.54864387,10 4.48164049,10 Z" id="path-45"></path>
        <filter x="-14.8%" y="-12.2%" width="129.6%" height="124.4%" filterUnits="objectBoundingBox" id="filter-46">
            <feGaussianBlur stdDeviation="1" in="SourceAlpha" result="shadowBlurInner1"></feGaussianBlur>
            <feOffset dx="0" dy="0" in="shadowBlurInner1" result="shadowOffsetInner1"></feOffset>
            <feComposite in="shadowOffsetInner1" in2="SourceAlpha" operator="arithmetic" k2="-1" k3="1" result="shadowInnerInner1"></feComposite>
            <feColorMatrix values="0 0 0 0 0.474509804   0 0 0 0 0.290196078   0 0 0 0 0.788235294  0 0 0 1 0" type="matrix" in="shadowInnerInner1"></feColorMatrix>
        </filter>
        <path d="M4.48164049,10 C6.41463712,10 8.53180035,7.98528137 9.21045692,5.5 C9.8891135,3.01471863 8.87226998,1 6.93927335,1 C5.00627673,1 2.8891135,3.01471863 2.21045692,5.5 C1.53180035,7.98528137 2.54864387,10 4.48164049,10 Z" id="path-47"></path>
        <filter x="-14.8%" y="-12.2%" width="129.6%" height="124.4%" filterUnits="objectBoundingBox" id="filter-48">
            <feGaussianBlur stdDeviation="1" in="SourceAlpha" result="shadowBlurInner1"></feGaussianBlur>
            <feOffset dx="0" dy="0" in="shadowBlurInner1" result="shadowOffsetInner1"></feOffset>
            <feComposite in="shadowOffsetInner1" in2="SourceAlpha" operator="arithmetic" k2="-1" k3="1" result="shadowInnerInner1"></feComposite>
            <feColorMatrix values="0 0 0 0 0.474509804   0 0 0 0 0.290196078   0 0 0 0 0.788235294  0 0 0 1 0" type="matrix" in="shadowInnerInner1"></feColorMatrix>
        </filter>
        <path d="M5.94819582,11.0677304 C8.43347719,11.0677304 9.87916755,8.81399216 9.17723561,6.03386518 C8.47530367,3.25373821 5.89155678,1 3.40627541,1 C0.920994033,1 -0.524696326,3.25373821 0.177235613,6.03386518 C0.879167553,8.81399216 3.46291444,11.0677304 5.94819582,11.0677304 Z" id="path-49"></path>
        <filter x="-16.0%" y="-14.9%" width="132.1%" height="129.8%" filterUnits="objectBoundingBox" id="filter-50">
            <feMorphology radius="2" operator="erode" in="SourceAlpha" result="shadowSpreadInner1"></feMorphology>
            <feGaussianBlur stdDeviation="0.5" in="shadowSpreadInner1" result="shadowBlurInner1"></feGaussianBlur>
            <feOffset dx="0" dy="0" in="shadowBlurInner1" result="shadowOffsetInner1"></feOffset>
            <feComposite in="shadowOffsetInner1" in2="SourceAlpha" operator="arithmetic" k2="-1" k3="1" result="shadowInnerInner1"></feComposite>
            <feColorMatrix values="0 0 0 0 0.388235294   0 0 0 0 0.42745098   0 0 0 0 0.635294118  0 0 0 1 0" type="matrix" in="shadowInnerInner1" result="shadowMatrixInner1"></feColorMatrix>
            <feMorphology radius="1" operator="erode" in="SourceAlpha" result="shadowSpreadInner2"></feMorphology>
            <feOffset dx="0" dy="0" in="shadowSpreadInner2" result="shadowOffsetInner2"></feOffset>
            <feComposite in="shadowOffsetInner2" in2="SourceAlpha" operator="arithmetic" k2="-1" k3="1" result="shadowInnerInner2"></feComposite>
            <feColorMatrix values="0 0 0 0 1   0 0 0 0 1   0 0 0 0 1  0 0 0 0.7 0" type="matrix" in="shadowInnerInner2" result="shadowMatrixInner2"></feColorMatrix>
            <feMerge>
                <feMergeNode in="shadowMatrixInner1"></feMergeNode>
                <feMergeNode in="shadowMatrixInner2"></feMergeNode>
            </feMerge>
        </filter>
    </defs>
    <g id="登录" stroke="none" stroke-width="1" fill="none" fill-rule="evenodd">
        <g id="Group-37" transform="translate(0.000000, -20.000000)">
            <path d="" id="Path-3" stroke="#979797"></path>
            <path d="" id="Path-7" stroke="#979797"></path>
            <g id="Path-13" transform="translate(342.000000, 150.000000)">
                <mask id="mask-2" fill="white">
                    <use xlink:href="#path-1"></use>
                </mask>
                <use id="Mask" fill="#D3EAFE" xlink:href="#path-1"></use>
                <path d="M23.3900515,10.1218776 C30.9691565,-4.32737823 42.4361873,-6.84345267 57.791144,2.57365427 C58.4765097,2.98531302 83.6566699,-2.43566608 74.5606369,21.0148244 C74.1937905,21.8869083 76.7893934,37.0172348 62.7982677,38.4332179 C62.1783632,38.4753943 51.1732005,73.6735537 23.3900515,49.5526402 C22.1558108,48.2381564 1.46205057e-15,48.0743941 0,29.4131113 C0,16.9722562 7.79668383,10.5418449 23.3900515,10.1218776 Z" fill="#DEF2FE" mask="url(#mask-2)"></path>
            </g>
            <g id="Path-13-Copy" transform="translate(112.734220, 67.723813) rotate(-15.000000) translate(-112.734220, -67.723813) translate(50.734220, 14.223813)">
                <g id="Group-11" transform="translate(7.000000, 0.000000)">
                    <g id="Path-14" transform="translate(0.000000, 0.000000)">
                        <mask id="mask-4" fill="white">
                            <use xlink:href="#path-3"></use>
                        </mask>
                        <use id="Mask" fill="#FFDC7A" xlink:href="#path-3"></use>
                        <path d="M-6.38171026,40.7127106 C1.13326489,30.8886134 12.5208598,26.2994852 27.7810745,26.9453261 C32.1749401,17.6617646 40.8718528,6.53761615 58.0065791,6.93286565 C69.4297299,7.19636533 77.5619101,15.5424361 82.4031197,31.971078 L19.4751888,57.9433134 L-6.38171026,40.7127106 Z" fill="#F4CF68" mask="url(#mask-4)"></path>
                    </g>
                    <ellipse id="Oval-6" fill="#FEEBBB" transform="translate(20.597024, 13.377490) rotate(-36.000000) translate(-20.597024, -13.377490) " cx="20.5970244" cy="13.3774899" rx="7.5" ry="2.5"></ellipse>
                </g>
                <g id="Group-12" transform="translate(-0.000000, 8.000000)">
                    <mask id="mask-6" fill="white">
                        <use xlink:href="#path-5"></use>
                    </mask>
                    <use id="Mask" fill="#D2E7FD" xlink:href="#path-5"></use>
                    <path d="M33.9211673,15.1450345 C44.9126817,-5.9366666 61.5426183,-9.60766045 83.8109769,4.13205295 C84.804921,4.73266982 121.322174,-3.17662756 108.130751,31.0380224 C107.598736,32.3104072 111.362981,54.3858016 91.0725034,56.4517442 C90.1734937,56.5132802 74.2133764,107.867972 33.9211673,72.6751636 C32.1312231,70.7573102 -4.54535319e-12,70.5183783 -4.54747351e-12,43.2912608 C-4.54747351e-12,25.1398492 11.3070558,15.7577737 33.9211673,15.1450345 Z" id="Path-13" fill="#DEF2FE" mask="url(#mask-6)"></path>
                </g>
            </g>
            <g id="Group-14" transform="translate(317.000000, 268.000000)">
                <g id="Group-18">
                    <g id="Group-17">
                        <ellipse id="Oval-8" fill="#DDE2ED" cx="9.5" cy="30.5" rx="6.5" ry="3.5"></ellipse>
                        <path d="M8,18 L12,18 L12,29 C12,30.1045695 11.1045695,31 10,31 L10,31 C8.8954305,31 8,30.1045695 8,29 L8,18 Z" id="Rectangle-2" fill="url(#linearGradient-7)"></path>
                        <g id="Group-13">
                            <circle id="Oval-5" fill="#69BA30" cx="10" cy="10" r="10"></circle>
                            <circle id="Oval-5" fill="#7CCF4E" cx="9.5" cy="8.5" r="8.5"></circle>
                            <ellipse id="Oval-7" fill="#FFFFFF" transform="translate(7.000000, 5.000000) rotate(-40.000000) translate(-7.000000, -5.000000) " cx="7" cy="5" rx="2" ry="1"></ellipse>
                        </g>
                    </g>
                    <g id="Group-17-Copy" transform="translate(25.000000, 6.000000)">
                        <ellipse id="Oval-8" fill="#DDE2ED" cx="12.5" cy="38.5" rx="8.5" ry="4.5"></ellipse>
                        <path d="M11,23 L16,23 L16,37 C16,38.1045695 15.1045695,39 14,39 L13,39 C11.8954305,39 11,38.1045695 11,37 L11,23 Z" id="Rectangle-2" fill="url(#linearGradient-7)"></path>
                        <g id="Group-13">
                            <circle id="Oval-5" fill="#69BA30" cx="13" cy="13" r="13"></circle>
                            <circle id="Oval-5" fill="#7CCF4E" cx="12.35" cy="11.05" r="11.05"></circle>
                            <ellipse id="Oval-7" fill="#FFFFFF" transform="translate(9.100000, 6.500000) rotate(-40.000000) translate(-9.100000, -6.500000) " cx="9.1" cy="6.5" rx="2.6" ry="1.3"></ellipse>
                        </g>
                    </g>
                </g>
            </g>
            <g id="Group-30" filter="url(#filter-8)" transform="translate(258.000000, 336.000000)">
                <g id="Group-29">
                    <path d="M2.2002593,8.07860501 L2.18640436,8.0690428 L3.10494047,2.37765653 L13.9413031,10.0052369 L62.40283,38.0950923 L55.6895377,42.2873223 L3.24808373,11.2581254 C3.05234211,11.1423066 2.87302194,11.0007528 2.71492074,10.8372512 C1.98416229,10.0815313 1.81550461,8.98951453 2.2002593,8.07860501 Z" id="Combined-Shape" fill="#DFB237"></path>
                    <path d="M12.0607152,24.4367963 L12.6510324,18.7200161 L16.6941578,18 L17.0305503,19.4598599 L23.4872318,14 L29.95576,17.90839 L19.3256834,26.989587 C17.6198407,28.446876 15.1577594,28.6059763 13.2785464,27.3803545 C12.2756664,26.7262767 11.8269438,25.5418726 12.0607152,24.4367963 Z" id="Combined-Shape" fill="#DEB039"></path>
                    <path d="M2.0260742,18.4010018 L2.01987077,18.4003901 L2.0092106,18.2459105 C2.0074086,18.2236427 2.00586985,18.2013477 2.00459537,18.1790299 L1.64674509,12.9933212 L6.3409029,12.7383737 L6.39965704,12.993352 L13.4872318,7 L19.95576,10.90839 L9.32568342,19.989587 C7.6198407,21.446876 5.15775944,21.6059763 3.27854636,20.3803545 C2.56578541,19.9154922 2.13293739,19.1827543 2.0260742,18.4010018 Z" id="Combined-Shape" fill="#DEB332"></path>
                    <path d="M63.40283,32.0950923 L9.05850817,0.59538023 C7.35101918,-0.394335159 5.19407825,-0.13064231 3.77530552,1.24126846 L3.77530552,1.24126846 C2.76562752,2.21759687 2.73859233,3.82757316 3.71492074,4.83725116 C3.87302194,5.0007528 4.05234211,5.14230657 4.24808373,5.25812536 L56.6895377,36.2873223 L63.40283,32.0950923 Z" id="Path-19" fill="#FECF2F"></path>
                    <path d="M25.3182558,15.2942331 L18.7999075,20.6930475 C17.3389726,21.903065 15.2605905,22.0214634 13.6716918,20.9851844 L13.6716918,20.9851844 C12.5926044,20.2814042 12.2883579,18.8361044 12.9921381,17.7570171 C13.1231921,17.5560756 13.2844589,17.3765529 13.4702496,17.224782 L19.8661796,12 L25.3182558,15.2942331 Z" id="Path-20" fill="#FECF2F"></path>
                    <path d="M14.3182558,9.29423311 L7.79990749,14.6930475 C6.33897263,15.903065 4.26059052,16.0214634 2.6716918,14.9851844 L2.6716918,14.9851844 C1.59260443,14.2814042 1.28835789,12.8361044 1.99213813,11.7570171 C2.12319206,11.5560756 2.28445887,11.3765529 2.4702496,11.224782 L8.86617961,6 L14.3182558,9.29423311 Z" id="Path-20-Copy" fill="#FECF2F"></path>
                </g>
                <g id="Group-28" transform="translate(51.000000, 28.000000)">
                    <g id="Combined-Shape">
                        <use fill="#DEB335" fill-rule="evenodd" xlink:href="#path-9"></use>
                        <use fill="black" fill-opacity="1" filter="url(#filter-10)" xlink:href="#path-9"></use>
                    </g>
                    <path d="M24.5,31 C10.9690236,31 0,24.0604136 0,15.5 C0,6.93958638 10.9690236,0 24.5,0 C38.0309764,0 49,6.93958638 49,15.5 C49,24.0604136 38.0309764,31 24.5,31 Z M24.5,25 C33.0604136,25 40,20.7467051 40,15.5 C40,10.2532949 33.0604136,6 24.5,6 C15.9395864,6 9,10.2532949 9,15.5 C9,20.7467051 15.9395864,25 24.5,25 Z" id="Combined-Shape" fill="#FFD040"></path>
                </g>
            </g>
            <g id="Group-32" transform="translate(287.000000, 47.000000)">
                <path d="M2.79167371,190.934492 L15.8704879,182.857673 C18.8203526,181.035985 20.6161584,177.816346 20.6161584,174.349323 L20.6161584,0.466613055" id="Path-25" stroke="#CAD8E7" stroke-dasharray="5"></path>
                <path d="M2.21011335,197.596165 C5.83239826,195.670469 6.12870736,192.309955 3.09904063,187.514624 C0.0693739031,182.719292 -0.226935192,186.079806 2.21011335,197.596165 Z" id="Path-23" fill="#ADA5D6"></path>
            </g>
            <path d="M134.512688,310.916767 C128.262253,314.830424 124.282646,317.76032 122.573865,319.706456 C115.828723,328.464795 115.828595,340.449873 127.429564,348.1052 C149.42345,362.618676 185.852137,349.875359 199.055604,341.966819 C207.857915,336.694458 233.763837,321.376863 276.77337,296.014034 C290.372869,288.923695 293.485208,279.647252 286.110388,268.184707 C275.048158,250.990889 238.412152,249.263667 215.416059,263.901908 C203.1409,271.715702 182.956343,282.336866 157.523853,297.069775 C152.638752,299.899688 144.968364,304.515352 134.512688,310.916767 Z" id="Path-5" fill="#E8E6EB"></path>
            <path d="" id="Path-24" stroke="#979797"></path>
            <g id="Group-36" transform="translate(135.000000, 60.000000)">
                <g id="Group-5" transform="translate(0.000000, 63.000000)">
                    <path d="M0,89.4773953 L0,191.033231 C0.372087456,196.421113 0.804729737,197.50962 1.29792684,198.182396 C16.1328786,218.418912 42.1242511,218.065548 77.5829893,197.292412 C133.423504,164.578823 154.445327,156.579436 154.445327,138.6369 C154.445327,126.67521 154.445327,91.8575228 154.445327,34.1838387 C155.06596,18.4047037 150.005136,8.63318262 139.262856,4.86927537 C123.149435,-0.776585493 105.366558,-1.04375884 88.1416763,9.48065714 C70.9167943,20.0050731 31.7935083,41.0238935 17.3823603,50.4914314 C2.97121227,59.9589694 -9.09519128e-13,59.2336168 0,83.922171 C6.07775462e-13,100.381207 6.07775462e-13,102.232949 0,89.4773953 Z" id="Path-4" fill="url(#linearGradient-11)"></path>
                    <path d="M15.3832334,51.7772081 C9.80286676,55.2713077 6.24988643,57.8871094 4.72429241,59.6246133 C-1.29774719,67.4440293 -1.29786175,78.1442664 9.05944458,84.9789168 C28.6955118,97.9364996 61.2189221,86.559309 73.006933,79.4985902 C80.8656069,74.7914444 103.994327,61.115947 142.393094,38.472098 C154.534681,32.1418669 157.313367,23.8598902 150.729153,13.6261681 C140.852831,-1.72441502 108.144327,-3.26647294 87.6134925,9.8024996 C76.6542716,16.7786289 58.633567,26.261168 35.9275249,39.4146598 C31.5661234,41.941197 24.7180262,46.0620464 15.3832334,51.7772081 Z" id="Path-5" fill="#2E8AC1"></path>
                </g>
                <g id="Group-35" transform="translate(60.000000, 151.000000)">
                    <path d="M4.28673107,43.0881099 C-2.43810464,58.4972098 -2.60079081,89.0478038 27.3787209,80.1518143 C47.365062,74.2211546 57.9664305,55.3807132 59.1828264,23.6304901 C39.0928651,9.73717852 25.7626276,7.59369253 19.192114,17.2000321 C9.33634368,31.6095415 11.0115668,27.67901 4.28673107,43.0881099 Z" id="Path-8" fill="#000000" opacity="0.149999991"></path>
                    <g id="Group-4" transform="translate(9.000000, 0.000000)">
                        <g id="Combined-Shape">
                            <use fill="url(#linearGradient-12)" fill-rule="evenodd" xlink:href="#path-13"></use>
                            <use fill="black" fill-opacity="1" filter="url(#filter-14)" xlink:href="#path-13"></use>
                        </g>
                        <g id="Oval-2">
                            <use fill="url(#linearGradient-15)" fill-rule="evenodd" xlink:href="#path-16"></use>
                            <use fill="black" fill-opacity="1" filter="url(#filter-17)" xlink:href="#path-16"></use>
                        </g>
                    </g>
                    <g id="Path-10" transform="translate(39.000000, 26.000000)">
                        <mask id="mask-19" fill="white">
                            <use xlink:href="#path-18"></use>
                        </mask>
                        <g id="Mask">
                            <use fill="black" fill-opacity="1" filter="url(#filter-20)" xlink:href="#path-18"></use>
                            <use fill="#0096C4" fill-rule="evenodd" xlink:href="#path-18"></use>
                        </g>
                        <path d="M-4.5414182,3 C3.73497061,4.79077162 8.77409931,7.27468699 10.5759679,10.4517461 C12.3778365,13.6288052 13.7272266,19.5110253 14.6241382,28.0984064 L0.47218749,34.6388148 L-1.12619062,16.8327745 L-5,6.17262034 L-4.5414182,3 Z" fill="#000000" opacity="0.15" mask="url(#mask-19)"></path>
                    </g>
                </g>
                <g id="Group-34" transform="translate(19.000000, 0.000000)">
                    <g id="Group-33" transform="translate(0.000000, 70.000000)">
                        <g id="Group-8" transform="translate(0.000000, 34.000000)">
                            <ellipse id="Oval-4" fill="#000000" opacity="0.15" transform="translate(25.772944, 22.335012) rotate(-9.000000) translate(-25.772944, -22.335012) " cx="25.7729442" cy="22.3350123" rx="23.6066597" ry="15.7057572"></ellipse>
                            <g id="Group-6" transform="translate(7.000000, 0.000000)">
                                <g id="Combined-Shape">
                                    <use fill="#8ECCEE" fill-rule="evenodd" xlink:href="#path-21"></use>
                                    <use fill="black" fill-opacity="1" filter="url(#filter-22)" xlink:href="#path-21"></use>
                                </g>
                                <g id="Oval-3">
                                    <use fill="#E7F6FE" fill-rule="evenodd" xlink:href="#path-23"></use>
                                    <use fill="black" fill-opacity="1" filter="url(#filter-24)" xlink:href="#path-23"></use>
                                </g>
                            </g>
                        </g>
                        <g id="Group-8-Copy" transform="translate(63.000000, 0.000000)">
                            <ellipse id="Oval-4" fill="#000000" opacity="0.15" transform="translate(25.772944, 22.335012) rotate(-9.000000) translate(-25.772944, -22.335012) " cx="25.7729442" cy="22.3350123" rx="23.6066597" ry="15.7057572"></ellipse>
                            <g id="Group-6" transform="translate(7.000000, 0.000000)">
                                <g id="Combined-Shape">
                                    <use fill="#8ECCEE" fill-rule="evenodd" xlink:href="#path-25"></use>
                                    <use fill="black" fill-opacity="1" filter="url(#filter-26)" xlink:href="#path-25"></use>
                                </g>
                                <g id="Oval-3">
                                    <use fill="#E7F6FE" fill-rule="evenodd" xlink:href="#path-27"></use>
                                    <use fill="black" fill-opacity="1" filter="url(#filter-28)" xlink:href="#path-27"></use>
                                </g>
                            </g>
                        </g>
                        <g id="Group-10" transform="translate(11.000000, 3.000000)" fill="#000000" opacity="0.1">
                            <ellipse id="Oval-5-Copy" cx="14.5" cy="43" rx="14.5" ry="9"></ellipse>
                            <ellipse id="Oval-5-Copy-2" cx="78.5" cy="9" rx="14.5" ry="9"></ellipse>
                        </g>
                    </g>
                    <g id="Group-9" transform="translate(27.000000, 0.000000)" stroke-linecap="round" stroke-linejoin="round">
                        <path d="M0.880369043,110.094562 L0.880369043,68.2666264 C0.880369043,46.5228752 12.9379858,26.572417 32.1890022,16.4635553 L32.1890022,16.4635553 C42.6394707,10.9759313 55.5598475,14.9991116 61.0474716,25.4495801 C62.6568107,28.5143578 63.4976354,31.9241793 63.4976354,35.3858024 L63.4976354,77" id="Path-12" stroke="#51A9DB" stroke-width="21"></path>
                        <g id="Path-12">
                            <use fill="black" fill-opacity="1" filter="url(#filter-30)" xlink:href="#path-29"></use>
                            <use stroke="#DAF0FB" stroke-width="21" xlink:href="#path-29"></use>
                        </g>
                    </g>
                </g>
            </g>
            <g id="Group-14-Copy" transform="translate(85.000000, 343.000000)">
                <g id="Group-18">
                    <g id="Group-17" transform="translate(40.000000, 0.000000)">
                        <ellipse id="Oval-8" fill="#DDE2ED" cx="9.5" cy="30.5" rx="6.5" ry="3.5"></ellipse>
                        <path d="M8,18 L12,18 L12,29 C12,30.1045695 11.1045695,31 10,31 L10,31 C8.8954305,31 8,30.1045695 8,29 L8,18 Z" id="Rectangle-2" fill="url(#linearGradient-7)"></path>
                        <g id="Group-13">
                            <circle id="Oval-5" fill="#F86380" cx="10" cy="10" r="10"></circle>
                            <circle id="Oval-5" fill="#FF8A9E" cx="9.5" cy="8.5" r="8.5"></circle>
                            <ellipse id="Oval-7" fill="#FFFFFF" transform="translate(7.000000, 5.000000) rotate(-40.000000) translate(-7.000000, -5.000000) " cx="7" cy="5" rx="2" ry="1"></ellipse>
                        </g>
                    </g>
                    <g id="Group-17-Copy" transform="translate(0.000000, 13.000000)">
                        <ellipse id="Oval-8" fill="#DDE2ED" cx="12.5" cy="38.5" rx="8.5" ry="4.5"></ellipse>
                        <path d="M11,23 L16,23 L16,37 C16,38.1045695 15.1045695,39 14,39 L13,39 C11.8954305,39 11,38.1045695 11,37 L11,23 Z" id="Rectangle-2" fill="url(#linearGradient-7)"></path>
                        <g id="Group-13">
                            <circle id="Oval-5" fill="#F86380" cx="13" cy="13" r="13"></circle>
                            <circle id="Oval-5" fill="#FF8A9E" cx="12.35" cy="11.05" r="11.05"></circle>
                            <ellipse id="Oval-7" fill="#FFFFFF" transform="translate(9.100000, 6.500000) rotate(-40.000000) translate(-9.100000, -6.500000) " cx="9.1" cy="6.5" rx="2.6" ry="1.3"></ellipse>
                        </g>
                    </g>
                </g>
            </g>
            <g id="Group-27" transform="translate(0.000000, 145.000000)">
                <g id="Group-26">
                    <g id="Group-22">
                        <path d="M5.77169227,67.7504547 L120.782611,1.5751126 C125.784089,-1.30265372 131.729222,-0.126702989 134.061437,4.20167208 C136.393652,8.53004714 134.229786,14.371779 129.228308,17.2495453 L14.217389,83.4248874 C9.21591051,86.3026537 3.27077752,85.126703 0.938562769,80.7983279 C-1.39365198,76.4699529 0.770213806,70.628221 5.77169227,67.7504547 Z" id="Rectangle-5" fill="#E3ECFC"></path>
                        <path d="M8.77169227,69.7504547 L123.782611,3.5751126 C128.784089,0.697346278 134.729222,1.87329701 137.061437,6.20167208 C139.393652,10.5300471 137.229786,16.371779 132.228308,19.2495453 L17.217389,85.4248874 C12.2159105,88.3026537 6.27077752,87.126703 3.93856277,82.7983279 C1.60634802,78.4699529 3.77021381,72.628221 8.77169227,69.7504547 Z" id="Rectangle-5" fill="#EEF4FF"></path>
                        <path d="M9.77169227,70.7504547 L124.782611,4.5751126 C129.784089,1.69734628 135.729222,2.87329701 138.061437,7.20167208 C140.393652,11.5300471 138.229786,17.371779 133.228308,20.2495453 L18.217389,86.4248874 C13.2159105,89.3026537 7.27077752,88.126703 4.93856277,83.7983279 C2.60634802,79.4699529 4.77021381,73.628221 9.77169227,70.7504547 Z" id="Rectangle-5" fill="#FFFFFF"></path>
                    </g>
                    <g id="Group-24" transform="translate(13.000000, 9.000000)">
                        <g id="Group-23" transform="translate(109.000000, 0.000000)">
                            <path d="M1.58045859,8.83346526 C0.252338419,8.30260745 -0.353024221,6.56350199 0.210456923,4.5 C0.889113499,2.01471863 3.00627673,0 4.93927335,0 C5.4058224,0 5.81900104,0.117367219 6.16785132,0.33039016 L8.06945087,1.26787963 L7.38928918,2.47014495 C7.46290249,3.08000823 7.40988362,3.76968737 7.21045692,4.5 C6.69423897,6.39042131 5.34572474,8.00858276 3.87904903,8.67490486 L3.30378954,9.69174328 L1.58045859,8.83346526 Z" id="Combined-Shape" fill="#E0D7F3"></path>
                            <g id="Oval-11">
                                <use fill="#7881B6" fill-rule="evenodd" xlink:href="#path-31"></use>
                                <use fill="black" fill-opacity="1" filter="url(#filter-32)" xlink:href="#path-31"></use>
                                <use stroke="#F2EEFF" stroke-width="0.2" xlink:href="#path-31"></use>
                            </g>
                        </g>
                        <g id="Group-23-Copy" transform="translate(70.000000, 23.000000)">
                            <path d="M1.58045859,8.83346526 C0.252338419,8.30260745 -0.353024221,6.56350199 0.210456923,4.5 C0.889113499,2.01471863 3.00627673,0 4.93927335,0 C5.4058224,0 5.81900104,0.117367219 6.16785132,0.33039016 L8.06945087,1.26787963 L7.38928918,2.47014495 C7.46290249,3.08000823 7.40988362,3.76968737 7.21045692,4.5 C6.69423897,6.39042131 5.34572474,8.00858276 3.87904903,8.67490486 L3.30378954,9.69174328 L1.58045859,8.83346526 Z" id="Combined-Shape" fill="#E0D7F3"></path>
                            <g id="Oval-11">
                                <use fill="#7881B6" fill-rule="evenodd" xlink:href="#path-33"></use>
                                <use fill="black" fill-opacity="1" filter="url(#filter-34)" xlink:href="#path-33"></use>
                                <use stroke="#F2EEFF" stroke-width="0.2" xlink:href="#path-33"></use>
                            </g>
                        </g>
                        <g id="Group-23-Copy-4" transform="translate(29.000000, 46.000000)">
                            <path d="M1.58045859,8.83346526 C0.252338419,8.30260745 -0.353024221,6.56350199 0.210456923,4.5 C0.889113499,2.01471863 3.00627673,0 4.93927335,0 C5.4058224,0 5.81900104,0.117367219 6.16785132,0.33039016 L8.06945087,1.26787963 L7.38928918,2.47014495 C7.46290249,3.08000823 7.40988362,3.76968737 7.21045692,4.5 C6.69423897,6.39042131 5.34572474,8.00858276 3.87904903,8.67490486 L3.30378954,9.69174328 L1.58045859,8.83346526 Z" id="Combined-Shape" fill="#E0D7F3"></path>
                            <g id="Oval-11">
                                <use fill="#7881B6" fill-rule="evenodd" xlink:href="#path-35"></use>
                                <use fill="black" fill-opacity="1" filter="url(#filter-36)" xlink:href="#path-35"></use>
                                <use stroke="#F2EEFF" stroke-width="0.2" xlink:href="#path-35"></use>
                            </g>
                        </g>
                        <g id="Group-23" transform="translate(96.000000, 8.000000)">
                            <path d="M1.58045859,8.83346526 C0.252338419,8.30260745 -0.353024221,6.56350199 0.210456923,4.5 C0.889113499,2.01471863 3.00627673,0 4.93927335,0 C5.4058224,0 5.81900104,0.117367219 6.16785132,0.33039016 L8.06945087,1.26787963 L7.38928918,2.47014495 C7.46290249,3.08000823 7.40988362,3.76968737 7.21045692,4.5 C6.69423897,6.39042131 5.34572474,8.00858276 3.87904903,8.67490486 L3.30378954,9.69174328 L1.58045859,8.83346526 Z" id="Combined-Shape" fill="#E0D7F3"></path>
                            <g id="Oval-11">
                                <use fill="#7881B6" fill-rule="evenodd" xlink:href="#path-37"></use>
                                <use fill="black" fill-opacity="1" filter="url(#filter-38)" xlink:href="#path-37"></use>
                                <use stroke="#F2EEFF" stroke-width="0.2" xlink:href="#path-37"></use>
                            </g>
                        </g>
                        <g id="Group-23-Copy-2" transform="translate(57.000000, 31.000000)">
                            <path d="M1.58045859,8.83346526 C0.252338419,8.30260745 -0.353024221,6.56350199 0.210456923,4.5 C0.889113499,2.01471863 3.00627673,0 4.93927335,0 C5.4058224,0 5.81900104,0.117367219 6.16785132,0.33039016 L8.06945087,1.26787963 L7.38928918,2.47014495 C7.46290249,3.08000823 7.40988362,3.76968737 7.21045692,4.5 C6.69423897,6.39042131 5.34572474,8.00858276 3.87904903,8.67490486 L3.30378954,9.69174328 L1.58045859,8.83346526 Z" id="Combined-Shape" fill="#E0D7F3"></path>
                            <g id="Oval-11">
                                <use fill="#7881B6" fill-rule="evenodd" xlink:href="#path-39"></use>
                                <use fill="black" fill-opacity="1" filter="url(#filter-40)" xlink:href="#path-39"></use>
                                <use stroke="#F2EEFF" stroke-width="0.2" xlink:href="#path-39"></use>
                            </g>
                        </g>
                        <g id="Group-23-Copy-5" transform="translate(15.000000, 54.000000)">
                            <path d="M1.58045859,8.83346526 C0.252338419,8.30260745 -0.353024221,6.56350199 0.210456923,4.5 C0.889113499,2.01471863 3.00627673,0 4.93927335,0 C5.4058224,0 5.81900104,0.117367219 6.16785132,0.33039016 L8.06945087,1.26787963 L7.38928918,2.47014495 C7.46290249,3.08000823 7.40988362,3.76968737 7.21045692,4.5 C6.69423897,6.39042131 5.34572474,8.00858276 3.87904903,8.67490486 L3.30378954,9.69174328 L1.58045859,8.83346526 Z" id="Combined-Shape" fill="#E0D7F3"></path>
                            <g id="Oval-11">
                                <use fill="#7881B6" fill-rule="evenodd" xlink:href="#path-41"></use>
                                <use fill="black" fill-opacity="1" filter="url(#filter-42)" xlink:href="#path-41"></use>
                                <use stroke="#F2EEFF" stroke-width="0.2" xlink:href="#path-41"></use>
                            </g>
                        </g>
                        <g id="Group-23" transform="translate(83.000000, 15.000000)">
                            <path d="M1.58045859,8.83346526 C0.252338419,8.30260745 -0.353024221,6.56350199 0.210456923,4.5 C0.889113499,2.01471863 3.00627673,0 4.93927335,0 C5.4058224,0 5.81900104,0.117367219 6.16785132,0.33039016 L8.06945087,1.26787963 L7.38928918,2.47014495 C7.46290249,3.08000823 7.40988362,3.76968737 7.21045692,4.5 C6.69423897,6.39042131 5.34572474,8.00858276 3.87904903,8.67490486 L3.30378954,9.69174328 L1.58045859,8.83346526 Z" id="Combined-Shape" fill="#E0D7F3"></path>
                            <g id="Oval-11">
                                <use fill="#7881B6" fill-rule="evenodd" xlink:href="#path-43"></use>
                                <use fill="black" fill-opacity="1" filter="url(#filter-44)" xlink:href="#path-43"></use>
                                <use stroke="#F2EEFF" stroke-width="0.2" xlink:href="#path-43"></use>
                            </g>
                        </g>
                        <g id="Group-23-Copy-3" transform="translate(43.000000, 38.000000)">
                            <path d="M1.58045859,8.83346526 C0.252338419,8.30260745 -0.353024221,6.56350199 0.210456923,4.5 C0.889113499,2.01471863 3.00627673,0 4.93927335,0 C5.4058224,0 5.81900104,0.117367219 6.16785132,0.33039016 L8.06945087,1.26787963 L7.38928918,2.47014495 C7.46290249,3.08000823 7.40988362,3.76968737 7.21045692,4.5 C6.69423897,6.39042131 5.34572474,8.00858276 3.87904903,8.67490486 L3.30378954,9.69174328 L1.58045859,8.83346526 Z" id="Combined-Shape" fill="#E0D7F3"></path>
                            <g id="Oval-11">
                                <use fill="#7881B6" fill-rule="evenodd" xlink:href="#path-45"></use>
                                <use fill="black" fill-opacity="1" filter="url(#filter-46)" xlink:href="#path-45"></use>
                                <use stroke="#F2EEFF" stroke-width="0.2" xlink:href="#path-45"></use>
                            </g>
                        </g>
                        <g id="Group-23-Copy-6" transform="translate(0.000000, 63.000000)">
                            <path d="M1.58045859,8.83346526 C0.252338419,8.30260745 -0.353024221,6.56350199 0.210456923,4.5 C0.889113499,2.01471863 3.00627673,0 4.93927335,0 C5.4058224,0 5.81900104,0.117367219 6.16785132,0.33039016 L8.06945087,1.26787963 L7.38928918,2.47014495 C7.46290249,3.08000823 7.40988362,3.76968737 7.21045692,4.5 C6.69423897,6.39042131 5.34572474,8.00858276 3.87904903,8.67490486 L3.30378954,9.69174328 L1.58045859,8.83346526 Z" id="Combined-Shape" fill="#E0D7F3"></path>
                            <g id="Oval-11">
                                <use fill="#7881B6" fill-rule="evenodd" xlink:href="#path-47"></use>
                                <use fill="black" fill-opacity="1" filter="url(#filter-48)" xlink:href="#path-47"></use>
                                <use stroke="#F2EEFF" stroke-width="0.2" xlink:href="#path-47"></use>
                            </g>
                        </g>
                    </g>
                </g>
                <g id="Group-21" transform="translate(137.000000, 133.000000)">
                    <path d="M6.78118746,9.90861307 C4.69996728,9.34908694 2.76926549,7.37870538 2.17723561,5.03386518 C1.89796749,3.92777383 1.95864591,2.9050044 2.28949086,2.07433948 L1.87375312,1.34922301 L3.67197169,0.441587145 C3.77227426,0.383697817 3.87646375,0.331047721 3.98436566,0.283908888 L4.00511169,0.2734375 L4.00587147,0.274607778 C4.42153101,0.0966492266 4.89161232,0 5.40627541,0 C7.89155678,0 10.4753037,2.25373821 11.1772356,5.03386518 C11.6570746,6.93435348 11.1333174,8.58885727 9.95992352,9.44557629 L9.96836513,9.45857883 L9.87538753,9.50514938 C9.65078073,9.65785778 9.40385765,9.78234691 9.13691629,9.87503435 L7.29180346,10.7992132 L6.78118746,9.90861307 Z" id="Combined-Shape" fill="#AAA1D5"></path>
                    <g id="Oval-10">
                        <use fill="#7881B6" fill-rule="evenodd" xlink:href="#path-49"></use>
                        <use fill="black" fill-opacity="1" filter="url(#filter-50)" xlink:href="#path-49"></use>
                    </g>
                </g>
                <path d="M141.663188,139.664024 L86.0226424,171.802285 C83.1532032,173.459687 79.483473,172.477137 77.8260705,169.607698 C77.2990918,168.695347 77.0216496,167.660314 77.0216496,166.606706 L77.0216496,68.5321862" id="Path-16" stroke="#CAD8E7" stroke-dasharray="5"></path>
            </g>
            <g id="Group-20" transform="translate(289.000000, 28.000000)">
                <g id="Group-19" fill="#62ABEC">
                    <ellipse id="Oval-9-Copy-4" opacity="0.2" transform="translate(17.664339, 19.778119) rotate(-59.000000) translate(-17.664339, -19.778119) " cx="17.6643385" cy="19.7781195" rx="16.7323242" ry="10.5540126"></ellipse>
                    <ellipse id="Oval-9-Copy-4" transform="translate(17.664339, 19.778119) rotate(-59.000000) translate(-17.664339, -19.778119) " cx="17.6643385" cy="19.7781195" rx="2.52655624" ry="1.59364031"></ellipse>
                    <ellipse id="Oval-9-Copy-3" opacity="0.4" transform="translate(28.281238, 27.827831) rotate(-59.000000) translate(-28.281238, -27.827831) " cx="28.2812378" cy="27.8278305" rx="20.1583869" ry="12.7150219"></ellipse>
                    <ellipse id="Oval-9" transform="translate(77.665603, 55.292474) rotate(-59.000000) translate(-77.665603, -55.292474) " cx="77.6656026" cy="55.2924736" rx="36.6255096" ry="23.101757"></ellipse>
                    <ellipse id="Oval-9-Copy" opacity="0.8" transform="translate(61.304401, 47.409394) rotate(-59.000000) translate(-61.304401, -47.409394) " cx="61.304401" cy="47.4093942" rx="32.4944157" ry="20.4960451"></ellipse>
                    <ellipse id="Oval-9-Copy-2" opacity="0.6" transform="translate(42.460279, 34.746279) rotate(-59.000000) translate(-42.460279, -34.746279) " cx="42.4602786" cy="34.7462785" rx="26.0114062" ry="16.4068485"></ellipse>
                </g>
                <path d="M82.8891773,61.1912918 L82.8891773,41.1912918 C82.8891773,40.0867223 83.7846078,39.1912918 84.8891773,39.1912918 C85.9937468,39.1912918 86.8891773,40.0867223 86.8891773,41.1912918 L86.8891773,63.1912918 C86.8891773,64.2958613 85.9937468,65.1912918 84.8891773,65.1912918 L72.8891773,65.1912918 C71.7846078,65.1912918 70.8891773,64.2958613 70.8891773,63.1912918 C70.8891773,62.0867223 71.7846078,61.1912918 72.8891773,61.1912918 L82.8891773,61.1912918 Z" id="Combined-Shape" fill="#FFFFFF" transform="translate(78.889177, 52.191292) rotate(26.000000) translate(-78.889177, -52.191292) "></path>
            </g>
        </g>
    </g>
</svg>