<?xml version="1.0" encoding="UTF-8"?>
<svg width="40px" height="37px" viewBox="0 0 40 37" version="1.1" xmlns="http://www.w3.org/2000/svg" xmlns:xlink="http://www.w3.org/1999/xlink">
    <!-- Generator: Sketch 49.3 (51167) - http://www.bohemiancoding.com/sketch -->
    <title>首页(2)</title>
    <desc>Created with Sketch.</desc>
    <defs></defs>
    <g id="会员H5页面" stroke="none" stroke-width="1" fill="none" fill-rule="evenodd">
        <g id="首页(2)" fill="#353B48" fill-rule="nonzero">
            <path d="M35.6551128,15.8826695 L35.6551128,34.5745186 C35.6551128,35.7679548 34.6876416,36.735426 33.4942053,36.735426 L25.1801141,36.735426 C23.9866779,36.735426 23.0192067,35.7679548 23.0192067,34.5745186 L23.0192067,25.9049581 L16.6834262,25.9049581 L16.6834262,34.5745186 C16.6834262,35.1476269 16.4557598,35.6972621 16.050511,36.1025109 C15.6452623,36.5077596 15.095627,36.735426 14.5225187,36.735426 L6.48286271,36.735426 C5.2894265,36.735426 4.3219553,35.7679548 4.3219553,34.5745186 L4.3219553,15.9799103 L1.77532588,18.1148869 C1.31823981,18.4985766 0.636656341,18.4390771 0.252966601,17.981991 C-0.130723139,17.524905 -0.0712236537,16.8433215 0.385862422,16.4596317 L19.7130183,0.252826152 C20.1212503,-0.0893038998 20.7179136,-0.0828832346 21.1186886,0.267952502 L39.6084929,16.4747581 C40.046873,16.8704363 40.0863565,17.5447798 39.6971483,17.9889142 C39.3079401,18.4330485 38.6342481,18.482415 38.1844549,18.0997605 L35.6551128,15.8826695 Z M33.4952858,13.9897146 L20.3915432,2.5044917 L6.48286271,14.1658286 L6.48286271,34.5745186 L14.5225187,34.5745186 L14.5225187,25.9049581 C14.5225187,25.3318498 14.7501851,24.7822145 15.1554338,24.3769658 C15.5606826,23.971717 16.1103179,23.7440506 16.6834262,23.7440507 L23.0192067,23.7440507 C24.2126429,23.7440507 25.1801141,24.7115219 25.1801141,25.9049581 L25.1801141,34.5745186 L33.4942053,34.5745186 L33.4942053,14.0458982 L33.4952858,13.9897146 Z" id="Shape"></path>
        </g>
    </g>
</svg>