<?xml version="1.0" encoding="UTF-8"?>
<svg width="80px" height="80px" viewBox="0 0 80 80" version="1.1" xmlns="http://www.w3.org/2000/svg" xmlns:xlink="http://www.w3.org/1999/xlink">
    <!-- Generator: Sketch 52.2 (67145) - http://www.bohemiancoding.com/sketch -->
    <title>分组</title>
    <desc>Created with Sketch.</desc>
    <g id="Page-1" stroke="none" stroke-width="1" fill="none" fill-rule="evenodd">
        <g id="分组">
            <circle id="Oval-2" fill-opacity="0.300000012" fill="#000000" cx="40" cy="40" r="40"></circle>
            <g id="下载" transform="translate(27.000000, 23.000000)" fill="#FFFFFF" fill-rule="nonzero">
                <path d="M12.0649036,24.1248573 L4.32451773,16.580928 C3.46010917,15.7361651 3.46010917,14.4395522 4.32451773,13.5751437 C5.16928063,12.7107351 6.46589351,12.7107351 7.33030207,13.5751437 L11.3969515,17.6810844 L11.3969514,2.18066705 C11.3969514,0.884054182 12.26136,0.0196456224 13.5579729,0.0196456224 C14.8545857,0.0196456224 15.7189943,1.10015635 15.7189943,2.18066705 L15.7189943,17.4649822 L19.6088329,13.5947893 C20.4535958,12.7303807 21.7502086,12.7303807 22.6146172,13.5947893 C23.4790258,14.4395522 23.4790258,15.7361651 22.6146172,16.6005736 L15.0903335,24.1248573 C14.6581292,24.5570616 14.225925,24.7731637 13.5776185,24.7731637 C13.1454143,24.7731637 12.4971078,24.5570616 12.0649036,24.1248573 Z M25.8365037,29.0755609 C27.1331165,29.0755609 27.9778794,29.9399695 27.9975251,31.2365824 C27.9975251,32.5331952 27.1331165,33.3976038 25.8365037,33.3976038 L2.1634963,33.3976038 C0.866883427,33.3976038 0.00247486713,32.5331952 0.00247486713,31.2365824 C0.00247486713,29.9399695 0.866883459,29.0755609 2.1634963,29.0755609 L25.8365037,29.0755609 Z" id="合并形状"></path>
            </g>
        </g>
    </g>
</svg>