<?xml version="1.0" encoding="UTF-8"?>
<svg width="320px" height="306px" viewBox="0 0 320 306" version="1.1" xmlns="http://www.w3.org/2000/svg" xmlns:xlink="http://www.w3.org/1999/xlink">
    <!-- Generator: Sketch 49.3 (51167) - http://www.bohemiancoding.com/sketch -->
    <title>Group 3</title>
    <desc>Created with Sketch.</desc>
    <defs>
        <polygon id="path-1" points="0 0 319.635545 0 319.635545 281.14991 0 281.14991"></polygon>
    </defs>
    <g id="会员H5页面" stroke="none" stroke-width="1" fill="none" fill-rule="evenodd">
        <g id="1.7_会员主页-无数据" transform="translate(-215.000000, -350.000000)">
            <g id="Group" transform="translate(0.000000, 129.000000)" fill="#FFFFFF">
                <rect id="Rectangle-7" x="0" y="0" width="750" height="1206"></rect>
            </g>
            <g id="Group-3" transform="translate(215.000000, 350.000000)">
                <g id="Page-1">
                    <mask id="mask-2" fill="white">
                        <use xlink:href="#path-1"></use>
                    </mask>
                    <g id="Clip-1"></g>
                    <path d="M207.377437,87.1605269 L177.569533,58.0807665 C176.732168,57.2472335 175.59588,56.7796886 174.411689,56.7796886 L118.716359,56.7796886 C114.42606,56.7796886 110.950132,60.2383713 110.950132,64.5075928 L110.950132,180.725078 C110.950132,183.179689 112.948695,185.170587 115.416719,185.170587 L200.918036,185.170587 C205.208335,185.170587 208.68618,181.708072 208.68618,177.440766 L208.68618,90.3049581 C208.68618,89.1245988 208.214802,87.9940599 207.377437,87.1605269 Z" id="Stroke-2" stroke="#D6D6D6" stroke-width="2" mask="url(#mask-2)"></path>
                    <path d="M175.86376,57.0247665 L175.86376,84.6003353 C175.86376,87.0549461 177.86424,89.0439281 180.330347,89.0439281 L208.501844,89.0439281" id="Stroke-3" stroke="#D6D6D6" stroke-width="2" mask="url(#mask-2)"></path>
                    <path d="M129.879377,145.112335 L189.755784,145.112335" id="Stroke-4" stroke="#F4C1C0" stroke-width="2" stroke-linecap="round" stroke-linejoin="round" mask="url(#mask-2)"></path>
                    <path d="M129.879377,161.455904 L189.755784,161.455904" id="Stroke-5" stroke="#F4C1C0" stroke-width="2" stroke-linecap="round" stroke-linejoin="round" mask="url(#mask-2)"></path>
                    <path d="M217.306443,218.304766 L319.635545,218.304766" id="Stroke-6" stroke="#DEDEDE" stroke-width="2" stroke-linecap="round" stroke-linejoin="round" mask="url(#mask-2)"></path>
                    <path d="M178.872719,218.304766 L206.360144,218.304766" id="Stroke-7" stroke="#DEDEDE" stroke-width="2" stroke-linecap="round" stroke-linejoin="round" mask="url(#mask-2)"></path>
                    <path d="M162.351329,218.304766 L169.893365,218.304766" id="Stroke-8" stroke="#DEDEDE" stroke-width="2" stroke-linecap="round" stroke-linejoin="round" mask="url(#mask-2)"></path>
                    <path d="M0,218.304766 L153.402635,218.304766" id="Stroke-9" stroke="#DEDEDE" stroke-width="2" stroke-linecap="round" stroke-linejoin="round" mask="url(#mask-2)"></path>
                    <g id="Group-13" mask="url(#mask-2)" stroke="#DEDEDE" stroke-linecap="round" stroke-linejoin="round">
                        <g transform="translate(34.491018, 3.117605)">
                            <path d="M12.1174611,116.021653 C12.1174611,118.842251 9.83147305,121.130156 7.00895808,121.130156 C4.18835928,121.130156 1.90045509,118.842251 1.90045509,116.021653 C1.90045509,113.199138 4.18835928,110.91315 7.00895808,110.91315 C9.83147305,110.91315 12.1174611,113.199138 12.1174611,116.021653 Z" id="Stroke-10"></path>
                            <path d="M121.58218,6.55789222 C121.58218,9.37849102 119.294275,11.6663952 116.473677,11.6663952 C113.651162,11.6663952 111.365174,9.37849102 111.365174,6.55789222 C111.365174,3.73537725 113.651162,1.44938922 116.473677,1.44938922 C119.294275,1.44938922 121.58218,3.73537725 121.58218,6.55789222 Z" id="Stroke-11"></path>
                            <path d="M260.356599,145.333078 C260.356599,148.155593 258.070611,150.441581 255.248096,150.441581 C252.427497,150.441581 250.139593,148.155593 250.139593,145.333078 C250.139593,142.510563 252.427497,140.224575 255.248096,140.224575 C258.070611,140.224575 260.356599,142.510563 260.356599,145.333078 Z" id="Stroke-12"></path>
                        </g>
                    </g>
                    <path d="M20.6110659,61.0937485 L29.149509,61.0937485" id="Stroke-14" stroke="#DEDEDE" stroke-linecap="round" stroke-linejoin="round" mask="url(#mask-2)"></path>
                    <path d="M24.8802874,56.8245269 L24.8802874,65.3629701" id="Stroke-15" stroke="#DEDEDE" stroke-linecap="round" stroke-linejoin="round" mask="url(#mask-2)"></path>
                    <g id="Group-18" mask="url(#mask-2)" stroke="#DEDEDE" stroke-linecap="round" stroke-linejoin="round">
                        <g transform="translate(65.149701, 89.345150)">
                            <path d="M1.03492216,2.40651497 L5.3462994,2.40651497" id="Stroke-16"></path>
                            <path d="M3.18965269,0.251592814 L3.18965269,4.56105389" id="Stroke-17"></path>
                        </g>
                    </g>
                    <path d="M21.5522874,158.067162 L29.5791138,158.067162" id="Stroke-19" stroke="#DEDEDE" stroke-linecap="round" stroke-linejoin="round" mask="url(#mask-2)"></path>
                    <path d="M25.5660838,154.053174 L25.5660838,162.08" id="Stroke-20" stroke="#DEDEDE" stroke-linecap="round" stroke-linejoin="round" mask="url(#mask-2)"></path>
                    <g id="Group-23" mask="url(#mask-2)" stroke="#DEDEDE" stroke-linecap="round" stroke-linejoin="round">
                        <g transform="translate(63.233533, 177.488862)">
                            <path d="M1.35856287,6.06850299 L9.89508982,6.06850299" id="Stroke-21"></path>
                            <path d="M5.62701796,1.80023952 L5.62701796,10.3386826" id="Stroke-22"></path>
                        </g>
                    </g>
                    <path d="M282.158563,199.229126 L288.847904,199.229126" id="Stroke-24" stroke="#DEDEDE" stroke-linecap="round" stroke-linejoin="round" mask="url(#mask-2)"></path>
                    <path d="M285.502467,195.885222 L285.502467,202.574563" id="Stroke-25" stroke="#DEDEDE" stroke-linecap="round" stroke-linejoin="round" mask="url(#mask-2)"></path>
                    <g id="Group-28" mask="url(#mask-2)" stroke="#DEDEDE" stroke-linecap="round" stroke-linejoin="round">
                        <g transform="translate(63.233533, 22.279281)">
                            <path d="M1.44,2.29978443 L5.75137725,2.29978443" id="Stroke-26"></path>
                            <path d="M3.59568862,0.145053892 L3.59568862,4.45451497" id="Stroke-27"></path>
                        </g>
                    </g>
                    <path d="M89.8261078,42.9192814 L97.8529341,42.9192814" id="Stroke-29" stroke="#DEDEDE" stroke-linecap="round" stroke-linejoin="round" mask="url(#mask-2)"></path>
                    <path d="M93.8399042,38.9062515 L93.8399042,46.9330778" id="Stroke-30" stroke="#DEDEDE" stroke-linecap="round" stroke-linejoin="round" mask="url(#mask-2)"></path>
                    <g id="Group-33" mask="url(#mask-2)" stroke="#DEDEDE" stroke-linecap="round" stroke-linejoin="round">
                        <g transform="translate(189.700599, -0.714731)">
                            <path d="M0.345293413,5.6868024 L8.37211976,5.6868024" id="Stroke-31"></path>
                            <path d="M4.35908982,1.67281437 L4.35908982,9.69964072" id="Stroke-32"></path>
                        </g>
                    </g>
                    <path d="M252.063234,30.2704671 L257.198563,30.2704671" id="Stroke-34" stroke="#DEDEDE" stroke-linecap="round" stroke-linejoin="round" mask="url(#mask-2)"></path>
                    <path d="M254.630515,27.7031856 L254.630515,32.838515" id="Stroke-35" stroke="#DEDEDE" stroke-linecap="round" stroke-linejoin="round" mask="url(#mask-2)"></path>
                    <g id="Group-38" mask="url(#mask-2)" stroke="#DEDEDE" stroke-linecap="round" stroke-linejoin="round">
                        <g transform="translate(289.341317, 102.758323)">
                            <path d="M1.65518563,4.13643114 L9.68201198,4.13643114" id="Stroke-36"></path>
                            <path d="M5.66898204,0.123592814 L5.66898204,8.15041916" id="Stroke-37"></path>
                        </g>
                    </g>
                </g>
                <g id="Group-2" transform="translate(104.000000, 273.000000)" fill="#C4C4C4">
                    <path d="M14.028,17.232 L14.028,18.884 C12.712,18.996 11.34,19.136 9.912,19.276 L9.912,21.432 L8.064,21.432 L8.064,19.416 C6.216,19.528 4.256,19.668 2.24,19.78 L1.988,17.988 C4.116,17.876 6.16,17.792 8.064,17.68 L8.064,15.356 L2.856,15.356 L2.408,13.76 C3.192,12.864 3.948,11.8 4.62,10.54 L1.624,10.54 L1.624,8.748 L5.516,8.748 C5.768,8.132 6.02,7.516 6.244,6.9 L8.26,7.236 C8.064,7.74 7.868,8.244 7.644,8.748 L14.476,8.748 L14.476,10.54 L6.804,10.54 C6.188,11.716 5.516,12.78 4.816,13.704 L8.064,13.704 L8.064,11.856 L9.912,11.856 L9.912,13.704 L14.28,13.704 L14.28,15.356 L9.912,15.356 L9.912,17.568 C11.368,17.456 12.74,17.344 14.028,17.232 Z M17.948,15.384 C17.64,17.736 16.884,19.78 15.68,21.516 L14.28,20.06 C15.512,18.24 16.184,16.084 16.24,13.564 L16.24,9.168 C19.712,8.832 22.456,8.216 24.416,7.32 L25.704,8.832 C23.632,9.728 21.112,10.372 18.088,10.708 L18.088,13.62 L26.488,13.62 L26.488,15.384 L23.52,15.384 L23.52,21.46 L21.588,21.46 L21.588,15.384 L17.948,15.384 Z M23.352,22.272 L23.352,32.8 L21.28,32.8 L21.28,31.708 L7.056,31.708 L7.056,32.8 L4.984,32.8 L4.984,22.272 L23.352,22.272 Z M7.056,29.972 L21.28,29.972 L21.28,27.788 L7.056,27.788 L7.056,29.972 Z M7.056,26.164 L21.28,26.164 L21.28,23.98 L7.056,23.98 L7.056,26.164 Z M31.7823333,8.636 L51.8863333,8.636 L51.8863333,10.596 L41.8623333,10.596 L41.8623333,12.472 C41.8063333,14.208 41.6943333,15.86 41.4983333,17.372 L54.1543333,17.372 L54.1543333,19.304 L45.4743333,19.304 L45.4743333,29.076 C45.4743333,29.972 45.9223333,30.448 46.8183333,30.448 L50.3743333,30.448 C51.0463333,30.448 51.5503333,30.252 51.8583333,29.888 C52.2503333,29.44 52.5023333,28.152 52.6423333,25.968 L54.5463333,26.584 C54.3223333,29.328 53.9023333,30.98 53.2863333,31.596 C52.7543333,32.1 51.9143333,32.352 50.7383333,32.352 L46.2023333,32.352 C44.3543333,32.352 43.4583333,31.4 43.4583333,29.496 L43.4583333,19.304 L41.1903333,19.304 C40.7423333,21.74 40.0423333,23.84 39.0903333,25.632 C37.3543333,28.656 34.5543333,31.036 30.6623333,32.716 L29.5423333,30.924 C33.4063333,29.188 36.0663333,26.92 37.5783333,24.064 C38.2503333,22.664 38.7543333,21.068 39.1183333,19.304 L29.9063333,19.304 L29.9063333,17.372 L39.4543333,17.372 C39.6783333,15.86 39.7903333,14.208 39.8183333,12.472 L39.8183333,10.596 L31.7823333,10.596 L31.7823333,8.636 Z M74.5406667,13.34 L74.1766667,14.796 C74.8766667,18.072 75.7726667,20.9 76.8926667,23.252 C77.9846667,20.424 78.5726667,17.12 78.6846667,13.34 L74.5406667,13.34 Z M75.9686667,25.268 C74.8766667,23.112 73.9526667,20.648 73.1966667,17.848 C72.6926667,19.136 72.1326667,20.284 71.5446667,21.292 L70.2846667,19.752 C71.9366667,16.616 73.0566667,12.388 73.6166667,7.068 L75.5766667,7.404 C75.4086667,8.832 75.1846667,10.176 74.9606667,11.408 L82.3526667,11.408 L82.3526667,13.34 L80.5326667,13.34 C80.3926667,18.016 79.5246667,22.02 77.9566667,25.324 C79.4126667,27.844 81.1206667,29.776 83.1366667,31.148 L82.0446667,32.8 C80.0846667,31.4 78.4046667,29.496 77.0046667,27.144 C75.6606667,29.384 73.9246667,31.26 71.8246667,32.772 L70.7886667,31.092 C72.9726667,29.58 74.6806667,27.648 75.9686667,25.268 Z M62.6966667,20.144 L64.5726667,20.368 C64.3766667,20.9 64.1806667,21.404 64.0126667,21.908 L69.8646667,21.908 L69.8646667,23.56 C69.2486667,25.408 68.2126667,27.004 66.7566667,28.348 C68.1006667,28.964 69.3886667,29.58 70.6206667,30.252 L69.5286667,31.82 C68.2966667,31.092 66.8686667,30.336 65.2166667,29.608 C63.3686667,30.896 61.0446667,31.932 58.2446667,32.716 L57.2926667,31.036 C59.5886667,30.42 61.5766667,29.664 63.2006667,28.74 C61.9686667,28.208 60.6806667,27.676 59.3086667,27.172 C60.0366667,25.94 60.6806667,24.792 61.2406667,23.672 L57.9366667,23.672 L57.9366667,21.908 L62.0246667,21.908 C62.2766667,21.292 62.5006667,20.704 62.6966667,20.144 Z M64.9086667,27.564 C66.3086667,26.444 67.3726667,25.128 68.0446667,23.672 L63.2286667,23.672 C62.7806667,24.624 62.2766667,25.52 61.7166667,26.36 C62.8366667,26.752 63.9006667,27.144 64.9086667,27.564 Z M60.1486667,7.656 C60.8206667,8.748 61.3806667,9.924 61.8846667,11.156 L60.4286667,11.828 C59.8406667,10.456 59.2246667,9.252 58.5526667,8.188 L60.1486667,7.656 Z M68.6606667,7.572 L70.1166667,8.244 C69.5566667,9.476 68.8566667,10.68 67.9606667,11.856 L66.5326667,11.128 C67.4286667,9.924 68.1566667,8.748 68.6606667,7.572 Z M57.9926667,12.5 L63.4526667,12.5 L63.4526667,7.152 L65.3286667,7.152 L65.3286667,12.5 L70.4246667,12.5 L70.4246667,14.264 L65.3286667,14.264 L65.3286667,14.572 C66.8406667,15.328 68.4086667,16.196 69.9766667,17.148 L68.9406667,18.716 C67.5406667,17.596 66.3366667,16.7 65.3286667,16.028 L65.3286667,19.668 L63.4526667,19.668 L63.4526667,14.348 C62.5286667,16.56 60.8486667,18.464 58.4406667,20.088 L57.4606667,18.464 C59.6166667,17.204 61.1286667,15.804 61.9686667,14.264 L57.9926667,14.264 L57.9926667,12.5 Z M88.767,32.548 L86.387,32.548 L85.967,30.644 C86.695,30.728 87.423,30.784 88.095,30.784 C88.795,30.784 89.159,30.364 89.159,29.58 L89.159,22.72 C88.039,23.14 86.947,23.532 85.855,23.868 L85.351,21.908 C86.639,21.6 87.927,21.208 89.159,20.76 L89.159,14.432 L85.799,14.432 L85.799,12.5 L89.159,12.5 L89.159,7.208 L91.119,7.208 L91.119,12.5 L93.807,12.5 L93.807,14.432 L91.119,14.432 L91.119,19.948 C92.015,19.556 92.883,19.136 93.723,18.688 L93.723,20.676 C92.855,21.124 91.987,21.516 91.119,21.908 L91.119,30.084 C91.119,31.708 90.335,32.548 88.767,32.548 Z M97.139,20.172 C96.803,24.96 95.711,29.16 93.863,32.8 L92.295,31.4 C94.283,27.704 95.291,22.888 95.319,17.008 L95.319,8.244 L110.075,8.244 L110.075,15.048 L104.811,15.048 L104.811,18.352 L110.803,18.352 L110.803,20.172 L104.811,20.172 L104.811,23.616 L109.515,23.616 L109.515,32.8 L107.639,32.8 L107.639,31.428 L100.051,31.428 L100.051,32.8 L98.175,32.8 L98.175,23.616 L102.851,23.616 L102.851,20.172 L97.139,20.172 Z M102.851,15.048 L97.279,15.048 L97.279,17.008 C97.279,17.456 97.251,17.904 97.251,18.352 L102.851,18.352 L102.851,15.048 Z M100.051,29.636 L107.639,29.636 L107.639,25.408 L100.051,25.408 L100.051,29.636 Z M108.115,10.12 L97.279,10.12 L97.279,13.228 L108.115,13.228 L108.115,10.12 Z" id="暂无数据"></path>
                </g>
            </g>
        </g>
    </g>
</svg>