<?xml version="1.0" encoding="UTF-8"?>
<svg width="329px" height="311px" viewBox="0 0 329 311" version="1.1" xmlns="http://www.w3.org/2000/svg" xmlns:xlink="http://www.w3.org/1999/xlink">
    <!-- Generator: Sketch 49.3 (51167) - http://www.bohemiancoding.com/sketch -->
    <title>Group 3</title>
    <desc>Created with Sketch.</desc>
    <defs></defs>
    <g id="会员H5页面" stroke="none" stroke-width="1" fill="none" fill-rule="evenodd">
        <g id="1.6_会员主页-无网络" transform="translate(-211.000000, -345.000000)">
            <g id="Group" transform="translate(0.000000, 129.000000)" fill="#FFFFFF">
                <rect id="Rectangle-7" x="0" y="0" width="750" height="1206"></rect>
            </g>
            <g id="Group-3" transform="translate(212.000000, 345.000000)">
                <g id="Page-1">
                    <g id="Group-52" transform="translate(0.000000, 0.757778)">
                        <path d="M140.486837,145.083634 C140.181375,142.146508 139.31786,139.399317 138.021609,136.920383 C132.654501,141.66482 129.586184,148.762874 130.373334,156.34849 C130.678795,159.285616 131.54231,162.034766 132.838561,164.511742 C138.205669,159.769263 141.273986,152.671209 140.486837,145.083634 Z" id="Stroke-2" stroke="#F4C1C0" stroke-width="2" stroke-linecap="round" stroke-linejoin="round"></path>
                        <path d="M137.890026,136.954062 C136.96581,136.770002 136.012223,136.674056 135.033181,136.674056 C127.138187,136.674056 120.737211,142.947756 120.737211,150.686104 C120.737211,157.694086 125.988792,163.501762 132.846002,164.533672" id="Stroke-3" stroke="#F4C1C0" stroke-width="2" stroke-linejoin="round"></path>
                        <path d="M104.028882,100.864227 C87.7963671,103.717155 77.2285886,109.256574 76.1379359,116.832401 C74.9376305,125.160131 85.4270856,134.231934 103.002846,141.843005" id="Stroke-4" stroke="#F4C1C0" stroke-width="2"></path>
                        <path d="M222.079994,157.037736 C238.606222,154.212221 249.385473,148.635598 250.489832,140.977532 C251.486497,134.071371 244.437395,126.652191 231.97615,119.977083" id="Stroke-5" stroke="#F4C1C0" stroke-width="2"></path>
                        <path d="M161.379395,149.684348 L168.324719,151.485785" id="Stroke-6" stroke="#F4C1C0" stroke-width="2" stroke-linecap="round" stroke-linejoin="round"></path>
                        <path d="M135.350587,147.187008 L136.795653,147.576666" id="Stroke-7" stroke="#F4C1C0" stroke-width="2" stroke-linecap="round" stroke-linejoin="round"></path>
                        <path d="M134.17652,153.893053 L135.621586,154.282712" id="Stroke-8" stroke="#F4C1C0" stroke-width="2" stroke-linecap="round" stroke-linejoin="round"></path>
                        <path d="M159.973883,160.15853 L167.122847,160.828195" id="Stroke-9" stroke="#F4C1C0" stroke-width="2" stroke-linecap="round" stroke-linejoin="round"></path>
                        <path d="M187.520989,156.790038 C187.520989,149.658697 181.623241,143.880392 174.347001,143.880392 C174.254971,143.880392 174.162941,143.89214 174.068953,143.894098 C170.35251,148.291954 168.120295,153.93711 168.120295,160.093326 C168.120295,163.173392 168.680307,166.12814 169.702426,168.859667 C171.151408,169.394224 172.712001,169.701643 174.347001,169.701643 C181.623241,169.701643 187.520989,163.92138 187.520989,156.790038 Z" id="Stroke-10" stroke="#F4C1C0" stroke-width="2"></path>
                        <path d="M201.000047,88.5335856 C201.000047,93.0097653 197.29731,96.6400527 192.729101,96.6400527 C188.160891,96.6400527 184.458154,93.0097653 184.458154,88.5335856 C184.458154,84.0554479 188.160891,80.4251605 192.729101,80.4251605 C197.29731,80.4251605 201.000047,84.0554479 201.000047,88.5335856 Z" id="Stroke-11" stroke="#D6D6D6" stroke-width="2"></path>
                        <path d="M213.867203,128.466747 C213.867203,134.767861 208.656742,139.876502 202.226395,139.876502 C195.796047,139.876502 190.583628,134.767861 190.583628,128.466747 C190.583628,122.165634 195.796047,117.056993 202.226395,117.056993 C208.656742,117.056993 213.867203,122.165634 213.867203,128.466747 Z" id="Stroke-12" stroke="#D6D6D6" stroke-width="2"></path>
                        <path d="M167.148498,176.358541 C167.148498,178.845307 165.090551,180.862134 162.552875,180.862134 C160.01324,180.862134 157.95921,178.845307 157.95921,176.358541 C157.95921,173.869816 160.01324,171.854948 162.552875,171.854948 C165.090551,171.854948 167.148498,173.869816 167.148498,176.358541 Z" id="Stroke-13" stroke="#D6D6D6" stroke-width="2"></path>
                        <path d="M166.077622,58.2071749 C129.645514,58.2071749 100.111735,87.1535281 100.111735,122.863103 C100.111735,126.898714 100.491604,130.846211 101.212178,134.678181 C106.878873,164.7426 133.761406,187.517073 166.077622,187.517073 C192.243496,187.517073 214.851532,172.584726 225.513298,150.940067 C229.697723,142.447857 232.043508,132.923738 232.043508,122.863103 C232.043508,87.1535281 202.509729,58.2071749 166.077622,58.2071749 Z" id="Stroke-14" stroke="#D6D6D6" stroke-width="2"></path>
                        <path d="M120.75875,148.289409 C114.277493,146.31566 108.317086,144.146104 103.002846,141.843397" id="Stroke-15" stroke="#F4C1C0" stroke-width="2"></path>
                        <path d="M76.1377401,116.832009 C74.9374347,125.15974 85.4268898,134.231542 103.00265,141.842614" id="Stroke-16" stroke="#F4C1C0" stroke-width="2"></path>
                        <path d="M222.079994,157.037736 C238.606222,154.212221 249.385473,148.635598 250.489832,140.977532" id="Stroke-17" stroke="#F4C1C0" stroke-width="2"></path>
                        <path d="M222.079994,157.037736 C212.477551,158.67861 200.930731,159.391353 188.214934,159.042814" id="Stroke-18" stroke="#F4C1C0" stroke-width="2"></path>
                        <path d="M222.059043,222.321817 L326.626593,222.321817" id="Stroke-19" stroke="#DEDEDE" stroke-width="2" stroke-linecap="round" stroke-linejoin="round"></path>
                        <path d="M182.784384,222.321817 L210.873097,222.321817" id="Stroke-20" stroke="#DEDEDE" stroke-width="2" stroke-linecap="round" stroke-linejoin="round"></path>
                        <path d="M165.903548,222.321817 L173.610566,222.321817" id="Stroke-21" stroke="#DEDEDE" stroke-width="2" stroke-linecap="round" stroke-linejoin="round"></path>
                        <path d="M0,222.321817 L156.758317,222.321817" id="Stroke-22" stroke="#DEDEDE" stroke-width="2" stroke-linecap="round" stroke-linejoin="round"></path>
                        <g id="Group-26" transform="translate(35.245509, 1.958084)" stroke="#DEDEDE" stroke-linecap="round" stroke-linejoin="round">
                            <path d="M12.3833138,119.028196 C12.3833138,121.912453 10.0453617,124.248447 7.16306228,124.248447 C4.27880479,124.248447 1.94281078,121.912453 1.94281078,119.028196 C1.94281078,116.145896 4.27880479,113.807944 7.16306228,113.807944 C10.0453617,113.807944 12.3833138,116.145896 12.3833138,119.028196 Z" id="Stroke-23"></path>
                            <path d="M124.240811,7.1706988 C124.240811,10.0529982 121.904817,12.3909503 119.020559,12.3909503 C116.13826,12.3909503 113.800308,10.0529982 113.800308,7.1706988 C113.800308,4.28644132 116.13826,1.95044731 119.020559,1.95044731 C121.904817,1.95044731 124.240811,4.28644132 124.240811,7.1706988 Z" id="Stroke-24"></path>
                            <path d="M266.052683,148.981592 C266.052683,151.863891 263.716689,154.201843 260.832431,154.201843 C257.948174,154.201843 255.61218,151.863891 255.61218,148.981592 C255.61218,146.099292 257.948174,143.76134 260.832431,143.76134 C263.716689,143.76134 266.052683,146.099292 266.052683,148.981592 Z" id="Stroke-25"></path>
                        </g>
                        <path d="M21.0627162,61.6720042 L29.7859796,61.6720042" id="Stroke-27" stroke="#DEDEDE" stroke-linecap="round" stroke-linejoin="round"></path>
                        <path d="M25.4245437,57.3093934 L25.4245437,66.034615" id="Stroke-28" stroke="#DEDEDE" stroke-linecap="round" stroke-linejoin="round"></path>
                        <g id="Group-31" transform="translate(66.574850, 90.071856)" stroke="#DEDEDE" stroke-linecap="round" stroke-linejoin="round">
                            <path d="M1.05736527,2.92851018 L5.46109581,2.92851018" id="Stroke-29"></path>
                            <path d="M3.26020958,0.72664491 L3.26020958,5.13037545" id="Stroke-30"></path>
                        </g>
                        <path d="M22.0245269,160.766515 L30.224982,160.766515" id="Stroke-32" stroke="#DEDEDE" stroke-linecap="round" stroke-linejoin="round"></path>
                        <path d="M26.1243629,156.664917 L26.1243629,164.86733" id="Stroke-33" stroke="#DEDEDE" stroke-linecap="round" stroke-linejoin="round"></path>
                        <g id="Group-36" transform="translate(64.616766, 182.101796)" stroke="#DEDEDE" stroke-linecap="round" stroke-linejoin="round">
                            <path d="M1.38828144,4.7134994 L10.1115449,4.7134994" id="Stroke-34"></path>
                            <path d="M5.74991317,0.350888623 L5.74991317,9.07611018" id="Stroke-35"></path>
                        </g>
                        <path d="M288.329802,202.829876 L295.165473,202.829876" id="Stroke-37" stroke="#DEDEDE" stroke-linecap="round" stroke-linejoin="round"></path>
                        <path d="M291.748813,199.411845 L291.748813,206.247516" id="Stroke-38" stroke="#DEDEDE" stroke-linecap="round" stroke-linejoin="round"></path>
                        <g id="Group-41" transform="translate(64.616766, 21.538922)" stroke="#DEDEDE" stroke-linecap="round" stroke-linejoin="round">
                            <path d="M1.47247904,2.81944491 L5.87620958,2.81944491" id="Stroke-39"></path>
                            <path d="M3.67336527,0.617579641 L3.67336527,5.02131018" id="Stroke-40"></path>
                        </g>
                        <path d="M91.7908581,43.0997749 L99.9932713,43.0997749" id="Stroke-42" stroke="#DEDEDE" stroke-linecap="round" stroke-linejoin="round"></path>
                        <path d="M95.8926521,38.9981766 L95.8926521,47.2005898" id="Stroke-43" stroke="#DEDEDE" stroke-linecap="round" stroke-linejoin="round"></path>
                        <g id="Group-46" transform="translate(193.850299, 0.000000)" stroke="#DEDEDE" stroke-linecap="round" stroke-linejoin="round">
                            <path d="M0.353825749,4.32247006 L8.55623892,4.32247006" id="Stroke-44"></path>
                            <path d="M4.45542395,0.220871856 L4.45542395,8.42328503" id="Stroke-45"></path>
                        </g>
                        <path d="M257.575942,30.1744635 L262.823607,30.1744635" id="Stroke-47" stroke="#DEDEDE" stroke-linecap="round" stroke-linejoin="round"></path>
                        <path d="M260.199578,27.5508269 L260.199578,32.7984916" id="Stroke-48" stroke="#DEDEDE" stroke-linecap="round" stroke-linejoin="round"></path>
                        <g id="Group-51" transform="translate(295.670659, 103.778443)" stroke="#DEDEDE" stroke-linecap="round" stroke-linejoin="round">
                            <path d="M1.69237186,4.69626826 L9.89282695,4.69626826" id="Stroke-49"></path>
                            <path d="M5.79201198,0.59467006 L5.79201198,8.79708323" id="Stroke-50"></path>
                        </g>
                    </g>
                </g>
                <g id="Group-2" transform="translate(108.000000, 284.000000)" fill="#C4C4C4">
                    <path d="M13.028,11.232 L13.028,12.884 C11.712,12.996 10.34,13.136 8.912,13.276 L8.912,15.432 L7.064,15.432 L7.064,13.416 C5.216,13.528 3.256,13.668 1.24,13.78 L0.988,11.988 C3.116,11.876 5.16,11.792 7.064,11.68 L7.064,9.356 L1.856,9.356 L1.408,7.76 C2.192,6.864 2.948,5.8 3.62,4.54 L0.624,4.54 L0.624,2.748 L4.516,2.748 C4.768,2.132 5.02,1.516 5.244,0.9 L7.26,1.236 C7.064,1.74 6.868,2.244 6.644,2.748 L13.476,2.748 L13.476,4.54 L5.804,4.54 C5.188,5.716 4.516,6.78 3.816,7.704 L7.064,7.704 L7.064,5.856 L8.912,5.856 L8.912,7.704 L13.28,7.704 L13.28,9.356 L8.912,9.356 L8.912,11.568 C10.368,11.456 11.74,11.344 13.028,11.232 Z M16.948,9.384 C16.64,11.736 15.884,13.78 14.68,15.516 L13.28,14.06 C14.512,12.24 15.184,10.084 15.24,7.564 L15.24,3.168 C18.712,2.832 21.456,2.216 23.416,1.32 L24.704,2.832 C22.632,3.728 20.112,4.372 17.088,4.708 L17.088,7.62 L25.488,7.62 L25.488,9.384 L22.52,9.384 L22.52,15.46 L20.588,15.46 L20.588,9.384 L16.948,9.384 Z M22.352,16.272 L22.352,26.8 L20.28,26.8 L20.28,25.708 L6.056,25.708 L6.056,26.8 L3.984,26.8 L3.984,16.272 L22.352,16.272 Z M6.056,23.972 L20.28,23.972 L20.28,21.788 L6.056,21.788 L6.056,23.972 Z M6.056,20.164 L20.28,20.164 L20.28,17.98 L6.056,17.98 L6.056,20.164 Z M30.7823333,2.636 L50.8863333,2.636 L50.8863333,4.596 L40.8623333,4.596 L40.8623333,6.472 C40.8063333,8.208 40.6943333,9.86 40.4983333,11.372 L53.1543333,11.372 L53.1543333,13.304 L44.4743333,13.304 L44.4743333,23.076 C44.4743333,23.972 44.9223333,24.448 45.8183333,24.448 L49.3743333,24.448 C50.0463333,24.448 50.5503333,24.252 50.8583333,23.888 C51.2503333,23.44 51.5023333,22.152 51.6423333,19.968 L53.5463333,20.584 C53.3223333,23.328 52.9023333,24.98 52.2863333,25.596 C51.7543333,26.1 50.9143333,26.352 49.7383333,26.352 L45.2023333,26.352 C43.3543333,26.352 42.4583333,25.4 42.4583333,23.496 L42.4583333,13.304 L40.1903333,13.304 C39.7423333,15.74 39.0423333,17.84 38.0903333,19.632 C36.3543333,22.656 33.5543333,25.036 29.6623333,26.716 L28.5423333,24.924 C32.4063333,23.188 35.0663333,20.92 36.5783333,18.064 C37.2503333,16.664 37.7543333,15.068 38.1183333,13.304 L28.9063333,13.304 L28.9063333,11.372 L38.4543333,11.372 C38.6783333,9.86 38.7903333,8.208 38.8183333,6.472 L38.8183333,4.596 L30.7823333,4.596 L30.7823333,2.636 Z M68.3046667,20.444 C67.4086667,19.016 66.5126667,17.672 65.6446667,16.412 C64.6366667,19.156 63.4046667,21.508 61.9766667,23.468 L60.6886667,21.9 C62.1446667,19.828 63.3486667,17.364 64.3006667,14.536 C62.9566667,12.744 61.6406667,11.12 60.3526667,9.636 L61.6126667,8.432 C62.6486667,9.524 63.7686667,10.84 64.9446667,12.408 C65.4766667,10.448 65.9246667,8.32 66.2606667,6.08 L68.1086667,6.416 C67.6606667,9.3 67.0726667,11.932 66.3446667,14.312 C67.4086667,15.768 68.5286667,17.364 69.6486667,19.1 L68.3046667,20.444 Z M76.5086667,21.732 C75.5566667,20.08 74.6046667,18.54 73.6806667,17.084 C72.5606667,19.828 71.2446667,22.18 69.7326667,24.14 L68.4446667,22.6 C70.0126667,20.472 71.3286667,17.98 72.3646667,15.124 C71.0766667,13.22 69.8166667,11.484 68.5286667,9.916 L69.7886667,8.712 C70.7966667,9.86 71.9166667,11.26 73.0926667,12.94 C73.7086667,10.84 74.1846667,8.572 74.5766667,6.164 L76.4806667,6.5 C75.9766667,9.608 75.3046667,12.408 74.4646667,14.928 C75.5286667,16.552 76.6766667,18.372 77.8806667,20.388 L76.5086667,21.732 Z M77.7966667,26.632 L74.9686667,26.632 L74.4366667,24.672 L77.1246667,24.756 C77.9086667,24.756 78.3006667,24.364 78.3006667,23.608 L78.3006667,4.204 L59.9326667,4.204 L59.9326667,26.744 L57.9446667,26.744 L57.9446667,2.272 L80.2886667,2.272 L80.2886667,24.056 C80.2886667,25.764 79.4486667,26.632 77.7966667,26.632 Z M94.459,21.228 L94.459,23.132 C91.715,24.196 88.607,25.036 85.079,25.708 L84.827,23.72 C88.495,23.104 91.715,22.264 94.459,21.228 Z M89.447,1.068 L91.323,1.796 C89.923,5.408 88.523,8.292 87.123,10.42 C88.327,10.252 89.531,10.056 90.763,9.832 C91.239,8.88 91.743,7.872 92.247,6.836 L93.983,7.48 C91.575,12.212 89.587,15.572 88.019,17.588 C89.979,17.168 91.939,16.608 93.927,15.88 L93.927,17.7 C91.043,18.708 88.299,19.408 85.667,19.772 L85.135,17.952 C85.499,17.784 85.807,17.588 86.031,17.364 C87.039,16.244 88.299,14.368 89.783,11.68 C88.271,11.96 86.759,12.212 85.219,12.436 L84.715,10.588 C85.023,10.448 85.303,10.196 85.555,9.832 C87.039,7.284 88.327,4.372 89.447,1.068 Z M107.647,16.3 L107.647,26.632 L105.715,26.632 L105.715,25.428 L98.071,25.428 L98.071,26.632 L96.139,26.632 L96.139,16.3 L107.647,16.3 Z M98.071,23.58 L105.715,23.58 L105.715,18.148 L98.071,18.148 L98.071,23.58 Z M98.911,1.068 L100.843,1.432 C100.619,2.216 100.339,2.944 100.059,3.644 L107.647,3.644 L107.647,5.1 C106.611,7.424 105.127,9.468 103.195,11.232 C105.155,12.66 107.535,13.78 110.279,14.564 L109.131,16.216 C106.191,15.32 103.727,14.088 101.711,12.464 C99.695,13.976 97.287,15.292 94.543,16.356 L93.311,14.732 C95.999,13.724 98.323,12.548 100.255,11.148 C99.191,10.084 98.295,8.908 97.539,7.676 C96.783,8.572 95.943,9.412 95.019,10.168 L93.843,8.6 C96.335,6.556 98.015,4.036 98.911,1.068 Z M98.631,6.248 C99.471,7.648 100.479,8.908 101.683,10 C103.279,8.628 104.539,7.116 105.463,5.436 L99.135,5.436 C98.967,5.716 98.799,5.996 98.631,6.248 Z" id="暂无网络"></path>
                </g>
            </g>
        </g>
    </g>
</svg>