<?xml version="1.0" encoding="UTF-8"?>
<svg width="40px" height="40px" viewBox="0 0 40 40" version="1.1" xmlns="http://www.w3.org/2000/svg" xmlns:xlink="http://www.w3.org/1999/xlink">
    <!-- Generator: Sketch 52.2 (67145) - http://www.bohemiancoding.com/sketch -->
    <title>user</title>
    <desc>Created with Sketch.</desc>
    <g id="Page-1" stroke="none" stroke-width="1" fill="none" fill-rule="evenodd">
        <g id="user" fill="#046FDB" fill-rule="nonzero">
            <path d="M27.8346113,18.0373273 L36.1901669,20.5906607 C37.0115022,20.8406552 37.6153591,21.541406 37.741278,22.3906607 L39.9657225,37.4528829 C40.0600221,38.0918494 39.8716563,38.7402285 39.4496692,39.2292044 C39.0276821,39.7181804 38.4138321,39.9993658 37.7679447,39.9995496 L2.22350023,39.9995496 C1.57767407,39.9999166 0.963636372,39.7193079 0.541233846,39.2307717 C0.11883132,38.7422354 -0.0701446715,38.0941061 0.0235002302,37.4551051 L2.23683356,22.3928829 C2.35168389,21.61523 2.86883443,20.9561165 3.59683356,20.6595496 L10.2635002,17.9417718 C11.393108,17.5078451 12.4891267,17.787932 12.9454189,18.9086922 C13.4017112,20.0294525 12.5405974,21.0850247 11.4291274,21.5635023 L5.61218702,23.4918727 L3.59683356,36.3269642 L36.1901669,36.3269642 L34.3474215,23.4918727 L26.2342247,21.2128829 C25.8861483,21.1067305 25.569467,20.9167217 25.3120025,20.6595496 L22.431509,17.4736218 C17.1776892,18.2004399 12.6292986,15.5692093 11.4291274,11.290998 C10.2289563,7.01278682 12.3723044,2.5055045 16.4482331,0.736237214 C20.5241619,-1.03303007 25.2804722,0.479268651 27.5861459,4.27760654 C29.8918197,8.07594443 29.0385121,12.9934032 25.5879447,15.7928829 L27.8346113,18.0373273 Z M19.9901669,14.3328829 C22.9970505,14.3328829 25.4346113,11.8953221 25.4346113,8.88843845 C25.4346113,5.88155481 22.9970505,3.443994 19.9901669,3.443994 C16.9832833,3.44399406 14.5457225,5.88155485 14.5457225,8.88843845 C14.5457225,11.895322 16.9832833,14.3328828 19.9901669,14.3328829 Z" id="Shape"></path>
        </g>
    </g>
</svg>
