<?xml version="1.0" encoding="UTF-8"?>
<svg width="36px" height="36px" viewBox="0 0 36 36" version="1.1" xmlns="http://www.w3.org/2000/svg" xmlns:xlink="http://www.w3.org/1999/xlink">
    <!-- Generator: Sketch 49.3 (51167) - http://www.bohemiancoding.com/sketch -->
    <title>支付宝</title>
    <desc>Created with Sketch.</desc>
    <defs></defs>
    <g id="会员H5页面" stroke="none" stroke-width="1" fill="none" fill-rule="evenodd">
        <g id="支付宝" fill="#0094F6" fill-rule="nonzero">
            <path d="M35.98764,24.65432 L35.98764,6.94324 C35.98764,3.12536 32.88928,0.027 29.06916,0.027 L6.92864,0.027 C3.11076,0.027 0.0124,3.12536 0.0124,6.94324 L0.0124,29.08376 C0.0124,32.90164 3.10852,36 6.92864,36 L29.06916,36 C32.47104,36 35.30188,33.5402 35.87972,30.30464 C34.045,29.51096 26.09444,26.07756 21.9528,24.10112 C18.80048,27.919 15.49972,30.21016 10.52388,30.21016 C5.54804,30.21016 2.22708,27.14552 2.62504,23.39508 C2.88812,20.933 4.57668,16.90828 11.91112,17.59856 C15.7762,17.96056 17.54576,18.68232 20.69808,19.72336 C21.51428,18.22812 22.19108,16.58224 22.70596,14.83072 L8.72732,14.83072 L8.72732,13.44564 L15.64356,13.44564 L15.64356,10.95888 L7.20736,10.95888 L7.20736,9.43444 L15.64356,9.43444 L15.64356,5.84592 C15.64356,5.84592 15.72004,5.2838 16.34056,5.2838 L19.79864,5.2838 L19.79864,9.43444 L28.79244,9.43444 L28.79244,10.95888 L19.79864,10.95888 L19.79864,13.44564 L27.13536,13.44564 C26.4608,16.19096 25.43776,18.71376 24.15612,20.91724 C26.28764,21.68848 35.98748,24.6542 35.98748,24.6542 L35.98764,24.65432 Z M9.973,27.83588 C4.71612,27.83588 3.8842,24.51716 4.163,23.12984 C4.43956,21.74928 5.96176,19.94828 8.88476,19.94828 C12.24392,19.94828 15.25236,20.8072 18.8634,22.56548 C16.32716,25.86844 13.2108,27.83584 9.973,27.83584 L9.973,27.83588 Z" id="Shape"></path>
        </g>
    </g>
</svg>