<?xml version="1.0" encoding="UTF-8"?>
<svg width="36px" height="42px" viewBox="0 0 36 42" version="1.1" xmlns="http://www.w3.org/2000/svg" xmlns:xlink="http://www.w3.org/1999/xlink">
    <!-- Generator: Sketch 52.2 (67145) - http://www.bohemiancoding.com/sketch -->
    <title>Home</title>
    <desc>Created with Sketch.</desc>
    <g id="Page-1" stroke="none" stroke-width="1" fill="none" fill-rule="evenodd">
        <path d="M31.9366995,17.6489718 L31.9366995,38.5135424 L19.7047536,38.5135424 L3.37689479,38.5135424 L3.37689479,18.4999804 L17.6491774,3.90751085 L24.2038212,10.8715798 C25.0063182,11.674899 26.3967207,11.3741295 26.8992704,10.8715798 C27.4018201,10.3690301 27.7025895,9.20137581 26.8992704,8.39887886 L19.1028809,0.602489389 C18.3003839,-0.200829796 16.9979708,-0.200829796 16.1962961,0.602489389 L0.601872716,16.1960906 C0.216246618,16.5817167 0,17.103833 0,17.6497941 L0,39.4833024 C0,40.6188027 0.920075914,41.5388786 2.05557622,41.5388786 L33.244423,41.5388786 C34.3799233,41.5388786 35.2999992,40.6188027 35.2999992,39.4833024 L35.2999992,17.6489718 C35.299177,16.5134715 34.7065213,15.8700701 33.571021,15.8700701 C32.6179688,15.8700701 31.9366995,16.5134715 31.9366995,17.6489718 Z" id="Home" fill=" #9DA7AC"></path>
    </g>
</svg>
