<?xml version="1.0" encoding="UTF-8"?>
<svg width="36px" height="32px" viewBox="0 0 36 32" version="1.1" xmlns="http://www.w3.org/2000/svg" xmlns:xlink="http://www.w3.org/1999/xlink">
    <!-- Generator: Sketch 52.5 (67469) - http://www.bohemiancoding.com/sketch -->
    <title>xianxiamendian</title>
    <desc>Created with Sketch.</desc>
    <g id="Page-1" stroke="none" stroke-width="1" fill="none" fill-rule="evenodd">
        <g id="xianxiamendian" fill="#F27B67" fill-rule="nonzero">
            <path d="M32.5315966,5.10367338 L3.07825232,5.10367338 L0.0206476857,13.1042368 C0.0206476857,15.4991917 2.00818534,17.4864001 4.45408798,17.4864001 C6.89986716,17.4864001 8.93818794,15.5501394 8.93818794,13.1042368 C8.93818794,15.4991917 10.925561,17.4864001 13.3716282,17.4864001 C15.817572,17.4864001 17.8557282,15.5501394 17.8557282,13.1042368 C17.8557282,15.4991917 19.8431012,17.4864001 22.2890862,17.4864001 C24.7351534,17.4864001 26.7223619,15.5501394 26.7223619,13.1042368 C26.7223619,15.4991917 28.7096938,17.4864001 31.2066264,17.4864001 C33.6526937,17.4864001 35.6910556,15.5501394 35.6910556,13.1042368 L32.5315966,5.10367338 Z M30.0856528,23.053922 L5.6261327,23.053922 L5.6261327,18.8623181 L3.07825232,18.8623181 L3.07825232,29.5636462 C3.07825232,30.4807877 4.09737156,31.6016789 5.01451303,31.6016789 L30.6463659,31.6016789 C31.5635074,31.6016789 32.5826267,30.4807877 32.5826267,29.5636462 L32.5826267,18.8623181 L30.0856528,18.8623181 L30.0856528,23.053922 Z M32.5315966,5.05284911 L32.6335332,5.15284911 L32.5315966,5.05284911 Z M5.11624384,3.06564067 L30.5951712,3.06564067 C31.4614884,3.06564067 32.1239736,2.4031967 32.1239736,1.53671489 C32.1239736,0.670562288 31.4615296,0.00807717743 30.5951712,0.00807717743 L5.11624384,0.00807721765 C4.25009124,0.00807721765 3.58760613,0.670521187 3.58760613,1.53671493 C3.58764731,2.40319674 4.25009128,3.06564067 5.11624384,3.06564067 Z" id="形状"></path>
        </g>
    </g>
</svg>