<?xml version="1.0" encoding="UTF-8"?>
<svg width="106px" height="106px" viewBox="0 0 106 106" version="1.1" xmlns="http://www.w3.org/2000/svg" xmlns:xlink="http://www.w3.org/1999/xlink">
    <!-- Generator: Sketch 52.2 (67145) - http://www.bohemiancoding.com/sketch -->
    <title>Identity</title>
    <desc>Created with Sketch.</desc>
    <defs>
        <rect id="path-1" x="0" y="0" width="105.882353" height="105.882353" rx="52.9411765"></rect>
    </defs>
    <g id="Page-1" stroke="none" stroke-width="1" fill="none" fill-rule="evenodd">
        <g id="Identity">
            <mask id="mask-2" fill="white">
                <use xlink:href="#path-1"></use>
            </mask>
            <use id="Mask" fill="#B8E986" xlink:href="#path-1"></use>
            <g id="circle-image-small" mask="url(#mask-2)">
                <g transform="translate(-6.617647, -6.617647)">
                    <rect id="bkgd" fill="#FAFAFA" x="0" y="0" width="119.117647" height="119.117647" rx="59.5588235"></rect>
                    <g id="Group-18" stroke-width="1" fill="none" transform="translate(17.647059, 21.176471)">
                        <polygon id="Fill-210" fill="#FFFFFF" points="31.7647059 45.8823529 56.4705882 45.8823529 56.4705882 74.1176471 31.7647059 74.1176471"></polygon>
                        <path d="M42.3529412,56.4705882 C30.6582353,56.4705882 21.1764706,47.1551703 21.1764706,35.6656347 L21.1764706,27.8637771 C21.1764706,16.3742415 30.6582353,7.05882353 42.3529412,7.05882353 C54.0476471,7.05882353 63.5294118,16.3742415 63.5294118,27.8637771 L63.5294118,35.6656347 C63.5294118,47.1551703 54.0476471,56.4705882 42.3529412,56.4705882" id="Fill-211" fill="#FFFFFF"></path>
                        <path d="M81.1686851,74.7847059 L57.0934256,63.5294118 C57.0934256,63.5294118 51.9031142,68.8235294 44.1176471,68.8235294 C36.3321799,68.8235294 31.1418685,63.5294118 31.1418685,63.5294118 L7.066609,74.7847059 C3.1583045,76.6111765 0,81.6326471 0,86.0082353 L0,105.882353 L0,105.882353 L88.2352941,105.882353 L88.2352941,105.882353 L88.2352941,86.0082353 C88.2352941,81.6405882 85.0717993,76.6085294 81.1686851,74.7847059" id="Fill-212" fill="#E2CDB0"></path>
                        <path d="M52.9411765,20.9101169 C58.7885294,20.9101169 63.5294118,25.7702591 63.5294118,31.7647059 L63.5294118,18.1964697 C63.5294118,12.2264458 58.7885294,7.34188075 52.9385294,7.34188075 L51.6176471,7.34188075 L48.8382353,1.64322155 C48.1658824,0.264688755 46.5538235,-0.351309168 45.2038235,0.202274868 L28.5511765,7.03252496 C24.4747059,8.70413166 21.1764706,13.7026699 21.1764706,18.201897 L21.1764706,31.7647059 C21.1764706,25.7702591 25.9173529,20.9101169 31.7647059,20.9101169 L52.9411765,20.9101169 Z" id="Fill-213" fill="#E2CDB0"></path>
                    </g>
                </g>
            </g>
        </g>
    </g>
</svg>