<?xml version="1.0" encoding="UTF-8"?>
<svg width="105px" height="87px" viewBox="0 0 105 87" version="1.1" xmlns="http://www.w3.org/2000/svg" xmlns:xlink="http://www.w3.org/1999/xlink">
    <!-- Generator: Sketch 52.5 (67469) - http://www.bohemiancoding.com/sketch -->
    <title>分组 5</title>
    <desc>Created with Sketch.</desc>
    <defs>
        <rect id="path-1" x="0" y="0" width="115" height="95" rx="2"></rect>
    </defs>
    <g id="会员H5页面" stroke="none" stroke-width="1" fill="none" fill-rule="evenodd" opacity="0.5">
        <g id="分组-5" transform="translate(-10.000000, 0.000000)">
            <g id="分组-45">
                <mask id="mask-2" fill="white">
                    <use xlink:href="#path-1"></use>
                </mask>
                <g id="Mask" opacity="0" fill-rule="nonzero"></g>
                <g mask="url(#mask-2)">
                    <g transform="translate(0.000000, -65.000000)">
                        <g id="分组-41" stroke="none" stroke-width="1" fill="none" fill-rule="evenodd" transform="translate(12.000000, 0.000000)">
                            <path d="M73.1667534,146.852103 L66.6966208,149.126803 C64.0594764,150.053942 61.1296543,149.537336 58.9686494,147.764153 L53.666707,143.413718 C52.259402,142.258974 50.5003488,141.618731 48.6800352,141.598718 L41.822106,141.523322 C39.0269006,141.492591 36.4504582,140.005081 35.026242,137.599728 L31.5319822,131.698285 C30.604494,130.131854 29.1705006,128.92859 27.4668101,128.287201 L21.0482517,125.870801 C18.4321283,124.885907 16.5198227,122.60691 16.0041766,119.859507 L14.7390587,113.118857 C14.403256,111.329674 13.4672833,109.708521 12.0857061,108.523116 L6.88069137,104.057167 C4.75919306,102.236902 3.74167649,99.4412986 4.19679507,96.6832223 L5.31341104,89.916388 C5.6097966,88.1202539 5.2847367,86.2767476 4.39191135,84.6903036 L1.02824191,78.7134644 C-0.342747303,76.2773802 -0.342747303,73.3023608 1.02824191,70.8662766 L4.39191135,64.8894374 C5.2847367,63.3029934 5.6097966,61.459487 5.31341104,59.663353 L4.19679507,52.8965186 C3.74167649,50.1384424 4.75919306,47.3428386 6.88069137,45.5225742 L12.0857061,41.0566252 C13.4672833,39.8712197 14.403256,38.2500674 14.7390587,36.4608837 L16.0041766,29.7202342 C16.5198227,26.9728306 18.4321283,24.6938335 21.0482517,23.7089396 L27.4668101,21.2925402 C29.1705006,20.6511506 30.604494,19.4478874 31.5319822,17.8814559 L35.026242,11.9800131 C36.4504582,9.57465953 39.0269006,8.08714983 41.822106,8.05641921 L48.6800352,7.98102282 C50.5003488,7.96101021 52.259402,7.32076719 53.666707,6.16602275 L58.9686494,1.81558777 C61.1296543,0.042405383 64.0594764,-0.474201314 66.6966208,0.452937909 L73.1667534,2.72763843 C74.8841334,3.33141663 76.7560787,3.33141663 78.4734586,2.72763843 L84.9435913,0.452937909 C87.5807356,-0.474201314 90.5105578,0.042405383 92.6715626,1.81558777 L97.9735051,6.16602275 C99.38081,7.32076719 101.139863,7.96101021 102.960177,7.98102282 L109.818106,8.05641921 C112.613312,8.08714983 115.189754,9.57465953 116.61397,11.9800131 L120.10823,17.8814559 C121.035718,19.4478874 122.469711,20.6511506 124.173402,21.2925402 L130.59196,23.7089396 C133.208084,24.6938335 135.120389,26.9728306 135.636035,29.7202342 L136.901153,36.4608837 C137.236956,38.2500674 138.172929,39.8712197 139.554506,41.0566252 L144.759521,45.5225742 C146.881019,47.3428386 147.898536,50.1384424 147.443417,52.8965186 L146.326801,59.663353 C146.030415,61.459487 146.355475,63.3029934 147.248301,64.8894374 L150.61197,70.8662766 C151.982959,73.3023608 151.982959,76.2773802 150.61197,78.7134644 L147.248301,84.6903036 C146.355475,86.2767476 146.030415,88.1202539 146.326801,89.916388 L147.443417,96.6832223 C147.898536,99.4412986 146.881019,102.236902 144.759521,104.057167 L139.554506,108.523116 C138.172929,109.708521 137.236956,111.329674 136.901153,113.118857 L135.636035,119.859507 C135.120389,122.60691 133.208084,124.885907 130.59196,125.870801 L124.173402,128.287201 C122.469711,128.92859 121.035718,130.131854 120.10823,131.698285 L116.61397,137.599728 C115.189754,140.005081 112.613312,141.492591 109.818106,141.523322 L102.960177,141.598718 C101.139863,141.618731 99.38081,142.258974 97.9735051,143.413718 L92.6715626,147.764153 C90.5105578,149.537336 87.5807356,150.053942 84.9435913,149.126803 L78.4734586,146.852103 C76.7560787,146.248324 74.8841334,146.248324 73.1667534,146.852103 Z M75.820106,142.78987 C113.375469,142.78987 143.820106,112.345233 143.820106,74.7898705 C143.820106,37.2345075 113.375469,6.7898705 75.820106,6.7898705 C38.2647431,6.7898705 7.82010604,37.2345075 7.82010604,74.7898705 C7.82010604,112.345233 38.2647431,142.78987 75.820106,142.78987 Z" id="合并形状" fill="#C5C5C5" fill-rule="nonzero"></path>
                            <circle id="椭圆形" stroke="#C5C5C5" fill="#FFFFFF" fill-rule="nonzero" cx="76" cy="75" r="65"></circle>
                            <circle id="椭圆形" stroke="#C5C5C5" fill="#FFFFFF" fill-rule="nonzero" cx="76" cy="75" r="61"></circle>
                            <circle id="椭圆形" stroke="#C5C5C5" fill="#FFFFFF" fill-rule="nonzero" cx="76" cy="75" r="39"></circle>
                            <polygon id="星形" fill="#C5C5C5" fill-rule="nonzero" transform="translate(93.628900, 121.554861) rotate(-34.000000) translate(-93.628900, -121.554861) " points="93.6288997 125.064943 90.1642423 126.886421 90.825933 123.028468 88.0229663 120.296251 91.896571 119.733383 93.6288997 116.223302 95.3612284 119.733383 99.2348331 120.296251 96.4318664 123.028468 97.093557 126.886421"></polygon>
                            <polygon id="星形-copy" fill="#C5C5C5" fill-rule="nonzero" transform="translate(67.794825, 124.600813) rotate(-15.000000) translate(-67.794825, -124.600813) " points="67.794825 128.110895 64.3301676 129.932373 64.9918583 126.07442 62.1888916 123.342203 66.0624963 122.779335 67.794825 119.269254 69.5271537 122.779335 73.4007584 123.342203 70.5977917 126.07442 71.2594824 129.932373"></polygon>
                            <polygon id="星形-copy-3" fill="#C5C5C5" fill-rule="nonzero" transform="translate(28.983996, 88.107543) rotate(54.000000) translate(-28.983996, -88.107543) " points="28.983996 91.6176248 25.5193386 93.439103 26.1810293 89.5811503 23.3780626 86.848933 27.2516673 86.2860653 28.983996 82.775984 30.7163247 86.2860653 34.5899294 86.848933 31.7869627 89.5811503 32.4486534 93.439103"></polygon>
                            <polygon id="星形-copy-2" fill="#C5C5C5" fill-rule="nonzero" transform="translate(44.289816, 112.150761) rotate(24.000000) translate(-44.289816, -112.150761) " points="44.2898156 115.660842 40.8251582 117.48232 41.4868489 113.624367 38.6838822 110.89215 42.5574869 110.329282 44.2898156 106.819201 46.0221443 110.329282 49.895749 110.89215 47.0927823 113.624367 47.754473 117.48232"></polygon>
                        </g>
                        <rect id="矩形" stroke="#C5C5C5" stroke-width="1" fill="#FFFFFF" fill-rule="nonzero" transform="translate(86.784643, 89.336871) rotate(28.000000) translate(-86.784643, -89.336871) " x="-3.2153566" y="75.8368705" width="180" height="27" rx="1"></rect>
                        <path d="M69.0010297,87.4654132 L56.6610297,87.4654132 L56.6610297,92.8054132 C56.6610297,93.5254132 57.0210297,93.8854132 57.7410297,93.8854132 L67.6810297,93.8854132 C68.0010297,93.8854132 68.3010297,93.7654132 68.5810297,93.5254132 C68.8610297,93.2454132 69.0410297,92.0654132 69.1610297,90.0254132 L71.2010297,90.6654132 C70.9410297,93.2254132 70.6010297,94.7254132 70.2010297,95.1654132 C69.7210297,95.6054132 69.0610297,95.8454132 68.2610297,95.8854132 L57.1410297,95.8854132 C55.4210297,95.8854132 54.5810297,94.9854132 54.5810297,93.1854132 L54.5810297,82.8254132 L56.6610297,82.8254132 L56.6610297,85.4654132 L66.8810297,85.4654132 L66.8810297,80.9054132 L53.7410297,80.9054132 L53.7410297,78.9054132 L69.0010297,78.9054132 L69.0010297,87.4654132 Z M78.9010297,79.8454132 L83.8210297,79.8454132 L83.8210297,78.0254132 L85.9210297,78.0254132 L85.9210297,79.8454132 L91.2410297,79.8454132 L91.2410297,81.8254132 L85.9210297,81.8254132 L85.9210297,83.2654132 L90.5010297,83.2654132 L90.5010297,89.3454132 L85.8210297,89.3454132 C85.6610297,90.9054132 85.3810297,92.1454132 84.9410297,93.0654132 C86.8010297,94.0054132 88.9410297,94.5454132 91.3410297,94.6654132 L90.8410297,96.6654132 C88.1610297,96.4854132 85.8010297,95.8254132 83.7610297,94.7054132 C82.6610297,95.7054132 80.9810297,96.3454132 78.7410297,96.6454132 L77.8410297,94.7454132 C79.6210297,94.6054132 80.9810297,94.1854132 81.9010297,93.4854132 C80.8410297,92.6854132 79.8810297,91.7654132 79.0410297,90.7254132 L80.6410297,89.6254132 C81.3810297,90.5254132 82.2010297,91.3054132 83.1010297,91.9454132 C83.4010297,91.2654132 83.6010297,90.3854132 83.7210297,89.3454132 L79.4210297,89.3454132 L79.4210297,83.2654132 L83.8210297,83.2654132 L83.8210297,81.8254132 L78.9010297,81.8254132 L78.9010297,79.8454132 Z M88.5410297,87.4854132 L88.5410297,85.1254132 L85.9210297,85.1254132 L85.9210297,87.4854132 L88.5410297,87.4854132 Z M83.8210297,87.4854132 L83.8210297,85.1254132 L81.3810297,85.1254132 L81.3810297,87.4854132 L83.8210297,87.4854132 Z M74.8810297,86.2454132 C74.3810297,86.8854132 73.8610297,87.4854132 73.3010297,88.0854132 L72.6210297,85.8654132 C74.5410297,83.5854132 75.9610297,80.9254132 76.8810297,77.8454132 L78.8610297,78.7654132 C78.3810297,80.2854132 77.7610297,81.7254132 76.9810297,83.1254132 L76.9810297,96.5654132 L74.8810297,96.5654132 L74.8810297,86.2454132 Z M96.6810297,85.4054132 L96.6810297,88.2854132 L101.08103,88.2854132 L101.08103,85.4054132 L96.6810297,85.4054132 Z M96.5810297,90.2054132 C96.3210297,92.6854132 95.5810297,94.7654132 94.3610297,96.4054132 L92.7610297,94.9654132 C93.9410297,93.2854132 94.5410297,91.1454132 94.5810297,88.5454132 L94.5810297,78.6454132 L110.08103,78.6454132 L110.08103,93.7454132 C110.08103,95.2854132 109.28103,96.0654132 107.70103,96.0654132 L105.40103,96.0654132 L104.84103,94.0254132 C105.64103,94.1054132 106.36103,94.1454132 107.04103,94.1454132 C107.64103,94.1454132 107.96103,93.7454132 107.96103,92.9854132 L107.96103,90.2054132 L103.20103,90.2054132 L103.20103,95.8454132 L101.08103,95.8454132 L101.08103,90.2054132 L96.5810297,90.2054132 Z M107.96103,88.2854132 L107.96103,85.4054132 L103.20103,85.4054132 L103.20103,88.2854132 L107.96103,88.2854132 Z M107.96103,83.4854132 L107.96103,80.6854132 L103.20103,80.6854132 L103.20103,83.4854132 L107.96103,83.4854132 Z M101.08103,80.6854132 L96.6810297,80.6854132 L96.6810297,83.4854132 L101.08103,83.4854132 L101.08103,80.6854132 Z" id="已使用" stroke="none" fill="#C5C5C5" fill-rule="evenodd" transform="translate(81.911030, 87.255413) rotate(-332.000000) translate(-81.911030, -87.255413) "></path>
                    </g>
                </g>
            </g>
        </g>
    </g>
</svg>