<?xml version="1.0" encoding="UTF-8"?>
<svg width="39px" height="39px" viewBox="0 0 39 39" version="1.1" xmlns="http://www.w3.org/2000/svg" xmlns:xlink="http://www.w3.org/1999/xlink">
    <!-- Generator: Sketch 52.2 (67145) - http://www.bohemiancoding.com/sketch -->
    <title>inbox</title>
    <desc>Created with Sketch.</desc>
    <g id="Page-1" stroke="none" stroke-width="1" fill="none" fill-rule="evenodd">
        <g id="inbox" fill="#046FDB" fill-rule="nonzero">
            <path d="M3.77809934,25 L12.0868672,25.1150236 C13.0030172,25.1149566 13.819649,25.6925742 14.124727,26.5564366 C14.7365789,28.2824009 17.6184883,29.4289948 19.4496944,29.4289948 C21.2809004,29.4289948 22.9135619,27.6098163 23.5254138,25.883852 C23.8307555,25.0192411 24.6484916,24.4414551 25.5654346,24.442439 L29.1743697,24.442439 C30.3678786,24.442439 31.3354087,24.9334522 31.3354087,26.1269611 C31.3354087,27.3204699 30.3678786,28.0935065 29.1743697,28.0935065 L26.9376944,28.0935065 C25.3940733,30.7699134 22.5393416,32.4189489 19.4496944,32.4189489 C16.3600471,32.4189489 13.5053155,30.7699134 11.9616944,28.0935065 L2.16138269,28.0935065 C1.52048308,28.0936033 0.912602267,27.8092211 0.501938999,27.3171764 C0.0912757318,26.8251317 -0.0798006837,26.1761901 0.0349203484,25.5456416 L4.35699825,1.774213 C4.54395092,0.746653186 5.43903231,-0.000157599166 6.48346059,2.49467548e-08 L32.4159281,2.49467548e-08 C33.4603564,-0.000157599166 34.3554378,0.746653186 34.5423905,1.774213 L38.8644684,25.5456416 L38.899045,25.9324676 L38.899045,36.7376623 C38.899045,37.9311712 37.9315149,38.8987013 36.738006,38.8987013 L2.16138269,38.8987013 C0.967873815,38.8987013 0.000343708149,37.9311712 0.000343708149,36.7376623 L0.000343708149,32.4155844 C0.000526406355,31.2222048 0.857986681,30.5271773 1.76571593,30.5271773 C2.67344519,30.5271773 3.29981654,31.2222048 3.29999924,32.4155844 L3.29999924,35.6460396 L35.6746929,35.6460396 L35.6746929,26.1269611 L31.3354087,3.22320611 L7.57724268,3.22320611 L3.77809934,25 Z" id="Shape"></path>
        </g>
    </g>
</svg>
