<?xml version="1.0" encoding="UTF-8"?>
<svg width="36px" height="34px" viewBox="0 0 36 34" version="1.1" xmlns="http://www.w3.org/2000/svg" xmlns:xlink="http://www.w3.org/1999/xlink">
    <!-- Generator: Sketch 49.3 (51167) - http://www.bohemiancoding.com/sketch -->
    <title>微信支付</title>
    <desc>Created with Sketch.</desc>
    <defs></defs>
    <g id="会员H5页面" stroke="none" stroke-width="1" fill="none" fill-rule="evenodd">
        <g id="微信支付" fill="#42AE3C" fill-rule="nonzero">
            <path d="M13.718655,20.8509075 C11.56482,22.0469175 11.245365,20.1794625 11.245365,20.1794625 L8.545995,13.9052475 C7.50735,10.9238175 9.444915,12.5609625 9.444915,12.5609625 C9.444915,12.5609625 11.10744,13.8137175 12.369195,14.5770975 C13.630275,15.3404775 15.06771,14.8011975 15.06771,14.8011975 L32.71491,6.6879225 C29.45907,2.6526375 24.080715,0.0140625 17.991765,0.0140625 C8.054685,0.0140625 0,7.0359075 0,15.6982725 C0,20.6808075 2.66715,25.1154225 6.82155,27.9896625 L6.072345,32.2793775 C6.072345,32.2793775 5.707125,33.5317275 6.972885,32.9508675 C7.8354,32.5548225 10.034235,31.1356125 11.34315,30.2718825 C13.400865,30.9861225 15.642675,31.3827075 17.992755,31.3827075 C27.929025,31.3827075 35.985375,24.3608625 35.985375,15.6983175 C35.985375,13.1892525 35.306505,10.8197325 34.10397,8.7164775 C28.481535,12.0859875 15.403995,19.9166175 13.718655,20.8509075 Z" id="Shape"></path>
        </g>
    </g>
</svg>