<?xml version="1.0" encoding="UTF-8"?>
<svg width="484px" height="293px" viewBox="0 0 484 293" version="1.1" xmlns="http://www.w3.org/2000/svg" xmlns:xlink="http://www.w3.org/1999/xlink">
    <!-- Generator: Sketch 52.2 (67145) - http://www.bohemiancoding.com/sketch -->
    <title>分组 2</title>
    <desc>Created with Sketch.</desc>
    <g id="会员H5页面" stroke="none" stroke-width="1" fill="none" fill-rule="evenodd">
        <g id="分组-2">
            <path d="M16.48,187.44 L20.24,187.44 L20.24,190.96 L35.48,190.96 L35.48,194.52 L20.24,194.52 L20.24,198.76 L32.96,198.76 L32.96,212.32 L5.68,212.32 L5.68,198.76 L16.48,198.76 L16.48,187.44 Z M29.16,208.8 L29.16,202.32 L9.44,202.32 L9.44,208.8 L29.16,208.8 Z M5.6,213.64 L8.76,215.2 C7.32,218.64 5.6,221.6 3.68,224.08 L0.56,221.8 C2.48,219.52 4.16,216.8 5.6,213.64 Z M15.12,214.92 C15.92,217.48 16.64,220.28 17.28,223.28 L13.44,224.16 C12.96,220.96 12.32,218.12 11.56,215.68 L15.12,214.92 Z M23.44,214.4 C24.6,217.12 25.6,220.04 26.48,223.2 L22.72,224.08 C21.96,220.72 21,217.72 19.88,215.12 L23.44,214.4 Z M31.44,213.52 C33.96,216.8 35.88,219.64 37.24,222.08 L34.08,224.28 C32.68,221.64 30.8,218.68 28.4,215.48 L31.44,213.52 Z M44.32,192.8 L57.04,192.8 L57.04,187.48 L60.96,187.48 L60.96,192.8 L73.52,192.8 L73.52,196.44 L60.96,196.44 L60.96,202.2 L76.8,202.2 L76.8,205.88 L60.96,205.88 L60.96,219.04 L69.48,219.04 L69.48,208.8 L73.12,208.8 L73.12,224.2 L69.48,224.2 L69.48,222.56 L48.56,222.56 L48.56,224.2 L44.92,224.2 L44.92,208.8 L48.56,208.8 L48.56,219.04 L57.04,219.04 L57.04,205.88 L41.24,205.88 L41.24,202.2 L57.04,202.2 L57.04,196.44 L44.32,196.44 L44.32,192.8 Z M113.48,204.4 L113.48,224.16 L109.72,224.16 L109.72,222.16 L94.24,222.16 L94.24,224.16 L90.44,224.16 L90.44,209 C88.04,211.8 85.32,214.16 82.24,216.08 L80.2,212.48 C86.2,208.56 90.64,203.2 93.44,196.32 L81.68,196.32 L81.68,192.68 L94.72,192.68 C95.28,190.84 95.76,188.92 96.12,186.96 L100,187.44 C99.64,189.24 99.24,191 98.76,192.68 L116.92,192.68 L116.92,196.32 L97.6,196.32 C96.52,199.28 95.24,201.96 93.76,204.4 L113.48,204.4 Z M94.24,218.52 L109.72,218.52 L109.72,208 L94.24,208 L94.24,218.52 Z M135.16,187.2 L139.08,187.2 L139.08,199.24 L153.88,199.24 L153.88,202.92 L139.08,202.92 L139.08,219 L156.96,219 L156.96,222.68 L121.12,222.68 L121.12,219 L135.16,219 L135.16,187.2 Z M169.4,207.88 L169.4,208.16 C169.36,209.44 169.28,210.64 169.16,211.76 L177.84,211.76 L177.84,207.88 L169.4,207.88 Z M168.6,215.12 C167.76,218.64 166.28,221.72 164.16,224.28 L161.24,221.64 C164.12,218.2 165.6,213.8 165.68,208.44 L165.68,199.6 C164.84,200.2 164,200.76 163.16,201.32 L160.72,198.4 C165.48,195.64 169.52,191.8 172.88,186.92 L176.72,187.8 C176.16,188.6 175.64,189.4 175.12,190.16 L189.52,190.16 L189.52,192.96 C188,194.44 186.48,195.72 184.96,196.84 L194.52,196.84 L194.52,220.08 C194.52,222.64 193.04,223.92 190.12,223.92 L185.08,223.92 L184.16,220.4 C185.92,220.52 187.52,220.6 189.04,220.6 C190.2,220.6 190.8,219.96 190.8,218.76 L190.8,215.12 L181.56,215.12 L181.56,223.4 L177.84,223.4 L177.84,215.12 L168.6,215.12 Z M190.8,211.76 L190.8,207.88 L181.56,207.88 L181.56,211.76 L190.8,211.76 Z M190.8,204.52 L190.8,200.28 L181.56,200.28 L181.56,204.52 L190.8,204.52 Z M169.16,196.84 L179.6,196.84 C181.16,195.84 182.72,194.72 184.28,193.44 L172.52,193.44 C171.4,194.64 170.28,195.8 169.16,196.84 Z M177.84,200.28 L169.4,200.28 L169.4,204.52 L177.84,204.52 L177.84,200.28 Z M4.4,255.6 C7.04,257.72 9.24,259.84 11.04,261.92 L8.36,264.56 C6.84,262.56 4.64,260.4 1.8,258.08 L4.4,255.6 Z M27.32,291.44 C25.16,291.44 22.76,291.4 20.2,291.36 C17.6,291.32 15.48,291.08 13.84,290.68 C12.24,290.2 10.84,289.24 9.64,287.88 C9.08,287.2 8.56,286.88 8.12,286.88 C7.24,286.88 5.8,288.68 3.76,292.32 L0.96,289.72 C2.96,286.44 4.8,284.4 6.4,283.6 L6.4,272.28 L1.04,272.28 L1.04,268.76 L9.96,268.76 L9.96,283.92 C10.12,284.08 10.32,284.24 10.52,284.48 C11.48,285.56 12.44,286.36 13.4,286.88 C14.6,287.44 16.36,287.8 18.76,287.88 C21,287.92 23.68,287.96 26.8,287.96 C28.76,287.96 30.76,287.92 32.8,287.88 C34.8,287.84 36.36,287.76 37.48,287.68 L36.52,291.44 L27.32,291.44 Z M23.48,255.08 L27.16,255.08 L27.16,259.88 L34.84,259.88 L34.84,263.52 L27.16,263.52 L27.16,268.48 L36.24,268.48 L36.24,272.12 L29.76,272.12 L29.76,281.92 C29.76,282.56 30.16,282.92 30.96,282.92 L31.84,282.92 C32.24,282.92 32.6,282.76 32.88,282.52 C33.2,282.24 33.44,280.76 33.56,278.04 L36.88,279.16 C36.56,282.6 36.12,284.64 35.56,285.24 C35,285.8 34.04,286.12 32.64,286.16 L29.8,286.16 C28.6,286.16 27.72,285.84 27.12,285.24 C26.48,284.56 26.2,283.72 26.2,282.76 L26.2,272.12 L22.88,272.12 C22.72,274.72 22.32,277 21.64,278.92 C20.6,281.96 18.2,284.44 14.44,286.44 L11.96,283.48 C15.12,281.92 17.2,280 18.16,277.72 C18.76,276.2 19.12,274.32 19.28,272.12 L13.16,272.12 L13.16,268.48 L23.48,268.48 L23.48,263.52 L17.64,263.52 C16.92,264.88 16.2,266.16 15.4,267.36 L12.12,265.32 C14.28,262.32 15.8,259.12 16.72,255.72 L20.36,256.44 C20,257.64 19.64,258.8 19.24,259.88 L23.48,259.88 L23.48,255.08 Z M55.28,256.56 L74.6,256.56 L74.6,259.76 C73.64,262.64 71.8,265.08 69.12,267.16 C71.52,268.16 74.4,268.84 77.68,269.2 L76.32,272.6 C72,272.04 68.44,271 65.6,269.4 C62.84,270.8 59.52,271.96 55.68,272.88 L53.84,269.64 C57.08,268.92 59.88,268.04 62.24,267 C60.08,265.08 58.52,262.72 57.52,259.96 L55.28,259.96 L55.28,256.56 Z M61.24,259.96 C62.2,262.08 63.64,263.84 65.56,265.2 C67.88,263.68 69.6,261.96 70.68,259.96 L61.24,259.96 Z M45.52,291.76 L42.04,291.76 L41.2,288.08 C42.24,288.2 43.24,288.28 44.2,288.28 C45.16,288.28 45.64,287.8 45.64,286.88 L45.64,278.4 C44.2,278.88 42.72,279.36 41.24,279.8 L40.28,276 C42.08,275.6 43.88,275.16 45.64,274.6 L45.64,266.2 L41.08,266.2 L41.08,262.56 L45.64,262.56 L45.64,255.32 L49.48,255.32 L49.48,262.56 L53.64,262.56 L53.64,266.2 L49.48,266.2 L49.48,273.2 C50.92,272.64 52.32,272 53.72,271.28 L53.72,275.12 C52.32,275.76 50.92,276.4 49.48,276.96 L49.48,287.84 C49.48,290.44 48.16,291.76 45.52,291.76 Z M56.08,275.12 L63.76,275.12 L63.76,272.04 L67.44,272.04 L67.44,275.12 L74.96,275.12 L74.96,278.56 L67.44,278.56 L67.44,282.28 L77,282.28 L77,285.8 L67.44,285.8 L67.44,291.64 L63.76,291.64 L63.76,285.8 L54,285.8 L54,282.28 L63.76,282.28 L63.76,278.56 L56.08,278.56 L56.08,275.12 Z M93.24,273.52 L102,273.52 L102,266.48 L105.88,266.48 L105.88,273.52 L115.12,273.52 L115.12,277.2 L105.88,277.2 L105.88,287.04 L116.88,287.04 L116.88,290.76 L91.76,290.76 L91.76,287.04 L102,287.04 L102,277.2 L93.24,277.2 L93.24,273.52 Z M86.4,276.84 C85.2,278.04 83.96,279.16 82.64,280.28 L80.24,277.16 C84.88,273.32 88.56,268.92 91.28,264.04 L81.68,264.04 L81.68,260.32 L93.08,260.32 C93.88,258.56 94.52,256.72 95.08,254.84 L99,255.28 C98.48,257 97.92,258.68 97.28,260.32 L116.88,260.32 L116.88,264.04 L95.6,264.04 C94.08,267.08 92.28,269.96 90.16,272.6 L90.16,292.24 L86.4,292.24 L86.4,276.84 Z M123.8,255.68 C126.2,257.68 128.24,259.72 129.88,261.72 L127.24,264.36 C125.8,262.44 123.76,260.4 121.16,258.2 L123.8,255.68 Z M123.2,265 C125.56,267 127.56,268.96 129.16,270.92 L126.52,273.56 C125.12,271.68 123.16,269.68 120.6,267.52 L123.2,265 Z M126.96,276.4 L130.32,277.72 C128.56,282.72 126.6,287.44 124.44,291.84 L121,290.36 C123.32,285.8 125.28,281.12 126.96,276.4 Z M130.68,261.56 L135.76,261.56 C135.2,259.52 134.56,257.64 133.84,255.88 L137.68,255.24 C138.24,257.08 138.8,259.2 139.36,261.56 L144.24,261.56 L144.24,265.24 L142.6,265.24 C141.92,270.2 141.08,274.4 140.04,277.84 C141.88,281.04 143.44,283.96 144.68,286.64 L141.68,288.76 C140.68,286.6 139.56,284.4 138.36,282.12 C136.48,285.88 133.88,289.28 130.6,292.28 L128.24,289.28 C131.6,286.24 134.08,282.92 135.76,279.24 C135.92,278.88 136.04,278.52 136.16,278.2 C134.64,275.52 132.92,272.76 131.08,269.88 L133.96,268.04 C135.24,270 136.44,271.88 137.56,273.72 C138.2,271.16 138.72,268.36 139.12,265.24 L130.68,265.24 L130.68,261.56 Z M146.08,258.68 L149.6,258.68 L149.6,283.48 L146.08,283.48 L146.08,258.68 Z M152.2,291.76 L146.8,291.76 L145.96,288.08 C147.68,288.24 149.32,288.32 150.88,288.32 C151.92,288.32 152.44,287.76 152.44,286.72 L152.44,255.32 L156.08,255.32 L156.08,287.68 C156.08,290.4 154.76,291.76 152.2,291.76 Z M189.96,269.64 L189.96,284.2 L186.24,284.2 L186.24,273.08 L171.32,273.08 L171.32,284.24 L167.56,284.24 L167.56,269.64 L189.96,269.64 Z M176.52,275.32 L180.24,275.32 L180.24,278.12 C180.2,278.72 180.12,279.32 180.04,279.88 L183.4,279.88 L183.4,286.36 C183.4,287.44 183.96,288 185.08,288 L191.08,288 C191.72,288 192.2,287.76 192.52,287.36 C192.88,286.88 193.12,285.4 193.28,283 L196.76,284.16 C196.48,287.68 195.92,289.8 195.12,290.52 C194.4,291.16 193.28,291.48 191.76,291.48 L183.96,291.48 C181.16,291.48 179.76,290.04 179.76,287.16 L179.76,281.24 C179.12,283.72 177.88,285.76 176.08,287.44 C173.52,289.6 169.4,291.24 163.72,292.4 L161.56,289.04 C167.24,287.96 171.12,286.6 173.2,284.96 C175.2,283.2 176.32,280.92 176.52,278.12 L176.52,275.32 Z M171.2,255.24 L174.96,255.24 L174.96,268.36 L171.2,268.36 L171.2,255.24 Z M163.36,256.88 L167.04,256.88 L167.04,267.12 L163.36,267.12 L163.36,256.88 Z M183.6,261.4 C182.36,263.68 180.92,265.6 179.28,267.12 L176.44,264.48 C179.08,261.8 181.04,258.6 182.24,254.92 L185.88,255.88 L185.16,257.92 L196.28,257.92 L196.28,261.4 L183.6,261.4 Z M187.2,262.04 C189.48,263.32 191.56,264.88 193.48,266.68 L191.12,269.36 C189.2,267.36 187.08,265.68 184.84,264.24 L187.2,262.04 Z M204.32,256.52 L217.16,256.52 L217.16,266.92 L204.32,266.92 L204.32,256.52 Z M213.72,263.76 L213.72,259.76 L207.76,259.76 L207.76,263.76 L213.72,263.76 Z M220.88,256.52 L234.08,256.52 L234.08,266.92 L229.32,266.92 C230.08,267.96 230.76,269.04 231.32,270.16 L236.76,270.16 L236.76,273.52 L226.88,273.52 C229.4,275.52 232.96,277.08 237.52,278.28 L236,281.48 C235.2,281.2 234.48,280.92 233.8,280.68 L233.8,292.16 L230.44,292.16 L230.44,290.6 L223.96,290.6 L223.96,292.16 L220.6,292.16 L220.6,279.08 L230.16,279.08 C226.96,277.44 224.44,275.6 222.68,273.52 L216.2,273.52 C214.2,275.68 211.64,277.56 208.52,279.08 L217.36,279.08 L217.36,292.16 L214,292.16 L214,290.6 L208.2,290.6 L208.2,292.16 L204.88,292.16 L204.88,280.6 C204,280.92 203.12,281.2 202.24,281.48 L200.52,278.4 C205,277.12 208.56,275.48 211.2,273.52 L201.24,273.52 L201.24,270.16 L214.6,270.16 C215.28,269.24 215.84,268.28 216.24,267.32 L219.88,267.72 C219.52,268.56 219.12,269.36 218.68,270.16 L227.6,270.16 C227.12,269.32 226.6,268.56 226.08,267.88 L229.04,266.92 L220.88,266.92 L220.88,256.52 Z M230.64,263.76 L230.64,259.76 L224.32,259.76 L224.32,263.76 L230.64,263.76 Z M208.2,287.36 L214,287.36 L214,282.2 L208.2,282.2 L208.2,287.36 Z M223.96,287.36 L230.44,287.36 L230.44,282.2 L223.96,282.2 L223.96,287.36 Z M257.04,255.04 L260.96,255.04 L260.96,261.96 L275.2,261.96 L275.2,281.28 L271.4,281.28 L271.4,279 L260.96,279 L260.96,292.4 L257.04,292.4 L257.04,279 L246.64,279 L246.64,281.28 L242.84,281.28 L242.84,261.96 L257.04,261.96 L257.04,255.04 Z M246.64,275.28 L257.04,275.28 L257.04,265.68 L246.64,265.68 L246.64,275.28 Z M260.96,275.28 L271.4,275.28 L271.4,265.68 L260.96,265.68 L260.96,275.28 Z M296.04,270.72 L296.04,274.48 C294.28,275.24 292.52,275.96 290.76,276.64 L290.76,287.88 C290.76,290.44 289.4,291.76 286.76,291.76 L282.64,291.76 L281.76,288.08 C283.04,288.2 284.28,288.28 285.44,288.28 C286.4,288.28 286.92,287.8 286.92,286.88 L286.92,278 C285.04,278.6 283.16,279.16 281.24,279.68 L280.32,276.08 C282.56,275.6 284.76,275.04 286.92,274.36 L286.92,265.88 L280.96,265.88 L280.96,262.24 L286.92,262.24 L286.92,255.36 L290.76,255.36 L290.76,262.24 L295.64,262.24 L295.64,265.88 L290.76,265.88 L290.76,273 C292.52,272.32 294.28,271.56 296.04,270.72 Z M296.64,258 L316.96,258 L316.96,261.68 L310.8,261.68 L310.8,287.56 C310.8,290.28 309.48,291.68 306.92,291.68 L300.24,291.68 L299.4,288 C301.56,288.12 303.64,288.2 305.6,288.2 C306.48,288.2 306.96,287.64 306.96,286.6 L306.96,261.68 L296.64,261.68 L296.64,258 Z M323.28,257.32 L354.8,257.32 L354.8,261 L348.4,261 L348.4,270.6 L356.84,270.6 L356.84,274.28 L348.4,274.28 L348.4,291.6 L344.6,291.6 L344.6,274.28 L333.88,274.28 C333.48,278.28 332.72,281.6 331.52,284.28 C330,287.64 327.44,290.24 323.88,292.04 L321.84,288.84 C325.04,286.96 327.24,284.56 328.4,281.68 C329.16,279.6 329.68,277.12 330,274.28 L321.2,274.28 L321.2,270.6 L330.28,270.6 C330.28,270.28 330.32,269.96 330.32,269.72 L330.32,261 L323.28,261 L323.28,257.32 Z M334.16,261 L334.16,269.72 C334.16,270.04 334.12,270.32 334.12,270.6 L344.6,270.6 L344.6,261 L334.16,261 Z M221,213 C218.238576,213 216,210.761424 216,208 C216,205.238576 218.238576,203 221,203 C223.761424,203 226,205.238576 226,208 C226,210.761424 223.761424,213 221,213 Z M239,213 C236.238576,213 234,210.761424 234,208 C234,205.238576 236.238576,203 239,203 C241.761424,203 244,205.238576 244,208 C244,210.761424 241.761424,213 239,213 Z M257,213 C254.238576,213 252,210.761424 252,208 C252,205.238576 254.238576,203 257,203 C259.761424,203 262,205.238576 262,208 C262,210.761424 259.761424,213 257,213 Z M483.077399,0 L474.081503,12.8091315 L467.432556,0.488761804 L483.077399,0 Z M308.425267,211.825266 L308.666331,209.839847 C309.992727,210.000894 311.309436,210.142594 312.616457,210.264951 L312.430043,212.256244 C311.104698,212.132172 309.769773,211.988511 308.425267,211.825266 Z M316.443284,212.57396 L316.572022,210.578108 C317.903666,210.664003 319.224943,210.729203 320.535854,210.773712 L320.467987,212.77256 C319.136685,212.727359 317.795117,212.661157 316.443284,212.57396 Z M324.50784,212.845325 L324.51147,210.845328 C325.84553,210.847749 327.168501,210.828039 328.480386,210.786202 L328.544135,212.785186 C327.209708,212.827742 325.864275,212.847787 324.50784,212.845325 Z M332.578521,212.585682 L332.444202,210.590197 C333.772279,210.500802 335.088601,210.387936 336.393171,210.251604 L336.601046,212.240772 C335.271909,212.379671 333.931066,212.49464 332.578521,212.585682 Z M340.620131,211.742698 L340.335641,209.763035 C341.649765,209.574187 342.951529,209.360634 344.240941,209.122381 L344.604343,211.089089 C343.288635,211.332201 341.960562,211.550069 340.620131,211.742698 Z M348.588746,210.267072 L348.143668,208.317224 C349.435808,208.022277 350.715066,207.701527 351.981452,207.354979 L352.509346,209.284053 C351.215442,209.638132 349.908572,209.965804 348.588746,210.267072 Z M356.357743,208.140799 L355.746508,206.23649 C357.005967,205.832236 358.25219,205.401388 359.485186,204.943947 L360.180852,206.819059 C358.919893,207.286875 357.64552,207.727455 356.357743,208.140799 Z M363.961291,205.317894 L363.18096,203.476404 C364.396173,202.961457 365.597997,202.419512 366.786444,201.850564 L367.650047,203.654501 C366.434122,204.236604 365.204533,204.79107 363.961291,205.317894 Z M371.270411,201.817993 L370.324933,200.055588 C371.485013,199.433239 372.631781,198.783944 373.765249,198.107694 L374.789969,199.825235 C373.630448,200.517029 372.457259,201.181284 371.270411,201.817993 Z M378.242021,197.657672 L377.140396,195.988415 C378.237915,195.264108 379.32238,194.513277 380.393799,193.735912 L381.568314,195.354712 C380.473013,196.149404 379.364247,196.917061 378.242021,197.657672 Z M384.742558,192.94609 L383.499988,191.37892 C384.528754,190.563237 385.544916,189.721864 386.548479,188.854794 L387.856027,190.368174 C386.831238,191.253583 385.793414,192.112891 384.742558,192.94609 Z M390.865123,187.658202 L389.496743,186.199594 C390.453162,185.302339 391.397555,184.380523 392.329924,183.434136 L393.754649,184.837759 C392.803919,185.802783 391.840743,186.742933 390.865123,187.658202 Z M396.542846,181.897281 L395.065867,180.54875 C395.950359,179.58001 396.823459,178.587973 397.685166,177.572632 L399.210032,178.866767 C398.33275,179.900459 397.443689,180.910633 396.542846,181.897281 Z M401.773163,175.737368 L400.204323,174.496908 C401.017848,173.468024 401.820667,172.417234 402.612776,171.344534 L404.22167,172.532583 C403.416551,173.622901 402.600383,174.691164 401.773163,175.737368 Z M406.575441,169.236655 L404.929896,168.099913 C405.675813,167.020125 406.411702,165.919822 407.137561,164.799004 L408.816276,165.886164 C408.079654,167.023603 407.33271,168.140434 406.575441,169.236655 Z M410.964352,162.46275 L409.255437,161.423707 C409.937442,160.302014 410.610083,159.161181 411.27336,158.001203 L413.009567,158.993969 C412.337439,160.169426 411.655702,161.325687 410.964352,162.46275 Z M414.971346,155.457918 L413.210299,154.509914 C413.83294,153.353272 414.446845,152.17878 415.05201,150.986437 L416.835451,151.89161 C416.223026,153.098257 415.601659,154.287027 414.971346,155.457918 Z M418.620992,148.270071 L416.817199,147.406167 C417.385007,146.220607 417.944661,145.018399 418.496156,143.799543 L420.318311,144.624013 C419.760864,145.856023 419.195092,147.071375 418.620992,148.270071 Z M421.945903,140.92427 L420.107031,140.137789 C420.6243,138.928363 421.133951,137.703398 421.63598,136.462895 L423.489915,137.21318 C422.983003,138.465746 422.468333,139.702776 421.945903,140.92427 Z M424.967167,133.461647 L423.099535,132.746141 C423.570466,131.516903 424.034269,130.273138 424.490942,129.014845 L426.370955,129.697159 C425.91027,130.966506 425.442341,132.221335 424.967167,133.461647 Z M427.727417,125.907749 L425.84328,125.236908 C426.29104,123.97932 426.736179,122.724071 427.178879,121.470727 L429.064697,122.136826 C428.621441,123.391747 428.175741,124.648576 427.727417,125.907749 Z M430.391496,118.365433 L428.504016,117.704058 C428.945531,116.444028 429.384653,115.18577 429.821625,113.928679 L431.710748,114.585348 C431.273233,115.844003 430.833563,117.103829 430.391496,118.365433 Z M433.022687,110.796001 L431.131947,110.144004 C431.566231,108.884614 431.998483,107.626106 432.429043,106.367597 L434.321363,107.014996 C433.890281,108.275031 433.457502,109.535072 433.022687,110.796001 Z M435.614355,103.220765 L433.720491,102.577896 C434.148178,101.317947 434.574388,100.05747 434.999626,98.7950861 L436.894982,99.4335427 C436.469251,100.697388 436.042544,101.959336 435.614355,103.220765 Z M438.167804,95.6407493 L436.271013,95.006571 C436.692298,93.7465314 437.112998,92.4836174 437.533944,91.2154776 L439.432103,91.8455513 C439.010707,93.1150475 438.589551,94.3793293 438.167804,95.6407493 Z M440.690214,88.0421954 L438.790767,87.4160145 C439.205741,86.1572398 439.621671,84.8913972 440.040132,83.613861 L441.940769,84.2364205 C441.521918,85.5151479 441.105591,86.7821967 440.690214,88.0421954 Z M443.182838,80.4331532 L441.28113,79.8138754 C441.687779,78.5651186 442.098316,77.3010311 442.516567,76.0100348 L444.419207,76.6264436 C444.000653,77.9183749 443.589806,79.1834166 443.182838,80.4331532 Z M445.649091,72.821864 L443.745689,72.207812 C444.138673,70.9896616 444.541768,69.7380122 444.97206,68.4000577 L446.87602,69.012379 C446.445552,70.350883 446.042273,71.6031023 445.649091,72.821864 Z M448.097286,65.2112045 L446.19302,64.5998367 C446.402226,63.9482081 447.217261,61.4089635 447.415745,60.790735 L449.320011,61.4021054 C449.121555,62.0202447 448.306521,64.5594876 448.097286,65.2112045 Z M450.545322,57.5889195 L448.641441,56.9763535 C449.087655,55.5895005 449.489139,54.3442419 449.868732,53.1701206 L451.771749,53.7853647 C451.392469,54.9585208 450.991266,56.2029057 450.545322,57.5889195 Z M453.006526,49.980414 L451.104984,49.3606232 C451.542164,48.0193399 451.955705,46.7577019 452.352605,45.5548479 L454.251882,46.1815428 C453.855776,47.3819916 453.442984,48.6413448 453.006526,49.980414 Z M455.51045,42.3985353 L453.614463,41.7619557 C454.060034,40.4348666 454.48812,39.174044 454.902802,37.9680855 L456.794111,38.6184334 C456.381061,39.8196445 455.954526,41.075898 455.51045,42.3985353 Z M458.110176,34.849168 L456.225446,34.1799941 C456.694068,32.8601184 457.148765,31.6048529 457.592819,30.4059529 L459.468308,31.1006048 C459.027493,32.2907604 458.575861,33.5375634 458.110176,34.849168 Z M460.884673,27.3767429 L459.022292,26.647678 C459.535361,25.3370529 460.038205,24.0958835 460.534161,22.9170127 L462.377661,23.6925814 C461.888398,24.8555426 461.391814,26.0812606 460.884673,27.3767429 Z M463.975098,20.0624425 L462.159461,19.223715 C462.755529,17.9333765 463.34762,16.7239653 463.939972,15.5882703 L465.71326,16.5131754 C465.136196,17.6195596 464.558129,18.8003259 463.975098,20.0624425 Z M467.643162,13.0838648 L465.936429,12.0412417 C466.687686,10.8114626 467.448921,9.68248182 468.226782,8.64628447 L469.826253,9.84698951 C469.08788,10.830584 468.362153,11.9069039 467.643162,13.0838648 Z" id="合并形状" fill="#FFFFFF"></path>
            <g id="分组" transform="translate(216.000000, 203.000000)"></g>
        </g>
    </g>
</svg>