<?xml version="1.0" encoding="UTF-8"?>
<svg width="216px" height="216px" viewBox="0 0 216 216" version="1.1" xmlns="http://www.w3.org/2000/svg" xmlns:xlink="http://www.w3.org/1999/xlink">
    <!-- Generator: Sketch 52.2 (67145) - http://www.bohemiancoding.com/sketch -->
    <title>icon_zhucechenggong</title>
    <desc>Created with Sketch.</desc>
    <g id="Page-1" stroke="none" stroke-width="1" fill="none" fill-rule="evenodd">
        <g id="icon_zhucechenggong" fill="#EB6751">
            <g id="Group-8">
                <g id="Group-5">
                    <path d="M108,216 C167.646753,216 216,167.646753 216,108 C216,48.353247 167.646753,0 108,0 C48.353247,0 0,48.353247 0,108 C0,167.646753 48.353247,216 108,216 Z M108.15468,101.922552 L130.752618,79.3246142 C132.473573,77.6036597 135.263791,77.6036597 136.984746,79.3246142 C138.7057,81.0455687 138.7057,83.8357872 136.984746,85.5567417 L114.386808,108.15468 L136.984746,130.752618 C138.7057,132.473573 138.7057,135.263791 136.984746,136.984746 C135.263791,138.7057 132.473573,138.7057 130.752618,136.984746 L108.15468,114.386808 L85.5567417,136.984746 C83.8357872,138.7057 81.0455687,138.7057 79.3246142,136.984746 C77.6036597,135.263791 77.6036597,132.473573 79.3246142,130.752618 L101.922552,108.15468 L79.3246142,85.5567417 C77.6036597,83.8357872 77.6036597,81.0455687 79.3246142,79.3246142 C81.0455687,77.6036597 83.8357872,77.6036597 85.5567417,79.3246142 L108.15468,101.922552 Z" id="合并形状" opacity="0.14"></path>
                    <path d="M108,193 C154.944204,193 193,154.944204 193,108 C193,61.0557963 154.944204,23 108,23 C61.0557963,23 23,61.0557963 23,108 C23,154.944204 61.0557963,193 108,193 Z M108.148731,102.1563 L129.877518,80.4275136 C131.532282,78.7727497 134.215184,78.7727497 135.869948,80.4275136 C137.524712,82.0822776 137.524712,84.76518 135.869948,86.419944 L114.141161,108.148731 L135.869948,129.877518 C137.524712,131.532282 137.524712,134.215184 135.869948,135.869948 C134.215184,137.524712 131.532282,137.524712 129.877518,135.869948 L108.148731,114.141161 L86.419944,135.869948 C84.76518,137.524712 82.0822776,137.524712 80.4275136,135.869948 C78.7727497,134.215184 78.7727497,131.532282 80.4275136,129.877518 L102.1563,108.148731 L80.4275136,86.419944 C78.7727497,84.76518 78.7727497,82.0822776 80.4275136,80.4275136 C82.0822776,78.7727497 84.76518,78.7727497 86.419944,80.4275136 L108.148731,102.1563 Z" id="合并形状"></path>
                </g>
            </g>
        </g>
    </g>
</svg>