<?xml version="1.0" encoding="UTF-8"?>
<svg width="216px" height="216px" viewBox="0 0 216 216" version="1.1" xmlns="http://www.w3.org/2000/svg" xmlns:xlink="http://www.w3.org/1999/xlink">
    <!-- Generator: Sketch 52.2 (67145) - http://www.bohemiancoding.com/sketch -->
    <title>icon_zhucechenggong</title>
    <desc>Created with Sketch.</desc>
    <g id="Page-1" stroke="none" stroke-width="1" fill="none" fill-rule="evenodd">
        <g id="icon_zhucechenggong">
            <g id="Group-8" fill="#0073EB">
                <g id="Group-5">
                    <path d="M108,216 C48.353247,216 0,167.646753 0,108 C0,48.353247 48.353247,0 108,0 C167.646753,0 216,48.353247 216,108 C216,167.646753 167.646753,216 108,216 Z M139.411583,96.5890866 C141.199399,94.882006 141.199399,92.0616119 139.486075,90.2803105 C137.69826,88.5732298 134.867552,88.5732298 133.154229,90.2803105 L100.526595,122.789063 L83.6168392,105.940919 C81.9035159,104.233839 78.9983157,104.233839 77.2849924,105.940919 C75.5716692,107.648 75.5716692,110.542615 77.2849924,112.249696 L97.3234251,132.215116 C97.770379,132.660442 98.2918252,132.957325 98.8132714,133.179988 C100.452102,133.847976 102.31441,133.551093 103.655272,132.215116 L139.411583,96.5890866 Z" id="合并形状" opacity="0.14"></path>
                    <path d="M108,193 C61.0557963,193 23,154.944204 23,108 C23,61.0557963 61.0557963,23 108,23 C154.944204,23 193,61.0557963 193,108 C193,154.944204 154.944204,193 108,193 Z M139.411583,96.5890866 C141.199399,94.882006 141.199399,92.0616119 139.486075,90.2803105 C137.69826,88.5732298 134.867552,88.5732298 133.154229,90.2803105 L100.526595,122.789063 L83.6168392,105.940919 C81.9035159,104.233839 78.9983157,104.233839 77.2849924,105.940919 C75.5716692,107.648 75.5716692,110.542615 77.2849924,112.249696 L97.3234251,132.215116 C97.770379,132.660442 98.2918252,132.957325 98.8132714,133.179988 C100.452102,133.847976 102.31441,133.551093 103.655272,132.215116 L139.411583,96.5890866 Z" id="合并形状"></path>
                </g>
            </g>
            <g id="正确-(2)" transform="translate(76.000000, 89.000000)"></g>
        </g>
    </g>
</svg>