<?xml version="1.0" encoding="UTF-8"?>
<svg width="70px" height="70px" viewBox="0 0 70 70" version="1.1" xmlns="http://www.w3.org/2000/svg" xmlns:xlink="http://www.w3.org/1999/xlink">
    <!-- Generator: Sketch 49.3 (51167) - http://www.bohemiancoding.com/sketch -->
    <title>Group 39</title>
    <desc>Created with Sketch.</desc>
    <defs>
        <rect id="path-1" x="0" y="0" width="70" height="70" rx="2"></rect>
    </defs>
    <g id="会员管理" stroke="none" stroke-width="1" fill="none" fill-rule="evenodd">
        <g id="Group-39">
            <mask id="mask-2" fill="white">
                <use xlink:href="#path-1"></use>
            </mask>
            <use id="Mask" fill="#F2F2F2" xlink:href="#path-1"></use>
            <g id="Group-18" mask="url(#mask-2)">
                <g transform="translate(8.000000, 10.000000)">
                    <polygon id="Fill-210" fill="#DAC2A7" points="19.8 28.6 35.2 28.6 35.2 46.2 19.8 46.2"></polygon>
                    <path d="M26.4,35.2 C19.1103,35.2 13.2,29.3933895 13.2,22.2315789 L13.2,17.3684211 C13.2,10.2066105 19.1103,4.4 26.4,4.4 C33.6897,4.4 39.6,10.2066105 39.6,17.3684211 L39.6,22.2315789 C39.6,29.3933895 33.6897,35.2 26.4,35.2" id="Fill-211" fill="#F1D9C5"></path>
                    <path d="M50.5951471,46.6158 L35.5882353,39.6 C35.5882353,39.6 32.3529412,42.9 27.5,42.9 C22.6470588,42.9 19.4117647,39.6 19.4117647,39.6 L4.40485294,46.6158 C1.96867647,47.7543 0,50.88435 0,53.6118 L0,66 L0,66 L55,66 L55,66 L55,53.6118 C55,50.8893 53.0280882,47.75265 50.5951471,46.6158" id="Fill-212" fill="#5A7A84"></path>
                    <path d="M33,13.0339729 C36.64485,13.0339729 39.6,16.0634615 39.6,19.8 L39.6,11.3424661 C39.6,7.6211512 36.64485,4.576439 32.99835,4.576439 L32.175,4.576439 L30.4425,1.02427477 C30.0234,0.164989324 29.01855,-0.218982715 28.17705,0.126084668 L17.7969,4.38360723 C15.2559,5.4255754 13.2,8.54133089 13.2,11.3458491 L13.2,19.8 C13.2,16.0634615 16.15515,13.0339729 19.8,13.0339729 L33,13.0339729 Z" id="Fill-213" fill="#444444"></path>
                </g>
            </g>
        </g>
    </g>
</svg>