<?xml version="1.0" encoding="UTF-8"?>
<svg width="100px" height="88px" viewBox="0 0 100 88" version="1.1" xmlns="http://www.w3.org/2000/svg" xmlns:xlink="http://www.w3.org/1999/xlink">
    <!-- Generator: Sketch 52.5 (67469) - http://www.bohemiancoding.com/sketch -->
    <title>分组</title>
    <desc>Created with Sketch.</desc>
    <defs>
        <rect id="path-1" x="0" y="0" width="100" height="100"></rect>
    </defs>
    <g id="预定中心" stroke="none" stroke-width="1" fill="none" fill-rule="evenodd">
        <g id="分组" transform="translate(0.000000, -11.000000)">
            <g id="撤销">
                <mask id="mask-2" fill="white">
                    <use xlink:href="#path-1"></use>
                </mask>
                <g id="Mask"></g>
                <g mask="url(#mask-2)" id="Group-29">
                    <g transform="translate(0.000000, 10.000000)">
                        <g>
                            <g fill="#B0BDC9">
                                <g id="圆" transform="translate(16.843972, 0.937500)">
                                    <path d="M46.1750388,10.4797215 L46.9290859,10.4797215 L46.9290859,10.9784877 C47.4318352,10.9784877 47.6831331,10.7291807 47.9345844,10.4797215 C49.4426787,10.9784877 49.6939766,10.9784877 51.4535223,10.9784877 L51.4535223,11.9760201 C51.9562715,11.9760201 51.4535223,11.2279469 52.2075694,11.4772539 C52.2075694,11.7265609 51.7049736,11.7265609 51.9562715,12.2253271 C50.950773,12.4747863 50.950773,11.7265609 49.945428,11.9760201 C49.945428,11.4772539 50.4481772,11.7265609 50.6994751,11.7265609 L50.6994751,11.4772539 C50.1967259,11.2277947 49.4426787,11.4772539 49.6939766,11.9760201 C49.4426787,11.4772539 48.1858823,11.9760201 47.9345844,11.4772539 C47.6831331,11.9760201 47.1803838,11.4772539 46.677788,11.4772539 C46.1750388,10.7291807 46.4263367,10.9784877 46.1750388,10.4797215" id="Fill-1"></path>
                                    <path d="M65.0269847,17.9607578 C65.529734,18.210217 65.7810319,18.210217 66.535079,18.210217 C66.535079,18.459524 66.0323298,18.459524 66.2837811,18.9582902 C66.0323298,18.459524 65.0269847,18.459524 64.7755334,18.210217 C64.5242355,17.9607578 65.2782826,18.210217 65.0269847,17.9607578" id="Fill-2"></path>
                                    <path d="M68.0433268,20.7038957 L68.7973739,20.7038957 C68.7973739,20.9532027 68.7973739,20.9532027 69.0486718,20.9532027 C68.7973739,21.2026619 68.7973739,21.4519689 68.2946247,21.4519689 C68.2946247,21.2026619 68.0433268,21.2026619 68.0433268,20.7038957" id="Fill-3"></path>
                                    <path d="M12.7442853,35.6659683 L12.7442853,36.6633484 C12.2415361,36.6633484 11.7387868,36.9128076 11.4874889,36.9128076 C11.7387868,36.6633484 11.7387868,35.6659683 12.7442853,35.6659683" id="Fill-5"></path>
                                    <path d="M42.9258218,86.0383096 C43.1955314,86.0383096 43.1955314,86.3069834 43.1955314,86.5756571 L42.6559475,86.5756571 C42.6559475,86.0383096 43.1955314,86.3069834 42.9258218,86.0383096" id="Fill-6"></path>
                                    <path d="M4.7007577,25.9405602 C4.95205561,25.9405602 4.95205561,26.1900194 4.95205561,26.1900194 C5.20350694,25.9405602 5.20350694,25.192487 4.95205561,25.192487 C5.45480485,24.4444139 5.70610276,23.4468815 6.208852,22.4495013 L7.21435049,22.4495013 C7.21435049,22.9481153 7.4656484,22.9481153 7.21435049,23.4468815 C7.71709973,23.4468815 7.21435049,22.4495013 7.21435049,22.4495013 C7.21435049,21.9507351 7.4656484,21.7012759 7.4656484,21.2026619 C6.96289916,20.9532027 7.4656484,21.9507351 6.96289916,21.7012759 C7.21435049,21.4519689 7.21435049,20.9532027 7.21435049,20.7038957 L7.71709973,20.4544365 C7.96839764,19.9558225 7.96839764,20.2051295 8.21969556,19.7063633 C8.47114689,19.4570563 8.47114689,18.9582902 8.47114689,18.7089832 C8.7224448,18.459524 8.97389613,18.459524 9.22519404,18.459524 L9.22519404,17.9607578 C9.22519404,17.7114508 9.72794328,17.7114508 9.97924119,17.4621438 C10.4819904,16.9633776 9.72794328,17.2126846 10.2306925,17.2126846 C10.4819904,17.2126846 10.2306925,16.4646114 10.2306925,16.7139184 C10.7332883,16.7139184 10.4819904,16.9633776 10.4819904,17.2126846 C10.9847397,17.4621438 10.4819904,16.7139184 10.9847397,16.9633776 C10.9847397,16.7139184 10.4819904,16.7139184 10.4819904,16.4646114 C15.0064268,11.4772539 19.7823145,7.23796956 26.5690457,4.49498381 C26.8203436,4.24552461 26.8203436,4.24552461 27.0716415,3.99621762 C27.5743907,3.74675842 27.0716415,4.7442908 27.3230928,4.7442908 C27.5743907,4.7442908 27.3230928,4.24552461 27.3230928,3.99621762 C27.5743907,3.99621762 28.3284379,3.24814443 28.5798892,3.99621762 C28.8311871,3.99621762 28.5798892,3.74675842 28.5798892,3.49745142 C29.5852343,2.99868523 30.5907328,2.99868523 31.5962313,2.50007124 C32.0988271,2.25061205 31.5962313,2.99868523 32.0988271,2.74937824 C33.1043256,2.25061205 34.8638712,1.50253886 35.8692163,1.75184585 C35.8692163,1.50253886 36.3719655,1.50253886 36.1206676,1.25323187 C37.8802132,1.50253886 38.8855583,0.754465674 40.8964019,1.00377267 C41.1478532,1.25323187 40.645104,1.25323187 40.645104,1.50253886 C40.645104,1.75184585 41.1478532,1.50253886 41.3991511,1.50253886 C40.8964019,1.00377267 41.6506024,1.25323187 41.6506024,0.754465674 C43.1586967,0.505006477 44.9182424,0.00639248705 45.6722895,0.505006477 C46.4263367,0.255699482 46.4263367,0.505006477 47.1803838,0.255699482 C47.4318352,1.25323187 48.4371802,0.255699482 49.6939766,0.505006477 L49.6939766,1.25323187 C50.1967259,1.25323187 50.4481772,1.00377267 50.4481772,0.754465674 C50.950773,0.754465674 51.7049736,0.754465674 51.4535223,1.25323187 C51.7049736,1.25323187 51.7049736,1.00377267 51.7049736,0.754465674 C53.7158172,1.00377267 55.4753628,1.50253886 57.234755,2.00130505 C57.4862063,2.50007124 56.9834571,2.25061205 56.9834571,2.50007124 C56.4807079,2.74937824 56.9834571,2.00130505 56.7321592,2.25061205 C56.7321592,2.74937824 56.22941,2.50007124 56.22941,2.99868523 C56.7321592,2.74937824 57.234755,2.74937824 57.7375043,2.50007124 C57.7375043,2.25061205 57.7375043,2.25061205 57.4862063,2.25061205 C58.7430027,1.75184585 59.4970499,2.99868523 60.7538463,2.99868523 L60.7538463,3.49745142 C61.2565955,3.74691062 61.0051442,3.24814443 61.2565955,3.24814443 C64.0214862,4.49498381 66.535079,5.99113018 69.3001232,7.48742876 C69.3001232,7.73673575 69.5514211,7.73673575 69.3001232,7.98604275 C70.0541703,7.73673575 70.0541703,8.73426813 70.8082175,8.48480894 C70.8082175,9.23288212 70.8082175,10.2304145 70.5569196,10.9784877 C70.3054682,10.9784877 69.802719,10.9784877 69.802719,10.7291807 C70.0541703,10.7291807 70.0541703,10.9784877 70.0541703,10.9784877 C70.3054682,10.9784877 70.0541703,10.4797215 70.3054682,10.4797215 C70.0541703,10.2304145 69.5514211,10.4797215 69.5514211,10.7291807 C66.2837811,8.73426813 63.2674391,6.48989637 59.245752,5.24305699 L59.245752,4.7442908 C58.9943007,4.7442908 58.9943007,5.24305699 58.7430027,4.99375 C58.7430027,4.7442908 58.7430027,4.7442908 58.4915514,4.7442908 C58.4915514,4.49498381 58.7430027,4.49498381 58.7430027,4.49498381 C58.7430027,4.24552461 58.4915514,4.49498381 58.4915514,4.49498381 C58.2402535,4.49498381 58.4915514,5.24305699 58.2402535,4.99375 C58.2402535,4.24552461 58.2402535,3.99621762 58.7430027,3.74691062 C58.4915514,3.49745142 58.4915514,3.49745142 58.4915514,3.24814443 L57.9889556,3.24814443 C58.4915514,3.74691062 57.7375043,3.99621762 58.2402535,4.24552461 C57.9889556,4.24552461 57.9889556,4.49498381 57.9889556,4.49498381 C57.234755,4.24552461 56.22941,3.74691062 55.2239115,3.74691062 C55.2239115,3.49745142 55.2239115,3.24814443 54.9726136,3.24814443 C54.7211622,2.74937824 55.4753628,3.24814443 55.2239115,2.74937824 C54.7211622,2.50007124 55.2239115,3.24814443 54.7211622,2.99868523 C54.7211622,3.24814443 55.2239115,3.24814443 54.9726136,3.74691062 C54.7211622,3.49745142 54.2185664,3.49745142 53.7158172,3.49745142 L53.7158172,2.74937824 C53.4643658,3.74691062 51.9562715,3.24814443 51.4535223,2.74937824 C50.950773,3.24814443 49.945428,2.50007124 48.9399295,2.74937824 C48.9399295,2.50007124 48.4371802,2.50007124 48.6886316,2.25061205 C48.1858823,2.00130505 48.1858823,2.25061205 48.1858823,2.50007124 C44.1641952,2.25061205 40.1423547,2.99868523 37.1260127,2.74937824 C36.6234169,2.99868523 37.377464,2.99868523 37.1260127,3.24814443 C32.3502784,3.74691062 29.0826385,5.74182319 25.3122493,6.98866256 C23.8040016,8.48480894 21.2904088,8.98357513 20.2850637,10.4797215 C19.5308631,10.4797215 19.7823145,11.2279469 19.0282673,10.9784877 C18.776816,11.2279469 18.5255181,11.4772539 18.2740667,11.9760201 C17.2687217,12.2253271 16.7659724,13.2228595 15.7604739,13.9709326 C15.0064268,14.4696988 14.2523796,15.217772 14.0010817,15.9658452 L13.4983325,15.9658452 C13.2468811,17.2126846 11.9900847,16.9633776 11.9900847,18.210217 L11.4874889,18.210217 L11.4874889,18.9582902 C9.47649195,20.7038957 8.21969556,23.1975745 6.96289916,25.6912532 C6.71160125,25.6912532 6.71160125,25.441794 6.71160125,25.441794 C6.46030333,25.441794 6.71160125,26.1900194 6.46030333,25.9405602 C6.208852,26.4393264 6.96289916,25.9405602 6.71160125,26.4393264 C6.208852,26.6886334 6.46030333,26.1900194 5.95755409,26.1900194 C5.95755409,25.9405602 6.46030333,25.9405602 6.208852,25.441794 C6.71160125,25.6912532 6.71160125,25.192487 6.96289916,25.192487 L6.71160125,24.9430278 C6.46030333,24.9430278 6.71160125,25.441794 6.46030333,25.192487 C6.71160125,24.6937209 6.208852,24.9430278 6.208852,24.6937209 C5.95755409,24.9431801 6.46030333,25.192487 6.46030333,25.441794 C5.95755409,25.441794 6.208852,26.4393264 5.70610276,26.6886334 C4.7007577,26.6886334 4.95205561,26.1900194 4.7007577,25.9405602 L4.7007577,25.9405602 Z M21.2904088,8.48480894 C21.0391109,8.48480894 20.7876595,8.73426813 20.7876595,9.23288212 C21.2904088,9.48234132 21.2904088,8.98357513 21.2904088,8.48480894 L21.2904088,8.48480894 Z M43.1586967,1.50253886 C43.661446,1.75184585 43.661446,1.00377267 43.1586967,1.00377267 C43.4099947,1.25323187 43.1586967,1.50253886 43.1586967,1.50253886 L43.1586967,1.50253886 Z M40.393806,2.25061205 C40.645104,2.25061205 40.8964019,2.00130505 40.8964019,1.50253886 C40.645104,1.75184585 40.645104,2.00130505 40.393806,2.25061205 L40.393806,2.25061205 Z M54.2185664,3.24814443 L54.2185664,2.50007124 C53.9671151,2.50007124 53.9671151,2.25061205 53.7158172,2.50007124 C53.9671151,2.74937824 53.9671151,2.99868523 54.2185664,3.24814443 L54.2185664,3.24814443 Z M57.7375043,3.74691062 C57.7375043,3.24814443 57.7375043,2.99868523 57.234755,2.99868523 C57.234755,3.49745142 57.234755,3.74691062 57.7375043,3.74691062 L57.7375043,3.74691062 Z M59.245752,4.24552461 L59.4970499,4.24552461 C59.4970499,3.99621762 59.245752,3.99621762 58.9943007,3.74691062 C58.7430027,3.99621762 59.245752,3.74691062 59.245752,4.24552461 L59.245752,4.24552461 Z M61.5078935,4.99375 L62.0106427,4.99375 C62.0106427,4.7442908 62.0106427,4.49498381 61.7593448,4.49498381 C62.0106427,4.7442908 61.2565955,4.49498381 61.5078935,4.99375 L61.5078935,4.99375 Z M63.0161412,5.24305699 C63.2674391,5.24305699 63.518737,4.99375 63.2674391,4.7442908 C63.0161412,4.7442908 62.7646898,5.24305699 63.0161412,5.24305699 L63.0161412,5.24305699 Z M63.2674391,5.24305699 C63.2674391,5.49236399 63.5199181,6.24058938 63.5199181,5.99113018 C63.5199181,5.74182319 63.7725512,4.99375 63.2674391,5.24305699 L63.2674391,5.24305699 L63.2674391,5.24305699 Z M12.7442853,16.4646114 L11.9900847,16.4646114 C11.9900847,17.2126846 12.7442853,16.7139184 12.7442853,16.4646114 L12.7442853,16.4646114 Z M6.46030333,23.4468815 L7.21435049,23.4468815 L7.21435049,22.9481153 C6.71160125,22.9481153 7.21435049,23.4468815 6.46030333,23.4468815 C6.71160125,22.9481153 6.71160125,22.9481153 6.46030333,22.9481153 L6.46030333,23.4468815 L6.46030333,23.4468815 Z" id="Fill-7"></path>
                                    <path d="M78.8517451,19.4570563 C78.3489958,18.9582902 78.6002938,18.9582902 78.0976979,18.459524 C78.6002938,18.459524 78.8517451,18.210217 78.8517451,17.9607578 C78.3489958,18.210217 78.3489958,18.210217 77.8462466,18.210217 L77.8462466,17.7114508 L78.3489958,17.7114508 C78.6002938,16.9633776 78.0976979,16.7139184 78.0976979,16.4646114 C77.8462466,16.4646114 77.8462466,16.9633776 77.5949487,16.4646114 C77.3434974,16.4646114 77.5949487,16.7139184 77.5949487,16.7139184 C77.0921995,16.4646114 77.0921995,16.7139184 76.8409015,16.7139184 C77.5949487,16.2153044 75.5841051,16.4646114 76.086701,15.467079 C75.5841051,15.217772 76.086701,15.9658452 75.5841051,15.7165382 C75.5841051,15.217772 75.3326538,14.968465 75.0813559,14.968465 C74.8299046,14.4696988 75.5841051,14.968465 75.5841051,14.7190058 C73.8245595,14.4696988 73.3218103,13.2228595 72.3163118,12.4747863 C72.0650139,11.9760201 72.819061,12.4747863 72.5677631,11.9760201 C72.0650139,11.7265609 72.5677631,12.4747863 72.0650139,12.2253271 C71.0595154,11.9760201 71.813716,10.7291807 72.0650139,9.98110751 C72.0650139,9.73164832 71.5622646,9.98110751 71.5622646,9.73164832 C72.3163118,9.23288212 73.3218103,9.98110751 73.3218103,10.7291807 C72.819061,10.2304145 72.819061,10.9784877 72.5677631,10.4797215 C72.0650139,10.7291807 72.819061,10.9784877 72.5677631,11.4772539 C72.819061,11.4772539 72.5677631,10.9784877 72.5677631,10.9784877 C75.3326538,10.9784877 75.5841051,13.4721665 77.5949487,14.4696988 L77.5949487,15.217772 L78.3489958,15.217772 C78.3489958,15.7165382 78.8517451,15.9658452 78.8517451,16.2153044 L78.3489958,16.2153044 C78.6002938,16.7139184 78.8517451,15.9658452 79.103043,16.2153044 C79.103043,16.4646114 79.3544943,16.4646114 79.6057922,16.7139184 C79.6057922,16.9633776 79.3544943,16.9633776 79.3544943,16.9633776 C79.6057922,17.4621438 79.6057922,16.7139184 79.8570902,16.9633776 C80.1085415,17.4621438 80.3598394,17.9607578 80.8625886,18.210217 L80.8625886,18.7089832 C80.8625886,18.9582902 81.1138866,18.7089832 81.3653379,18.7089832 L78.8517451,19.4570563 Z M0.678917176,39.9052526 C1.18166642,38.159647 0.930368506,37.6608808 1.18166642,35.9152753 C1.43311775,34.1696697 2.1871649,32.9228303 2.1871649,31.1773769 L2.68991414,31.1773769 C2.43846281,30.4291516 2.94121206,30.1798446 2.68991414,29.1823122 C3.19250997,29.1823122 2.94121206,29.6810784 3.69525921,29.4317714 C3.69525921,29.6810784 3.19250997,29.6810784 3.4439613,29.9305376 C3.4439613,30.1798446 3.94671054,29.9305376 4.19800845,29.9305376 C3.94671054,29.1823122 3.94671054,28.9330052 4.19800845,28.184932 C3.69525921,28.184932 3.94671054,28.6836982 3.69525921,28.9330052 C3.4439613,28.9330052 3.4439613,28.434239 2.94121206,28.6836982 C2.94121206,28.434239 3.4439613,28.434239 3.19250997,27.9354728 L3.94671054,27.9354728 C4.19800845,27.4368588 3.69525921,27.4368588 3.69525921,27.1873996 C4.19800845,27.1873996 3.94671054,26.4393264 3.94671054,26.1900194 L4.44930637,26.1900194 C4.19800845,26.6886334 4.19800845,26.9380926 3.94671054,27.4368588 C4.7007577,27.9354728 4.44930637,26.4393264 4.95205561,26.4393264 L4.95205561,27.1873996 C5.45480485,27.1873996 5.70610276,26.9380926 5.70610276,26.4393264 C5.95755409,26.6886334 5.95755409,26.9380926 6.208852,27.1873996 C6.208852,27.9354728 5.45480485,27.9354728 5.70610276,29.1823122 C5.20350694,29.4317714 5.70610276,28.434239 5.45480485,28.434239 C5.20350694,28.6836982 5.45480485,29.1823122 5.45480485,29.1823122 C4.19800845,32.6735233 2.94121206,35.1672021 2.94121206,39.9052526 L0.678917176,39.9052526 Z M86.3925235,50.3785816 L88.403367,50.8773478 C87.9006178,52.1241872 87.9006178,53.8697927 87.6493199,55.3659391 C87.6493199,55.6153983 87.1465706,55.8647053 87.1465706,55.8647053 C86.8952727,56.6127785 86.8952727,57.3610039 86.8952727,58.1090771 C86.8952727,58.3583841 86.3925235,58.6078433 86.3925235,58.6078433 L86.3925235,59.3559165 C86.3925235,59.6052234 85.8897742,59.6052234 85.8897742,59.6052234 L85.8897742,60.3532966 C85.8897742,60.6027558 85.387025,60.6027558 85.387025,60.8520628 C85.1357271,61.101522 85.387025,61.600136 85.387025,61.8495952 C85.387025,62.0989022 85.1357271,62.0989022 84.8842757,62.0989022 C84.6329778,62.5976684 84.3816799,63.5952008 84.1302286,64.343274 C83.8789307,64.592581 83.6274793,64.8420402 83.3761814,65.0913472 L83.3761814,65.5901133 C83.3761814,65.8394203 82.8734322,65.5901133 82.8734322,65.8394203 C82.6221343,66.3381865 82.6221343,66.8369527 82.370683,67.3357189 C82.119385,67.5850259 81.6166358,67.8343329 81.3653379,68.0837921 C81.1138866,68.3330991 81.3653379,68.8318653 81.1138866,69.0811723 C80.8625886,69.3306315 80.6112907,69.3306315 80.3598394,69.5799385 C79.8570902,70.3280117 79.6057922,71.325544 78.8517451,71.574851 L78.8517451,71.076237 C78.6002938,71.076237 78.6002938,71.325544 78.3489958,71.325544 C78.3489958,71.574851 78.6002938,71.325544 78.8517451,71.325544 C77.5949487,73.5699158 75.3326538,74.8167552 73.8245595,76.8116677 C73.3218103,77.0609747 73.8245595,76.3129016 73.5731082,76.3129016 C73.3218103,76.3129016 73.5731082,76.8116677 73.5731082,77.0609747 C73.0703589,77.3104339 73.5731082,76.5622085 73.0703589,76.8116677 C72.819061,77.3104339 73.5731082,76.8116677 73.3218103,77.3104339 C71.813716,78.3078141 70.5569196,79.5546535 68.7973739,80.3027267 C68.5459226,80.3027267 68.5459226,80.0534197 68.5459226,79.8041127 C68.2946247,80.0534197 68.5459226,80.3027267 68.5459226,80.5521859 C65.2782826,82.0483323 62.5133919,84.0432448 58.7430027,84.7914702 L58.7430027,84.292704 C57.9889556,84.542011 58.7430027,84.7914702 58.7430027,85.0407772 C58.2402535,85.0407772 57.4862063,85.5395434 57.234755,84.7914702 C56.9834571,84.7914702 57.234755,85.2900842 57.234755,85.5395434 C56.4807079,85.5395434 56.22941,85.7888504 55.7266607,86.0383096 C55.4752094,86.0383096 55.4752094,85.7888504 55.4752094,85.5395434 C54.9726136,85.5395434 54.9726136,86.0383096 54.4698643,86.0383096 C54.4698643,85.7888504 54.4698643,85.7888504 54.218413,85.7888504 C53.9671151,86.2876166 52.9616166,86.2876166 52.2075694,86.5369236 C52.2075694,86.2876166 52.7103187,86.2876166 52.4590208,86.0383096 C51.7048202,86.7863828 49.945428,86.7863828 48.6886316,87.0356898 C47.6831331,86.5369236 45.9235875,87.285149 43.661446,87.0356898 C44.1640418,86.5369236 43.9127439,86.0383096 43.661446,85.7888504 C44.1640418,85.5395434 43.9127439,86.0383096 44.1640418,86.0383096 C44.4154931,86.0383096 44.4154931,85.5395434 44.4154931,85.5395434 C44.4154931,85.2900842 43.661446,85.2900842 43.661446,85.0407772 L44.9182424,85.0407772 C45.1695403,85.5395434 44.4154931,85.5395434 44.6667911,86.0383096 C44.9182424,86.2876166 44.9182424,85.0407772 45.1695403,85.7888504 C45.4208382,85.7888504 45.1695403,85.2900842 45.1695403,85.0407772 C45.4208382,85.0407772 46.4263367,85.2900842 46.4263367,84.7914702 C46.6776346,85.2900842 46.9290859,84.542011 47.4318352,84.7914702 L47.4318352,86.0383096 C46.9290859,86.2876166 47.4318352,85.2900842 46.9290859,85.5395434 C46.6776346,85.5395434 46.9290859,85.7888504 46.9290859,86.0383096 C47.934431,86.5369236 47.6831331,85.2900842 48.4371802,85.2900842 C48.4371802,85.5395434 47.934431,85.5395434 48.1858823,85.7888504 C48.1858823,86.0383096 48.9399295,85.7888504 48.6886316,86.2876166 C49.1912274,86.5369236 48.6886316,85.7888504 49.1912274,86.0383096 C49.1912274,86.5369236 49.4426787,86.5369236 49.4426787,86.5369236 C49.6939766,86.5369236 49.4426787,86.2876166 49.4426787,86.0383096 C49.4426787,85.7888504 49.1912274,86.0383096 48.9399295,86.0383096 C48.6886316,85.2900842 49.4426787,85.2900842 48.9399295,84.7914702 C49.4426787,84.7914702 50.6994751,84.292704 51.2022244,84.7914702 C51.7048202,84.0432448 53.4643658,84.542011 54.218413,84.0432448 C54.7211622,83.7939378 54.218413,84.542011 54.7211622,84.292704 C54.7211622,84.542011 54.7211622,84.542011 54.4698643,84.542011 C54.7211622,84.7914702 54.9726136,84.542011 55.2239115,84.542011 C55.2239115,84.0432448 54.7211622,84.292704 54.9726136,83.7939378 C56.4807079,83.5446308 58.2402535,83.2951716 59.2455986,82.5470984 C59.4970499,82.5470984 59.4970499,82.7964054 59.4970499,82.7964054 C59.7483478,82.2977915 61.0051442,81.7990253 61.2565955,82.0483323 C63.518737,80.5521859 66.0323298,79.5546535 68.5459226,78.0585071 L68.5459226,77.5597409 C69.0486718,77.5597409 69.2999697,77.0609747 69.802719,77.3104339 C69.802719,77.3104339 69.5514211,77.3104339 69.5514211,77.0609747 C71.3109667,76.3129016 72.0650139,74.567296 73.8245595,74.0685298 L73.8245595,73.5699158 C74.0758574,73.8192228 74.0758574,73.8192228 74.3271553,74.0685298 C73.8245595,73.0711496 75.5839517,72.3230764 76.086701,71.325544 C76.8407481,71.325544 76.8407481,70.8267778 76.8407481,70.5774709 C77.0921995,70.5774709 77.0921995,70.8267778 77.3434974,70.5774709 C77.3434974,69.8293977 77.8462466,69.3306315 78.3489958,68.8318653 C78.3489958,69.3306315 78.6002938,69.3306315 78.6002938,69.3306315 C78.8517451,69.0811723 78.0975445,68.8318653 78.3489958,68.5825583 C78.8517451,67.8343329 79.3543409,67.3357189 79.8570902,66.5874935 C79.8570902,67.0862597 79.8570902,67.0862597 79.6057922,67.0862597 L79.8570902,67.3357189 C79.8570902,66.3381865 80.1085415,65.5901133 80.3598394,64.8420402 C80.8625886,65.0913472 80.8625886,64.592581 81.1138866,64.592581 C81.3653379,64.0938148 80.6111373,64.592581 80.8625886,64.0938148 C83.8789307,60.8520628 85.387025,55.8647053 86.3925235,50.3785816 L86.3925235,50.3785816 Z M51.9562715,86.0383096 C51.4535223,86.2876166 51.9562715,85.5395434 51.4535223,85.7888504 C51.7049736,86.5369236 51.2022244,86.5369236 51.2022244,87.0356898 L51.7049736,87.0356898 C51.7049736,86.2876166 51.9562715,86.2876166 51.9562715,86.0383096 L51.9562715,86.0383096 Z M79.103043,68.3330991 C79.3544943,68.8318653 78.6002938,68.3330991 78.8517451,68.8318653 C79.3544943,69.0811723 79.103043,68.5825583 79.103043,68.3330991 L79.3544943,68.8318653 C79.3544943,69.0811723 78.8517451,69.0811723 79.103043,69.5799385 C79.6057922,69.5799385 79.3544943,68.8318653 80.1085415,69.0811723 C79.8570902,68.5825583 80.3598394,68.5825583 80.3598394,68.3330991 C80.1085415,68.0837921 79.8570902,68.5825583 79.103043,68.3330991 L79.103043,68.3330991 Z M75.8354031,15.7165382 C76.3381523,15.467079 76.3381523,15.9658452 76.5894502,15.9658452 C76.5894502,15.467079 76.3381523,15.217772 76.086701,14.968465 C76.086701,15.467079 75.5841051,15.467079 75.8354031,15.7165382 L75.8354031,15.7165382 Z M76.5894502,15.7165382 L76.5894502,16.2153044 C77.0921995,16.4646114 77.5949487,15.7165382 77.0921995,15.467079 C77.3434974,15.7165382 76.8409015,15.467079 76.5894502,15.7165382 L76.5894502,15.7165382 Z M87.6493199,51.376114 L88.1520691,51.376114 C88.1520691,50.8773478 87.1465706,50.8773478 87.6493199,51.376114 C87.6493199,51.126807 87.6493199,51.126807 87.6493199,51.376114 L87.6493199,51.376114 Z M80.6112907,67.0862597 L81.1138866,67.0862597 C80.8625886,66.8369527 80.8625886,66.5874935 80.6112907,66.5874935 L80.6112907,67.0862597 L80.6112907,67.0862597 Z M69.6157797,79.3053465 L69.6157797,78.8065803 L69.3001232,78.8065803 C69.3001232,79.0558873 69.3001232,79.3053465 69.6157797,79.3053465 L69.6157797,79.3053465 Z M67.0378283,81.3002591 C67.2891262,81.3002591 67.5405775,81.0509521 67.5405775,80.8014929 C67.2891262,80.5521859 67.2891262,80.0534197 67.0378283,80.0534197 C66.7865304,80.5521859 67.0378283,80.8014929 67.0378283,81.3002591 C67.0378283,81.0509521 67.0378283,81.0509521 67.0378283,81.3002591 L67.0378283,81.3002591 Z M65.7810319,81.5495661 L65.7810319,82.0483323 L66.535079,82.0483323 C66.535079,81.7990253 66.7865304,81.3002591 66.535079,81.5495661 C66.2837811,81.7990253 66.0323298,81.5495661 65.7810319,81.5495661 L65.7810319,81.5495661 Z M63.2674391,83.5446308 L63.2674391,83.0458646 L62.7646898,83.0458646 C62.7646898,83.5446308 63.0161412,83.7939378 63.2674391,83.5446308 L63.2674391,83.5446308 Z M60.2510971,84.542011 C60.5025484,84.0432448 59.4970499,83.7939378 59.9997991,84.0432448 C60.2510971,84.0432448 59.7483478,84.7914702 60.2510971,84.542011 L60.2510971,84.542011 Z M58.2402535,84.542011 L58.7430027,84.542011 L58.7430027,84.7914702 C58.9943007,84.7914702 59.245752,84.542011 59.245752,84.0432448 C58.7430027,84.0432448 58.7430027,83.5446308 58.2402535,83.7939378 L58.2402535,84.542011 L58.2402535,84.542011 Z M44.4154931,87.285149 C44.4154931,87.534456 44.4154931,87.783763 44.6667911,87.783763 C44.6667911,87.285149 45.4209916,87.285149 45.4209916,87.0356898 C44.9182424,87.285149 45.4209916,86.2876166 44.9182424,86.5369236 C45.1695403,86.7863828 44.9182424,87.285149 44.4154931,87.285149 L44.4154931,87.285149 Z M46.239244,87.534456 C45.9235875,87.285149 46.239244,87.285149 46.239244,87.0356898 L45.9235875,87.0356898 L45.9235875,87.534456 C46.239244,87.285149 46.239244,88.0332222 46.239244,87.534456 L46.239244,87.534456 Z M4.44930637,28.434239 C4.7007577,28.434239 4.95205561,28.184932 4.95205561,27.9354728 C4.7007577,27.9354728 4.44930637,28.184932 4.44930637,28.434239 L4.44930637,28.434239 Z M3.69525921,31.1773769 C3.69525921,30.6786108 3.4439613,30.6786108 3.19250997,30.6786108 C3.19250997,30.9279177 3.4439613,31.1773769 3.69525921,31.1773769 L3.69525921,31.1773769 Z M4.19800845,32.1747571 L4.19800845,31.6759909 L3.69525921,31.6759909 C3.4439613,31.9254501 3.69525921,32.1747571 4.19800845,32.1747571 L4.19800845,32.1747571 Z M3.69525921,32.4242163 C3.4439613,32.4242163 3.4439613,31.9254501 2.94121206,32.1747571 C2.68991414,32.6735233 3.4439613,32.4242163 3.69525921,32.4242163 L3.69525921,32.4242163 Z M1.68441566,39.6557934 L2.1871649,39.6557934 C2.1871649,39.4064864 2.1871649,39.1570272 1.93571357,39.1570272 C1.93571357,39.4064864 1.43311775,39.1570272 1.68441566,39.6557934 L1.68441566,39.6557934 Z" id="Fill-8"></path>
                                    <path d="M13.7496304,73.0711496 C14.0010817,73.5699158 13.4983325,73.5699158 13.4983325,73.8192228 C14.0010817,74.0685298 14.0010817,73.5699158 14.2523796,73.5699158 L14.2523796,73.0711496 L13.7496304,73.0711496 L13.7496304,73.0711496 Z M13.2468811,73.8192228 C13.2468811,73.5699158 13.4983325,73.0711496 12.9955832,73.0711496 C13.2468811,73.3204566 12.9955832,73.8192228 13.2468811,73.8192228 L13.2468811,73.8192228 Z M13.7496304,74.8167552 C14.0010817,74.8167552 14.2523796,74.567296 14.2523796,74.317989 C13.7496304,74.567296 14.2523796,73.8192228 13.7496304,74.0685298 L13.7496304,74.8167552 L13.7496304,74.8167552 Z" id="Fill-9"></path>
                                    <path d="M43.9127439,10.7291807 C44.1641952,10.9784877 44.1641952,10.9784877 44.1641952,11.2279469 C42.4046496,10.9784877 40.645104,11.9760201 39.3883076,11.4772539 C38.3828091,12.2253271 36.1206676,11.9760201 35.1151691,12.7240933 C34.8638712,12.7240933 34.8638712,12.7240933 34.8638712,12.4747863 C34.6124199,12.9734003 33.8583727,12.9734003 33.3556235,13.4721665 C29.8366856,14.2202396 27.3230928,16.4646114 24.5580487,17.9607578 C24.5580487,17.4621438 25.060798,17.2126846 25.060798,16.7139184 C25.060798,16.4646114 24.8095,16.7139184 24.5580487,16.7139184 C26.3175943,15.217772 28.5798892,13.9709326 31.093482,12.9734003 C31.093482,12.7240933 31.5962313,12.7240933 31.3447799,12.4747863 C33.1043256,12.4747863 33.6070748,11.4772539 35.3666205,11.4772539 L35.3666205,11.9760201 C35.6179184,11.9760201 35.3666205,11.4772539 35.3666205,11.2279469 C35.8692163,11.7265609 36.1206676,10.9784877 35.8692163,11.7265609 C36.3719655,11.9760201 35.8692163,11.2279469 36.3719655,11.4772539 C36.6234169,10.9784877 35.8692163,11.4772539 36.1206676,10.9784877 C37.1260127,10.7291807 38.6342604,10.2304145 39.1370096,10.9784877 C39.6396055,10.9784877 39.6396055,10.4797215 39.8910568,10.4797215 C40.393806,10.4797215 39.6396055,10.9784877 40.1423547,10.9784877 C40.645104,10.9784877 40.393806,10.7291807 40.393806,10.4797215 C40.8964019,10.2304145 42.4046496,9.98110751 42.9073988,10.4797215 C42.9073988,10.2304145 43.661446,10.2304145 43.9127439,10.2304145 L43.9127439,10.7291807 L44.1641952,10.7291807 C44.4154931,10.7291807 44.1641952,10.4797215 44.1641952,10.2304145 L45.4208382,10.2304145 C45.4208382,10.4797215 45.1695403,10.7291807 44.9182424,10.7291807 C44.9182424,10.9784877 45.4208382,10.9784877 45.4208382,11.2279469 L44.1641952,11.2279469 C44.6667911,10.9784877 44.4154931,10.7291807 43.9127439,10.7291807 L43.9127439,10.7291807 Z M40.8964019,11.2279469 C41.3991511,11.2279469 41.6506024,10.9784877 41.9019003,10.7291807 C41.6506024,10.9784877 41.1478532,10.7291807 40.8964019,11.2279469 L40.8964019,11.2279469 Z" id="Fill-10"></path>
                                    <path d="M54.9726136,12.4747863 C54.9726136,11.9760201 56.22941,11.9760201 56.22941,12.4747863 C56.22941,12.4747863 56.22941,12.2253271 56.4807079,12.2253271 C56.7321592,12.7240933 57.7375043,13.2228595 58.2402535,12.9734003 L58.2402535,13.4721665 L57.7375043,13.4721665 C57.7375043,13.7216256 57.9889556,13.7216256 57.9889556,13.7216256 C58.2402535,13.7216256 57.9889556,13.2228595 58.2402535,13.4721665 C58.2402535,13.7216256 58.2402535,13.7216256 58.4915514,13.7216256 C58.2402535,13.9709326 58.2402535,13.9709326 58.2402535,14.2202396 C57.4862063,14.2202396 56.7321592,13.9709326 56.7321592,13.4721665 C57.234755,13.2228595 56.7321592,13.9709326 57.234755,13.7216256 C57.234755,13.4721665 56.7321592,13.2228595 56.7321592,12.9734003 C56.4807079,12.9734003 56.7321592,13.4721665 56.7321592,13.7216256 C55.7266607,13.4721665 54.7211622,13.4721665 54.2185664,12.4747863 C53.7158172,12.9734003 53.2130679,12.2253271 52.4590208,12.4747863 L52.4590208,11.2279469 C52.96177,10.9784877 52.7103187,11.4772539 53.2130679,11.4772539 C52.96177,11.9760201 53.2130679,11.9760201 53.2130679,12.2253271 C54.2185664,12.4747863 55.4753628,11.4772539 54.9726136,12.4747863" id="Fill-11"></path>
                                    <path d="M60.7538463,14.4696988 C61.7593448,14.2202396 61.5078935,14.968465 62.2619406,14.968465 C62.2619406,15.217772 61.7593448,15.7165382 62.2619406,15.9658452 C62.2619406,15.7165382 62.5133919,15.467079 62.5133919,15.217772 C63.0161412,14.968465 62.5133919,15.7165382 63.0161412,15.467079 C62.7646898,15.9658452 62.7646898,15.7165382 63.0161412,16.2153044 C62.5133919,16.2153044 62.2619406,16.2153044 62.2619406,16.4646114 C61.7593448,16.2153044 61.5078935,15.9658452 61.0051442,15.7165382 C61.0051442,15.467079 61.2565955,15.467079 61.5078935,15.217772 C61.2565955,14.968465 61.0051442,14.968465 60.7538463,14.4696988 C60.5025484,14.968465 61.2565955,14.968465 61.0051442,15.467079 C60.5025484,15.217772 59.9997991,15.217772 59.9997991,14.7190058 C59.7483478,14.7190058 59.7483478,15.217772 59.245752,14.968465 C59.245752,14.7190058 58.9943007,14.7190058 59.245752,14.4696988 L59.7483478,14.4696988 C59.9997991,13.9709326 59.4970499,14.2202396 59.4970499,13.7216256 C59.9997991,13.7216256 60.2510971,14.2202396 60.7538463,13.9709326 L60.7538463,14.4696988" id="Fill-12"></path>
                                    <path d="M22.2959072,18.459524 C22.5472052,18.459524 22.7986565,18.459524 22.7986565,18.210217 L23.3012523,18.210217 C23.5527036,18.210217 23.3012523,17.7114508 23.3012523,17.7114508 C23.8040016,17.4621438 23.3012523,18.210217 23.8040016,17.9607578 C24.0554529,17.4621438 23.3012523,17.9607578 23.5527036,17.4621438 C24.0554529,17.4621438 23.8040016,16.9633776 24.3067508,16.9633776 C24.3067508,17.7114508 23.8040016,17.9607578 24.0554529,18.7089832 C23.3012523,18.9582902 23.0499544,19.7063633 22.0444559,19.9558225 C22.0444559,20.4544365 21.5418601,20.7038957 21.2904088,20.9532027 L21.0391109,20.9532027 C21.0391109,20.4544365 21.5418601,20.7038957 21.5418601,20.2051295 C21.5418601,19.9558225 21.2904088,20.2051295 21.2904088,20.2051295 C21.0391109,20.7038957 20.7876595,21.2026619 21.2904088,21.7012759 C19.0282673,23.4468815 18.0227688,26.1900194 15.7604739,28.184932 C15.7604739,27.6861658 15.7604739,27.6861658 16.0119253,27.6861658 C16.0119253,27.4368588 15.509176,27.6861658 15.2578781,27.6861658 C15.509176,27.1873996 16.0119253,27.1873996 16.0119253,26.4393264 C16.2632232,26.1900194 16.0119253,26.9380926 16.0119253,26.9380926 C16.2632232,26.6886334 16.5146745,26.4393264 17.0172703,26.4393264 L17.0172703,26.1900194 C17.0172703,25.9405602 16.7659724,26.1900194 16.5146745,26.1900194 C16.2632232,25.6912532 16.7659724,25.6912532 16.7659724,25.192487 C17.5200196,25.192487 17.2687217,24.1949547 18.0227688,24.4444139 L18.0227688,23.6963407 C18.5255181,23.4468815 18.0227688,24.1949547 18.5255181,23.9456477 C17.7714709,23.1975745 19.2795652,22.9481153 19.0282673,22.2000421 C19.5308631,22.4495013 20.0336124,20.7038957 20.2850637,21.7012759 C20.5363616,21.7012759 20.2850637,21.2026619 20.2850637,20.9532027 C20.7876595,20.7038957 20.7876595,20.2051295 21.5418601,20.2051295 C21.793158,20.4544365 21.5418601,20.9532027 21.5418601,21.2025097 C22.0444559,19.9558225 22.5472052,19.4570563 22.2959072,18.459524" id="Fill-13"></path>
                                    <path d="M66.7865304,18.7089832 C67.7918754,18.459524 67.7918754,20.2051295 68.2946247,19.4570563 C68.2946247,19.9558225 68.0433268,20.4544365 67.7918754,20.7038957 C67.7918754,20.2051295 67.2891262,20.2051295 66.7865304,19.9558225 C66.7865304,19.7063633 67.0378283,19.4570563 67.5405775,19.4570563 C67.2891262,19.2075972 67.0378283,19.2075972 66.7865304,18.7089832 C66.535079,18.9582902 66.7865304,19.4570563 66.7865304,19.4570563 L66.2837811,19.4570563 L66.535079,19.4570563 C66.535079,19.2075972 66.7865304,18.9582902 66.7865304,18.7089832" id="Fill-14"></path>
                                    <path d="M14.7551289,29.1823122 C14.7551289,28.6836982 14.5036775,28.434239 14.5036775,28.184932 C14.7551289,28.184932 14.7551289,27.9354728 14.7551289,27.9354728 L15.7604739,27.9354728 C15.7604739,28.6836982 15.2578781,28.434239 15.7604739,28.9330052 C14.7551289,29.9305376 14.7551289,31.9254501 13.7496304,32.9228303 C14.0010817,33.6710557 13.4983325,33.9203627 13.4983325,34.1696697 C12.9955832,34.1696697 13.2468811,33.6710557 12.9955832,33.9203627 C12.9955832,33.9203627 12.9955832,33.9203627 12.7442853,33.9203627 C12.492834,34.1696697 12.7442853,34.9178951 12.7442853,35.1672021 C12.492834,35.1672021 12.492834,35.4165091 12.492834,35.4165091 L11.7387868,35.4165091 C12.2415361,32.9228303 13.2468811,31.1772247 14.0010817,29.1823122 L14.7551289,29.1823122 L14.7551289,29.1823122 Z M14.5036775,29.9305376 C15.0064268,29.9305376 15.2578781,29.6810784 15.2578781,29.4317714 C14.7551289,29.1823122 14.5036775,29.4317714 14.5036775,29.9305376 L14.5036775,29.9305376 Z" id="Fill-15"></path>
                                    <path d="M72.3163118,62.5976684 C72.819061,63.0964346 72.3163118,63.8445078 72.3163118,64.343274 L71.813716,64.343274 C71.813716,65.3406541 70.8082175,65.3406541 70.8082175,66.3381865 C69.5514211,67.0862597 69.0486718,68.3330991 67.7918754,68.8318653 L67.7918754,69.3306315 C66.7865304,69.0811723 66.7865304,70.5774709 66.0323298,69.8293977 C65.529734,70.0787047 66.2837811,70.3280117 66.0323298,70.5774709 C65.0269847,70.3280117 65.2782826,71.076237 64.7755334,71.076237 C64.7755334,70.8267778 65.0269847,70.5774709 64.7755334,70.5774709 C64.7755334,71.076237 64.5242355,71.325544 63.7701883,71.076237 C63.518737,71.574851 64.2729376,71.076237 64.0214862,71.325544 C63.0161412,72.5723834 61.2565955,73.0711496 59.9997991,74.0685298 C59.7483478,74.0685298 59.7483478,73.8192228 59.7483478,73.8192228 C59.4970499,74.567296 58.2402535,74.8167552 57.4862063,74.8167552 C55.9779586,76.0635946 53.4643658,76.3129016 51.4535223,77.0609747 C51.2022244,77.0609747 51.2022244,76.8116677 51.2022244,76.8116677 C50.6994751,77.3104339 49.4426787,77.0609747 48.9399295,77.5597409 L48.9399295,77.0609747 C48.6886316,77.0609747 48.9399295,77.3104339 48.9399295,77.5597409 C46.9290859,77.5597409 45.6722895,77.8090479 44.1641952,77.8090479 C44.1641952,77.3104339 44.1641952,77.3104339 44.6667911,77.3104339 L44.6667911,77.0609747 C44.6667911,76.8116677 44.1641952,77.0609747 44.1641952,76.8116677 C43.9127439,77.0609747 43.661446,77.0609747 43.4099947,77.3104339 C43.661446,77.8090479 43.9127439,77.3104339 44.1641952,77.3104339 C44.1641952,77.5597409 43.661446,77.5597409 43.9127439,78.0585071 C43.1586967,77.8090479 42.4046496,77.5597409 41.6506024,77.8090479 L41.6506024,77.3104339 C41.1478532,77.3104339 41.3991511,77.8090479 40.8964019,77.8090479 C40.393806,77.8090479 40.645104,77.3104339 40.393806,77.3104339 C37.8802132,77.8090479 35.1151691,76.3129016 32.8530277,75.8141354 C33.1043256,75.3153692 32.3502784,75.8141354 32.6015763,75.3153692 C32.0988271,75.0660622 32.6015763,75.8141354 32.0988271,75.5648284 C31.8475292,75.0660622 31.3447799,75.0660622 30.8420307,75.0660622 C30.8420307,74.567296 30.8420307,74.317989 31.093482,74.317989 C30.8420307,74.0685298 30.3394349,74.317989 30.3394349,74.567296 C30.0879835,74.567296 29.8366856,74.317989 29.3339364,74.317989 C29.3339364,74.0685298 29.0826385,74.0685298 29.3339364,73.8192228 C27.8258421,73.8192228 27.0716415,73.0711496 26.5690457,72.3230764 C26.5690457,72.3230764 26.5690457,72.5723834 26.3175943,72.5723834 C26.3175943,72.3230764 26.0662964,72.0736172 26.0662964,71.574851 L25.5635472,71.574851 C25.3122493,72.0736172 26.0662964,71.574851 25.8148451,72.0736172 C25.3122493,71.8243102 24.8095,71.574851 24.5580487,71.076237 L25.060798,71.076237 C25.060798,70.8267778 24.8095,70.5774709 25.060798,70.0787047 C24.8095,70.3280117 24.5580487,70.5774709 24.5580487,71.076237 C24.3067508,71.076237 24.3067508,70.5774709 23.8040016,70.8267778 C23.5527036,70.3280117 24.3067508,70.3280117 24.0554529,69.8293977 C23.5527036,69.8293977 23.8040016,70.3280117 23.5527036,70.3280117 C23.8040016,69.8293977 23.0499544,70.3280117 23.3012523,69.8293977 C23.8040016,69.8293977 23.8040016,69.5799385 23.8040016,69.3306315 C25.3122493,70.3280117 26.8203436,71.574851 28.5798892,72.5723834 C28.5798892,72.8216904 28.07714,72.8216904 28.3284379,73.3204566 C28.5798892,73.3204566 28.8311871,73.0711496 28.8311871,72.8216904 C30.3394349,73.0711496 30.8420307,74.317989 32.3502784,74.567296 C32.6015763,75.0660622 31.8475292,74.567296 31.8475292,74.8167552 C32.3502784,75.0660622 32.8530277,74.567296 33.3556235,74.8167552 C33.3556235,75.3153692 33.3556235,75.3153692 33.1043256,75.3153692 C33.1043256,75.5648284 33.3556235,75.3153692 33.3556235,75.3153692 C33.6070748,75.3153692 33.3556235,74.8167552 33.6070748,74.8167552 C34.361122,75.0660622 34.8638712,75.3153692 35.6179184,75.3153692 C35.6179184,75.5648284 35.3666205,75.5648284 35.3666205,75.5648284 C35.3666205,75.8141354 35.6179184,75.5648284 35.6179184,75.5648284 C35.8692163,75.5648284 35.6179184,75.3153692 35.6179184,75.0660622 C36.1206676,75.3153692 36.8747148,75.5648284 37.377464,76.0635946 C37.6287619,76.0635946 37.377464,75.8141354 37.377464,75.5648284 C37.8802132,75.8141354 38.3828091,76.0635946 39.1370096,76.0635946 C39.1370096,76.3129016 39.1370096,76.5622085 38.8855583,76.5622085 C38.8855583,76.5622085 39.1370096,76.5622085 39.1370096,76.8116677 C39.1370096,76.5622085 39.1370096,76.3129016 39.6397589,76.0635946 C40.1423547,76.3129016 40.645104,76.3129016 41.3991511,76.3129016 L41.3991511,76.8116677 C42.4046496,76.3129016 43.4101481,76.5622085 44.9182424,76.5622085 C44.9182424,76.5622085 44.6669445,76.5622085 44.6669445,76.8116677 C44.9182424,76.8116677 44.9182424,76.5622085 44.9182424,76.5622085 C46.9290859,76.8116677 48.9399295,75.8141354 50.4481772,76.3129016 C50.6994751,76.0635946 51.2022244,75.5648284 51.4535223,76.0635946 C51.9562715,75.5648284 53.2130679,75.5648284 53.9671151,75.0660622 C54.4698643,74.8167552 53.9671151,75.5648284 54.2185664,75.5648284 C54.4698643,74.8167552 55.7266607,74.317989 56.22941,74.8167552 C56.4807079,74.8167552 56.22941,74.567296 56.22941,74.317989 C58.2402535,74.0685298 59.4970499,72.5723834 61.2565955,72.3230764 C61.7593448,71.574851 62.5133919,70.8267778 63.5188904,71.076237 L63.5188904,70.8267778 C66.2837811,69.0811723 68.546076,66.5874935 70.5569196,64.0938148 C71.0595154,64.0938148 71.3109667,64.0938148 71.5622646,64.343274 C71.813716,64.0938148 71.5622646,63.0964346 71.5622646,62.5976684 C73.8245595,59.6052234 75.0813559,57.6103109 76.086701,53.1217196 C76.8409015,53.3710266 76.8409015,52.3736464 77.5949487,52.6229534 C76.5894502,56.6127785 75.3326538,58.8571503 73.5731082,62.0989022 C73.3218103,62.3483614 73.0705124,62.8469754 72.3163118,62.5976684 L72.3163118,62.5976684 Z M67.2891262,68.8318653 C67.0378283,68.8318653 67.0378283,69.3306315 66.7865304,69.5799385 L67.2891262,69.5799385 L67.2891262,68.8318653 L67.2891262,68.8318653 Z M66.535079,69.5799385 C66.2837811,69.5799385 66.2837811,69.8293977 65.7810319,69.5799385 C65.7810319,69.8293977 66.2837811,69.8293977 66.535079,70.0787047 L66.535079,69.5799385 L66.535079,69.5799385 Z M63.2686664,72.0736172 C63.2686664,71.8243102 63.5211917,71.325544 63.0161412,71.325544 C63.2686664,71.8243102 62.7634618,72.3230764 63.2686664,72.0736172 L63.2686664,72.0736172 Z M42.6559475,77.5597409 L42.6559475,77.0609747 L42.1531983,77.0609747 C42.1531983,77.5597409 42.4046496,77.8090479 42.6559475,77.5597409 L42.6559475,77.5597409 Z" id="Fill-16"></path>
                                    <path d="M17.5200196,76.0635946 C17.0172703,76.3129016 17.0172703,76.8116677 17.5200196,77.0609747 L17.0172703,77.0609747 L17.0172703,77.5597409 C17.0172703,77.8090479 17.7714709,77.5597409 17.5200196,78.0585071 C18.0227688,78.0585071 17.7714709,77.3104339 18.0227688,76.8116677 C18.0227688,76.5622085 17.7714709,76.8116677 17.5200196,76.8116677 C17.7714709,76.8116677 17.7714709,76.3129016 18.0227688,76.5622085 C17.7714709,77.0609747 18.2740667,76.8116677 18.2740667,77.0609747 C18.5255181,77.0609747 18.5255181,76.5622085 18.776816,76.8116677 C18.5255181,77.5597409 19.5308631,77.0609747 19.2795652,77.8090479 C20.2850637,78.0585071 21.793158,78.5572733 21.5418601,79.5546535 C21.793158,79.8041127 22.0444559,79.8041127 22.2959072,80.0534197 C22.5472052,79.8041127 22.5472052,79.8041127 22.7986565,79.5546535 C23.5527036,79.8041127 24.0554529,80.5521859 24.8095,80.8014929 C25.060798,81.3002591 24.5580487,81.3002591 24.5580487,81.5495661 C24.8095,81.5495661 25.060798,81.3002591 25.060798,81.0509521 C26.0662964,81.0509521 26.5690457,81.5495661 27.0716415,82.0483323 C27.3230928,82.5470984 26.8203436,82.2977915 26.8203436,82.5470984 C26.8203436,82.7964054 27.0716415,82.5470984 27.0716415,82.5470984 C27.3230928,82.5470984 27.0716415,82.0483323 27.0716415,82.0483323 C27.3230928,82.5470984 27.5743907,82.2977915 28.07714,82.2977915 C27.8258421,82.7964054 28.5798892,82.2977915 28.5798892,82.7964054 L28.5798892,82.5470984 C30.3394349,83.2951716 32.0988271,84.0432448 34.1098241,84.292704 C34.1098241,84.542011 34.361122,84.542011 34.1098241,84.7914702 C34.361122,84.7914702 34.6124199,84.542011 35.1151691,84.542011 L35.1151691,85.2900842 L34.6124199,85.2900842 C34.6124199,85.5395434 35.1151691,85.5395434 34.8638712,86.0383096 C34.361122,86.2876166 34.8638712,85.5395434 34.6124199,85.5395434 C34.6124199,85.7888504 34.1098241,86.0383096 34.361122,86.5369236 C33.3556235,86.2876166 32.6015763,86.0383096 31.5962313,85.7888504 C31.5962313,85.5395434 31.3447799,85.5395434 31.5962313,85.0407772 L30.8420307,85.0407772 C30.8420307,84.542011 30.5907328,84.292704 30.5907328,84.292704 C30.5907328,84.542011 30.3394349,84.7914702 30.3394349,85.0407772 C29.5852343,85.0407772 29.5852343,84.542011 28.5798892,84.7914702 C28.5798892,84.542011 28.3284379,84.292704 28.3284379,83.7939378 C28.5798892,83.7939378 28.5798892,84.0432448 28.5798892,84.0432448 C29.0826385,83.5446308 28.3284379,83.0458646 28.07714,82.7964054 C28.07714,83.2951716 28.07714,83.5446308 27.8258421,83.7939378 C27.3230928,84.0432448 27.8258421,83.2951716 27.3230928,83.5446308 C27.3230928,84.0432448 28.07714,84.0432448 27.8258421,84.542011 C26.8203436,84.0432448 26.0662964,83.7939378 25.060798,83.5446308 C25.060798,83.0458646 25.060798,82.7964054 24.8095,82.5470984 C24.3067508,82.7964054 25.060798,83.0458646 24.8095,83.2951716 C24.3067508,82.7964054 24.0554529,82.2977915 23.0499544,82.5470984 C23.0499544,82.0483323 23.0499544,81.7990253 23.5527036,81.7990253 C23.5527036,81.5495661 23.3012523,81.5495661 23.3012523,81.3002591 C22.7986565,82.0483323 22.0444559,80.5521859 21.793158,81.5495661 C20.2850637,80.8014929 19.0282673,79.8041127 17.7714709,79.0558873 L17.7714709,78.3078141 C17.5200196,78.3078141 17.5200196,78.5572733 17.5200196,78.8065803 C17.0172703,78.5572733 17.0172703,78.0585071 16.2632232,78.0585071 C16.2632232,77.5597409 16.2632232,77.0609747 16.5146745,76.8116677 C16.7659724,76.8116677 16.7659724,77.0609747 16.7659724,77.0609747 C17.2687217,76.8116677 16.5146745,76.8116677 16.7659724,76.5622085 C17.2687217,76.3129016 17.5200196,75.5648284 17.5200196,76.0635946 C17.5200196,76.3129016 17.5200196,76.3129016 17.5200196,76.0635946 L17.5200196,76.0635946 Z M23.3012523,81.3002591 L23.8040016,81.3002591 C23.8040016,81.0509521 23.5527036,80.8014929 23.3012523,80.8014929 L23.3012523,81.3002591 L23.3012523,81.3002591 Z M25.8148451,82.2977915 L25.8148451,82.7964054 C26.3175943,82.7964054 26.0662964,82.2977915 26.3175943,82.2977915 C26.5690457,82.2977915 26.8203436,82.2977915 26.5690457,82.0483323 C26.0662964,81.7990253 26.3175943,82.2977915 25.8148451,82.2977915 L25.8148451,82.2977915 Z M31.5962313,84.542011 C31.5962313,84.7914702 31.8475292,84.7914702 31.8475292,85.0407772 C31.8475292,84.7914702 31.8475292,84.7914702 32.0988271,84.7914702 C32.0988271,84.292704 31.8475292,84.292704 31.5962313,84.542011 C31.5962313,84.292704 31.5962313,84.542011 31.5962313,84.542011 L31.5962313,84.542011 Z M33.3556235,86.2876166 C33.3556235,85.7888504 33.6070748,85.0407772 33.1043256,84.7914702 C32.8530277,85.2900842 32.6015763,86.0383096 33.3556235,86.2876166 L33.3556235,86.2876166 Z" id="Fill-17"></path>
                                    <path d="M36.3719655,85.0407772 C37.8802132,85.5395434 36.8747148,85.0407772 36.3719655,85.7888504 C36.6234169,85.7888504 36.8747148,86.2876166 37.377464,86.0383096 C37.1260127,86.2876166 37.1260127,86.5369236 37.1260127,87.0356898 C36.3719655,87.285149 36.3719655,86.5369236 35.6179184,86.7863828 C35.3666205,86.7863828 36.1206676,86.5369236 36.1206676,86.5369236 C36.1206676,86.0383096 36.3719655,85.7888504 36.3719655,85.0407772" id="Fill-18"></path>
                                    <path d="M42.9073988,87.0356898 C42.9073988,87.285149 42.1531983,87.285149 42.4046496,88.0332222 L41.9019003,88.0332222 C41.9019003,87.285149 42.6559475,86.7863828 42.9073988,87.0356898" id="Fill-19"></path>
                                    <path d="M41.9019003,86.5369236 C41.9019003,87.0356898 41.9019003,88.0332222 41.6506024,88.0332222 L41.6506024,87.285149 C41.3991511,88.0332222 40.1423547,87.783763 39.1370096,87.783763 C39.3883076,87.534456 39.3883076,87.285149 39.8910568,87.0356898 L39.8910568,87.534456 C40.393806,86.5369236 38.8855583,87.0356898 38.1315112,87.0356898 C37.8802132,87.534456 38.6342604,87.0356898 38.3828091,87.534456 C37.6287619,87.783763 37.6287619,87.285149 37.1260127,87.0356898 C37.6287619,86.7863828 37.1260127,86.0383096 37.377464,85.2900842 C37.6287619,85.5395434 38.1315112,85.5395434 38.6342604,85.2900842 C38.6342604,85.5395434 38.6342604,85.7888504 38.8855583,85.7888504 C39.1370096,85.7888504 38.8855583,85.5395434 38.8855583,85.2900842 C39.1370096,85.2900842 39.6396055,85.5395434 39.6396055,85.7888504 C40.645104,85.5395434 41.3991511,85.5395434 42.1531983,85.7888504 C41.9019003,86.2876166 41.9019003,86.0383096 42.1531983,86.5369236 C42.1531983,86.7863828 42.4046496,86.2876166 41.9019003,86.5369236 L41.9019003,86.5369236 Z M40.8964019,86.5369236 C40.8964019,86.2876166 40.645104,86.0383096 40.393806,86.0383096 C40.393806,86.2876166 39.8910568,86.2876166 40.1423547,86.5369236 C40.393806,86.2876166 40.645104,86.2876166 40.8964019,86.5369236 L40.8964019,86.5369236 Z" id="Fill-20"></path>
                                    <path d="M63.2674391,15.7165382 C63.518737,15.7165382 63.518737,16.2153044 63.7701883,15.9658452 L63.7701883,16.4646114 C64.5242355,16.2153044 64.5242355,16.7139184 65.0269847,16.7139184 L65.0269847,17.4621438 C64.5242355,17.2126846 64.7755334,17.7114508 64.5242355,17.7114508 C64.2729376,17.7114508 64.0214862,17.4621438 63.518737,17.4621438 C63.2674391,17.2126846 63.518737,16.7139184 63.2674391,16.7139184 C63.2674391,16.2153044 63.7701883,16.4646114 63.518737,16.2153044 C63.518737,16.2153044 63.2674391,16.2153044 63.2674391,15.7165382" id="Fill-21"></path>
                                </g>
                                <path d="M110.335662,50.5680084 C109.589004,50.5680084 109.589004,50.8174676 108.842497,50.8174676 C109.091434,50.3187014 108.344775,50.5680084 108.344775,50.0692422 C108.09599,50.0692422 108.09599,50.8174676 108.593712,50.5680084 C106.602977,51.5655408 104.363305,52.313614 101.874848,52.562921 C101.874848,52.064307 101.626063,51.8148478 101.128341,51.8148478 C101.128341,52.064307 101.626063,52.313614 101.377126,52.8123802 C99.1376063,53.0616872 96.6491495,54.8072927 94.4094775,54.0592196 C94.1606926,54.0592196 94.4094775,54.3085266 94.1606926,54.5579858 C85.4510936,57.0516645 76.4925577,59.2958841 67.7829587,61.7895628 C67.2852369,61.7895628 67.5341738,61.2907966 67.2852369,61.2907966 C67.036452,61.2907966 67.2852369,61.7895628 67.036452,62.039022 C65.0457169,62.288329 63.5525516,63.0364022 62.0595383,62.7870952 C62.0595383,62.288329 63.0549818,62.7870952 62.806045,62.039022 C63.3037667,62.039022 63.3037667,62.288329 63.5525516,62.288329 C63.8014885,62.288329 63.5525516,61.5402558 64.0502734,61.7895628 C64.0502734,61.5402558 63.8014885,61.0414896 63.8014885,60.5427234 C64.0502734,61.0414896 64.2992102,60.7921826 64.2992102,60.2934165 C64.7967801,60.2934165 65.2945018,60.2934165 65.2945018,60.5427234 C65.5434386,60.5427234 65.2945018,60.2934165 65.5434386,60.0439573 C69.2761239,59.2958841 72.7598724,58.0490447 76.4925577,57.0516645 C77.985723,57.0516645 79.2299514,56.5528983 80.4741798,55.8048251 C81.2206865,56.3034391 82.2159781,55.3060589 83.4602066,55.3060589 C83.7091434,55.8048251 83.2114216,55.5553659 82.9626367,55.8048251 C83.4602066,56.0541321 83.7091434,55.0565997 84.4556501,54.5579858 C84.9533718,54.3085266 85.4510936,54.8072927 85.6998785,54.3085266 C85.6998785,54.5579858 85.4510936,55.0565997 85.9486634,55.0565997 C86.1976002,55.0565997 85.9486634,54.5579858 86.1976002,54.3085266 C89.4325638,53.5604534 92.1698056,52.313614 96.1514277,52.064307 C97.1467193,51.0667746 99.3863913,51.0667746 100.381835,50.3187014 C101.626063,50.8174676 103.367861,49.321169 105.358748,49.321169 C105.358748,50.0692422 106.105255,50.0692422 106.105255,50.5680084 C106.35404,50.0692422 105.109812,49.8199352 105.358748,49.071862 C106.105255,48.8224028 105.856318,49.5706282 106.105255,49.5706282 C106.35404,49.5706282 106.105255,49.071862 106.35404,48.8224028 C107.100699,49.071862 107.847205,48.3237889 107.847205,48.8224028 C109.091434,48.3237889 111.330954,47.5755635 112.575182,47.8250227 C112.824119,47.3262565 112.077461,47.8250227 112.326397,47.3262565 C112.575182,47.3262565 113.321689,47.5755635 113.321689,47.0769495 C115.063639,47.3262565 112.575182,47.3262565 114.565917,46.8274903 C114.814854,47.3262565 114.068348,46.8274903 114.317132,47.3262565 C114.814854,47.3262565 114.814854,46.5781833 115.063639,46.5781833 C118.049818,46.8274903 120.28949,44.3338115 122.52901,45.3313439 C123.026731,45.0818847 123.275516,44.0845045 122.52901,43.8350453 C122.031288,43.8350453 122.777947,44.8325777 122.031288,44.5832707 C122.031288,41.3413666 119.791768,38.8476878 120.538275,35.8553951 C121.035996,35.6059359 120.538275,36.3540091 121.035996,36.3540091 C121.533718,36.1047021 120.78706,35.8553951 120.78706,35.6059359 C121.035996,35.6059359 121.035996,35.6059359 121.035996,35.3566289 C121.035996,35.1071697 120.538275,35.3566289 120.28949,35.1071697 C120.040553,35.1071697 120.28949,35.6059359 120.040553,35.8553951 C118.796324,33.1122571 118.298603,29.371739 117.054374,26.379294 C116.805589,25.8806801 117.303311,25.6312209 117.303311,25.3819139 C117.303311,25.1324547 117.054374,25.3819139 116.805589,25.1324547 C116.059083,22.1401619 115.312576,19.6464832 114.565917,16.6540382 C115.312576,17.1528044 115.063639,15.905965 115.810146,15.905965 C115.312576,15.905965 115.312576,15.6565058 115.063639,15.1577396 C114.814854,15.1577396 115.063639,15.905965 114.814854,16.404579 C113.819411,16.6540382 114.565917,15.4071988 113.819411,15.1577396 C113.819411,14.9084326 114.565917,15.1577396 114.565917,15.1577396 C114.814854,14.9084326 114.565917,14.4096665 115.063639,14.4096665 C114.814854,14.1603595 114.814854,14.1603595 114.565917,13.9109003 C114.068348,13.9109003 114.565917,14.6591256 114.317132,14.4096665 C113.819411,14.4096665 114.317132,14.1603595 114.068348,13.9109003 C113.321689,13.6615933 113.321689,14.4096665 112.823967,14.4096665 C112.823967,14.9084326 113.321689,14.9084326 113.321689,15.4071988 C112.575182,15.905965 111.579739,16.155272 110.833232,16.6540382 C110.335662,16.9033452 110.833232,16.155272 110.335662,16.155272 C110.086725,16.404579 115.561361,15.6565058 114.814854,15.6565058 L114.814854,14.6591256 L114.317132,14.6591256 C114.068348,14.9084326 114.317132,15.6565058 114.068348,15.905965 C108.593712,17.1528044 103.616798,18.8982578 98.1421628,19.8957902 L98.1421628,18.8982578 C97.893226,18.8982578 97.893226,19.147717 97.6444411,19.147717 C97.8933779,19.397024 98.1421628,19.6464832 97.8933779,20.3945563 C88.1883354,22.8882351 78.2345079,25.3819139 68.7784022,28.3743588 C67.2852369,28.1248996 66.2899453,29.6211982 65.2945018,28.6236658 C65.0457169,28.8729728 65.0457169,29.122432 64.7967801,29.371739 C64.0502734,28.8729728 62.806045,29.6211982 62.0595383,29.8705052 L62.0595383,29.122432 L61.3130316,29.122432 C61.5618165,29.6211982 61.5618165,29.371739 61.3130316,29.8705052 C60.8153098,29.371739 60.5665249,30.1198122 59.5710814,29.8705052 C59.3222965,29.8705052 59.5710814,30.3692714 59.3222965,30.6185784 C58.326853,30.1198122 60.0688032,29.371739 59.3222965,29.122432 L59.8198663,29.122432 L59.8198663,28.6236658 C59.3222965,28.6236658 59.5710814,29.122432 59.0733597,28.8729728 C58.8245747,29.122432 58.8245747,29.6211982 58.326853,29.6211982 C58.5756379,29.371739 58.8245747,29.371739 58.8245747,28.8729728 C58.5756379,29.122432 58.078068,29.371739 57.5803463,29.371739 C58.326853,29.371739 57.8291312,30.3692714 58.8245747,30.1198122 L58.8245747,30.8680376 C58.326853,30.6185784 58.326853,29.6211982 57.5803463,29.6211982 C57.5803463,30.1198122 57.0826245,30.3692714 56.8338396,30.6185784 C57.0826245,31.1173446 57.3314095,30.1198122 57.8291312,30.3692714 L57.8291312,30.8680376 C57.3314095,30.8680376 57.0826245,30.8680376 56.8338396,31.1173446 C56.5849028,30.6185784 55.8383961,30.8680376 55.5896112,30.1198122 C55.0918894,30.3692714 55.5896112,30.6185784 55.5896112,30.8680376 C55.3406744,30.6185784 54.8429526,30.1198122 54.8429526,29.371739 C54.3453827,29.122432 54.3453827,29.6211982 54.0964459,29.8705052 C54.3453827,30.1198122 54.3453827,30.3692714 54.8429526,30.3692714 L54.8429526,31.3666516 C55.3406744,31.6161108 54.8429526,30.8680376 55.3406744,31.1173446 C55.5896112,31.6161108 54.8429526,31.1173446 55.0918894,31.6161108 C45.3868469,34.1097895 35.6819563,36.6034683 26.2256987,39.346454 C24.9814702,39.346454 24.2349635,39.8452202 23.2396719,40.0945272 C22.9907351,40.0945272 22.9907351,39.8452202 22.9907351,39.5959132 L22.2442284,39.5959132 C21.9954435,40.0945272 22.7419502,39.8452202 22.4930134,40.3439864 C21.7465067,40.0945272 21,41.0920596 20.5022783,40.3439864 C20.0045565,41.3413666 18.2627582,41.5908258 17.2673147,40.8427526 C17.2673147,41.3413666 17.7650365,41.0920596 17.5160996,41.5908258 C16.769593,41.8401328 17.2673147,40.8427526 16.520808,41.0920596 C16.520808,41.3413666 16.769593,41.3413666 16.769593,41.5908258 C15.7743013,41.8401328 15.7743013,41.3413666 15.0276428,40.3439864 C14.5300729,40.5932934 15.2765796,40.8427526 15.0276428,41.0920596 C14.5300729,41.0920596 15.7743013,42.8376652 15.0276428,42.588206 C15.0276428,42.338899 16.520808,40.8427526 16.2718712,40.5932934 C16.0230863,40.8427526 16.0230863,41.0920596 16.0230863,41.3413666 C15.0276428,41.3413666 14.5300729,41.5908258 13.5346294,41.8401328 C13.5346294,41.5908258 13.7834143,41.5908258 13.7834143,41.3413666 C13.2858445,41.3413666 13.0369077,41.5908258 13.0369077,42.089592 C12.7881227,42.089592 12.7881227,42.089592 12.7881227,41.8401328 C12.5391859,41.8401328 12.7881227,42.089592 12.5391859,42.338899 C12.041616,41.8401328 14.7788578,40.5932934 14.2811361,41.0920596 L14.2811361,40.5932934 C13.7834143,40.5932934 13.7834143,41.0920596 13.5346294,41.3413666 C13.7834143,41.8401328 13.7834143,40.8427526 14.2811361,41.0920596 L14.2811361,41.5908258 C12.7881227,42.338899 12.290401,43.5857383 11.2949575,42.8376652 C10.7973876,42.8376652 11.5438943,43.0869722 11.2949575,43.3364313 C10.5484508,43.5857383 9.55315917,43.5857383 9.05543742,43.8350453 C9.05543742,43.3364313 9.05543742,43.3364313 9.30422236,43.0869722 C8.80650061,42.8376652 8.30893074,42.089592 7.81120899,42.338899 C8.05999392,42.8376652 8.30893074,42.8376652 9.05543742,42.8376652 C8.80650061,43.3364313 8.80650061,43.8350453 8.30893074,44.0845045 C7.81120899,44.0845045 8.05999392,43.5857383 7.81120899,43.5857383 C7.56227217,43.8350453 7.56227217,44.0845045 7.31348724,44.3338115 C6.31804374,44.3338115 5.57153706,44.5832707 4.82503038,44.8325777 C4.82503038,44.5832707 5.07381531,44.0845045 4.57624544,44.0845045 C4.32730863,44.0845045 4.57624544,44.5832707 4.32730863,44.8325777 C4.32730863,45.3313439 4.07852369,44.5832707 4.07852369,44.3338115 C3.33201701,44.5832707 3.33201701,45.3313439 2.33657351,45.0818847 L2.33657351,44.3338115 C1.83885176,44.3338115 2.58535844,45.0818847 1.83885176,44.8325777 L1.83885176,44.3338115 C1.34113001,44.3338115 1.34113001,44.0845045 0.843560146,44.0845045 C0.345838396,44.5832707 0.594623329,45.3313439 0.594623329,46.0794171 L1.09234508,46.0794171 C1.34113001,46.0794171 1.09234508,45.3313439 1.34113001,45.0818847 C1.83885176,44.8325777 1.83885176,45.3313439 2.08778858,45.3313439 C2.08778858,46.3287241 2.33657351,46.8274903 2.33657351,47.5755635 C2.33657351,47.5755635 2.08778858,47.5755635 2.08778858,47.3262565 L1.83885176,47.3262565 C1.83885176,46.8274903 2.33657351,47.0769495 2.08778858,46.5781833 C2.33657351,47.0769495 2.33657351,46.8274903 1.83885176,46.8274903 C1.59006683,46.8274903 1.83885176,47.0769495 1.59006683,47.3262565 L0.843560146,47.3262565 C0.843560146,45.8301101 0.0969015796,45.3313439 0.0969015796,43.8350453 C0.594623329,43.8350453 0.594623329,44.0845045 0.843560146,44.0845045 C1.09234508,44.0845045 0.843560146,43.8350453 1.09234508,43.5857383 C2.08778858,43.8350453 2.58535844,42.8376652 3.33201701,43.5857383 C3.58080194,43.3364313 4.07852369,43.3364313 4.07852369,42.8376652 C4.57624544,42.588206 4.57624544,43.0869722 4.57624544,43.3364313 C4.57624544,42.338899 5.57153706,42.8376652 6.56698056,42.338899 C6.31804374,42.8376652 7.06470231,42.588206 6.81576549,43.3364313 L7.31348724,43.3364313 L7.31348724,42.8376652 C7.31348724,42.338899 6.56698056,42.8376652 6.81576549,42.588206 C7.06470231,42.089592 8.05999392,41.3413666 8.55771567,42.089592 C8.80650061,42.089592 8.55771567,41.8401328 8.80650061,41.5908258 C9.05543742,41.5908258 9.05543742,41.8401328 9.30422236,41.8401328 C10.7973876,40.8427526 13.5346294,40.8427526 15.2765796,40.0945272 L14.2811361,40.5932934 C16.2718712,40.0945272 14.0323512,40.5932934 16.2718712,40.3439864 C16.0230863,41.0920596 16.769593,40.8427526 17.0185298,40.8427526 C17.0185298,40.3439864 16.520808,40.5932934 16.769593,40.0945272 C19.2580498,39.8452202 21.2487849,38.3490738 23.7372418,38.5983808 C23.9861786,38.5983808 23.7372418,38.3490738 23.9861786,38.0996146 C25.7281288,37.6008484 27.7188639,37.1022345 29.4608141,36.6034683 C31.949271,36.3540091 34.188791,35.3566289 36.4284629,34.8578627 C41.9030984,33.6110233 47.377582,32.1148769 52.3544957,30.6185784 C53.847661,30.6185784 54.8429526,29.6211982 56.3361179,30.1198122 C56.5849028,30.1198122 56.3361179,29.8705052 56.5849028,29.6211982 C56.8338396,29.6211982 57.5803463,29.371739 57.3314095,29.8705052 C57.3314095,29.6211982 57.8291312,29.6211982 57.8291312,29.371739 C70.2714156,26.129987 82.7136999,22.6387759 95.404921,19.397024 C95.9024909,19.397024 95.653706,20.1450972 96.1514277,19.8957902 C96.4002126,19.397024 95.653706,19.6464832 95.9024909,19.147717 C98.1421628,18.8982578 100.132898,18.1501846 102.37257,17.6514184 L104.61209,16.9033452 C107.598269,16.6540382 109.589004,15.6565058 112.077461,15.1577396 C111.828676,15.6565058 112.326397,15.6565058 112.575182,15.905965 C113.072904,15.6565058 112.077461,15.6565058 112.326397,15.1577396 C115.561361,14.4096665 112.823967,14.6591256 116.059083,14.1603595 C116.059083,15.4071988 116.805589,16.155272 116.307868,16.9033452 C116.307868,17.1528044 116.556804,16.9033452 116.805589,17.1528044 C116.805589,18.8982578 118.298603,20.6438633 117.552096,22.1401619 C118.298603,22.8882351 118.298603,24.6338407 118.796324,25.6312209 C118.298603,25.6312209 118.547539,25.1324547 118.049818,25.3819139 C119.294046,26.129987 119.791768,27.8755926 119.542831,29.6211982 C120.040553,29.6211982 119.294046,28.6236658 120.040553,28.8729728 C119.791768,30.3692714 121.284781,31.6161108 120.538275,32.8629501 C122.031288,34.6085557 121.533566,38.0996146 123.026731,39.8452202 C123.275516,42.8376652 124.27096,44.5832707 124.768682,47.0769495 C119.045109,48.5730959 119.045109,49.071862 113.570626,50.5680084 L110.335662,50.5680084 L110.335662,50.5680084 Z M62.0595383,29.122432 C62.0595383,29.6211982 62.806045,29.371739 62.806045,29.6211982 C62.55726,29.122432 63.0549818,29.122432 63.0549818,28.8729728 C63.0549818,28.8729728 62.806045,29.371739 62.0595383,29.122432 L62.0595383,29.122432 Z M115.810146,14.9084326 C115.810146,14.4096665 115.561361,14.1603595 115.063639,14.4096665 C115.063639,14.6591256 115.312576,14.9084326 115.810146,14.9084326 L115.810146,14.9084326 Z M115.561361,18.6489508 C115.561361,18.1501846 115.312576,17.9008776 115.063639,17.9008776 C115.063639,17.9008776 115.063639,18.3996438 115.561361,18.6489508 L115.561361,18.6489508 Z M108.593712,17.1528044 C108.842497,16.9033452 109.340219,16.9033452 109.340219,16.6540382 L108.593712,16.6540382 L108.593712,17.1528044 L108.593712,17.1528044 Z M98.6398846,19.147717 C99.3863913,19.397024 99.1376063,18.6489508 99.884113,18.8982578 L99.884113,18.3996438 C99.1376063,18.1501846 98.8886695,18.6489508 98.6398846,19.147717 L98.6398846,19.147717 Z M96.6491495,19.397024 C96.8979344,18.8982578 96.4002126,18.8982578 96.1514277,18.8982578 C96.1514277,19.397024 96.4002126,19.397024 96.6491495,19.397024 L96.6491495,19.397024 Z M117.303311,27.3768264 C117.552096,27.1275194 118.049818,27.1275194 118.049818,26.8780602 L117.552096,26.8780602 C117.801033,27.1275194 117.054374,26.8780602 117.303311,27.3768264 L117.303311,27.3768264 Z M118.049818,29.122432 C118.547539,29.122432 118.298603,28.3743588 118.298603,27.8755926 C117.801033,27.8755926 117.801033,27.8755926 117.552096,27.6261334 C117.552096,28.3743588 118.298603,28.1248996 118.049818,29.122432 L118.049818,29.122432 Z M121.284781,38.5983808 L121.284781,37.8503076 L120.78706,37.8503076 C120.538275,38.3490738 121.035996,38.3490738 121.284781,38.5983808 L121.284781,38.5983808 Z M122.031288,38.5983808 L121.533718,38.5983808 C121.782503,39.346454 121.035996,39.097147 121.035996,39.8452202 C121.284781,39.8452202 121.533718,39.8452202 121.533718,40.0945272 C122.031288,40.0945272 121.782503,39.5959132 122.280225,39.8452202 L122.280225,39.097147 C121.782503,38.8476878 122.280225,39.8452202 121.782503,39.8452202 C121.782503,39.5959132 121.284781,39.5959132 121.284781,39.346454 L121.782503,39.346454 C122.031288,39.097147 122.031288,38.8476878 122.031288,38.5983808 L122.031288,38.5983808 Z M122.031288,42.089592 C122.280225,41.8401328 122.52901,41.5908258 122.52901,41.0920596 C122.280225,41.0920596 122.280225,41.5908258 122.031288,42.089592 L122.031288,42.089592 Z M109.83794,50.3187014 L109.83794,49.8199352 L109.340219,49.8199352 C109.091434,50.3187014 109.340219,50.5680084 109.83794,50.3187014 L109.83794,50.3187014 Z M68.5294654,60.2934165 L69.0271871,60.2934165 C69.0271871,60.0439573 68.7784022,59.7946503 68.5294654,59.7946503 L68.5294654,60.2934165 L68.5294654,60.2934165 Z M66.7876671,61.2907966 L66.7876671,60.5427234 L66.2899453,60.5427234 C66.0410085,61.0414896 66.2899453,61.2907966 66.7876671,61.2907966 L66.7876671,61.2907966 Z M23.9861786,39.346454 C24.4839004,39.5959132 24.7326853,38.5983808 24.2349635,38.8476878 C24.2349635,39.097147 23.9861786,39.097147 23.9861786,39.346454 L23.9861786,39.346454 Z M16.0230863,41.3413666 C16.0230863,41.5908258 15.2765796,41.3413666 15.5253645,41.8401328 C16.2718712,41.8401328 16.520808,41.5908258 16.520808,41.0920596 L16.0230863,41.0920596 L16.0230863,41.3413666 L16.0230863,41.3413666 Z M14.7788578,41.5908258 L14.7788578,41.0920596 L14.2811361,41.0920596 C14.0323512,41.3413666 14.2811361,41.5908258 14.7788578,41.5908258 L14.7788578,41.5908258 Z M10.2996659,43.3364313 C10.5484508,42.8376652 9.80194411,43.0869722 9.55315917,43.0869722 C9.30422236,43.5857383 10.050729,43.3364313 10.2996659,43.3364313 L10.2996659,43.3364313 Z M5.57153706,44.3338115 C5.57153706,43.8350453 5.32275213,43.5857383 5.07381531,43.5857383 C5.32275213,43.5857383 5.07381531,44.3338115 5.57153706,44.3338115 L5.57153706,44.3338115 Z M6.81576549,44.3338115 L6.81576549,43.8350453 L6.31804374,43.8350453 C6.31804374,44.0845045 6.31804374,44.3338115 6.81576549,44.3338115 L6.81576549,44.3338115 Z M3.58080194,45.0818847 C3.58080194,44.5832707 3.33201701,44.3338115 2.83429526,44.3338115 C2.83429526,44.5832707 2.83429526,45.0818847 3.58080194,45.0818847 L3.58080194,45.0818847 Z" id="Fill-23"></path>
                                <path d="M16.769593,75.7542552 C11.2949575,77.0010946 14.2811361,76.0035622 8.80650061,77.2504016 C8.80650061,76.7516354 8.05999392,76.0035622 8.80650061,75.504796 C8.05999392,75.255489 8.05999392,74.5074158 8.05999392,73.5098834 C8.30893074,73.5098834 8.30893074,73.7591904 8.55771567,73.7591904 C8.80650061,73.7591904 8.55771567,73.5098834 8.80650061,73.2605764 C8.80650061,73.0111172 8.30893074,73.2605764 8.05999392,73.0111172 C6.81576549,68.5225259 5.57153706,64.0339346 4.32730863,59.5453433 C4.32730863,59.2958841 4.57624544,59.2958841 4.57624544,59.0465771 C4.07852369,58.5478109 3.33201701,56.5528983 3.82958688,55.8048251 C2.33657351,54.8072927 2.58535844,52.064307 1.59006683,50.5680084 C1.34113001,50.0692422 2.08778858,50.5680084 2.08778858,50.0692422 C2.08778858,49.8199352 1.59006683,50.0692422 1.34113001,49.8199352 C1.34113001,49.071862 1.34113001,48.8224028 1.09234508,48.3237889 C1.59006683,48.8224028 1.59006683,48.3237889 1.83885176,47.8250227 C2.08778858,47.8250227 2.33657351,47.8250227 2.33657351,48.3237889 C2.58535844,48.3237889 2.58535844,48.0743297 2.83429526,48.0743297 L2.83429526,46.8274903 C3.58080194,47.0769495 2.83429526,48.0743297 2.83429526,48.5730959 C3.33201701,48.8224028 2.83429526,48.0743297 3.33201701,48.3237889 C3.82958688,51.3160816 5.57153706,54.3085266 5.07381531,57.3009715 C5.32275213,57.7997377 5.32275213,57.0516645 5.57153706,57.0516645 L5.57153706,59.0465771 C6.81576549,60.7921826 7.31348724,63.0364022 7.56227217,65.530081 C6.81576549,66.0288472 7.06470231,67.5249935 6.31804374,67.7744527 C6.31804374,68.0237597 6.56698056,68.0237597 6.81576549,68.0237597 C6.81576549,67.2756865 7.81120899,67.2756865 7.56227217,66.2781541 C7.56227217,66.0288472 7.81120899,66.2781541 7.81120899,66.5276133 C7.81120899,66.7769203 8.05999392,66.5276133 8.30893074,66.7769203 C8.30893074,68.7718329 9.55315917,70.2681315 9.05543742,72.013737 C9.30422236,72.013737 9.30422236,71.7642778 9.55315917,71.7642778 L9.55315917,72.7618102 C9.30422236,72.7618102 8.80650061,72.512351 8.80650061,73.0111172 C9.05543742,73.5098834 9.55315917,73.0111172 9.80194411,72.7618102 C10.2996659,73.7591904 9.30422236,74.7567228 10.2996659,75.504796 C10.5484508,75.0060298 10.7973876,74.5074158 11.0461725,74.0086496 C11.7926792,73.7591904 11.5438943,74.5074158 12.290401,74.2579566 C12.290401,74.0086496 12.290401,74.0086496 12.041616,74.0086496 C21.4977217,71.2655117 23.4884569,71.5149709 32.6957776,68.7718329 C33.1934994,68.7718329 33.4422843,68.7718329 33.4422843,69.0212921 C33.6910693,69.0212921 33.4422843,68.7718329 33.6910693,68.5225259 C33.9400061,68.5225259 34.188791,68.7718329 34.188791,69.0212921 C34.4377278,68.7718329 33.9400061,68.5225259 34.4377278,68.2732189 C37.6726914,67.7744527 40.65887,66.7769203 43.3961118,66.0288472 C44.1426185,66.0288472 44.8891252,66.0288472 45.138062,65.530081 C45.6357837,66.0288472 46.1333536,65.530081 46.6310753,65.280774 C46.6310753,65.7795402 46.1333536,65.530081 46.3822904,66.0288472 C46.6310753,65.530081 47.6265188,65.530081 47.6265188,64.7820078 C47.8753038,64.7820078 48.1242406,65.280774 48.6218104,65.0313148 C48.8707473,65.0313148 48.6218104,64.7820078 48.8707473,64.5327008 C50.3637606,64.5327008 52.1057108,63.2858614 53.1011543,63.7844754 C53.3499392,63.5351684 53.5987242,63.0364022 54.3453827,63.2858614 C54.3453827,63.5351684 54.0964459,63.5351684 54.0964459,63.7844754 C54.3453827,64.0339346 54.5941677,64.0339346 54.8429526,64.2832416 C55.0918894,64.2832416 54.8429526,63.7844754 55.0918894,63.5351684 C54.8429526,63.5351684 54.8429526,63.5351684 54.8429526,63.7844754 C54.3453827,63.2858614 55.3406744,63.0364022 56.087181,63.0364022 C55.5896112,63.2858614 56.087181,63.5351684 56.5849028,63.5351684 C55.8383961,62.7870952 57.3314095,63.5351684 57.0826245,62.537636 C58.5756379,62.537636 59.5710814,62.039022 60.8153098,61.7895628 C60.8153098,62.039022 60.5665249,62.039022 60.5665249,62.288329 C60.5665249,62.537636 61.0640948,62.288329 61.3130316,62.537636 C61.5618165,62.039022 60.8153098,62.537636 61.0640948,62.039022 C61.3130316,62.039022 61.3130316,62.039022 61.3130316,61.7895628 C61.8107533,61.7895628 61.8107533,62.288329 62.0595383,62.537636 C62.0595383,62.288329 61.5618165,62.288329 61.8107533,62.7870952 C60.8153098,62.7870952 59.8198663,63.2858614 59.5710814,62.288329 C59.0733597,62.537636 58.5756379,62.7870952 58.5756379,63.5351684 C58.326853,63.2858614 57.8291312,63.2858614 57.5803463,63.0364022 C57.5803463,63.5351684 57.5803463,63.5351684 57.3314095,64.5327008 C57.8291312,64.0339346 58.326853,63.5351684 59.0733597,63.2858614 C59.3222965,63.7844754 58.5756379,63.2858614 58.8245747,63.7844754 C59.3222965,64.0339346 58.8245747,63.2858614 59.3222965,63.5351684 C59.0733597,64.0339346 60.0688032,63.5351684 59.8198663,64.0339346 C58.5756379,64.0339346 58.078068,64.7820078 56.5849028,64.5327008 C56.8338396,64.5327008 56.8338396,63.5351684 56.5849028,63.5351684 C56.087181,64.0339346 56.087181,64.7820078 55.8383961,65.0313148 C55.5896112,65.0313148 54.8429526,65.280774 55.0918894,64.7820078 C54.5941677,64.7820078 55.3406744,65.0313148 55.0918894,65.280774 C52.3544957,65.530081 48.8707473,67.2756865 47.377582,66.7769203 C47.1287971,66.7769203 47.377582,67.0263795 47.1287971,67.2756865 C46.1333536,67.2756865 45.138062,68.0237597 44.1426185,67.5249935 C43.8938335,67.5249935 44.1426185,67.7744527 43.8938335,68.0237597 C36.9261847,69.7693653 30.4561057,72.013737 23.2396719,73.2605764 C23.2396719,73.0111172 22.9907351,72.7618102 22.7419502,72.512351 C22.2442284,73.0111172 23.2396719,73.0111172 23.2396719,73.5098834 C21.7465067,73.7591904 20.2534933,74.2579566 19.0092649,74.7567228 L16.769593,75.7542552 L16.769593,75.7542552 Z M5.32275213,58.5478109 C5.57153706,58.5478109 5.82047388,58.5478109 5.82047388,58.0490447 C5.57153706,58.0490447 5.07381531,58.0490447 5.32275213,58.5478109 L5.32275213,58.5478109 Z M1.83885176,49.5706282 L2.33657351,49.5706282 C2.33657351,49.321169 2.58535844,48.8224028 2.08778858,49.071862 C2.33657351,49.5706282 1.59006683,49.071862 1.83885176,49.5706282 L1.83885176,49.5706282 Z M3.58080194,52.8123802 L3.58080194,52.064307 L3.08308019,52.064307 C2.83429526,52.313614 3.08308019,52.562921 3.58080194,52.8123802 L3.58080194,52.8123802 Z M4.57624544,56.5528983 L5.07381531,56.5528983 C5.07381531,56.0541321 4.82503038,55.8048251 4.57624544,55.8048251 L4.57624544,56.5528983 L4.57624544,56.5528983 Z M13.7834143,75.0060298 C14.2811361,75.0060298 14.0323512,74.5074158 14.2811361,74.2579566 L13.7834143,74.2579566 L13.7834143,75.0060298 L13.7834143,75.0060298 Z M11.7926792,76.0035622 C12.290401,76.0035622 12.5391859,75.7542552 12.5391859,75.504796 C12.290401,75.7542552 11.7926792,75.504796 11.7926792,76.0035622 L11.7926792,76.0035622 Z M12.7881227,75.504796 C13.5346294,75.504796 13.5346294,75.0060298 13.5346294,74.2579566 L13.0369077,74.2579566 C12.7881227,74.7567228 12.7881227,75.0060298 12.7881227,75.504796 L12.7881227,75.504796 Z M11.5438943,76.0035622 L12.041616,76.0035622 C12.041616,75.504796 11.7926792,75.504796 11.5438943,75.255489 L11.5438943,76.0035622 L11.5438943,76.0035622 Z" id="Fill-24"></path>
                            </g>
                        </g>
                    </g>
                </g>
            </g>
            <path d="M36.0397393,57.4747413 L19.7117393,57.4747413 L19.7117393,65.1447413 C19.7117393,66.2887413 20.3097393,66.8867413 21.5057393,66.8867413 L34.5577393,66.8867413 C35.1817393,66.8867413 35.7017393,66.7307413 36.0917393,66.4187413 C36.6117393,65.9507413 36.9497393,64.2867413 37.1057393,61.4267413 L38.9257393,61.9987413 C38.6657393,65.2227413 38.2237393,67.1467413 37.5997393,67.8227413 C37.0277393,68.3687413 36.1697393,68.6547413 35.0777393,68.7067413 L20.9857393,68.7067413 C18.8797393,68.7067413 17.8397393,67.6147413 17.8397393,65.4827413 L17.8397393,51.8327413 L19.7117393,51.8327413 L19.7117393,55.6807413 L34.1417393,55.6807413 L34.1417393,48.8947413 L16.7997393,48.8947413 L16.7997393,47.0747413 L36.0397393,47.0747413 L36.0397393,57.4747413 Z M54.5517393,62.4147413 L54.5517393,64.2607413 C53.7457393,64.4687413 52.9657393,64.6507413 52.1857393,64.8327413 L52.1857393,69.5387413 L50.3657393,69.5387413 L50.3657393,65.2487413 C47.6617393,65.8207413 44.8797393,66.3147413 41.9677393,66.7307413 L41.5257393,64.9107413 C42.3057393,64.8067413 43.0857393,64.6767413 43.8657393,64.5727413 L43.8657393,48.4787413 L41.8117393,48.4787413 L41.8117393,46.7107413 L54.1877393,46.7107413 L54.1877393,48.1147413 L64.2497393,48.1147413 L64.2497393,49.8307413 C63.6777393,54.6407413 62.4817393,58.7487413 60.6877393,62.1547413 C61.9357393,64.2867413 63.4957393,66.2627413 65.3417393,68.0567413 L64.0937393,69.4867413 C62.3517393,67.6927413 60.8957393,65.8207413 59.6997393,63.8707413 C58.2957393,66.0547413 56.6317393,67.9267413 54.6817393,69.4607413 L53.4077393,68.0047413 C55.5137393,66.3407413 57.2557393,64.3647413 58.6597393,62.0247413 C56.7357393,58.3327413 55.5917393,54.3027413 55.2277393,49.9347413 L54.1877393,49.9347413 L54.1877393,48.4787413 L52.1857393,48.4787413 L52.1857393,62.9867413 C52.9917393,62.8047413 53.7717393,62.6227413 54.5517393,62.4147413 Z M56.9437393,49.9347413 C57.2557393,53.6787413 58.1657393,57.0847413 59.6477393,60.1787413 C61.0517393,57.2147413 62.0137393,53.8087413 62.4817393,49.9347413 L56.9437393,49.9347413 Z M50.3657393,63.4027413 L50.3657393,59.8667413 L45.6857393,59.8667413 L45.6857393,64.2867413 C47.2717393,64.0267413 48.8317393,63.7147413 50.3657393,63.4027413 Z M45.6857393,58.1767413 L50.3657393,58.1767413 L50.3657393,54.2247413 L45.6857393,54.2247413 L45.6857393,58.1767413 Z M45.6857393,52.5087413 L50.3657393,52.5087413 L50.3657393,48.4787413 L45.6857393,48.4787413 L45.6857393,52.5087413 Z M81.8257393,45.7747413 L83.7497393,45.7747413 L83.7497393,52.8727413 L89.3657393,52.8727413 L89.3657393,66.8087413 C89.3657393,68.5247413 88.5337393,69.3827413 86.9217393,69.3827413 L83.8797393,69.3827413 L83.3857393,67.5627413 L86.2977393,67.6147413 C87.1037393,67.6147413 87.5197393,67.1987413 87.5197393,66.3927413 L87.5197393,63.8447413 L78.1337393,63.8447413 L78.1337393,69.4087413 L76.2617393,69.4087413 L76.2617393,52.8727413 L81.8257393,52.8727413 L81.8257393,45.7747413 Z M78.1337393,59.2687413 L78.1337393,62.2327413 L87.5197393,62.2327413 L87.5197393,59.2687413 L78.1337393,59.2687413 Z M87.5197393,57.6567413 L87.5197393,54.6667413 L78.1337393,54.6667413 L78.1337393,57.6567413 L87.5197393,57.6567413 Z M76.6517393,46.4507413 C77.6397393,47.8027413 78.5757393,49.2847413 79.4857393,50.8967413 L77.9777393,51.6247413 C77.0937393,49.9867413 76.1317393,48.5047413 75.0917393,47.2047413 L76.6517393,46.4507413 Z M88.9497393,46.3207413 L90.4837393,47.0487413 C89.7037393,48.7127413 88.6897393,50.2987413 87.4417393,51.8327413 L85.9597393,51.0787413 C87.2077393,49.4667413 88.2217393,47.8807413 88.9497393,46.3207413 Z M72.3877393,59.1907413 L74.0257393,59.8407413 C72.7257393,63.1687413 71.3217393,66.3147413 69.7617393,69.2527413 L68.0457393,68.4987413 C69.7097393,65.4567413 71.1397393,62.3627413 72.3877393,59.1907413 Z M69.8397393,46.0867413 C71.6337393,47.3867413 73.1417393,48.6867413 74.3637393,49.9867413 L73.0377393,51.3127413 C71.9457393,50.0647413 70.4377393,48.7647413 68.5137393,47.3607413 L69.8397393,46.0867413 Z M69.0857393,52.1967413 C70.8017393,53.4967413 72.2057393,54.7967413 73.3497393,56.0967413 L72.0237393,57.4227413 C70.9837393,56.2007413 69.5797393,54.8747413 67.7597393,53.4707413 L69.0857393,52.1967413 Z" id="已取消" fill="#B0BDC9" transform="translate(53.641739, 57.656741) rotate(-15.000000) translate(-53.641739, -57.656741) "></path>
        </g>
    </g>
</svg>