<?xml version="1.0" encoding="UTF-8"?>
<svg width="54px" height="54px" viewBox="0 0 54 54" version="1.1" xmlns="http://www.w3.org/2000/svg" xmlns:xlink="http://www.w3.org/1999/xlink">
    <!-- Generator: Sketch 49.3 (51167) - http://www.bohemiancoding.com/sketch -->
    <title>Group 2</title>
    <desc>Created with Sketch.</desc>
    <defs></defs>
    <g id="登录页、首页" stroke="none" stroke-width="1" fill="none" fill-rule="evenodd">
        <g id="Group-2" fill="#1D8D70" fill-rule="nonzero">
            <path d="M27,50 C39.7025492,50 50,39.7025492 50,27 C50,14.2974508 39.7025492,4 27,4 C14.2974508,4 4,14.2974508 4,27 C4,39.7025492 14.2974508,50 27,50 Z M34.9884892,22.0340528 L34.9884892,32.4705036 C34.8657074,34.8033573 31.305036,36.6450839 27.0076739,36.6450839 C22.58753,36.6450839 19.1496403,34.8033573 19.0268585,32.4705036 L19.0268585,22.0340528 C19.0268585,21.7884892 19.0268585,21.6657074 19.0268585,21.4201439 C18.781295,18.9645084 22.3419664,17 26.8848921,17 C31.4278177,17 34.9884892,18.9645084 34.9884892,21.4201439 C34.9884892,21.6657074 34.9884892,21.911271 34.9884892,22.0340528 Z M26.8848921,18.4733813 C22.9558753,18.4733813 20.0091127,20.0695444 20.0091127,21.5429257 C20.0091127,23.016307 22.9558753,24.61247 26.8848921,24.61247 C30.8139089,24.61247 33.7606715,23.016307 33.7606715,21.5429257 C33.7606715,20.0695444 30.8139089,18.4733813 26.8848921,18.4733813 Z M33.7606715,23.9985612 C32.2872902,25.2263789 29.7088729,25.9630695 26.7621103,25.9630695 C23.9381295,25.9630695 21.2369305,25.2263789 19.8863309,23.9985612 L19.8863309,24.7352518 C20.2546763,26.3314149 23.4470024,27.5592326 26.8848921,27.5592326 C30.3227818,27.5592326 33.5151079,26.2086331 33.8834532,24.7352518 L33.8834532,23.9985612 L33.7606715,23.9985612 Z M33.7606715,26.822542 C32.4100719,28.0503597 29.7088729,28.7870504 26.7621103,28.7870504 C23.9381295,28.7870504 21.3597122,27.9275779 19.8863309,26.822542 L19.8863309,27.4364508 C20.2546763,29.0326139 23.4470024,30.2604317 26.7621103,30.2604317 C30.2,30.2604317 33.3923261,28.9098321 33.7606715,27.4364508 L33.7606715,26.822542 Z M33.7606715,29.4009592 C32.4100719,30.628777 29.7088729,31.3654676 26.7621103,31.3654676 C23.9381295,31.3654676 21.2369305,30.628777 19.8863309,29.4009592 L19.8863309,30.0148681 C20.2546763,31.6110312 23.4470024,32.8388489 26.7621103,32.8388489 C30.2,32.8388489 33.3923261,31.4882494 33.7606715,30.0148681 L33.7606715,29.4009592 Z M33.7606715,32.4705036 L33.7606715,32.1021583 C32.4100719,33.329976 29.7088729,34.0666667 26.7621103,34.0666667 C23.9381295,34.0666667 21.2369305,33.329976 19.8863309,32.1021583 L19.8863309,32.4705036 C20.1318945,34.0666667 23.3242206,35.4172662 26.8848921,35.4172662 C30.3227818,35.4172662 33.6378897,34.0666667 33.7606715,32.4705036 Z M28.3582734,21.4201439 C28.7266187,21.5429257 28.9721823,21.911271 28.9721823,22.1568345 C28.9721823,22.6479616 28.7266187,22.8935252 28.2354916,23.1390887 C27.8671463,23.2618705 27.498801,23.3846523 27.1304556,23.3846523 L27.1304556,23.8757794 L26.7621103,23.8757794 L26.7621103,23.3846523 C26.2709832,23.3846523 25.7798561,23.2618705 25.5342926,23.1390887 C25.0431655,22.8935252 24.7976019,22.6479616 24.7976019,22.1568345 L25.9026379,22.1568345 C25.9026379,22.4023981 26.0254197,22.5251799 26.0254197,22.6479616 C26.1482014,22.7707434 26.393765,22.8935252 26.6393285,22.8935252 L26.6393285,21.6657074 L26.393765,21.5429257 C25.9026379,21.5429257 25.5342926,21.4201439 25.288729,21.1745803 C25.0431655,21.0517986 24.9203837,20.806235 24.9203837,20.5606715 C24.9203837,20.4378897 24.9203837,20.1923261 25.0431655,20.0695444 C25.1659472,19.9467626 25.288729,19.8239808 25.4115108,19.701199 C25.6570743,19.5784173 25.7798561,19.5784173 26.0254197,19.4556355 C26.2709832,19.4556355 26.393765,19.4556355 26.7621103,19.4556355 L26.7621103,19.0872902 L27.1304556,19.0872902 L27.1304556,19.4556355 C27.498801,19.4556355 27.8671463,19.5784173 28.1127098,19.701199 C28.6038369,19.9467626 28.8494005,20.1923261 28.8494005,20.5606715 L27.7443645,20.5606715 C27.7443645,20.4378897 27.6215827,20.3151079 27.6215827,20.1923261 C27.498801,20.0695444 27.3760192,20.0695444 27.1304556,20.0695444 L27.1304556,21.0517986 C27.7443645,21.1745803 28.2354916,21.2973621 28.3582734,21.4201439 Z M27.1304556,22.7707434 C27.3760192,22.7707434 27.498801,22.7707434 27.6215827,22.6479616 C27.7443645,22.5251799 27.8671463,22.4023981 27.8671463,22.2796163 C27.8671463,22.1568345 27.7443645,22.0340528 27.6215827,21.911271 C27.498801,21.911271 27.3760192,21.7884892 27.1304556,21.7884892 L27.1304556,22.7707434 Z M26.7621103,20.0695444 C26.5165468,20.0695444 26.393765,20.0695444 26.2709832,20.1923261 C26.0254197,20.1923261 26.0254197,20.3151079 26.0254197,20.4378897 C26.0254197,20.5606715 26.1482014,20.6834532 26.2709832,20.806235 C26.393765,20.806235 26.5165468,20.9290168 26.7621103,20.9290168 L26.7621103,20.0695444 Z M27,53.5 C12.3644541,53.5 0.5,41.6355459 0.5,27 C0.5,12.3644541 12.3644541,0.5 27,0.5 C41.6355459,0.5 53.5,12.3644541 53.5,27 C53.5,41.6355459 41.6355459,53.5 27,53.5 Z M27,52.5 C41.0832611,52.5 52.5,41.0832611 52.5,27 C52.5,12.9167389 41.0832611,1.5 27,1.5 C12.9167389,1.5 1.5,12.9167389 1.5,27 C1.5,41.0832611 12.9167389,52.5 27,52.5 Z" id="Shape"></path>
        </g>
    </g>
</svg>