<?xml version="1.0" encoding="UTF-8"?>
<svg width="54px" height="54px" viewBox="0 0 54 54" version="1.1" xmlns="http://www.w3.org/2000/svg" xmlns:xlink="http://www.w3.org/1999/xlink">
    <!-- Generator: Sketch 49.3 (51167) - http://www.bohemiancoding.com/sketch -->
    <title>Group 2</title>
    <desc>Created with Sketch.</desc>
    <defs></defs>
    <g id="登录页、首页" stroke="none" stroke-width="1" fill="none" fill-rule="evenodd">
        <g id="Group-2" fill="#FCC92A" fill-rule="nonzero">
            <g id="未完成盘点任务是否允许开单">
                <path d="M27,50 C39.7025492,50 50,39.7025492 50,27 C50,14.2974508 39.7025492,4 27,4 C14.2974508,4 4,14.2974508 4,27 C4,39.7025492 14.2974508,50 27,50 Z M33.2758315,25.7786202 L26.4340921,33.9881371 L21.4424494,29.7094157 L22.278236,28.7343011 L26.2811326,32.1650607 L32.2882989,24.9555753 L33.2758517,25.7786607 L33.2758315,25.7786202 Z M19.2906202,32.7338809 C19.2906202,34.6939798 20.7504404,36.2889618 22.5454045,36.2889618 L31.454636,36.2889618 C33.2495393,36.2889618 34.7094202,34.6939798 34.7094202,32.7338809 L34.7094202,23.7823191 C34.7094202,22.0445101 33.5609393,20.5964202 32.049809,20.2897933 C32.1323056,20.8880202 32.139809,21.3704 32.139809,21.5123169 L32.7822067,21.5123169 L32.7822067,22.7973551 L21.2178135,22.7973551 L21.2178135,21.5123169 L21.8604539,21.5123169 C21.8604539,21.3703798 21.8677146,20.8880202 21.9504539,20.2897933 C20.4391618,20.5964202 19.2906202,22.0445303 19.2906202,23.7823191 L19.2906202,32.7338809 Z M35.994418,23.7823191 L35.994418,32.7338809 C35.994418,35.4028562 33.9579506,37.5737573 31.4546562,37.5737573 L22.5453843,37.5737573 C20.0420697,37.5737573 18.0056225,35.4028966 18.0056225,32.7338809 L18.0056225,23.7823191 C18.0056225,21.2176831 19.8874517,19.1189438 22.2554629,18.958218 C22.5973213,17.9424517 23.2338944,17.015027 24.4303281,17.015027 L29.5699955,17.015027 C30.766227,17.015027 31.4027596,17.9424517 31.744618,18.958218 C34.1125888,19.1189438 35.9944382,21.2176629 35.9944382,23.7823191 L35.994418,23.7823191 Z M30.8547506,21.5123169 C30.8526674,20.4636449 30.5359281,18.3000652 29.5699753,18.3000652 L24.4303079,18.3000652 C23.4641326,18.3000652 23.1473933,20.4636449 23.1452697,21.5123169 L30.8547506,21.5123169 Z M27,53.5 C12.3644541,53.5 0.5,41.6355459 0.5,27 C0.5,12.3644541 12.3644541,0.5 27,0.5 C41.6355459,0.5 53.5,12.3644541 53.5,27 C53.5,41.6355459 41.6355459,53.5 27,53.5 Z M27,52.5 C41.0832611,52.5 52.5,41.0832611 52.5,27 C52.5,12.9167389 41.0832611,1.5 27,1.5 C12.9167389,1.5 1.5,12.9167389 1.5,27 C1.5,41.0832611 12.9167389,52.5 27,52.5 Z" id="Shape"></path>
            </g>
        </g>
    </g>
</svg>