<?xml version="1.0" encoding="UTF-8"?>
<svg width="54px" height="54px" viewBox="0 0 54 54" version="1.1" xmlns="http://www.w3.org/2000/svg" xmlns:xlink="http://www.w3.org/1999/xlink">
    <!-- Generator: Sketch 49.3 (51167) - http://www.bohemiancoding.com/sketch -->
    <title>Group 2</title>
    <desc>Created with Sketch.</desc>
    <defs></defs>
    <g id="登录页、首页" stroke="none" stroke-width="1" fill="none" fill-rule="evenodd">
        <g id="Group-2" fill="#016DB7">
            <path d="M27,50 C39.7025492,50 50,39.7025492 50,27 C50,14.2974508 39.7025492,4 27,4 C14.2974508,4 4,14.2974508 4,27 C4,39.7025492 14.2974508,50 27,50 Z M31,23 C31,20.794 29.206,19 27,19 C24.794,19 23,20.794 23,23 C23,25.206 24.794,27 27,27 C29.206,27 31,25.206 31,23 L31,23 Z M37,37 L32,37 L32,35 L34.784,35 C33.958,31.214 30.785,29 27,29 C23.215,29 20.042,31.214 19.216,35 L22,35 L22,37 L17,37 C17,32.445 19.583,29.048 23.242,27.673 C21.876,26.574 21,24.89 21,23 C21,19.686 23.686,17 27,17 C30.314,17 33,19.686 33,23 C33,24.89 32.124,26.574 30.758,27.673 C34.417,29.048 37,32.445 37,37 L37,37 Z M29.414,31.757 L30.828,33.172 L27,37 L24.172,34.172 L25.586,32.757 L27,34.172 L29.414,31.757 Z M27,53.5 C12.3644541,53.5 0.5,41.6355459 0.5,27 C0.5,12.3644541 12.3644541,0.5 27,0.5 C41.6355459,0.5 53.5,12.3644541 53.5,27 C53.5,41.6355459 41.6355459,53.5 27,53.5 Z M27,52.5 C41.0832611,52.5 52.5,41.0832611 52.5,27 C52.5,12.9167389 41.0832611,1.5 27,1.5 C12.9167389,1.5 1.5,12.9167389 1.5,27 C1.5,41.0832611 12.9167389,52.5 27,52.5 Z" id="Icon"></path>
        </g>
    </g>
</svg>